%TF.GenerationSoftware,KiCad,Pcbnew,7.0.7*%
%TF.CreationDate,2024-02-22T14:53:51+09:00*%
%TF.ProjectId,SBC4040,53424334-3034-4302-9e6b-696361645f70,rev?*%
%TF.SameCoordinates,Original*%
%TF.FileFunction,Soldermask,Bot*%
%TF.FilePolarity,Negative*%
%FSLAX46Y46*%
G04 Gerber Fmt 4.6, Leading zero omitted, Abs format (unit mm)*
G04 Created by KiCad (PCBNEW 7.0.7) date 2024-02-22 14:53:51*
%MOMM*%
%LPD*%
G01*
G04 APERTURE LIST*
%ADD10C,1.600000*%
%ADD11O,1.600000X1.600000*%
%ADD12R,1.600000X1.600000*%
%ADD13R,1.800000X1.800000*%
%ADD14C,1.800000*%
%ADD15C,10.160000*%
%ADD16C,3.000000*%
%ADD17R,1.440000X2.000000*%
%ADD18O,1.440000X2.000000*%
%ADD19R,2.200000X2.200000*%
%ADD20O,2.200000X2.200000*%
%ADD21C,1.500000*%
%ADD22R,1.700000X1.700000*%
%ADD23O,1.700000X1.700000*%
%ADD24C,2.000000*%
G04 APERTURE END LIST*
D10*
%TO.C,R21*%
X27940000Y-25400000D03*
D11*
X27940000Y-17780000D03*
%TD*%
D10*
%TO.C,R15*%
X160020000Y-10160000D03*
D11*
X152400000Y-10160000D03*
%TD*%
D12*
%TO.C,U15*%
X35560000Y-25400000D03*
D11*
X38100000Y-25400000D03*
X40640000Y-25400000D03*
X43180000Y-25400000D03*
X45720000Y-25400000D03*
X48260000Y-25400000D03*
X50800000Y-25400000D03*
X53340000Y-25400000D03*
X53340000Y-17780000D03*
X50800000Y-17780000D03*
X48260000Y-17780000D03*
X45720000Y-17780000D03*
X43180000Y-17780000D03*
X40640000Y-17780000D03*
X38100000Y-17780000D03*
X35560000Y-17780000D03*
%TD*%
D12*
%TO.C,C26*%
X27940000Y-60960000D03*
D10*
X30440000Y-60960000D03*
%TD*%
D12*
%TO.C,U3*%
X81280000Y-12700000D03*
D11*
X83820000Y-12700000D03*
X86360000Y-12700000D03*
X88900000Y-12700000D03*
X91440000Y-12700000D03*
X93980000Y-12700000D03*
X96520000Y-12700000D03*
X96520000Y-5080000D03*
X93980000Y-5080000D03*
X91440000Y-5080000D03*
X88900000Y-5080000D03*
X86360000Y-5080000D03*
X83820000Y-5080000D03*
X81280000Y-5080000D03*
%TD*%
D10*
%TO.C,R1*%
X139700000Y-68580000D03*
D11*
X139700000Y-60960000D03*
%TD*%
D13*
%TO.C,D10*%
X142240000Y-20320000D03*
D14*
X142240000Y-17780000D03*
%TD*%
D10*
%TO.C,R29*%
X160020000Y-60960000D03*
D11*
X160020000Y-68580000D03*
%TD*%
D12*
%TO.C,U12*%
X15240000Y-12700000D03*
D11*
X17780000Y-12700000D03*
X20320000Y-12700000D03*
X22860000Y-12700000D03*
X25400000Y-12700000D03*
X27940000Y-12700000D03*
X30480000Y-12700000D03*
X30480000Y-5080000D03*
X27940000Y-5080000D03*
X25400000Y-5080000D03*
X22860000Y-5080000D03*
X20320000Y-5080000D03*
X17780000Y-5080000D03*
X15240000Y-5080000D03*
%TD*%
D13*
%TO.C,D38*%
X33020000Y-96520000D03*
D14*
X33020000Y-93980000D03*
%TD*%
D10*
%TO.C,R11*%
X185420000Y-40640000D03*
D11*
X177800000Y-40640000D03*
%TD*%
D10*
%TO.C,C21*%
X53340000Y-99060000D03*
X53340000Y-94060000D03*
%TD*%
%TO.C,R33*%
X48260000Y-101600000D03*
D11*
X48260000Y-93980000D03*
%TD*%
D12*
%TO.C,D27*%
X162509032Y-71120000D03*
D11*
X162509032Y-73660000D03*
%TD*%
D15*
%TO.C,J5*%
X12700000Y-78740000D03*
%TD*%
D16*
%TO.C,H3*%
X5000000Y-122000000D03*
%TD*%
D10*
%TO.C,R24*%
X147320000Y-60960000D03*
D11*
X147320000Y-68580000D03*
%TD*%
D17*
%TO.C,U5*%
X58420000Y-55880000D03*
D18*
X60960000Y-55880000D03*
X63500000Y-55880000D03*
X66040000Y-55880000D03*
X68580000Y-55880000D03*
X71120000Y-55880000D03*
X73660000Y-55880000D03*
X76200000Y-55880000D03*
X78740000Y-55880000D03*
X81280000Y-55880000D03*
X83820000Y-55880000D03*
X86360000Y-55880000D03*
X86360000Y-40640000D03*
X83820000Y-40640000D03*
X81280000Y-40640000D03*
X78740000Y-40640000D03*
X76200000Y-40640000D03*
X73660000Y-40640000D03*
X71120000Y-40640000D03*
X68580000Y-40640000D03*
X66040000Y-40640000D03*
X63500000Y-40640000D03*
X60960000Y-40640000D03*
X58420000Y-40640000D03*
%TD*%
D10*
%TO.C,R31*%
X165100000Y-60960000D03*
D11*
X165100000Y-68580000D03*
%TD*%
D13*
%TO.C,D3*%
X137160000Y-43180000D03*
D14*
X137160000Y-40640000D03*
%TD*%
D10*
%TO.C,C13*%
X15240000Y-15240000D03*
X10240000Y-15240000D03*
%TD*%
%TO.C,C10*%
X35480000Y-33020000D03*
X30480000Y-33020000D03*
%TD*%
D15*
%TO.C,J4*%
X12700000Y-63500000D03*
%TD*%
D12*
%TO.C,D23*%
X152349032Y-71120000D03*
D11*
X152349032Y-73660000D03*
%TD*%
D10*
%TO.C,R27*%
X154940000Y-60960000D03*
D11*
X154940000Y-68580000D03*
%TD*%
D19*
%TO.C,D36*%
X22860000Y-68580000D03*
D20*
X22860000Y-76200000D03*
%TD*%
D12*
%TO.C,D1*%
X139700000Y-71120000D03*
D11*
X139700000Y-78740000D03*
%TD*%
D12*
%TO.C,U2*%
X116840000Y-68580000D03*
D11*
X119380000Y-68580000D03*
X121920000Y-68580000D03*
X124460000Y-68580000D03*
X127000000Y-68580000D03*
X129540000Y-68580000D03*
X132080000Y-68580000D03*
X132080000Y-60960000D03*
X129540000Y-60960000D03*
X127000000Y-60960000D03*
X124460000Y-60960000D03*
X121920000Y-60960000D03*
X119380000Y-60960000D03*
X116840000Y-60960000D03*
%TD*%
D12*
%TO.C,U18*%
X144780000Y-93980000D03*
D11*
X147320000Y-93980000D03*
X149860000Y-93980000D03*
X152400000Y-93980000D03*
X154940000Y-93980000D03*
X157480000Y-93980000D03*
X160020000Y-93980000D03*
X162560000Y-93980000D03*
X165100000Y-93980000D03*
X167640000Y-93980000D03*
X170180000Y-93980000D03*
X172720000Y-93980000D03*
X175260000Y-93980000D03*
X177800000Y-93980000D03*
X180340000Y-93980000D03*
X182880000Y-93980000D03*
X182880000Y-78740000D03*
X180340000Y-78740000D03*
X177800000Y-78740000D03*
X175260000Y-78740000D03*
X172720000Y-78740000D03*
X170180000Y-78740000D03*
X167640000Y-78740000D03*
X165100000Y-78740000D03*
X162560000Y-78740000D03*
X160020000Y-78740000D03*
X157480000Y-78740000D03*
X154940000Y-78740000D03*
X152400000Y-78740000D03*
X149860000Y-78740000D03*
X147320000Y-78740000D03*
X144780000Y-78740000D03*
%TD*%
D13*
%TO.C,D20*%
X116840000Y-10160000D03*
D14*
X116840000Y-7620000D03*
%TD*%
D13*
%TO.C,D13*%
X127000000Y-20320000D03*
D14*
X127000000Y-17780000D03*
%TD*%
D12*
%TO.C,U1*%
X152400000Y-20320000D03*
D11*
X154940000Y-20320000D03*
X157480000Y-20320000D03*
X160020000Y-20320000D03*
X162560000Y-20320000D03*
X165100000Y-20320000D03*
X167640000Y-20320000D03*
X167640000Y-12700000D03*
X165100000Y-12700000D03*
X162560000Y-12700000D03*
X160020000Y-12700000D03*
X157480000Y-12700000D03*
X154940000Y-12700000D03*
X152400000Y-12700000D03*
%TD*%
D12*
%TO.C,U7*%
X127000000Y-55880000D03*
D11*
X129540000Y-55880000D03*
X132080000Y-55880000D03*
X134620000Y-55880000D03*
X137160000Y-55880000D03*
X139700000Y-55880000D03*
X142240000Y-55880000D03*
X144780000Y-55880000D03*
X144780000Y-48260000D03*
X142240000Y-48260000D03*
X139700000Y-48260000D03*
X137160000Y-48260000D03*
X134620000Y-48260000D03*
X132080000Y-48260000D03*
X129540000Y-48260000D03*
X127000000Y-48260000D03*
%TD*%
D13*
%TO.C,D37*%
X22860000Y-96520000D03*
D14*
X22860000Y-93980000D03*
%TD*%
D10*
%TO.C,R40*%
X25400000Y-83820000D03*
D11*
X25400000Y-91440000D03*
%TD*%
D10*
%TO.C,R37*%
X114300000Y-111760000D03*
D11*
X121920000Y-111760000D03*
%TD*%
D10*
%TO.C,C17*%
X97790000Y-54530000D03*
X97790000Y-49530000D03*
%TD*%
D12*
%TO.C,D26*%
X159894516Y-71120000D03*
D11*
X159894516Y-73660000D03*
%TD*%
D10*
%TO.C,R8*%
X177800000Y-66040000D03*
D11*
X170180000Y-66040000D03*
%TD*%
D12*
%TO.C,D25*%
X157480000Y-71120000D03*
D11*
X157480000Y-73660000D03*
%TD*%
D10*
%TO.C,R38*%
X114300000Y-109220000D03*
D11*
X121920000Y-109220000D03*
%TD*%
D12*
%TO.C,D24*%
X154889032Y-71120000D03*
D11*
X154889032Y-73660000D03*
%TD*%
D21*
%TO.C,Y1*%
X17780000Y-20320000D03*
X22660000Y-20320000D03*
%TD*%
D12*
%TO.C,D18*%
X170180000Y-60960000D03*
D11*
X177800000Y-60960000D03*
%TD*%
D10*
%TO.C,R12*%
X160020000Y-7620000D03*
D11*
X152400000Y-7620000D03*
%TD*%
D22*
%TO.C,J3*%
X52070000Y-102870000D03*
D23*
X52070000Y-105410000D03*
%TD*%
D10*
%TO.C,R28*%
X157480000Y-60960000D03*
D11*
X157480000Y-68580000D03*
%TD*%
D10*
%TO.C,R41*%
X22860000Y-83820000D03*
D11*
X22860000Y-91440000D03*
%TD*%
D10*
%TO.C,R3*%
X160020000Y-40640000D03*
D11*
X152400000Y-40640000D03*
%TD*%
D10*
%TO.C,C5*%
X113030000Y-67310000D03*
X113030000Y-62310000D03*
%TD*%
D12*
%TO.C,U14*%
X17780000Y-40640000D03*
D11*
X20320000Y-40640000D03*
X22860000Y-40640000D03*
X25400000Y-40640000D03*
X25400000Y-33020000D03*
X22860000Y-33020000D03*
X20320000Y-33020000D03*
X17780000Y-33020000D03*
%TD*%
D10*
%TO.C,R17*%
X35560000Y-27940000D03*
D11*
X27940000Y-27940000D03*
%TD*%
D12*
%TO.C,D22*%
X149860000Y-71120000D03*
D11*
X149860000Y-73660000D03*
%TD*%
D10*
%TO.C,R14*%
X137160000Y-7620000D03*
D11*
X129540000Y-7620000D03*
%TD*%
D10*
%TO.C,R7*%
X170180000Y-63500000D03*
D11*
X177800000Y-63500000D03*
%TD*%
D10*
%TO.C,C16*%
X97790000Y-31670000D03*
X97790000Y-26670000D03*
%TD*%
D12*
%TO.C,D28*%
X165049032Y-71120000D03*
D11*
X165049032Y-73660000D03*
%TD*%
D10*
%TO.C,C2*%
X165100000Y-38100000D03*
X170100000Y-38100000D03*
%TD*%
D12*
%TO.C,D32*%
X124460000Y-109220000D03*
D11*
X127000000Y-109220000D03*
%TD*%
D10*
%TO.C,R5*%
X165100000Y-35560000D03*
D11*
X172720000Y-35560000D03*
%TD*%
D14*
%TO.C,SW4*%
X27940000Y-114300000D03*
X27940000Y-104140000D03*
D13*
X25400000Y-111760000D03*
D14*
X25400000Y-109260000D03*
X25400000Y-106760000D03*
X30480000Y-111760000D03*
X30480000Y-109260000D03*
X30480000Y-106760000D03*
%TD*%
D10*
%TO.C,C18*%
X123190000Y-31670000D03*
X123190000Y-26670000D03*
%TD*%
D17*
%TO.C,U22*%
X53340000Y-83820000D03*
D18*
X55880000Y-83820000D03*
X58420000Y-83820000D03*
X60960000Y-83820000D03*
X63500000Y-83820000D03*
X66040000Y-83820000D03*
X68580000Y-83820000D03*
X71120000Y-83820000D03*
X73660000Y-83820000D03*
X76200000Y-83820000D03*
X78740000Y-83820000D03*
X81280000Y-83820000D03*
X83820000Y-83820000D03*
X86360000Y-83820000D03*
X88900000Y-83820000D03*
X91440000Y-83820000D03*
X93980000Y-83820000D03*
X96520000Y-83820000D03*
X99060000Y-83820000D03*
X101600000Y-83820000D03*
X101600000Y-68580000D03*
X99060000Y-68580000D03*
X96520000Y-68580000D03*
X93980000Y-68580000D03*
X91440000Y-68580000D03*
X88900000Y-68580000D03*
X86360000Y-68580000D03*
X83820000Y-68580000D03*
X81280000Y-68580000D03*
X78740000Y-68580000D03*
X76200000Y-68580000D03*
X73660000Y-68580000D03*
X71120000Y-68580000D03*
X68580000Y-68580000D03*
X66040000Y-68580000D03*
X63500000Y-68580000D03*
X60960000Y-68580000D03*
X58420000Y-68580000D03*
X55880000Y-68580000D03*
X53340000Y-68580000D03*
%TD*%
D10*
%TO.C,R18*%
X33020000Y-43180000D03*
D11*
X40640000Y-43180000D03*
%TD*%
D12*
%TO.C,U9*%
X127000000Y-33020000D03*
D11*
X129540000Y-33020000D03*
X132080000Y-33020000D03*
X134620000Y-33020000D03*
X137160000Y-33020000D03*
X139700000Y-33020000D03*
X142240000Y-33020000D03*
X144780000Y-33020000D03*
X144780000Y-25400000D03*
X142240000Y-25400000D03*
X139700000Y-25400000D03*
X137160000Y-25400000D03*
X134620000Y-25400000D03*
X132080000Y-25400000D03*
X129540000Y-25400000D03*
X127000000Y-25400000D03*
%TD*%
D10*
%TO.C,C1*%
X152400000Y-38100000D03*
X157400000Y-38100000D03*
%TD*%
%TO.C,R13*%
X104140000Y-10160000D03*
D11*
X111760000Y-10160000D03*
%TD*%
D10*
%TO.C,R4*%
X104140000Y-5080000D03*
D11*
X111760000Y-5080000D03*
%TD*%
D12*
%TO.C,U10*%
X101600000Y-33020000D03*
D11*
X104140000Y-33020000D03*
X106680000Y-33020000D03*
X109220000Y-33020000D03*
X111760000Y-33020000D03*
X114300000Y-33020000D03*
X116840000Y-33020000D03*
X119380000Y-33020000D03*
X119380000Y-25400000D03*
X116840000Y-25400000D03*
X114300000Y-25400000D03*
X111760000Y-25400000D03*
X109220000Y-25400000D03*
X106680000Y-25400000D03*
X104140000Y-25400000D03*
X101600000Y-25400000D03*
%TD*%
D10*
%TO.C,C12*%
X17860000Y-15240000D03*
X22860000Y-15240000D03*
%TD*%
D17*
%TO.C,U16*%
X66040000Y-114300000D03*
D18*
X68580000Y-114300000D03*
X71120000Y-114300000D03*
X73660000Y-114300000D03*
X76200000Y-114300000D03*
X78740000Y-114300000D03*
X81280000Y-114300000D03*
X83820000Y-114300000D03*
X86360000Y-114300000D03*
X88900000Y-114300000D03*
X91440000Y-114300000D03*
X93980000Y-114300000D03*
X96520000Y-114300000D03*
X99060000Y-114300000D03*
X99060000Y-99060000D03*
X96520000Y-99060000D03*
X93980000Y-99060000D03*
X91440000Y-99060000D03*
X88900000Y-99060000D03*
X86360000Y-99060000D03*
X83820000Y-99060000D03*
X81280000Y-99060000D03*
X78740000Y-99060000D03*
X76200000Y-99060000D03*
X73660000Y-99060000D03*
X71120000Y-99060000D03*
X68580000Y-99060000D03*
X66040000Y-99060000D03*
%TD*%
D10*
%TO.C,C4*%
X148590000Y-13970000D03*
X148590000Y-18970000D03*
%TD*%
D12*
%TO.C,RN1*%
X127000000Y-38100000D03*
D11*
X129540000Y-38100000D03*
X132080000Y-38100000D03*
X134620000Y-38100000D03*
X137160000Y-38100000D03*
%TD*%
D10*
%TO.C,R36*%
X114300000Y-114300000D03*
D11*
X121920000Y-114300000D03*
%TD*%
D16*
%TO.C,H1*%
X5000000Y-5000000D03*
%TD*%
D12*
%TO.C,U13*%
X38100000Y-12700000D03*
D11*
X40640000Y-12700000D03*
X43180000Y-12700000D03*
X45720000Y-12700000D03*
X48260000Y-12700000D03*
X50800000Y-12700000D03*
X53340000Y-12700000D03*
X53340000Y-5080000D03*
X50800000Y-5080000D03*
X48260000Y-5080000D03*
X45720000Y-5080000D03*
X43180000Y-5080000D03*
X40640000Y-5080000D03*
X38100000Y-5080000D03*
%TD*%
D13*
%TO.C,D9*%
X101600000Y-43180000D03*
D14*
X101600000Y-40640000D03*
%TD*%
D12*
%TO.C,RN2*%
X101600000Y-38100000D03*
D11*
X104140000Y-38100000D03*
X106680000Y-38100000D03*
X109220000Y-38100000D03*
X111760000Y-38100000D03*
%TD*%
D19*
%TO.C,D35*%
X22860000Y-53340000D03*
D20*
X22860000Y-60960000D03*
%TD*%
D12*
%TO.C,RN4*%
X101600000Y-15240000D03*
D11*
X104140000Y-15240000D03*
X106680000Y-15240000D03*
X109220000Y-15240000D03*
X111760000Y-15240000D03*
%TD*%
D13*
%TO.C,D12*%
X132080000Y-20320000D03*
D14*
X132080000Y-17780000D03*
%TD*%
D22*
%TO.C,J2*%
X163830000Y-7620000D03*
D23*
X166370000Y-7620000D03*
X168910000Y-7620000D03*
X171450000Y-7620000D03*
%TD*%
D10*
%TO.C,C8*%
X17780000Y-30480000D03*
X22780000Y-30480000D03*
%TD*%
D12*
%TO.C,D33*%
X137160000Y-71120000D03*
D11*
X137160000Y-78740000D03*
%TD*%
D12*
%TO.C,RN6*%
X170180000Y-73660000D03*
D11*
X172720000Y-73660000D03*
X175260000Y-73660000D03*
X177800000Y-73660000D03*
X180340000Y-73660000D03*
%TD*%
D13*
%TO.C,D34*%
X27940000Y-96520000D03*
D14*
X27940000Y-93980000D03*
%TD*%
D24*
%TO.C,SW1*%
X158900000Y-50800000D03*
X152400000Y-50800000D03*
X158900000Y-46300000D03*
X152400000Y-46300000D03*
%TD*%
D10*
%TO.C,R9*%
X142240000Y-60960000D03*
D11*
X142240000Y-68580000D03*
%TD*%
D17*
%TO.C,U6*%
X68580000Y-27940000D03*
D18*
X71120000Y-27940000D03*
X73660000Y-27940000D03*
X76200000Y-27940000D03*
X78740000Y-27940000D03*
X81280000Y-27940000D03*
X83820000Y-27940000D03*
X86360000Y-27940000D03*
X86360000Y-20320000D03*
X83820000Y-20320000D03*
X81280000Y-20320000D03*
X78740000Y-20320000D03*
X76200000Y-20320000D03*
X73660000Y-20320000D03*
X71120000Y-20320000D03*
X68580000Y-20320000D03*
%TD*%
D10*
%TO.C,R35*%
X114300000Y-116840000D03*
D11*
X121920000Y-116840000D03*
%TD*%
D10*
%TO.C,R32*%
X45720000Y-111760000D03*
D11*
X45720000Y-104140000D03*
%TD*%
D10*
%TO.C,C24*%
X40640000Y-71120000D03*
X40640000Y-66120000D03*
%TD*%
D12*
%TO.C,U17*%
X144780000Y-111760000D03*
D11*
X147320000Y-111760000D03*
X149860000Y-111760000D03*
X152400000Y-111760000D03*
X154940000Y-111760000D03*
X157480000Y-111760000D03*
X160020000Y-111760000D03*
X162560000Y-111760000D03*
X165100000Y-111760000D03*
X167640000Y-111760000D03*
X170180000Y-111760000D03*
X172720000Y-111760000D03*
X175260000Y-111760000D03*
X177800000Y-111760000D03*
X180340000Y-111760000D03*
X182880000Y-111760000D03*
X182880000Y-96520000D03*
X180340000Y-96520000D03*
X177800000Y-96520000D03*
X175260000Y-96520000D03*
X172720000Y-96520000D03*
X170180000Y-96520000D03*
X167640000Y-96520000D03*
X165100000Y-96520000D03*
X162560000Y-96520000D03*
X160020000Y-96520000D03*
X157480000Y-96520000D03*
X154940000Y-96520000D03*
X152400000Y-96520000D03*
X149860000Y-96520000D03*
X147320000Y-96520000D03*
X144780000Y-96520000D03*
%TD*%
D10*
%TO.C,R23*%
X40640000Y-38100000D03*
D11*
X33020000Y-38100000D03*
%TD*%
D10*
%TO.C,C23*%
X140970000Y-101600000D03*
X140970000Y-106600000D03*
%TD*%
%TO.C,C22*%
X140970000Y-83900000D03*
X140970000Y-88900000D03*
%TD*%
D13*
%TO.C,D15*%
X111760000Y-20320000D03*
D14*
X111760000Y-17780000D03*
%TD*%
D10*
%TO.C,R16*%
X129540000Y-10160000D03*
D11*
X137160000Y-10160000D03*
%TD*%
D10*
%TO.C,R42*%
X38100000Y-101600000D03*
D11*
X38100000Y-93980000D03*
%TD*%
D10*
%TO.C,C6*%
X177800000Y-38100000D03*
X182800000Y-38100000D03*
%TD*%
D16*
%TO.C,H4*%
X185500000Y-122000000D03*
%TD*%
D13*
%TO.C,D5*%
X127000000Y-43180000D03*
D14*
X127000000Y-40640000D03*
%TD*%
D13*
%TO.C,D8*%
X106680000Y-43180000D03*
D14*
X106680000Y-40640000D03*
%TD*%
D13*
%TO.C,D14*%
X116840000Y-20320000D03*
D14*
X116840000Y-17780000D03*
%TD*%
D10*
%TO.C,C20*%
X111760000Y-76200000D03*
X111760000Y-71200000D03*
%TD*%
D13*
%TO.C,D4*%
X132080000Y-43180000D03*
D14*
X132080000Y-40640000D03*
%TD*%
D10*
%TO.C,C3*%
X175260000Y-68580000D03*
X170260000Y-68580000D03*
%TD*%
%TO.C,R26*%
X152400000Y-60960000D03*
D11*
X152400000Y-68580000D03*
%TD*%
D10*
%TO.C,R19*%
X33020000Y-40640000D03*
D11*
X40640000Y-40640000D03*
%TD*%
D12*
%TO.C,U11*%
X60955000Y-12700000D03*
D11*
X63495000Y-12700000D03*
X66035000Y-12700000D03*
X68575000Y-12700000D03*
X71115000Y-12700000D03*
X73655000Y-12700000D03*
X76195000Y-12700000D03*
X76195000Y-5080000D03*
X73655000Y-5080000D03*
X71115000Y-5080000D03*
X68575000Y-5080000D03*
X66035000Y-5080000D03*
X63495000Y-5080000D03*
X60955000Y-5080000D03*
%TD*%
D16*
%TO.C,H2*%
X185500000Y-5000000D03*
%TD*%
D12*
%TO.C,RN5*%
X170180000Y-76200000D03*
D11*
X172720000Y-76200000D03*
X175260000Y-76200000D03*
X177800000Y-76200000D03*
X180340000Y-76200000D03*
%TD*%
D10*
%TO.C,R34*%
X45720000Y-93980000D03*
D11*
X45720000Y-101600000D03*
%TD*%
D10*
%TO.C,C9*%
X35480000Y-30480000D03*
X30480000Y-30480000D03*
%TD*%
%TO.C,R20*%
X12700000Y-17780000D03*
D11*
X12700000Y-25400000D03*
%TD*%
D12*
%TO.C,U21*%
X114300000Y-106680000D03*
D11*
X116840000Y-106680000D03*
X119380000Y-106680000D03*
X121920000Y-106680000D03*
X124460000Y-106680000D03*
X127000000Y-106680000D03*
X129540000Y-106680000D03*
X132080000Y-106680000D03*
X134620000Y-106680000D03*
X137160000Y-106680000D03*
X137160000Y-99060000D03*
X134620000Y-99060000D03*
X132080000Y-99060000D03*
X129540000Y-99060000D03*
X127000000Y-99060000D03*
X124460000Y-99060000D03*
X121920000Y-99060000D03*
X119380000Y-99060000D03*
X116840000Y-99060000D03*
X114300000Y-99060000D03*
%TD*%
D12*
%TO.C,U19*%
X116840000Y-93980000D03*
D11*
X119380000Y-93980000D03*
X121920000Y-93980000D03*
X124460000Y-93980000D03*
X127000000Y-93980000D03*
X129540000Y-93980000D03*
X132080000Y-93980000D03*
X132080000Y-86360000D03*
X129540000Y-86360000D03*
X127000000Y-86360000D03*
X124460000Y-86360000D03*
X121920000Y-86360000D03*
X119380000Y-86360000D03*
X116840000Y-86360000D03*
%TD*%
D10*
%TO.C,R30*%
X162560000Y-60960000D03*
D11*
X162560000Y-68580000D03*
%TD*%
D12*
%TO.C,U4*%
X152400000Y-33020000D03*
D11*
X154940000Y-33020000D03*
X157480000Y-33020000D03*
X160020000Y-33020000D03*
X162560000Y-33020000D03*
X165100000Y-33020000D03*
X167640000Y-33020000D03*
X167640000Y-25400000D03*
X165100000Y-25400000D03*
X162560000Y-25400000D03*
X160020000Y-25400000D03*
X157480000Y-25400000D03*
X154940000Y-25400000D03*
X152400000Y-25400000D03*
%TD*%
D10*
%TO.C,R10*%
X111760000Y-7620000D03*
D11*
X104140000Y-7620000D03*
%TD*%
D13*
%TO.C,D17*%
X101600000Y-20320000D03*
D14*
X101600000Y-17780000D03*
%TD*%
D13*
%TO.C,D11*%
X137160000Y-20320000D03*
D14*
X137160000Y-17780000D03*
%TD*%
D13*
%TO.C,D2*%
X142240000Y-43180000D03*
D14*
X142240000Y-40640000D03*
%TD*%
D10*
%TO.C,R6*%
X172720000Y-40640000D03*
D11*
X165100000Y-40640000D03*
%TD*%
D12*
%TO.C,U20*%
X116840000Y-81280000D03*
D11*
X119380000Y-81280000D03*
X121920000Y-81280000D03*
X124460000Y-81280000D03*
X127000000Y-81280000D03*
X129540000Y-81280000D03*
X132080000Y-81280000D03*
X132080000Y-73660000D03*
X129540000Y-73660000D03*
X127000000Y-73660000D03*
X124460000Y-73660000D03*
X121920000Y-73660000D03*
X119380000Y-73660000D03*
X116840000Y-73660000D03*
%TD*%
D12*
%TO.C,D31*%
X124460000Y-111760000D03*
D11*
X127000000Y-111760000D03*
%TD*%
D15*
%TO.C,J6*%
X12700000Y-93980000D03*
%TD*%
D10*
%TO.C,C14*%
X110490000Y-100330000D03*
X110490000Y-105330000D03*
%TD*%
D12*
%TO.C,D30*%
X124460000Y-114300000D03*
D11*
X127000000Y-114300000D03*
%TD*%
D10*
%TO.C,R25*%
X149860000Y-60960000D03*
D11*
X149860000Y-68580000D03*
%TD*%
D24*
%TO.C,SW2*%
X171600000Y-50800000D03*
X165100000Y-50800000D03*
X171600000Y-46300000D03*
X165100000Y-46300000D03*
%TD*%
D10*
%TO.C,C11*%
X17780000Y-43180000D03*
X22780000Y-43180000D03*
%TD*%
D12*
%TO.C,U8*%
X101600000Y-55880000D03*
D11*
X104140000Y-55880000D03*
X106680000Y-55880000D03*
X109220000Y-55880000D03*
X111760000Y-55880000D03*
X114300000Y-55880000D03*
X116840000Y-55880000D03*
X119380000Y-55880000D03*
X119380000Y-48260000D03*
X116840000Y-48260000D03*
X114300000Y-48260000D03*
X111760000Y-48260000D03*
X109220000Y-48260000D03*
X106680000Y-48260000D03*
X104140000Y-48260000D03*
X101600000Y-48260000D03*
%TD*%
D10*
%TO.C,C19*%
X123190000Y-54530000D03*
X123190000Y-49530000D03*
%TD*%
D12*
%TO.C,D21*%
X147320000Y-71120000D03*
D11*
X147320000Y-73660000D03*
%TD*%
D10*
%TO.C,C15*%
X45720000Y-45720000D03*
X45720000Y-40720000D03*
%TD*%
%TO.C,R2*%
X177800000Y-35560000D03*
D11*
X185420000Y-35560000D03*
%TD*%
D22*
%TO.C,J1*%
X180340000Y-15240000D03*
D23*
X180340000Y-17780000D03*
X180340000Y-20320000D03*
X180340000Y-22860000D03*
X180340000Y-25400000D03*
X180340000Y-27940000D03*
%TD*%
D13*
%TO.C,D6*%
X116840000Y-43180000D03*
D14*
X116840000Y-40640000D03*
%TD*%
D13*
%TO.C,D19*%
X142240000Y-10160000D03*
D14*
X142240000Y-7620000D03*
%TD*%
D12*
%TO.C,RN3*%
X127000000Y-15240000D03*
D11*
X129540000Y-15240000D03*
X132080000Y-15240000D03*
X134620000Y-15240000D03*
X137160000Y-15240000D03*
%TD*%
D24*
%TO.C,SW3*%
X184300000Y-50800000D03*
X177800000Y-50800000D03*
X184300000Y-46300000D03*
X177800000Y-46300000D03*
%TD*%
D10*
%TO.C,R39*%
X137160000Y-60960000D03*
D11*
X137160000Y-68580000D03*
%TD*%
D13*
%TO.C,D7*%
X111760000Y-43180000D03*
D14*
X111760000Y-40640000D03*
%TD*%
D10*
%TO.C,C7*%
X34290000Y-6350000D03*
X34290000Y-11350000D03*
%TD*%
%TO.C,R22*%
X40640000Y-45720000D03*
D11*
X33020000Y-45720000D03*
%TD*%
D12*
%TO.C,D29*%
X124460000Y-116840000D03*
D11*
X127000000Y-116840000D03*
%TD*%
D13*
%TO.C,D16*%
X106680000Y-20320000D03*
D14*
X106680000Y-17780000D03*
%TD*%
D12*
%TO.C,C25*%
X8930000Y-46990000D03*
D10*
X11430000Y-46990000D03*
%TD*%
M02*
