M48
; DRILL file {KiCad 7.0.7} date Thu Feb 22 14:53:58 2024
; FORMAT={-:-/ absolute / inch / decimal}
; #@! TF.CreationDate,2024-02-22T14:53:58+09:00
; #@! TF.GenerationSoftware,Kicad,Pcbnew,7.0.7
; #@! TF.FileFunction,Plated,1,2,PTH
FMAT,2
INCH
; #@! TA.AperFunction,Plated,PTH,ViaDrill
T1C0.0157
; #@! TA.AperFunction,Plated,PTH,ComponentDrill
T2C0.0315
; #@! TA.AperFunction,Plated,PTH,ComponentDrill
T3C0.0354
; #@! TA.AperFunction,Plated,PTH,ComponentDrill
T4C0.0394
; #@! TA.AperFunction,Plated,PTH,ComponentDrill
T5C0.0433
; #@! TA.AperFunction,Plated,PTH,ComponentDrill
T6C0.2402
%
G90
G05
T1
X1.1Y-0.3215
X1.45Y-0.75
X1.8Y-0.3417
X2.0271Y-2.5449
X2.075Y-2.5
X2.125Y-2.45
X2.15Y-4.275
X2.22Y-1.78
X2.25Y-4.25
X2.3Y-0.9213
X2.34Y-1.76
X2.35Y-0.9213
X2.35Y-4.225
X2.4Y-0.9213
X2.4Y-2.2807
X2.45Y-4.2
X2.475Y-0.725
X2.5Y-2.3035
X2.55Y-0.675
X2.6Y-2.332
X2.65Y-3.125
X2.65Y-3.7965
X2.7Y-1.3
X2.7Y-2.4
X2.75Y-3.0965
X2.75Y-3.7679
X2.75Y-4.125
X2.8Y-1.375
X2.8Y-3.825
X2.8589Y-3.0679
X2.9Y-0.675
X2.9Y-2.45
X2.9411Y-1.4035
X2.95Y-3.0394
X3.0Y-2.45
X3.0411Y-1.432
X3.05Y-1.825
X3.1Y-1.95
X3.1539Y-2.075
X3.2Y-0.275
X3.2Y-0.675
X3.2Y-0.7193
X3.2Y-3.6
X3.2539Y-2.025
X3.3Y-0.7
X3.3Y-0.975
X3.35Y-1.95
X3.4Y-0.3035
X3.4Y-0.6417
X3.4Y-3.6
X3.5Y-3.6394
X3.6Y-2.45
X3.6Y-3.668
X3.6Y-4.125
X3.65Y-2.4
X3.7Y-3.6965
X3.7Y-4.1
X3.725Y-0.35
X3.7713Y-1.525
X3.7713Y-1.6
X3.7713Y-1.675
X3.78Y-3.53
X3.8Y-3.725
X3.8Y-4.075
X3.85Y-3.5035
X3.9Y-2.95
X3.9Y-3.475
X3.9Y-4.05
X3.95Y-0.65
X3.95Y-1.55
X3.95Y-2.515
X4.0Y-3.1535
X4.05Y-2.475
X4.1Y-0.75
X4.1Y-1.375
X4.1Y-1.65
X4.1Y-2.275
X4.15Y-2.4687
X4.2Y-1.4035
X4.2Y-2.3035
X4.2Y-3.2158
X4.225Y-2.725
X4.25Y-2.475
X4.3Y-0.8
X4.3Y-1.432
X4.3Y-1.7
X4.3Y-2.332
X4.35Y-3.275
X4.35Y-3.3084
X4.425Y-3.375
X4.5Y-0.925
X4.5Y-1.1977
X4.5Y-2.0721
X4.51Y-2.95
X4.55Y-3.56
X4.6Y-1.1642
X4.6Y-2.025
X4.625Y-3.125
X4.7Y-1.125
X4.7Y-1.975
X4.7Y-3.1
X4.7Y-4.05
X4.8Y-4.0215
X4.9Y-3.993
X4.95Y-0.65
X4.95Y-1.55
X4.95Y-3.075
X5.0Y-3.0179
X5.05Y-3.05
X5.1Y-0.75
X5.1Y-1.65
X5.1Y-2.0213
X5.1Y-3.475
X5.15Y-3.6
X5.2Y-2.0213
X5.2Y-3.825
X5.3Y-0.8
X5.3Y-1.7
X5.3Y-2.0213
X5.3Y-3.7965
X5.35Y-0.2
X5.4Y-2.3
X5.4Y-3.768
X5.45Y-4.6047
X5.5Y-0.925
X5.56Y-2.34
X5.6Y-2.5977
X5.7443Y-1.2
X5.8174Y-0.95
X5.8174Y-1.0
X5.8174Y-1.4
X5.8174Y-2.0
X5.8557Y-3.45
X5.9Y-0.825
X5.9Y-2.32
X5.9423Y-0.8673
X5.95Y-0.2
X5.96Y-2.26
X6.0Y-1.725
X6.0Y-3.525
X6.1Y-4.587
X6.125Y-3.525
X6.15Y-1.65
X6.2Y-3.0035
X6.2Y-4.5693
X6.25Y-1.15
X6.25Y-3.05
X6.3Y-4.5516
X6.4Y-3.0
X6.4Y-4.5338
X6.42Y-1.68
X6.45Y-3.4
X6.5Y-4.5161
X6.6Y-4.5
X6.65Y-0.125
X6.7Y-4.4807
X6.725Y-0.6
X6.9Y-4.25
X6.95Y-4.05
X7.0Y-4.2
X7.05Y-4.0
X7.1Y-4.15
X7.15Y-3.95
X7.2Y-3.9
X7.2Y-4.1
T2
X0.3516Y-1.85
X0.4031Y-0.6
X0.45Y-1.85
X0.5Y-0.7
X0.5Y-1.0
X0.6Y-0.2
X0.6Y-0.5
X0.6Y-0.6
X0.7Y-0.2
X0.7Y-0.5
X0.7Y-0.8
X0.7Y-1.2
X0.7Y-1.3
X0.7Y-1.6
X0.7Y-1.7
X0.7031Y-0.6
X0.8Y-0.2
X0.8Y-0.5
X0.8Y-1.3
X0.8Y-1.6
X0.8921Y-0.8
X0.8969Y-1.2
X0.8969Y-1.7
X0.9Y-0.2
X0.9Y-0.5
X0.9Y-0.6
X0.9Y-1.3
X0.9Y-1.6
X0.9Y-3.3
X0.9Y-3.6
X1.0Y-0.2
X1.0Y-0.5
X1.0Y-1.3
X1.0Y-1.6
X1.0Y-3.3
X1.0Y-3.6
X1.1Y-0.2
X1.1Y-0.5
X1.1Y-0.7
X1.1Y-1.0
X1.1Y-1.1
X1.1Y-2.4
X1.1984Y-2.4
X1.2Y-0.2
X1.2Y-0.5
X1.2Y-1.2
X1.2Y-1.3
X1.3Y-1.5
X1.3Y-1.6
X1.3Y-1.7
X1.3Y-1.8
X1.35Y-0.25
X1.35Y-0.4469
X1.3969Y-1.2
X1.3969Y-1.3
X1.4Y-0.7
X1.4Y-1.0
X1.4Y-1.1
X1.5Y-0.2
X1.5Y-0.5
X1.5Y-0.7
X1.5Y-1.0
X1.5Y-3.7
X1.5Y-4.0
X1.6Y-0.2
X1.6Y-0.5
X1.6Y-0.7
X1.6Y-1.0
X1.6Y-1.5
X1.6Y-1.6
X1.6Y-1.7
X1.6Y-1.8
X1.6Y-2.6031
X1.6Y-2.8
X1.7Y-0.2
X1.7Y-0.5
X1.7Y-0.7
X1.7Y-1.0
X1.8Y-0.2
X1.8Y-0.5
X1.8Y-0.7
X1.8Y-1.0
X1.8Y-1.6031
X1.8Y-1.8
X1.8Y-3.7
X1.8Y-4.0
X1.8Y-4.1
X1.8Y-4.4
X1.9Y-0.2
X1.9Y-0.5
X1.9Y-0.7
X1.9Y-1.0
X1.9Y-3.7
X1.9Y-4.0
X2.0Y-0.2
X2.0Y-0.5
X2.0Y-0.7
X2.0Y-1.0
X2.1Y-0.2
X2.1Y-0.5
X2.1Y-0.7
X2.1Y-1.0
X2.1Y-3.7031
X2.1Y-3.9
X2.3998Y-0.2
X2.3998Y-0.5
X2.4998Y-0.2
X2.4998Y-0.5
X2.5998Y-0.2
X2.5998Y-0.5
X2.6998Y-0.2
X2.6998Y-0.5
X2.7998Y-0.2
X2.7998Y-0.5
X2.8998Y-0.2
X2.8998Y-0.5
X2.9998Y-0.2
X2.9998Y-0.5
X3.2Y-0.2
X3.2Y-0.5
X3.3Y-0.2
X3.3Y-0.5
X3.4Y-0.2
X3.4Y-0.5
X3.5Y-0.2
X3.5Y-0.5
X3.6Y-0.2
X3.6Y-0.5
X3.7Y-0.2
X3.7Y-0.5
X3.8Y-0.2
X3.8Y-0.5
X3.85Y-1.05
X3.85Y-1.2469
X3.85Y-1.95
X3.85Y-2.1469
X4.0Y-0.6
X4.0Y-1.0
X4.0Y-1.3
X4.0Y-1.5
X4.0Y-1.9
X4.0Y-2.2
X4.1Y-0.2
X4.1Y-0.3
X4.1Y-0.4
X4.1Y-0.6
X4.1Y-1.0
X4.1Y-1.3
X4.1Y-1.5
X4.1Y-1.9
X4.1Y-2.2
X4.2Y-0.6
X4.2Y-1.0
X4.2Y-1.3
X4.2Y-1.5
X4.2Y-1.9
X4.2Y-2.2
X4.3Y-0.6
X4.3Y-1.0
X4.3Y-1.3
X4.3Y-1.5
X4.3Y-1.9
X4.3Y-2.2
X4.35Y-3.95
X4.35Y-4.1469
X4.4Y-0.2
X4.4Y-0.3
X4.4Y-0.4
X4.4Y-0.6
X4.4Y-1.0
X4.4Y-1.3
X4.4Y-1.5
X4.4Y-1.9
X4.4Y-2.2
X4.4Y-2.8031
X4.4Y-3.0
X4.45Y-2.4531
X4.45Y-2.65
X4.5Y-1.0
X4.5Y-1.3
X4.5Y-1.9
X4.5Y-2.2
X4.5Y-3.9
X4.5Y-4.2
X4.5Y-4.3
X4.5Y-4.4
X4.5Y-4.5
X4.5Y-4.6
X4.6Y-1.0
X4.6Y-1.3
X4.6Y-1.9
X4.6Y-2.2
X4.6Y-2.4
X4.6Y-2.7
X4.6Y-2.9
X4.6Y-3.2
X4.6Y-3.4
X4.6Y-3.7
X4.6Y-3.9
X4.6Y-4.2
X4.7Y-1.0
X4.7Y-1.3
X4.7Y-1.9
X4.7Y-2.2
X4.7Y-2.4
X4.7Y-2.7
X4.7Y-2.9
X4.7Y-3.2
X4.7Y-3.4
X4.7Y-3.7
X4.7Y-3.9
X4.7Y-4.2
X4.8Y-2.4
X4.8Y-2.7
X4.8Y-2.9
X4.8Y-3.2
X4.8Y-3.4
X4.8Y-3.7
X4.8Y-3.9
X4.8Y-4.2
X4.8Y-4.3
X4.8Y-4.4
X4.8Y-4.5
X4.8Y-4.6
X4.85Y-1.05
X4.85Y-1.2469
X4.85Y-1.95
X4.85Y-2.1469
X4.9Y-2.4
X4.9Y-2.7
X4.9Y-2.9
X4.9Y-3.2
X4.9Y-3.4
X4.9Y-3.7
X4.9Y-3.9
X4.9Y-4.2
X4.9Y-4.3
X4.9Y-4.4
X4.9Y-4.5
X4.9Y-4.6
X5.0Y-0.6
X5.0Y-1.0
X5.0Y-1.3
X5.0Y-1.5
X5.0Y-1.9
X5.0Y-2.2
X5.0Y-2.4
X5.0Y-2.7
X5.0Y-2.9
X5.0Y-3.2
X5.0Y-3.4
X5.0Y-3.7
X5.0Y-3.9
X5.0Y-4.2
X5.0Y-4.3
X5.0Y-4.4
X5.0Y-4.5
X5.0Y-4.6
X5.1Y-0.3
X5.1Y-0.4
X5.1Y-0.6
X5.1Y-1.0
X5.1Y-1.3
X5.1Y-1.5
X5.1Y-1.9
X5.1Y-2.2
X5.1Y-2.4
X5.1Y-2.7
X5.1Y-2.9
X5.1Y-3.2
X5.1Y-3.4
X5.1Y-3.7
X5.1Y-3.9
X5.1Y-4.2
X5.2Y-0.6
X5.2Y-1.0
X5.2Y-1.3
X5.2Y-1.5
X5.2Y-1.9
X5.2Y-2.2
X5.2Y-2.4
X5.2Y-2.7
X5.2Y-2.9
X5.2Y-3.2
X5.2Y-3.4
X5.2Y-3.7
X5.2Y-3.9
X5.2Y-4.2
X5.3Y-0.6
X5.3Y-1.0
X5.3Y-1.3
X5.3Y-1.5
X5.3Y-1.9
X5.3Y-2.2
X5.3Y-3.9
X5.3Y-4.2
X5.4Y-0.3
X5.4Y-0.4
X5.4Y-0.6
X5.4Y-1.0
X5.4Y-1.3
X5.4Y-1.5
X5.4Y-1.9
X5.4Y-2.2
X5.4Y-2.4
X5.4Y-2.7
X5.4Y-2.8
X5.4Y-3.1
X5.4Y-3.9
X5.4Y-4.2
X5.5Y-1.0
X5.5Y-1.3
X5.5Y-1.9
X5.5Y-2.2
X5.5Y-2.4
X5.5Y-2.7
X5.5Y-2.8
X5.5Y-3.1
X5.55Y-3.3031
X5.55Y-3.5
X5.55Y-4.0
X5.55Y-4.1969
X5.6Y-1.0
X5.6Y-1.3
X5.6Y-1.9
X5.6Y-2.2
X5.6Y-2.4
X5.6Y-2.7
X5.7Y-1.0
X5.7Y-1.3
X5.7Y-1.9
X5.7Y-2.2
X5.7Y-3.1
X5.7Y-3.7
X5.7Y-3.8
X5.7Y-4.4
X5.8Y-2.4
X5.8Y-2.7
X5.8Y-2.8
X5.8Y-2.9
X5.8Y-3.1
X5.8Y-3.7
X5.8Y-3.8
X5.8Y-4.4
X5.85Y-0.55
X5.85Y-0.7469
X5.9Y-2.4
X5.9Y-2.7
X5.9Y-2.8
X5.9Y-2.9
X5.9Y-3.1
X5.9Y-3.7
X5.9Y-3.8
X5.9Y-4.4
X5.998Y-2.8
X5.998Y-2.9
X6.0Y-0.3
X6.0Y-0.4
X6.0Y-0.5
X6.0Y-0.8
X6.0Y-1.0
X6.0Y-1.3
X6.0Y-1.5
X6.0Y-1.6
X6.0Y-2.4
X6.0Y-2.7
X6.0Y-3.1
X6.0Y-3.7
X6.0Y-3.8
X6.0Y-4.4
X6.098Y-2.8
X6.098Y-2.9
X6.1Y-0.5
X6.1Y-0.8
X6.1Y-1.0
X6.1Y-1.3
X6.1Y-2.4
X6.1Y-2.7
X6.1Y-3.1
X6.1Y-3.7
X6.1Y-3.8
X6.1Y-4.4
X6.1969Y-1.5
X6.2Y-0.5
X6.2Y-0.8
X6.2Y-1.0
X6.2Y-1.3
X6.2Y-2.4
X6.2Y-2.7
X6.2Y-2.8
X6.2Y-2.9
X6.2Y-3.1
X6.2Y-3.7
X6.2Y-3.8
X6.2Y-4.4
X6.2951Y-2.8
X6.2951Y-2.9
X6.3Y-0.3
X6.3Y-0.4
X6.3Y-0.5
X6.3Y-0.8
X6.3Y-1.0
X6.3Y-1.3
X6.3Y-1.6
X6.3Y-2.4
X6.3Y-2.7
X6.3Y-3.1
X6.3Y-3.7
X6.3Y-3.8
X6.3Y-4.4
X6.398Y-2.8
X6.398Y-2.9
X6.4Y-0.5
X6.4Y-0.8
X6.4Y-1.0
X6.4Y-1.3
X6.4Y-2.4
X6.4Y-2.7
X6.4Y-3.1
X6.4Y-3.7
X6.4Y-3.8
X6.4Y-4.4
X6.498Y-2.8
X6.498Y-2.9
X6.5Y-0.5
X6.5Y-0.8
X6.5Y-1.0
X6.5Y-1.3
X6.5Y-1.4
X6.5Y-1.5
X6.5Y-1.6
X6.5Y-2.4
X6.5Y-2.7
X6.5Y-3.1
X6.5Y-3.7
X6.5Y-3.8
X6.5Y-4.4
X6.6Y-0.5
X6.6Y-0.8
X6.6Y-1.0
X6.6Y-1.3
X6.6Y-3.1
X6.6Y-3.7
X6.6Y-3.8
X6.6Y-4.4
X6.6969Y-1.5
X6.7Y-2.4
X6.7Y-2.5
X6.7Y-2.6
X6.7Y-2.9
X6.7Y-3.0
X6.7Y-3.1
X6.7Y-3.7
X6.7Y-3.8
X6.7Y-4.4
X6.7031Y-2.7
X6.8Y-1.4
X6.8Y-1.6
X6.8Y-2.9
X6.8Y-3.0
X6.8Y-3.1
X6.8Y-3.7
X6.8Y-3.8
X6.8Y-4.4
X6.9Y-2.7
X6.9Y-2.9
X6.9Y-3.0
X6.9Y-3.1
X6.9Y-3.7
X6.9Y-3.8
X6.9Y-4.4
X7.0Y-1.4
X7.0Y-1.5
X7.0Y-1.6
X7.0Y-2.4
X7.0Y-2.5
X7.0Y-2.6
X7.0Y-2.9
X7.0Y-3.0
X7.0Y-3.1
X7.0Y-3.7
X7.0Y-3.8
X7.0Y-4.4
X7.1Y-2.9
X7.1Y-3.0
X7.1Y-3.1
X7.1Y-3.7
X7.1Y-3.8
X7.1Y-4.4
X7.1969Y-1.5
X7.2Y-3.1
X7.2Y-3.7
X7.2Y-3.8
X7.2Y-4.4
X7.3Y-1.4
X7.3Y-1.6
T3
X0.9Y-3.7
X0.9Y-3.8
X1.0Y-4.2031
X1.0Y-4.3016
X1.0Y-4.4
X1.1Y-3.7
X1.1Y-3.8
X1.2Y-4.2031
X1.2Y-4.3016
X1.2Y-4.4
X1.3Y-3.7
X1.3Y-3.8
X4.0Y-0.7
X4.0Y-0.8
X4.0Y-1.6
X4.0Y-1.7
X4.2Y-0.7
X4.2Y-0.8
X4.2Y-1.6
X4.2Y-1.7
X4.4Y-0.7
X4.4Y-0.8
X4.4Y-1.6
X4.4Y-1.7
X4.6Y-0.3
X4.6Y-0.4
X4.6Y-0.7
X4.6Y-0.8
X4.6Y-1.6
X4.6Y-1.7
X5.0Y-0.7
X5.0Y-0.8
X5.0Y-1.6
X5.0Y-1.7
X5.2Y-0.7
X5.2Y-0.8
X5.2Y-1.6
X5.2Y-1.7
X5.4Y-0.7
X5.4Y-0.8
X5.4Y-1.6
X5.4Y-1.7
X5.6Y-0.3
X5.6Y-0.4
X5.6Y-0.7
X5.6Y-0.8
X5.6Y-1.6
X5.6Y-1.7
T4
X2.05Y-4.05
X2.05Y-4.15
X2.1Y-2.7
X2.1Y-3.3
X2.2Y-2.7
X2.2Y-3.3
X2.3Y-1.6
X2.3Y-2.2
X2.3Y-2.7
X2.3Y-3.3
X2.4Y-1.6
X2.4Y-2.2
X2.4Y-2.7
X2.4Y-3.3
X2.5Y-1.6
X2.5Y-2.2
X2.5Y-2.7
X2.5Y-3.3
X2.6Y-1.6
X2.6Y-2.2
X2.6Y-2.7
X2.6Y-3.3
X2.6Y-3.9
X2.6Y-4.5
X2.7Y-0.8
X2.7Y-1.1
X2.7Y-1.6
X2.7Y-2.2
X2.7Y-2.7
X2.7Y-3.3
X2.7Y-3.9
X2.7Y-4.5
X2.8Y-0.8
X2.8Y-1.1
X2.8Y-1.6
X2.8Y-2.2
X2.8Y-2.7
X2.8Y-3.3
X2.8Y-3.9
X2.8Y-4.5
X2.9Y-0.8
X2.9Y-1.1
X2.9Y-1.6
X2.9Y-2.2
X2.9Y-2.7
X2.9Y-3.3
X2.9Y-3.9
X2.9Y-4.5
X3.0Y-0.8
X3.0Y-1.1
X3.0Y-1.6
X3.0Y-2.2
X3.0Y-2.7
X3.0Y-3.3
X3.0Y-3.9
X3.0Y-4.5
X3.1Y-0.8
X3.1Y-1.1
X3.1Y-1.6
X3.1Y-2.2
X3.1Y-2.7
X3.1Y-3.3
X3.1Y-3.9
X3.1Y-4.5
X3.2Y-0.8
X3.2Y-1.1
X3.2Y-1.6
X3.2Y-2.2
X3.2Y-2.7
X3.2Y-3.3
X3.2Y-3.9
X3.2Y-4.5
X3.3Y-0.8
X3.3Y-1.1
X3.3Y-1.6
X3.3Y-2.2
X3.3Y-2.7
X3.3Y-3.3
X3.3Y-3.9
X3.3Y-4.5
X3.4Y-0.8
X3.4Y-1.1
X3.4Y-1.6
X3.4Y-2.2
X3.4Y-2.7
X3.4Y-3.3
X3.4Y-3.9
X3.4Y-4.5
X3.5Y-2.7
X3.5Y-3.3
X3.5Y-3.9
X3.5Y-4.5
X3.6Y-2.7
X3.6Y-3.3
X3.6Y-3.9
X3.6Y-4.5
X3.7Y-2.7
X3.7Y-3.3
X3.7Y-3.9
X3.7Y-4.5
X3.8Y-2.7
X3.8Y-3.3
X3.8Y-3.9
X3.8Y-4.5
X3.9Y-2.7
X3.9Y-3.3
X3.9Y-3.9
X3.9Y-4.5
X4.0Y-2.7
X4.0Y-3.3
X6.45Y-0.3
X6.55Y-0.3
X6.65Y-0.3
X6.75Y-0.3
X7.1Y-0.6
X7.1Y-0.7
X7.1Y-0.8
X7.1Y-0.9
X7.1Y-1.0
X7.1Y-1.1
T5
X0.9Y-2.1
X0.9Y-2.4
X0.9Y-2.7
X0.9Y-3.0
X1.1Y-4.1
X1.1Y-4.5
X6.0Y-1.8228
X6.0Y-2.0
X6.2559Y-1.8228
X6.2559Y-2.0
X6.5Y-1.8228
X6.5Y-2.0
X6.7559Y-1.8228
X6.7559Y-2.0
X7.0Y-1.8228
X7.0Y-2.0
X7.2559Y-1.8228
X7.2559Y-2.0
T6
X0.5Y-2.5
X0.5Y-3.1
X0.5Y-3.7
T0
M30
