%TF.GenerationSoftware,KiCad,Pcbnew,7.0.7*%
%TF.CreationDate,2024-02-22T14:53:51+09:00*%
%TF.ProjectId,SBC4040,53424334-3034-4302-9e6b-696361645f70,rev?*%
%TF.SameCoordinates,Original*%
%TF.FileFunction,Copper,L1,Top*%
%TF.FilePolarity,Positive*%
%FSLAX46Y46*%
G04 Gerber Fmt 4.6, Leading zero omitted, Abs format (unit mm)*
G04 Created by KiCad (PCBNEW 7.0.7) date 2024-02-22 14:53:51*
%MOMM*%
%LPD*%
G01*
G04 APERTURE LIST*
%ADD10C,0.300000*%
%TA.AperFunction,NonConductor*%
%ADD11C,0.300000*%
%TD*%
%TA.AperFunction,ComponentPad*%
%ADD12C,1.600000*%
%TD*%
%TA.AperFunction,ComponentPad*%
%ADD13O,1.600000X1.600000*%
%TD*%
%TA.AperFunction,ComponentPad*%
%ADD14R,1.600000X1.600000*%
%TD*%
%TA.AperFunction,ComponentPad*%
%ADD15R,1.800000X1.800000*%
%TD*%
%TA.AperFunction,ComponentPad*%
%ADD16C,1.800000*%
%TD*%
%TA.AperFunction,ComponentPad*%
%ADD17C,10.160000*%
%TD*%
%TA.AperFunction,ComponentPad*%
%ADD18R,1.440000X2.000000*%
%TD*%
%TA.AperFunction,ComponentPad*%
%ADD19O,1.440000X2.000000*%
%TD*%
%TA.AperFunction,ComponentPad*%
%ADD20R,2.200000X2.200000*%
%TD*%
%TA.AperFunction,ComponentPad*%
%ADD21O,2.200000X2.200000*%
%TD*%
%TA.AperFunction,ComponentPad*%
%ADD22C,1.500000*%
%TD*%
%TA.AperFunction,ComponentPad*%
%ADD23R,1.700000X1.700000*%
%TD*%
%TA.AperFunction,ComponentPad*%
%ADD24O,1.700000X1.700000*%
%TD*%
%TA.AperFunction,ComponentPad*%
%ADD25C,2.000000*%
%TD*%
%TA.AperFunction,ViaPad*%
%ADD26C,0.800000*%
%TD*%
%TA.AperFunction,Conductor*%
%ADD27C,1.000000*%
%TD*%
%TA.AperFunction,Conductor*%
%ADD28C,2.000000*%
%TD*%
%TA.AperFunction,Conductor*%
%ADD29C,0.250000*%
%TD*%
%TA.AperFunction,Conductor*%
%ADD30C,4.000000*%
%TD*%
%TA.AperFunction,Conductor*%
%ADD31C,0.500000*%
%TD*%
G04 APERTURE END LIST*
D10*
D11*
X153253582Y-121519400D02*
X153539296Y-121614638D01*
X153539296Y-121614638D02*
X154015487Y-121614638D01*
X154015487Y-121614638D02*
X154205963Y-121519400D01*
X154205963Y-121519400D02*
X154301201Y-121424161D01*
X154301201Y-121424161D02*
X154396439Y-121233685D01*
X154396439Y-121233685D02*
X154396439Y-121043209D01*
X154396439Y-121043209D02*
X154301201Y-120852733D01*
X154301201Y-120852733D02*
X154205963Y-120757495D01*
X154205963Y-120757495D02*
X154015487Y-120662257D01*
X154015487Y-120662257D02*
X153634534Y-120567019D01*
X153634534Y-120567019D02*
X153444058Y-120471780D01*
X153444058Y-120471780D02*
X153348820Y-120376542D01*
X153348820Y-120376542D02*
X153253582Y-120186066D01*
X153253582Y-120186066D02*
X153253582Y-119995590D01*
X153253582Y-119995590D02*
X153348820Y-119805114D01*
X153348820Y-119805114D02*
X153444058Y-119709876D01*
X153444058Y-119709876D02*
X153634534Y-119614638D01*
X153634534Y-119614638D02*
X154110725Y-119614638D01*
X154110725Y-119614638D02*
X154396439Y-119709876D01*
X155920249Y-120567019D02*
X156205963Y-120662257D01*
X156205963Y-120662257D02*
X156301201Y-120757495D01*
X156301201Y-120757495D02*
X156396439Y-120947971D01*
X156396439Y-120947971D02*
X156396439Y-121233685D01*
X156396439Y-121233685D02*
X156301201Y-121424161D01*
X156301201Y-121424161D02*
X156205963Y-121519400D01*
X156205963Y-121519400D02*
X156015487Y-121614638D01*
X156015487Y-121614638D02*
X155253582Y-121614638D01*
X155253582Y-121614638D02*
X155253582Y-119614638D01*
X155253582Y-119614638D02*
X155920249Y-119614638D01*
X155920249Y-119614638D02*
X156110725Y-119709876D01*
X156110725Y-119709876D02*
X156205963Y-119805114D01*
X156205963Y-119805114D02*
X156301201Y-119995590D01*
X156301201Y-119995590D02*
X156301201Y-120186066D01*
X156301201Y-120186066D02*
X156205963Y-120376542D01*
X156205963Y-120376542D02*
X156110725Y-120471780D01*
X156110725Y-120471780D02*
X155920249Y-120567019D01*
X155920249Y-120567019D02*
X155253582Y-120567019D01*
X158396439Y-121424161D02*
X158301201Y-121519400D01*
X158301201Y-121519400D02*
X158015487Y-121614638D01*
X158015487Y-121614638D02*
X157825011Y-121614638D01*
X157825011Y-121614638D02*
X157539296Y-121519400D01*
X157539296Y-121519400D02*
X157348820Y-121328923D01*
X157348820Y-121328923D02*
X157253582Y-121138447D01*
X157253582Y-121138447D02*
X157158344Y-120757495D01*
X157158344Y-120757495D02*
X157158344Y-120471780D01*
X157158344Y-120471780D02*
X157253582Y-120090828D01*
X157253582Y-120090828D02*
X157348820Y-119900352D01*
X157348820Y-119900352D02*
X157539296Y-119709876D01*
X157539296Y-119709876D02*
X157825011Y-119614638D01*
X157825011Y-119614638D02*
X158015487Y-119614638D01*
X158015487Y-119614638D02*
X158301201Y-119709876D01*
X158301201Y-119709876D02*
X158396439Y-119805114D01*
X160110725Y-120281304D02*
X160110725Y-121614638D01*
X159634534Y-119519400D02*
X159158344Y-120947971D01*
X159158344Y-120947971D02*
X160396439Y-120947971D01*
X161539296Y-119614638D02*
X161729773Y-119614638D01*
X161729773Y-119614638D02*
X161920249Y-119709876D01*
X161920249Y-119709876D02*
X162015487Y-119805114D01*
X162015487Y-119805114D02*
X162110725Y-119995590D01*
X162110725Y-119995590D02*
X162205963Y-120376542D01*
X162205963Y-120376542D02*
X162205963Y-120852733D01*
X162205963Y-120852733D02*
X162110725Y-121233685D01*
X162110725Y-121233685D02*
X162015487Y-121424161D01*
X162015487Y-121424161D02*
X161920249Y-121519400D01*
X161920249Y-121519400D02*
X161729773Y-121614638D01*
X161729773Y-121614638D02*
X161539296Y-121614638D01*
X161539296Y-121614638D02*
X161348820Y-121519400D01*
X161348820Y-121519400D02*
X161253582Y-121424161D01*
X161253582Y-121424161D02*
X161158344Y-121233685D01*
X161158344Y-121233685D02*
X161063106Y-120852733D01*
X161063106Y-120852733D02*
X161063106Y-120376542D01*
X161063106Y-120376542D02*
X161158344Y-119995590D01*
X161158344Y-119995590D02*
X161253582Y-119805114D01*
X161253582Y-119805114D02*
X161348820Y-119709876D01*
X161348820Y-119709876D02*
X161539296Y-119614638D01*
X163920249Y-120281304D02*
X163920249Y-121614638D01*
X163444058Y-119519400D02*
X162967868Y-120947971D01*
X162967868Y-120947971D02*
X164205963Y-120947971D01*
X165348820Y-119614638D02*
X165539297Y-119614638D01*
X165539297Y-119614638D02*
X165729773Y-119709876D01*
X165729773Y-119709876D02*
X165825011Y-119805114D01*
X165825011Y-119805114D02*
X165920249Y-119995590D01*
X165920249Y-119995590D02*
X166015487Y-120376542D01*
X166015487Y-120376542D02*
X166015487Y-120852733D01*
X166015487Y-120852733D02*
X165920249Y-121233685D01*
X165920249Y-121233685D02*
X165825011Y-121424161D01*
X165825011Y-121424161D02*
X165729773Y-121519400D01*
X165729773Y-121519400D02*
X165539297Y-121614638D01*
X165539297Y-121614638D02*
X165348820Y-121614638D01*
X165348820Y-121614638D02*
X165158344Y-121519400D01*
X165158344Y-121519400D02*
X165063106Y-121424161D01*
X165063106Y-121424161D02*
X164967868Y-121233685D01*
X164967868Y-121233685D02*
X164872630Y-120852733D01*
X164872630Y-120852733D02*
X164872630Y-120376542D01*
X164872630Y-120376542D02*
X164967868Y-119995590D01*
X164967868Y-119995590D02*
X165063106Y-119805114D01*
X165063106Y-119805114D02*
X165158344Y-119709876D01*
X165158344Y-119709876D02*
X165348820Y-119614638D01*
X169539297Y-121614638D02*
X168872630Y-120662257D01*
X168396440Y-121614638D02*
X168396440Y-119614638D01*
X168396440Y-119614638D02*
X169158345Y-119614638D01*
X169158345Y-119614638D02*
X169348821Y-119709876D01*
X169348821Y-119709876D02*
X169444059Y-119805114D01*
X169444059Y-119805114D02*
X169539297Y-119995590D01*
X169539297Y-119995590D02*
X169539297Y-120281304D01*
X169539297Y-120281304D02*
X169444059Y-120471780D01*
X169444059Y-120471780D02*
X169348821Y-120567019D01*
X169348821Y-120567019D02*
X169158345Y-120662257D01*
X169158345Y-120662257D02*
X168396440Y-120662257D01*
X171158345Y-121519400D02*
X170967869Y-121614638D01*
X170967869Y-121614638D02*
X170586916Y-121614638D01*
X170586916Y-121614638D02*
X170396440Y-121519400D01*
X170396440Y-121519400D02*
X170301202Y-121328923D01*
X170301202Y-121328923D02*
X170301202Y-120567019D01*
X170301202Y-120567019D02*
X170396440Y-120376542D01*
X170396440Y-120376542D02*
X170586916Y-120281304D01*
X170586916Y-120281304D02*
X170967869Y-120281304D01*
X170967869Y-120281304D02*
X171158345Y-120376542D01*
X171158345Y-120376542D02*
X171253583Y-120567019D01*
X171253583Y-120567019D02*
X171253583Y-120757495D01*
X171253583Y-120757495D02*
X170301202Y-120947971D01*
X171920250Y-120281304D02*
X172396440Y-121614638D01*
X172396440Y-121614638D02*
X172872631Y-120281304D01*
X173634536Y-121424161D02*
X173729774Y-121519400D01*
X173729774Y-121519400D02*
X173634536Y-121614638D01*
X173634536Y-121614638D02*
X173539298Y-121519400D01*
X173539298Y-121519400D02*
X173634536Y-121424161D01*
X173634536Y-121424161D02*
X173634536Y-121614638D01*
X175634536Y-121614638D02*
X174491679Y-121614638D01*
X175063107Y-121614638D02*
X175063107Y-119614638D01*
X175063107Y-119614638D02*
X174872631Y-119900352D01*
X174872631Y-119900352D02*
X174682155Y-120090828D01*
X174682155Y-120090828D02*
X174491679Y-120186066D01*
X176491679Y-121424161D02*
X176586917Y-121519400D01*
X176586917Y-121519400D02*
X176491679Y-121614638D01*
X176491679Y-121614638D02*
X176396441Y-121519400D01*
X176396441Y-121519400D02*
X176491679Y-121424161D01*
X176491679Y-121424161D02*
X176491679Y-121614638D01*
X178491679Y-121614638D02*
X177348822Y-121614638D01*
X177920250Y-121614638D02*
X177920250Y-119614638D01*
X177920250Y-119614638D02*
X177729774Y-119900352D01*
X177729774Y-119900352D02*
X177539298Y-120090828D01*
X177539298Y-120090828D02*
X177348822Y-120186066D01*
X128396437Y-124834638D02*
X128396437Y-122834638D01*
X129348818Y-123501304D02*
X129348818Y-124834638D01*
X129348818Y-123691780D02*
X129444056Y-123596542D01*
X129444056Y-123596542D02*
X129634532Y-123501304D01*
X129634532Y-123501304D02*
X129920247Y-123501304D01*
X129920247Y-123501304D02*
X130110723Y-123596542D01*
X130110723Y-123596542D02*
X130205961Y-123787019D01*
X130205961Y-123787019D02*
X130205961Y-124834638D01*
X130872628Y-123501304D02*
X131634532Y-123501304D01*
X131158342Y-122834638D02*
X131158342Y-124548923D01*
X131158342Y-124548923D02*
X131253580Y-124739400D01*
X131253580Y-124739400D02*
X131444056Y-124834638D01*
X131444056Y-124834638D02*
X131634532Y-124834638D01*
X133063104Y-124739400D02*
X132872628Y-124834638D01*
X132872628Y-124834638D02*
X132491675Y-124834638D01*
X132491675Y-124834638D02*
X132301199Y-124739400D01*
X132301199Y-124739400D02*
X132205961Y-124548923D01*
X132205961Y-124548923D02*
X132205961Y-123787019D01*
X132205961Y-123787019D02*
X132301199Y-123596542D01*
X132301199Y-123596542D02*
X132491675Y-123501304D01*
X132491675Y-123501304D02*
X132872628Y-123501304D01*
X132872628Y-123501304D02*
X133063104Y-123596542D01*
X133063104Y-123596542D02*
X133158342Y-123787019D01*
X133158342Y-123787019D02*
X133158342Y-123977495D01*
X133158342Y-123977495D02*
X132205961Y-124167971D01*
X134301199Y-124834638D02*
X134110723Y-124739400D01*
X134110723Y-124739400D02*
X134015485Y-124548923D01*
X134015485Y-124548923D02*
X134015485Y-122834638D01*
X135920247Y-123501304D02*
X135920247Y-124834638D01*
X135444056Y-122739400D02*
X134967866Y-124167971D01*
X134967866Y-124167971D02*
X136205961Y-124167971D01*
X137348818Y-122834638D02*
X137539295Y-122834638D01*
X137539295Y-122834638D02*
X137729771Y-122929876D01*
X137729771Y-122929876D02*
X137825009Y-123025114D01*
X137825009Y-123025114D02*
X137920247Y-123215590D01*
X137920247Y-123215590D02*
X138015485Y-123596542D01*
X138015485Y-123596542D02*
X138015485Y-124072733D01*
X138015485Y-124072733D02*
X137920247Y-124453685D01*
X137920247Y-124453685D02*
X137825009Y-124644161D01*
X137825009Y-124644161D02*
X137729771Y-124739400D01*
X137729771Y-124739400D02*
X137539295Y-124834638D01*
X137539295Y-124834638D02*
X137348818Y-124834638D01*
X137348818Y-124834638D02*
X137158342Y-124739400D01*
X137158342Y-124739400D02*
X137063104Y-124644161D01*
X137063104Y-124644161D02*
X136967866Y-124453685D01*
X136967866Y-124453685D02*
X136872628Y-124072733D01*
X136872628Y-124072733D02*
X136872628Y-123596542D01*
X136872628Y-123596542D02*
X136967866Y-123215590D01*
X136967866Y-123215590D02*
X137063104Y-123025114D01*
X137063104Y-123025114D02*
X137158342Y-122929876D01*
X137158342Y-122929876D02*
X137348818Y-122834638D01*
X139729771Y-123501304D02*
X139729771Y-124834638D01*
X139253580Y-122739400D02*
X138777390Y-124167971D01*
X138777390Y-124167971D02*
X140015485Y-124167971D01*
X141158342Y-122834638D02*
X141348819Y-122834638D01*
X141348819Y-122834638D02*
X141539295Y-122929876D01*
X141539295Y-122929876D02*
X141634533Y-123025114D01*
X141634533Y-123025114D02*
X141729771Y-123215590D01*
X141729771Y-123215590D02*
X141825009Y-123596542D01*
X141825009Y-123596542D02*
X141825009Y-124072733D01*
X141825009Y-124072733D02*
X141729771Y-124453685D01*
X141729771Y-124453685D02*
X141634533Y-124644161D01*
X141634533Y-124644161D02*
X141539295Y-124739400D01*
X141539295Y-124739400D02*
X141348819Y-124834638D01*
X141348819Y-124834638D02*
X141158342Y-124834638D01*
X141158342Y-124834638D02*
X140967866Y-124739400D01*
X140967866Y-124739400D02*
X140872628Y-124644161D01*
X140872628Y-124644161D02*
X140777390Y-124453685D01*
X140777390Y-124453685D02*
X140682152Y-124072733D01*
X140682152Y-124072733D02*
X140682152Y-123596542D01*
X140682152Y-123596542D02*
X140777390Y-123215590D01*
X140777390Y-123215590D02*
X140872628Y-123025114D01*
X140872628Y-123025114D02*
X140967866Y-122929876D01*
X140967866Y-122929876D02*
X141158342Y-122834638D01*
X144110724Y-124739400D02*
X144396438Y-124834638D01*
X144396438Y-124834638D02*
X144872629Y-124834638D01*
X144872629Y-124834638D02*
X145063105Y-124739400D01*
X145063105Y-124739400D02*
X145158343Y-124644161D01*
X145158343Y-124644161D02*
X145253581Y-124453685D01*
X145253581Y-124453685D02*
X145253581Y-124263209D01*
X145253581Y-124263209D02*
X145158343Y-124072733D01*
X145158343Y-124072733D02*
X145063105Y-123977495D01*
X145063105Y-123977495D02*
X144872629Y-123882257D01*
X144872629Y-123882257D02*
X144491676Y-123787019D01*
X144491676Y-123787019D02*
X144301200Y-123691780D01*
X144301200Y-123691780D02*
X144205962Y-123596542D01*
X144205962Y-123596542D02*
X144110724Y-123406066D01*
X144110724Y-123406066D02*
X144110724Y-123215590D01*
X144110724Y-123215590D02*
X144205962Y-123025114D01*
X144205962Y-123025114D02*
X144301200Y-122929876D01*
X144301200Y-122929876D02*
X144491676Y-122834638D01*
X144491676Y-122834638D02*
X144967867Y-122834638D01*
X144967867Y-122834638D02*
X145253581Y-122929876D01*
X146110724Y-124834638D02*
X146110724Y-123501304D01*
X146110724Y-122834638D02*
X146015486Y-122929876D01*
X146015486Y-122929876D02*
X146110724Y-123025114D01*
X146110724Y-123025114D02*
X146205962Y-122929876D01*
X146205962Y-122929876D02*
X146110724Y-122834638D01*
X146110724Y-122834638D02*
X146110724Y-123025114D01*
X147063105Y-123501304D02*
X147063105Y-124834638D01*
X147063105Y-123691780D02*
X147158343Y-123596542D01*
X147158343Y-123596542D02*
X147348819Y-123501304D01*
X147348819Y-123501304D02*
X147634534Y-123501304D01*
X147634534Y-123501304D02*
X147825010Y-123596542D01*
X147825010Y-123596542D02*
X147920248Y-123787019D01*
X147920248Y-123787019D02*
X147920248Y-124834638D01*
X149729772Y-123501304D02*
X149729772Y-125120352D01*
X149729772Y-125120352D02*
X149634534Y-125310828D01*
X149634534Y-125310828D02*
X149539296Y-125406066D01*
X149539296Y-125406066D02*
X149348819Y-125501304D01*
X149348819Y-125501304D02*
X149063105Y-125501304D01*
X149063105Y-125501304D02*
X148872629Y-125406066D01*
X149729772Y-124739400D02*
X149539296Y-124834638D01*
X149539296Y-124834638D02*
X149158343Y-124834638D01*
X149158343Y-124834638D02*
X148967867Y-124739400D01*
X148967867Y-124739400D02*
X148872629Y-124644161D01*
X148872629Y-124644161D02*
X148777391Y-124453685D01*
X148777391Y-124453685D02*
X148777391Y-123882257D01*
X148777391Y-123882257D02*
X148872629Y-123691780D01*
X148872629Y-123691780D02*
X148967867Y-123596542D01*
X148967867Y-123596542D02*
X149158343Y-123501304D01*
X149158343Y-123501304D02*
X149539296Y-123501304D01*
X149539296Y-123501304D02*
X149729772Y-123596542D01*
X150967867Y-124834638D02*
X150777391Y-124739400D01*
X150777391Y-124739400D02*
X150682153Y-124548923D01*
X150682153Y-124548923D02*
X150682153Y-122834638D01*
X152491677Y-124739400D02*
X152301201Y-124834638D01*
X152301201Y-124834638D02*
X151920248Y-124834638D01*
X151920248Y-124834638D02*
X151729772Y-124739400D01*
X151729772Y-124739400D02*
X151634534Y-124548923D01*
X151634534Y-124548923D02*
X151634534Y-123787019D01*
X151634534Y-123787019D02*
X151729772Y-123596542D01*
X151729772Y-123596542D02*
X151920248Y-123501304D01*
X151920248Y-123501304D02*
X152301201Y-123501304D01*
X152301201Y-123501304D02*
X152491677Y-123596542D01*
X152491677Y-123596542D02*
X152586915Y-123787019D01*
X152586915Y-123787019D02*
X152586915Y-123977495D01*
X152586915Y-123977495D02*
X151634534Y-124167971D01*
X155634535Y-123787019D02*
X155920249Y-123882257D01*
X155920249Y-123882257D02*
X156015487Y-123977495D01*
X156015487Y-123977495D02*
X156110725Y-124167971D01*
X156110725Y-124167971D02*
X156110725Y-124453685D01*
X156110725Y-124453685D02*
X156015487Y-124644161D01*
X156015487Y-124644161D02*
X155920249Y-124739400D01*
X155920249Y-124739400D02*
X155729773Y-124834638D01*
X155729773Y-124834638D02*
X154967868Y-124834638D01*
X154967868Y-124834638D02*
X154967868Y-122834638D01*
X154967868Y-122834638D02*
X155634535Y-122834638D01*
X155634535Y-122834638D02*
X155825011Y-122929876D01*
X155825011Y-122929876D02*
X155920249Y-123025114D01*
X155920249Y-123025114D02*
X156015487Y-123215590D01*
X156015487Y-123215590D02*
X156015487Y-123406066D01*
X156015487Y-123406066D02*
X155920249Y-123596542D01*
X155920249Y-123596542D02*
X155825011Y-123691780D01*
X155825011Y-123691780D02*
X155634535Y-123787019D01*
X155634535Y-123787019D02*
X154967868Y-123787019D01*
X157253582Y-124834638D02*
X157063106Y-124739400D01*
X157063106Y-124739400D02*
X156967868Y-124644161D01*
X156967868Y-124644161D02*
X156872630Y-124453685D01*
X156872630Y-124453685D02*
X156872630Y-123882257D01*
X156872630Y-123882257D02*
X156967868Y-123691780D01*
X156967868Y-123691780D02*
X157063106Y-123596542D01*
X157063106Y-123596542D02*
X157253582Y-123501304D01*
X157253582Y-123501304D02*
X157539297Y-123501304D01*
X157539297Y-123501304D02*
X157729773Y-123596542D01*
X157729773Y-123596542D02*
X157825011Y-123691780D01*
X157825011Y-123691780D02*
X157920249Y-123882257D01*
X157920249Y-123882257D02*
X157920249Y-124453685D01*
X157920249Y-124453685D02*
X157825011Y-124644161D01*
X157825011Y-124644161D02*
X157729773Y-124739400D01*
X157729773Y-124739400D02*
X157539297Y-124834638D01*
X157539297Y-124834638D02*
X157253582Y-124834638D01*
X159634535Y-124834638D02*
X159634535Y-123787019D01*
X159634535Y-123787019D02*
X159539297Y-123596542D01*
X159539297Y-123596542D02*
X159348821Y-123501304D01*
X159348821Y-123501304D02*
X158967868Y-123501304D01*
X158967868Y-123501304D02*
X158777392Y-123596542D01*
X159634535Y-124739400D02*
X159444059Y-124834638D01*
X159444059Y-124834638D02*
X158967868Y-124834638D01*
X158967868Y-124834638D02*
X158777392Y-124739400D01*
X158777392Y-124739400D02*
X158682154Y-124548923D01*
X158682154Y-124548923D02*
X158682154Y-124358447D01*
X158682154Y-124358447D02*
X158777392Y-124167971D01*
X158777392Y-124167971D02*
X158967868Y-124072733D01*
X158967868Y-124072733D02*
X159444059Y-124072733D01*
X159444059Y-124072733D02*
X159634535Y-123977495D01*
X160586916Y-124834638D02*
X160586916Y-123501304D01*
X160586916Y-123882257D02*
X160682154Y-123691780D01*
X160682154Y-123691780D02*
X160777392Y-123596542D01*
X160777392Y-123596542D02*
X160967868Y-123501304D01*
X160967868Y-123501304D02*
X161158345Y-123501304D01*
X162682154Y-124834638D02*
X162682154Y-122834638D01*
X162682154Y-124739400D02*
X162491678Y-124834638D01*
X162491678Y-124834638D02*
X162110725Y-124834638D01*
X162110725Y-124834638D02*
X161920249Y-124739400D01*
X161920249Y-124739400D02*
X161825011Y-124644161D01*
X161825011Y-124644161D02*
X161729773Y-124453685D01*
X161729773Y-124453685D02*
X161729773Y-123882257D01*
X161729773Y-123882257D02*
X161825011Y-123691780D01*
X161825011Y-123691780D02*
X161920249Y-123596542D01*
X161920249Y-123596542D02*
X162110725Y-123501304D01*
X162110725Y-123501304D02*
X162491678Y-123501304D01*
X162491678Y-123501304D02*
X162682154Y-123596542D01*
X166301202Y-124644161D02*
X166205964Y-124739400D01*
X166205964Y-124739400D02*
X165920250Y-124834638D01*
X165920250Y-124834638D02*
X165729774Y-124834638D01*
X165729774Y-124834638D02*
X165444059Y-124739400D01*
X165444059Y-124739400D02*
X165253583Y-124548923D01*
X165253583Y-124548923D02*
X165158345Y-124358447D01*
X165158345Y-124358447D02*
X165063107Y-123977495D01*
X165063107Y-123977495D02*
X165063107Y-123691780D01*
X165063107Y-123691780D02*
X165158345Y-123310828D01*
X165158345Y-123310828D02*
X165253583Y-123120352D01*
X165253583Y-123120352D02*
X165444059Y-122929876D01*
X165444059Y-122929876D02*
X165729774Y-122834638D01*
X165729774Y-122834638D02*
X165920250Y-122834638D01*
X165920250Y-122834638D02*
X166205964Y-122929876D01*
X166205964Y-122929876D02*
X166301202Y-123025114D01*
X167444059Y-124834638D02*
X167253583Y-124739400D01*
X167253583Y-124739400D02*
X167158345Y-124644161D01*
X167158345Y-124644161D02*
X167063107Y-124453685D01*
X167063107Y-124453685D02*
X167063107Y-123882257D01*
X167063107Y-123882257D02*
X167158345Y-123691780D01*
X167158345Y-123691780D02*
X167253583Y-123596542D01*
X167253583Y-123596542D02*
X167444059Y-123501304D01*
X167444059Y-123501304D02*
X167729774Y-123501304D01*
X167729774Y-123501304D02*
X167920250Y-123596542D01*
X167920250Y-123596542D02*
X168015488Y-123691780D01*
X168015488Y-123691780D02*
X168110726Y-123882257D01*
X168110726Y-123882257D02*
X168110726Y-124453685D01*
X168110726Y-124453685D02*
X168015488Y-124644161D01*
X168015488Y-124644161D02*
X167920250Y-124739400D01*
X167920250Y-124739400D02*
X167729774Y-124834638D01*
X167729774Y-124834638D02*
X167444059Y-124834638D01*
X168967869Y-124834638D02*
X168967869Y-123501304D01*
X168967869Y-123691780D02*
X169063107Y-123596542D01*
X169063107Y-123596542D02*
X169253583Y-123501304D01*
X169253583Y-123501304D02*
X169539298Y-123501304D01*
X169539298Y-123501304D02*
X169729774Y-123596542D01*
X169729774Y-123596542D02*
X169825012Y-123787019D01*
X169825012Y-123787019D02*
X169825012Y-124834638D01*
X169825012Y-123787019D02*
X169920250Y-123596542D01*
X169920250Y-123596542D02*
X170110726Y-123501304D01*
X170110726Y-123501304D02*
X170396440Y-123501304D01*
X170396440Y-123501304D02*
X170586917Y-123596542D01*
X170586917Y-123596542D02*
X170682155Y-123787019D01*
X170682155Y-123787019D02*
X170682155Y-124834638D01*
X171634536Y-123501304D02*
X171634536Y-125501304D01*
X171634536Y-123596542D02*
X171825012Y-123501304D01*
X171825012Y-123501304D02*
X172205965Y-123501304D01*
X172205965Y-123501304D02*
X172396441Y-123596542D01*
X172396441Y-123596542D02*
X172491679Y-123691780D01*
X172491679Y-123691780D02*
X172586917Y-123882257D01*
X172586917Y-123882257D02*
X172586917Y-124453685D01*
X172586917Y-124453685D02*
X172491679Y-124644161D01*
X172491679Y-124644161D02*
X172396441Y-124739400D01*
X172396441Y-124739400D02*
X172205965Y-124834638D01*
X172205965Y-124834638D02*
X171825012Y-124834638D01*
X171825012Y-124834638D02*
X171634536Y-124739400D01*
X174301203Y-123501304D02*
X174301203Y-124834638D01*
X173444060Y-123501304D02*
X173444060Y-124548923D01*
X173444060Y-124548923D02*
X173539298Y-124739400D01*
X173539298Y-124739400D02*
X173729774Y-124834638D01*
X173729774Y-124834638D02*
X174015489Y-124834638D01*
X174015489Y-124834638D02*
X174205965Y-124739400D01*
X174205965Y-124739400D02*
X174301203Y-124644161D01*
X174967870Y-123501304D02*
X175729774Y-123501304D01*
X175253584Y-122834638D02*
X175253584Y-124548923D01*
X175253584Y-124548923D02*
X175348822Y-124739400D01*
X175348822Y-124739400D02*
X175539298Y-124834638D01*
X175539298Y-124834638D02*
X175729774Y-124834638D01*
X177158346Y-124739400D02*
X176967870Y-124834638D01*
X176967870Y-124834638D02*
X176586917Y-124834638D01*
X176586917Y-124834638D02*
X176396441Y-124739400D01*
X176396441Y-124739400D02*
X176301203Y-124548923D01*
X176301203Y-124548923D02*
X176301203Y-123787019D01*
X176301203Y-123787019D02*
X176396441Y-123596542D01*
X176396441Y-123596542D02*
X176586917Y-123501304D01*
X176586917Y-123501304D02*
X176967870Y-123501304D01*
X176967870Y-123501304D02*
X177158346Y-123596542D01*
X177158346Y-123596542D02*
X177253584Y-123787019D01*
X177253584Y-123787019D02*
X177253584Y-123977495D01*
X177253584Y-123977495D02*
X176301203Y-124167971D01*
X178110727Y-124834638D02*
X178110727Y-123501304D01*
X178110727Y-123882257D02*
X178205965Y-123691780D01*
X178205965Y-123691780D02*
X178301203Y-123596542D01*
X178301203Y-123596542D02*
X178491679Y-123501304D01*
X178491679Y-123501304D02*
X178682156Y-123501304D01*
D12*
%TO.P,R21,1*%
%TO.N,Net-(C12-Pad2)*%
X27940000Y-25400000D03*
D13*
%TO.P,R21,2*%
%TO.N,Net-(R21-Pad2)*%
X27940000Y-17780000D03*
%TD*%
D12*
%TO.P,R15,1*%
%TO.N,STPA*%
X160020000Y-10160000D03*
D13*
%TO.P,R15,2*%
%TO.N,GND*%
X152400000Y-10160000D03*
%TD*%
D14*
%TO.P,U15,1,~{CLEAR}*%
%TO.N,Net-(U15-EP)*%
X35560000Y-25400000D03*
D13*
%TO.P,U15,2,CLOCK*%
%TO.N,Net-(U15-CLOCK)*%
X38100000Y-25400000D03*
%TO.P,U15,3,A*%
%TO.N,GND*%
X40640000Y-25400000D03*
%TO.P,U15,4,B*%
X43180000Y-25400000D03*
%TO.P,U15,5,C*%
X45720000Y-25400000D03*
%TO.P,U15,6,D*%
X48260000Y-25400000D03*
%TO.P,U15,7,EP*%
%TO.N,Net-(U15-EP)*%
X50800000Y-25400000D03*
%TO.P,U15,8,GND*%
%TO.N,GND*%
X53340000Y-25400000D03*
%TO.P,U15,9,LOAD*%
%TO.N,Net-(U15-LOAD)*%
X53340000Y-17780000D03*
%TO.P,U15,10,ET*%
%TO.N,Net-(U15-EP)*%
X50800000Y-17780000D03*
%TO.P,U15,11,QD*%
%TO.N,unconnected-(U15-QD-Pad11)*%
X48260000Y-17780000D03*
%TO.P,U15,12,QC*%
%TO.N,Net-(U15-QC)*%
X45720000Y-17780000D03*
%TO.P,U15,13,QB*%
%TO.N,Net-(U15-QB)*%
X43180000Y-17780000D03*
%TO.P,U15,14,QA*%
%TO.N,unconnected-(U15-QA-Pad14)*%
X40640000Y-17780000D03*
%TO.P,U15,15,COUT*%
%TO.N,unconnected-(U15-COUT-Pad15)*%
X38100000Y-17780000D03*
%TO.P,U15,16,VCC*%
%TO.N,+5V*%
X35560000Y-17780000D03*
%TD*%
D14*
%TO.P,C26,1*%
%TO.N,GND*%
X27940000Y-60960000D03*
D12*
%TO.P,C26,2*%
%TO.N,-10V*%
X30440000Y-60960000D03*
%TD*%
D14*
%TO.P,U3,1*%
%TO.N,Net-(C1-Pad1)*%
X81280000Y-12700000D03*
D13*
%TO.P,U3,2*%
%TO.N,Net-(U1-Pad1)*%
X83820000Y-12700000D03*
%TO.P,U3,3*%
%TO.N,Net-(C6-Pad1)*%
X86360000Y-12700000D03*
%TO.P,U3,4*%
%TO.N,Net-(U11A-C)*%
X88900000Y-12700000D03*
%TO.P,U3,5*%
%TO.N,INTA*%
X91440000Y-12700000D03*
%TO.P,U3,6*%
%TO.N,Net-(D19-A)*%
X93980000Y-12700000D03*
%TO.P,U3,7,GND*%
%TO.N,GND*%
X96520000Y-12700000D03*
%TO.P,U3,8*%
%TO.N,Net-(D20-A)*%
X96520000Y-5080000D03*
%TO.P,U3,9*%
%TO.N,STPA*%
X93980000Y-5080000D03*
%TO.P,U3,10*%
%TO.N,unconnected-(U3-Pad10)*%
X91440000Y-5080000D03*
%TO.P,U3,11*%
%TO.N,+5V*%
X88900000Y-5080000D03*
%TO.P,U3,12*%
%TO.N,unconnected-(U3-Pad12)*%
X86360000Y-5080000D03*
%TO.P,U3,13*%
%TO.N,+5V*%
X83820000Y-5080000D03*
%TO.P,U3,14,VCC*%
X81280000Y-5080000D03*
%TD*%
D12*
%TO.P,R1,1*%
%TO.N,Net-(D1-K)*%
X139700000Y-68580000D03*
D13*
%TO.P,R1,2*%
%TO.N,Net-(R1-Pad2)*%
X139700000Y-60960000D03*
%TD*%
D15*
%TO.P,D10,1,K*%
%TO.N,Net-(D10-K)*%
X142240000Y-20320000D03*
D16*
%TO.P,D10,2,A*%
%TO.N,Net-(D10-A)*%
X142240000Y-17780000D03*
%TD*%
D12*
%TO.P,R29,1*%
%TO.N,BANK2*%
X160020000Y-60960000D03*
D13*
%TO.P,R29,2*%
%TO.N,A10*%
X160020000Y-68580000D03*
%TD*%
D14*
%TO.P,U12,1*%
%TO.N,Net-(C13-Pad1)*%
X15240000Y-12700000D03*
D13*
%TO.P,U12,2*%
%TO.N,Net-(C12-Pad1)*%
X17780000Y-12700000D03*
%TO.P,U12,3*%
%TO.N,Net-(C12-Pad2)*%
X20320000Y-12700000D03*
%TO.P,U12,4*%
%TO.N,Net-(R21-Pad2)*%
X22860000Y-12700000D03*
%TO.P,U12,5*%
%TO.N,Net-(U15-QC)*%
X25400000Y-12700000D03*
%TO.P,U12,6*%
%TO.N,Net-(U12-Pad6)*%
X27940000Y-12700000D03*
%TO.P,U12,7,GND*%
%TO.N,GND*%
X30480000Y-12700000D03*
%TO.P,U12,8*%
%TO.N,Net-(C9-Pad1)*%
X30480000Y-5080000D03*
%TO.P,U12,9*%
%TO.N,Net-(U12-Pad9)*%
X27940000Y-5080000D03*
%TO.P,U12,10*%
%TO.N,Net-(C10-Pad1)*%
X25400000Y-5080000D03*
%TO.P,U12,11*%
%TO.N,Net-(U12-Pad11)*%
X22860000Y-5080000D03*
%TO.P,U12,12*%
%TO.N,Net-(U12-Pad12)*%
X20320000Y-5080000D03*
%TO.P,U12,13*%
%TO.N,Net-(U15-QB)*%
X17780000Y-5080000D03*
%TO.P,U12,14,VCC*%
%TO.N,+5V*%
X15240000Y-5080000D03*
%TD*%
D15*
%TO.P,D38,1,K*%
%TO.N,-10V*%
X33020000Y-96520000D03*
D16*
%TO.P,D38,2,A*%
%TO.N,Net-(D38-A)*%
X33020000Y-93980000D03*
%TD*%
D12*
%TO.P,R11,1*%
%TO.N,Net-(R11-Pad1)*%
X185420000Y-40640000D03*
D13*
%TO.P,R11,2*%
%TO.N,Net-(C6-Pad1)*%
X177800000Y-40640000D03*
%TD*%
D12*
%TO.P,C21,1*%
%TO.N,+5V*%
X53340000Y-99060000D03*
%TO.P,C21,2*%
%TO.N,GND*%
X53340000Y-94060000D03*
%TD*%
%TO.P,R33,1*%
%TO.N,GND*%
X48260000Y-101600000D03*
D13*
%TO.P,R33,2*%
%TO.N,ROM_P26*%
X48260000Y-93980000D03*
%TD*%
D14*
%TO.P,D27,1,K*%
%TO.N,A9*%
X162509032Y-71120000D03*
D13*
%TO.P,D27,2,A*%
%TO.N,GND*%
X162509032Y-73660000D03*
%TD*%
D17*
%TO.P,J5,1,Pin_1*%
%TO.N,GND*%
X12700000Y-78740000D03*
%TD*%
D12*
%TO.P,R24,1*%
%TO.N,BANK7*%
X147320000Y-60960000D03*
D13*
%TO.P,R24,2*%
%TO.N,A15*%
X147320000Y-68580000D03*
%TD*%
D18*
%TO.P,U5,1,D0*%
%TO.N,/ProgramMemory/D0*%
X58420000Y-55880000D03*
D19*
%TO.P,U5,2,D1*%
%TO.N,/ProgramMemory/D1*%
X60960000Y-55880000D03*
%TO.P,U5,3,D2*%
%TO.N,/ProgramMemory/D2*%
X63500000Y-55880000D03*
%TO.P,U5,4,D3*%
%TO.N,/ProgramMemory/D3*%
X66040000Y-55880000D03*
%TO.P,U5,5,STPA*%
%TO.N,STPA*%
X68580000Y-55880000D03*
%TO.P,U5,6,STP*%
%TO.N,STP*%
X71120000Y-55880000D03*
%TO.P,U5,7,INT*%
%TO.N,INT*%
X73660000Y-55880000D03*
%TO.P,U5,8,INTA*%
%TO.N,INTA*%
X76200000Y-55880000D03*
%TO.P,U5,9,Vss*%
%TO.N,+5V*%
X78740000Y-55880000D03*
%TO.P,U5,10,CLK1*%
%TO.N,/ClockGen/CLK1*%
X81280000Y-55880000D03*
%TO.P,U5,11,CLK2*%
%TO.N,/ClockGen/CLK2*%
X83820000Y-55880000D03*
%TO.P,U5,12,RESET*%
%TO.N,/ProgramMemory/RESET*%
X86360000Y-55880000D03*
%TO.P,U5,13,TEST*%
%TO.N,Net-(U5-TEST)*%
X86360000Y-40640000D03*
%TO.P,U5,14,Vdd*%
%TO.N,-10V*%
X83820000Y-40640000D03*
%TO.P,U5,15,Vdd2*%
X81280000Y-40640000D03*
%TO.P,U5,16,SYNC*%
%TO.N,/ProgramMemory/SYNC*%
X78740000Y-40640000D03*
%TO.P,U5,17,CMRAM3*%
%TO.N,unconnected-(U5-CMRAM3-Pad17)*%
X76200000Y-40640000D03*
%TO.P,U5,18,CMRAM2*%
%TO.N,unconnected-(U5-CMRAM2-Pad18)*%
X73660000Y-40640000D03*
%TO.P,U5,19,CMRAM1*%
%TO.N,unconnected-(U5-CMRAM1-Pad19)*%
X71120000Y-40640000D03*
%TO.P,U5,20,CMRAM0*%
%TO.N,Net-(U10-CM)*%
X68580000Y-40640000D03*
%TO.P,U5,21,Vdd1*%
%TO.N,-10V*%
X66040000Y-40640000D03*
%TO.P,U5,22,CMROM1*%
%TO.N,/ProgramMemory/CMROM1*%
X63500000Y-40640000D03*
%TO.P,U5,23,CMROM0*%
%TO.N,/ProgramMemory/CMROM0*%
X60960000Y-40640000D03*
%TO.P,U5,24,CY*%
%TO.N,unconnected-(U5-CY-Pad24)*%
X58420000Y-40640000D03*
%TD*%
D12*
%TO.P,R31,1*%
%TO.N,BANK0*%
X165100000Y-60960000D03*
D13*
%TO.P,R31,2*%
%TO.N,A8*%
X165100000Y-68580000D03*
%TD*%
D15*
%TO.P,D3,1,K*%
%TO.N,BANK1*%
X137160000Y-43180000D03*
D16*
%TO.P,D3,2,A*%
%TO.N,Net-(D3-A)*%
X137160000Y-40640000D03*
%TD*%
D12*
%TO.P,C13,1*%
%TO.N,Net-(C13-Pad1)*%
X15240000Y-15240000D03*
%TO.P,C13,2*%
%TO.N,GND*%
X10240000Y-15240000D03*
%TD*%
%TO.P,C10,1*%
%TO.N,Net-(C10-Pad1)*%
X35480000Y-33020000D03*
%TO.P,C10,2*%
%TO.N,Net-(U14-IN_B)*%
X30480000Y-33020000D03*
%TD*%
D17*
%TO.P,J4,1,Pin_1*%
%TO.N,Net-(D35-K)*%
X12700000Y-63500000D03*
%TD*%
D14*
%TO.P,D23,1,K*%
%TO.N,A13*%
X152349032Y-71120000D03*
D13*
%TO.P,D23,2,A*%
%TO.N,GND*%
X152349032Y-73660000D03*
%TD*%
D12*
%TO.P,R27,1*%
%TO.N,BANK4*%
X154940000Y-60960000D03*
D13*
%TO.P,R27,2*%
%TO.N,A12*%
X154940000Y-68580000D03*
%TD*%
D20*
%TO.P,D36,1,K*%
%TO.N,GND*%
X22860000Y-68580000D03*
D21*
%TO.P,D36,2,A*%
%TO.N,Net-(D36-A)*%
X22860000Y-76200000D03*
%TD*%
D14*
%TO.P,D1,1,K*%
%TO.N,Net-(D1-K)*%
X139700000Y-71120000D03*
D13*
%TO.P,D1,2,A*%
%TO.N,GND*%
X139700000Y-78740000D03*
%TD*%
D14*
%TO.P,U2,1*%
%TO.N,/ProgramMemory/CMROM0*%
X116840000Y-68580000D03*
D13*
%TO.P,U2,2*%
%TO.N,/ProgramMemory/CMROM1*%
X119380000Y-68580000D03*
%TO.P,U2,3*%
%TO.N,Net-(U22-CM)*%
X121920000Y-68580000D03*
%TO.P,U2,4*%
%TO.N,unconnected-(U2-Pad4)*%
X124460000Y-68580000D03*
%TO.P,U2,5*%
%TO.N,-10V*%
X127000000Y-68580000D03*
%TO.P,U2,6*%
X129540000Y-68580000D03*
%TO.P,U2,7,VSS*%
X132080000Y-68580000D03*
%TO.P,U2,8*%
%TO.N,Net-(D14-K)*%
X132080000Y-60960000D03*
%TO.P,U2,9*%
X129540000Y-60960000D03*
%TO.P,U2,10*%
%TO.N,Net-(R1-Pad2)*%
X127000000Y-60960000D03*
%TO.P,U2,11*%
%TO.N,unconnected-(U2-Pad11)*%
X124460000Y-60960000D03*
%TO.P,U2,12*%
%TO.N,+5V*%
X121920000Y-60960000D03*
%TO.P,U2,13*%
X119380000Y-60960000D03*
%TO.P,U2,14,VDD*%
X116840000Y-60960000D03*
%TD*%
D14*
%TO.P,U18,1,NC*%
%TO.N,unconnected-(U18-NC-Pad1)*%
X144780000Y-93980000D03*
D13*
%TO.P,U18,2,A16*%
%TO.N,GND*%
X147320000Y-93980000D03*
%TO.P,U18,3,A14*%
%TO.N,A14*%
X149860000Y-93980000D03*
%TO.P,U18,4,A12*%
%TO.N,A12*%
X152400000Y-93980000D03*
%TO.P,U18,5,A7*%
%TO.N,A7*%
X154940000Y-93980000D03*
%TO.P,U18,6,A6*%
%TO.N,A6*%
X157480000Y-93980000D03*
%TO.P,U18,7,A5*%
%TO.N,A5*%
X160020000Y-93980000D03*
%TO.P,U18,8,A4*%
%TO.N,A4*%
X162560000Y-93980000D03*
%TO.P,U18,9,A3*%
%TO.N,A3*%
X165100000Y-93980000D03*
%TO.P,U18,10,A2*%
%TO.N,A2*%
X167640000Y-93980000D03*
%TO.P,U18,11,A1*%
%TO.N,A1*%
X170180000Y-93980000D03*
%TO.P,U18,12,A0*%
%TO.N,A0*%
X172720000Y-93980000D03*
%TO.P,U18,13,I/O0*%
%TO.N,OPR0*%
X175260000Y-93980000D03*
%TO.P,U18,14,I/O1*%
%TO.N,OPR1*%
X177800000Y-93980000D03*
%TO.P,U18,15,I/O2*%
%TO.N,OPR2*%
X180340000Y-93980000D03*
%TO.P,U18,16,Vss(GND)*%
%TO.N,GND*%
X182880000Y-93980000D03*
%TO.P,U18,17,I/O3*%
%TO.N,OPR3*%
X182880000Y-78740000D03*
%TO.P,U18,18,I/O4*%
%TO.N,Net-(RN6-R4)*%
X180340000Y-78740000D03*
%TO.P,U18,19,I/O5*%
%TO.N,Net-(RN6-R3)*%
X177800000Y-78740000D03*
%TO.P,U18,20,I/O6*%
%TO.N,Net-(RN6-R2)*%
X175260000Y-78740000D03*
%TO.P,U18,21,I/O7*%
%TO.N,Net-(RN6-R1)*%
X172720000Y-78740000D03*
%TO.P,U18,22,~{CS1}*%
%TO.N,GND*%
X170180000Y-78740000D03*
%TO.P,U18,23,A10*%
%TO.N,A10*%
X167640000Y-78740000D03*
%TO.P,U18,24,~{OE}*%
%TO.N,~{OE}*%
X165100000Y-78740000D03*
%TO.P,U18,25,A11*%
%TO.N,A11*%
X162560000Y-78740000D03*
%TO.P,U18,26,A9*%
%TO.N,A9*%
X160020000Y-78740000D03*
%TO.P,U18,27,A8*%
%TO.N,A8*%
X157480000Y-78740000D03*
%TO.P,U18,28,A13*%
%TO.N,A13*%
X154940000Y-78740000D03*
%TO.P,U18,29,~{WE}*%
%TO.N,~{WE_OPR}*%
X152400000Y-78740000D03*
%TO.P,U18,30,CS2*%
%TO.N,CS~{ROM}RAM*%
X149860000Y-78740000D03*
%TO.P,U18,31,A15*%
%TO.N,A15*%
X147320000Y-78740000D03*
%TO.P,U18,32,Vcc*%
%TO.N,+5V*%
X144780000Y-78740000D03*
%TD*%
D15*
%TO.P,D20,1,K*%
%TO.N,Net-(D20-K)*%
X116840000Y-10160000D03*
D16*
%TO.P,D20,2,A*%
%TO.N,Net-(D20-A)*%
X116840000Y-7620000D03*
%TD*%
D15*
%TO.P,D13,1,K*%
%TO.N,Net-(D13-K)*%
X127000000Y-20320000D03*
D16*
%TO.P,D13,2,A*%
%TO.N,Net-(D13-A)*%
X127000000Y-17780000D03*
%TD*%
D14*
%TO.P,U1,1*%
%TO.N,Net-(U1-Pad1)*%
X152400000Y-20320000D03*
D13*
%TO.P,U1,2*%
%TO.N,Net-(J1-Pin_4)*%
X154940000Y-20320000D03*
%TO.P,U1,3*%
%TO.N,Net-(U5-TEST)*%
X157480000Y-20320000D03*
%TO.P,U1,4*%
%TO.N,Net-(D1-K)*%
X160020000Y-20320000D03*
%TO.P,U1,5*%
X162560000Y-20320000D03*
%TO.P,U1,6*%
%TO.N,Net-(J1-Pin_5)*%
X165100000Y-20320000D03*
%TO.P,U1,7,GND*%
%TO.N,GND*%
X167640000Y-20320000D03*
%TO.P,U1,8*%
%TO.N,unconnected-(U1-Pad8)*%
X167640000Y-12700000D03*
%TO.P,U1,9*%
%TO.N,+5V*%
X165100000Y-12700000D03*
%TO.P,U1,10*%
X162560000Y-12700000D03*
%TO.P,U1,11*%
%TO.N,unconnected-(U1-Pad11)*%
X160020000Y-12700000D03*
%TO.P,U1,12*%
%TO.N,+5V*%
X157480000Y-12700000D03*
%TO.P,U1,13*%
X154940000Y-12700000D03*
%TO.P,U1,14,VCC*%
X152400000Y-12700000D03*
%TD*%
D14*
%TO.P,U7,1,D0*%
%TO.N,/ProgramMemory/D0*%
X127000000Y-55880000D03*
D13*
%TO.P,U7,2,D1*%
%TO.N,/ProgramMemory/D1*%
X129540000Y-55880000D03*
%TO.P,U7,3,D2*%
%TO.N,/ProgramMemory/D2*%
X132080000Y-55880000D03*
%TO.P,U7,4,D3*%
%TO.N,/ProgramMemory/D3*%
X134620000Y-55880000D03*
%TO.P,U7,5,Vss*%
%TO.N,+5V*%
X137160000Y-55880000D03*
%TO.P,U7,6,CLK1*%
%TO.N,/ClockGen/CLK1*%
X139700000Y-55880000D03*
%TO.P,U7,7,CLK2*%
%TO.N,/ClockGen/CLK2*%
X142240000Y-55880000D03*
%TO.P,U7,8,SYNC*%
%TO.N,/ProgramMemory/SYNC*%
X144780000Y-55880000D03*
%TO.P,U7,9,RESET*%
%TO.N,/ProgramMemory/RESET*%
X144780000Y-48260000D03*
%TO.P,U7,10,P0*%
%TO.N,+5V*%
X142240000Y-48260000D03*
%TO.P,U7,11,CM*%
%TO.N,Net-(U10-CM)*%
X139700000Y-48260000D03*
%TO.P,U7,12,Vdd*%
%TO.N,-10V*%
X137160000Y-48260000D03*
%TO.P,U7,13,O3*%
%TO.N,BANK3*%
X134620000Y-48260000D03*
%TO.P,U7,14,O2*%
%TO.N,BANK2*%
X132080000Y-48260000D03*
%TO.P,U7,15,O1*%
%TO.N,BANK1*%
X129540000Y-48260000D03*
%TO.P,U7,16,O0*%
%TO.N,BANK0*%
X127000000Y-48260000D03*
%TD*%
D15*
%TO.P,D37,1,K*%
%TO.N,Net-(D36-A)*%
X22860000Y-96520000D03*
D16*
%TO.P,D37,2,A*%
%TO.N,Net-(D37-A)*%
X22860000Y-93980000D03*
%TD*%
D12*
%TO.P,R40,1*%
%TO.N,+5V*%
X25400000Y-83820000D03*
D13*
%TO.P,R40,2*%
%TO.N,Net-(D34-A)*%
X25400000Y-91440000D03*
%TD*%
D12*
%TO.P,R37,1*%
%TO.N,IO3*%
X114300000Y-111760000D03*
D13*
%TO.P,R37,2*%
%TO.N,Net-(D31-K)*%
X121920000Y-111760000D03*
%TD*%
D12*
%TO.P,C17,1*%
%TO.N,+5V*%
X97790000Y-54530000D03*
%TO.P,C17,2*%
%TO.N,-10V*%
X97790000Y-49530000D03*
%TD*%
D14*
%TO.P,D26,1,K*%
%TO.N,A10*%
X159894516Y-71120000D03*
D13*
%TO.P,D26,2,A*%
%TO.N,GND*%
X159894516Y-73660000D03*
%TD*%
D12*
%TO.P,R8,1*%
%TO.N,Net-(D18-A)*%
X177800000Y-66040000D03*
D13*
%TO.P,R8,2*%
%TO.N,Net-(R8-Pad2)*%
X170180000Y-66040000D03*
%TD*%
D14*
%TO.P,D25,1,K*%
%TO.N,A11*%
X157480000Y-71120000D03*
D13*
%TO.P,D25,2,A*%
%TO.N,GND*%
X157480000Y-73660000D03*
%TD*%
D12*
%TO.P,R38,1*%
%TO.N,IO4*%
X114300000Y-109220000D03*
D13*
%TO.P,R38,2*%
%TO.N,Net-(D32-K)*%
X121920000Y-109220000D03*
%TD*%
D14*
%TO.P,D24,1,K*%
%TO.N,A12*%
X154889032Y-71120000D03*
D13*
%TO.P,D24,2,A*%
%TO.N,GND*%
X154889032Y-73660000D03*
%TD*%
D22*
%TO.P,Y1,1,1*%
%TO.N,Net-(C13-Pad1)*%
X17780000Y-20320000D03*
%TO.P,Y1,2,2*%
%TO.N,Net-(R21-Pad2)*%
X22660000Y-20320000D03*
%TD*%
D14*
%TO.P,D18,1,K*%
%TO.N,+5V*%
X170180000Y-60960000D03*
D13*
%TO.P,D18,2,A*%
%TO.N,Net-(D18-A)*%
X177800000Y-60960000D03*
%TD*%
D12*
%TO.P,R12,1*%
%TO.N,+5V*%
X160020000Y-7620000D03*
D13*
%TO.P,R12,2*%
%TO.N,STP*%
X152400000Y-7620000D03*
%TD*%
D23*
%TO.P,J3,1,Pin_1*%
%TO.N,+5V*%
X52070000Y-102870000D03*
D24*
%TO.P,J3,2,Pin_2*%
%TO.N,ROM_P1*%
X52070000Y-105410000D03*
%TD*%
D12*
%TO.P,R28,1*%
%TO.N,BANK3*%
X157480000Y-60960000D03*
D13*
%TO.P,R28,2*%
%TO.N,A11*%
X157480000Y-68580000D03*
%TD*%
D12*
%TO.P,R41,1*%
%TO.N,Net-(D35-K)*%
X22860000Y-83820000D03*
D13*
%TO.P,R41,2*%
%TO.N,Net-(D37-A)*%
X22860000Y-91440000D03*
%TD*%
D12*
%TO.P,R3,1*%
%TO.N,Net-(R3-Pad1)*%
X160020000Y-40640000D03*
D13*
%TO.P,R3,2*%
%TO.N,Net-(C1-Pad1)*%
X152400000Y-40640000D03*
%TD*%
D12*
%TO.P,C5,1*%
%TO.N,-10V*%
X113030000Y-67310000D03*
%TO.P,C5,2*%
%TO.N,+5V*%
X113030000Y-62310000D03*
%TD*%
D14*
%TO.P,U14,1,NC*%
%TO.N,unconnected-(U14-NC-Pad1)*%
X17780000Y-40640000D03*
D13*
%TO.P,U14,2,IN_A*%
%TO.N,Net-(U14-IN_A)*%
X20320000Y-40640000D03*
%TO.P,U14,3,V-*%
%TO.N,-10V*%
X22860000Y-40640000D03*
%TO.P,U14,4,IN_B*%
%TO.N,Net-(U14-IN_B)*%
X25400000Y-40640000D03*
%TO.P,U14,5,OUT_B*%
%TO.N,Net-(U14-OUT_B)*%
X25400000Y-33020000D03*
%TO.P,U14,6,V+*%
%TO.N,+5V*%
X22860000Y-33020000D03*
%TO.P,U14,7,OUT_A*%
%TO.N,Net-(U14-OUT_A)*%
X20320000Y-33020000D03*
%TO.P,U14,8,NC*%
%TO.N,unconnected-(U14-NC-Pad8)*%
X17780000Y-33020000D03*
%TD*%
D12*
%TO.P,R17,1*%
%TO.N,Net-(U15-EP)*%
X35560000Y-27940000D03*
D13*
%TO.P,R17,2*%
%TO.N,+5V*%
X27940000Y-27940000D03*
%TD*%
D14*
%TO.P,D22,1,K*%
%TO.N,A14*%
X149860000Y-71120000D03*
D13*
%TO.P,D22,2,A*%
%TO.N,GND*%
X149860000Y-73660000D03*
%TD*%
D12*
%TO.P,R14,1*%
%TO.N,Net-(D19-K)*%
X137160000Y-7620000D03*
D13*
%TO.P,R14,2*%
%TO.N,GND*%
X129540000Y-7620000D03*
%TD*%
D12*
%TO.P,R7,1*%
%TO.N,+5V*%
X170180000Y-63500000D03*
D13*
%TO.P,R7,2*%
%TO.N,Net-(D18-A)*%
X177800000Y-63500000D03*
%TD*%
D12*
%TO.P,C16,1*%
%TO.N,+5V*%
X97790000Y-31670000D03*
%TO.P,C16,2*%
%TO.N,-10V*%
X97790000Y-26670000D03*
%TD*%
D14*
%TO.P,D28,1,K*%
%TO.N,A8*%
X165049032Y-71120000D03*
D13*
%TO.P,D28,2,A*%
%TO.N,GND*%
X165049032Y-73660000D03*
%TD*%
D12*
%TO.P,C2,1*%
%TO.N,Net-(C2-Pad1)*%
X165100000Y-38100000D03*
%TO.P,C2,2*%
%TO.N,-10V*%
X170100000Y-38100000D03*
%TD*%
D14*
%TO.P,D32,1,K*%
%TO.N,Net-(D32-K)*%
X124460000Y-109220000D03*
D13*
%TO.P,D32,2,A*%
%TO.N,GND*%
X127000000Y-109220000D03*
%TD*%
D12*
%TO.P,R5,1*%
%TO.N,Net-(C2-Pad1)*%
X165100000Y-35560000D03*
D13*
%TO.P,R5,2*%
%TO.N,+5V*%
X172720000Y-35560000D03*
%TD*%
D16*
%TO.P,SW4,*%
%TO.N,*%
X27940000Y-114300000D03*
X27940000Y-104140000D03*
D15*
%TO.P,SW4,1,A*%
%TO.N,+5V*%
X25400000Y-111760000D03*
D16*
%TO.P,SW4,2,B*%
%TO.N,Net-(D35-K)*%
X25400000Y-109260000D03*
%TO.P,SW4,3,C*%
%TO.N,unconnected-(SW4A-C-Pad3)*%
X25400000Y-106760000D03*
%TO.P,SW4,4,A*%
%TO.N,-10V*%
X30480000Y-111760000D03*
%TO.P,SW4,5,B*%
%TO.N,Net-(D36-A)*%
X30480000Y-109260000D03*
%TO.P,SW4,6,C*%
%TO.N,unconnected-(SW4B-C-Pad6)*%
X30480000Y-106760000D03*
%TD*%
D12*
%TO.P,C18,1*%
%TO.N,+5V*%
X123190000Y-31670000D03*
%TO.P,C18,2*%
%TO.N,-10V*%
X123190000Y-26670000D03*
%TD*%
D18*
%TO.P,U22,1,D0*%
%TO.N,/ProgramMemory/D0*%
X53340000Y-83820000D03*
D19*
%TO.P,U22,2,D1*%
%TO.N,/ProgramMemory/D1*%
X55880000Y-83820000D03*
%TO.P,U22,3,D2*%
%TO.N,/ProgramMemory/D2*%
X58420000Y-83820000D03*
%TO.P,U22,4,D3*%
%TO.N,/ProgramMemory/D3*%
X60960000Y-83820000D03*
%TO.P,U22,5,OPR0*%
%TO.N,OPR0*%
X63500000Y-83820000D03*
%TO.P,U22,6,OPR1*%
%TO.N,OPR1*%
X66040000Y-83820000D03*
%TO.P,U22,7,OPR2*%
%TO.N,OPR2*%
X68580000Y-83820000D03*
%TO.P,U22,8,OPR3*%
%TO.N,OPR3*%
X71120000Y-83820000D03*
%TO.P,U22,9,OPA0*%
%TO.N,OPA0*%
X73660000Y-83820000D03*
%TO.P,U22,10,OPA1*%
%TO.N,OPA1*%
X76200000Y-83820000D03*
%TO.P,U22,11,OPA2*%
%TO.N,OPA2*%
X78740000Y-83820000D03*
%TO.P,U22,12,OPA3*%
%TO.N,OPA3*%
X81280000Y-83820000D03*
%TO.P,U22,13,CLK1*%
%TO.N,/ClockGen/CLK1*%
X83820000Y-83820000D03*
%TO.P,U22,14,CLK2*%
%TO.N,/ClockGen/CLK2*%
X86360000Y-83820000D03*
%TO.P,U22,15,SYNC*%
%TO.N,/ProgramMemory/SYNC*%
X88900000Y-83820000D03*
%TO.P,U22,16,CM*%
%TO.N,Net-(U22-CM)*%
X91440000Y-83820000D03*
%TO.P,U22,17,RESET*%
%TO.N,/ProgramMemory/RESET*%
X93980000Y-83820000D03*
%TO.P,U22,18,IN*%
%TO.N,unconnected-(U22-IN-Pad18)*%
X96520000Y-83820000D03*
%TO.P,U22,19,OUT*%
%TO.N,Net-(U21-G1)*%
X99060000Y-83820000D03*
%TO.P,U22,20,Vss*%
%TO.N,+5V*%
X101600000Y-83820000D03*
%TO.P,U22,21,PM*%
%TO.N,Net-(U21-G2)*%
X101600000Y-68580000D03*
%TO.P,U22,22,FL*%
%TO.N,Net-(U22-FL)*%
X99060000Y-68580000D03*
%TO.P,U22,23,A0*%
%TO.N,A0*%
X96520000Y-68580000D03*
%TO.P,U22,24,A1*%
%TO.N,A1*%
X93980000Y-68580000D03*
%TO.P,U22,25,A2*%
%TO.N,A2*%
X91440000Y-68580000D03*
%TO.P,U22,26,A3*%
%TO.N,A3*%
X88900000Y-68580000D03*
%TO.P,U22,27,A4*%
%TO.N,A4*%
X86360000Y-68580000D03*
%TO.P,U22,28,A5*%
%TO.N,A5*%
X83820000Y-68580000D03*
%TO.P,U22,29,A6*%
%TO.N,A6*%
X81280000Y-68580000D03*
%TO.P,U22,30,A7*%
%TO.N,A7*%
X78740000Y-68580000D03*
%TO.P,U22,31,C0*%
%TO.N,C0*%
X76200000Y-68580000D03*
%TO.P,U22,32,C1*%
%TO.N,C1*%
X73660000Y-68580000D03*
%TO.P,U22,33,C2*%
%TO.N,C2*%
X71120000Y-68580000D03*
%TO.P,U22,34,C3*%
%TO.N,C3*%
X68580000Y-68580000D03*
%TO.P,U22,35,Vdd1*%
%TO.N,GND*%
X66040000Y-68580000D03*
%TO.P,U22,36,I/O4*%
%TO.N,IO4*%
X63500000Y-68580000D03*
%TO.P,U22,37,I/O3*%
%TO.N,IO3*%
X60960000Y-68580000D03*
%TO.P,U22,38,I/O2*%
%TO.N,IO2*%
X58420000Y-68580000D03*
%TO.P,U22,39,I/O1*%
%TO.N,IO1*%
X55880000Y-68580000D03*
%TO.P,U22,40,Vdd*%
%TO.N,-10V*%
X53340000Y-68580000D03*
%TD*%
D12*
%TO.P,R18,1*%
%TO.N,Net-(U14-OUT_A)*%
X33020000Y-43180000D03*
D13*
%TO.P,R18,2*%
%TO.N,/ClockGen/CLK1*%
X40640000Y-43180000D03*
%TD*%
D14*
%TO.P,U9,1,D0*%
%TO.N,/ProgramMemory/D0*%
X127000000Y-33020000D03*
D13*
%TO.P,U9,2,D1*%
%TO.N,/ProgramMemory/D1*%
X129540000Y-33020000D03*
%TO.P,U9,3,D2*%
%TO.N,/ProgramMemory/D2*%
X132080000Y-33020000D03*
%TO.P,U9,4,D3*%
%TO.N,/ProgramMemory/D3*%
X134620000Y-33020000D03*
%TO.P,U9,5,Vss*%
%TO.N,+5V*%
X137160000Y-33020000D03*
%TO.P,U9,6,CLK1*%
%TO.N,/ClockGen/CLK1*%
X139700000Y-33020000D03*
%TO.P,U9,7,CLK2*%
%TO.N,/ClockGen/CLK2*%
X142240000Y-33020000D03*
%TO.P,U9,8,SYNC*%
%TO.N,/ProgramMemory/SYNC*%
X144780000Y-33020000D03*
%TO.P,U9,9,RESET*%
%TO.N,/ProgramMemory/RESET*%
X144780000Y-25400000D03*
%TO.P,U9,10,P0*%
%TO.N,+5V*%
X142240000Y-25400000D03*
%TO.P,U9,11,CM*%
%TO.N,Net-(U10-CM)*%
X139700000Y-25400000D03*
%TO.P,U9,12,Vdd*%
%TO.N,-10V*%
X137160000Y-25400000D03*
%TO.P,U9,13,O3*%
%TO.N,Net-(D13-K)*%
X134620000Y-25400000D03*
%TO.P,U9,14,O2*%
%TO.N,Net-(D12-K)*%
X132080000Y-25400000D03*
%TO.P,U9,15,O1*%
%TO.N,Net-(D11-K)*%
X129540000Y-25400000D03*
%TO.P,U9,16,O0*%
%TO.N,Net-(D10-K)*%
X127000000Y-25400000D03*
%TD*%
D12*
%TO.P,C1,1*%
%TO.N,Net-(C1-Pad1)*%
X152400000Y-38100000D03*
%TO.P,C1,2*%
%TO.N,GND*%
X157400000Y-38100000D03*
%TD*%
%TO.P,R13,1*%
%TO.N,INTA*%
X104140000Y-10160000D03*
D13*
%TO.P,R13,2*%
%TO.N,GND*%
X111760000Y-10160000D03*
%TD*%
D12*
%TO.P,R4,1*%
%TO.N,Net-(C1-Pad1)*%
X104140000Y-5080000D03*
D13*
%TO.P,R4,2*%
%TO.N,GND*%
X111760000Y-5080000D03*
%TD*%
D14*
%TO.P,U10,1,D0*%
%TO.N,/ProgramMemory/D0*%
X101600000Y-33020000D03*
D13*
%TO.P,U10,2,D1*%
%TO.N,/ProgramMemory/D1*%
X104140000Y-33020000D03*
%TO.P,U10,3,D2*%
%TO.N,/ProgramMemory/D2*%
X106680000Y-33020000D03*
%TO.P,U10,4,D3*%
%TO.N,/ProgramMemory/D3*%
X109220000Y-33020000D03*
%TO.P,U10,5,Vss*%
%TO.N,+5V*%
X111760000Y-33020000D03*
%TO.P,U10,6,CLK1*%
%TO.N,/ClockGen/CLK1*%
X114300000Y-33020000D03*
%TO.P,U10,7,CLK2*%
%TO.N,/ClockGen/CLK2*%
X116840000Y-33020000D03*
%TO.P,U10,8,SYNC*%
%TO.N,/ProgramMemory/SYNC*%
X119380000Y-33020000D03*
%TO.P,U10,9,RESET*%
%TO.N,/ProgramMemory/RESET*%
X119380000Y-25400000D03*
%TO.P,U10,10,P0*%
%TO.N,-10V*%
X116840000Y-25400000D03*
%TO.P,U10,11,CM*%
%TO.N,Net-(U10-CM)*%
X114300000Y-25400000D03*
%TO.P,U10,12,Vdd*%
%TO.N,-10V*%
X111760000Y-25400000D03*
%TO.P,U10,13,O3*%
%TO.N,Net-(D17-K)*%
X109220000Y-25400000D03*
%TO.P,U10,14,O2*%
%TO.N,Net-(D16-K)*%
X106680000Y-25400000D03*
%TO.P,U10,15,O1*%
%TO.N,Net-(D15-K)*%
X104140000Y-25400000D03*
%TO.P,U10,16,O0*%
%TO.N,Net-(D14-K)*%
X101600000Y-25400000D03*
%TD*%
D12*
%TO.P,C12,1*%
%TO.N,Net-(C12-Pad1)*%
X17860000Y-15240000D03*
%TO.P,C12,2*%
%TO.N,Net-(C12-Pad2)*%
X22860000Y-15240000D03*
%TD*%
D18*
%TO.P,U16,1,NC*%
%TO.N,ROM_P1*%
X66040000Y-114300000D03*
D19*
%TO.P,U16,2,A12*%
%TO.N,ROM_A12*%
X68580000Y-114300000D03*
%TO.P,U16,3,A7*%
%TO.N,A7*%
X71120000Y-114300000D03*
%TO.P,U16,4,A6*%
%TO.N,A6*%
X73660000Y-114300000D03*
%TO.P,U16,5,A5*%
%TO.N,A5*%
X76200000Y-114300000D03*
%TO.P,U16,6,A4*%
%TO.N,A4*%
X78740000Y-114300000D03*
%TO.P,U16,7,A3*%
%TO.N,A3*%
X81280000Y-114300000D03*
%TO.P,U16,8,A2*%
%TO.N,A2*%
X83820000Y-114300000D03*
%TO.P,U16,9,A1*%
%TO.N,A1*%
X86360000Y-114300000D03*
%TO.P,U16,10,A0*%
%TO.N,A0*%
X88900000Y-114300000D03*
%TO.P,U16,11,D0*%
%TO.N,OPA0*%
X91440000Y-114300000D03*
%TO.P,U16,12,D1*%
%TO.N,OPA1*%
X93980000Y-114300000D03*
%TO.P,U16,13,D2*%
%TO.N,OPA2*%
X96520000Y-114300000D03*
%TO.P,U16,14,Vss(GND)*%
%TO.N,GND*%
X99060000Y-114300000D03*
%TO.P,U16,15,D3*%
%TO.N,OPA3*%
X99060000Y-99060000D03*
%TO.P,U16,16,D4*%
%TO.N,OPR0*%
X96520000Y-99060000D03*
%TO.P,U16,17,D5*%
%TO.N,OPR1*%
X93980000Y-99060000D03*
%TO.P,U16,18,D6*%
%TO.N,OPR2*%
X91440000Y-99060000D03*
%TO.P,U16,19,D7*%
%TO.N,OPR3*%
X88900000Y-99060000D03*
%TO.P,U16,20,~{CS}*%
%TO.N,CS~{ROM}RAM*%
X86360000Y-99060000D03*
%TO.P,U16,21,A10*%
%TO.N,C2*%
X83820000Y-99060000D03*
%TO.P,U16,22,~{OE}*%
%TO.N,~{OE}*%
X81280000Y-99060000D03*
%TO.P,U16,23,A11*%
%TO.N,C3*%
X78740000Y-99060000D03*
%TO.P,U16,24,A9*%
%TO.N,C1*%
X76200000Y-99060000D03*
%TO.P,U16,25,A8*%
%TO.N,C0*%
X73660000Y-99060000D03*
%TO.P,U16,26,NC*%
%TO.N,ROM_P26*%
X71120000Y-99060000D03*
%TO.P,U16,27,~{WE}*%
%TO.N,ROM_P27*%
X68580000Y-99060000D03*
%TO.P,U16,28,Vdd*%
%TO.N,+5V*%
X66040000Y-99060000D03*
%TD*%
D12*
%TO.P,C4,1*%
%TO.N,+5V*%
X148590000Y-13970000D03*
%TO.P,C4,2*%
%TO.N,GND*%
X148590000Y-18970000D03*
%TD*%
D14*
%TO.P,RN1,1,common*%
%TO.N,+5V*%
X127000000Y-38100000D03*
D13*
%TO.P,RN1,2,R1*%
%TO.N,Net-(D5-A)*%
X129540000Y-38100000D03*
%TO.P,RN1,3,R2*%
%TO.N,Net-(D4-A)*%
X132080000Y-38100000D03*
%TO.P,RN1,4,R3*%
%TO.N,Net-(D3-A)*%
X134620000Y-38100000D03*
%TO.P,RN1,5,R4*%
%TO.N,Net-(D2-A)*%
X137160000Y-38100000D03*
%TD*%
D12*
%TO.P,R36,1*%
%TO.N,IO2*%
X114300000Y-114300000D03*
D13*
%TO.P,R36,2*%
%TO.N,Net-(D30-K)*%
X121920000Y-114300000D03*
%TD*%
D14*
%TO.P,U13,1*%
%TO.N,Net-(R21-Pad2)*%
X38100000Y-12700000D03*
D13*
%TO.P,U13,2*%
X40640000Y-12700000D03*
%TO.P,U13,3*%
%TO.N,Net-(U15-CLOCK)*%
X43180000Y-12700000D03*
%TO.P,U13,4*%
%TO.N,Net-(U15-QB)*%
X45720000Y-12700000D03*
%TO.P,U13,5*%
%TO.N,Net-(U15-QC)*%
X48260000Y-12700000D03*
%TO.P,U13,6*%
%TO.N,Net-(U15-LOAD)*%
X50800000Y-12700000D03*
%TO.P,U13,7,GND*%
%TO.N,GND*%
X53340000Y-12700000D03*
%TO.P,U13,8*%
%TO.N,Net-(U12-Pad11)*%
X53340000Y-5080000D03*
%TO.P,U13,9*%
%TO.N,Net-(U15-QC)*%
X50800000Y-5080000D03*
%TO.P,U13,10*%
%TO.N,Net-(U12-Pad12)*%
X48260000Y-5080000D03*
%TO.P,U13,11*%
%TO.N,Net-(U12-Pad9)*%
X45720000Y-5080000D03*
%TO.P,U13,12*%
%TO.N,Net-(U12-Pad12)*%
X43180000Y-5080000D03*
%TO.P,U13,13*%
%TO.N,Net-(U12-Pad6)*%
X40640000Y-5080000D03*
%TO.P,U13,14,VCC*%
%TO.N,+5V*%
X38100000Y-5080000D03*
%TD*%
D15*
%TO.P,D9,1,K*%
%TO.N,BANK7*%
X101600000Y-43180000D03*
D16*
%TO.P,D9,2,A*%
%TO.N,Net-(D9-A)*%
X101600000Y-40640000D03*
%TD*%
D14*
%TO.P,RN2,1,common*%
%TO.N,+5V*%
X101600000Y-38100000D03*
D13*
%TO.P,RN2,2,R1*%
%TO.N,Net-(D9-A)*%
X104140000Y-38100000D03*
%TO.P,RN2,3,R2*%
%TO.N,Net-(D8-A)*%
X106680000Y-38100000D03*
%TO.P,RN2,4,R3*%
%TO.N,Net-(D7-A)*%
X109220000Y-38100000D03*
%TO.P,RN2,5,R4*%
%TO.N,Net-(D6-A)*%
X111760000Y-38100000D03*
%TD*%
D20*
%TO.P,D35,1,K*%
%TO.N,Net-(D35-K)*%
X22860000Y-53340000D03*
D21*
%TO.P,D35,2,A*%
%TO.N,GND*%
X22860000Y-60960000D03*
%TD*%
D14*
%TO.P,RN4,1,common*%
%TO.N,+5V*%
X101600000Y-15240000D03*
D13*
%TO.P,RN4,2,R1*%
%TO.N,Net-(D17-A)*%
X104140000Y-15240000D03*
%TO.P,RN4,3,R2*%
%TO.N,Net-(D16-A)*%
X106680000Y-15240000D03*
%TO.P,RN4,4,R3*%
%TO.N,Net-(D15-A)*%
X109220000Y-15240000D03*
%TO.P,RN4,5,R4*%
%TO.N,Net-(D14-A)*%
X111760000Y-15240000D03*
%TD*%
D15*
%TO.P,D12,1,K*%
%TO.N,Net-(D12-K)*%
X132080000Y-20320000D03*
D16*
%TO.P,D12,2,A*%
%TO.N,Net-(D12-A)*%
X132080000Y-17780000D03*
%TD*%
D23*
%TO.P,J2,1,Pin_1*%
%TO.N,+5V*%
X163830000Y-7620000D03*
D24*
%TO.P,J2,2,Pin_2*%
%TO.N,STP*%
X166370000Y-7620000D03*
%TO.P,J2,3,Pin_3*%
%TO.N,STPA*%
X168910000Y-7620000D03*
%TO.P,J2,4,Pin_4*%
%TO.N,GND*%
X171450000Y-7620000D03*
%TD*%
D12*
%TO.P,C8,1*%
%TO.N,GND*%
X17780000Y-30480000D03*
%TO.P,C8,2*%
%TO.N,+5V*%
X22780000Y-30480000D03*
%TD*%
D14*
%TO.P,D33,1,K*%
%TO.N,ROM_A12*%
X137160000Y-71120000D03*
D13*
%TO.P,D33,2,A*%
%TO.N,GND*%
X137160000Y-78740000D03*
%TD*%
D14*
%TO.P,RN6,1,common*%
%TO.N,GND*%
X170180000Y-73660000D03*
D13*
%TO.P,RN6,2,R1*%
%TO.N,Net-(RN6-R1)*%
X172720000Y-73660000D03*
%TO.P,RN6,3,R2*%
%TO.N,Net-(RN6-R2)*%
X175260000Y-73660000D03*
%TO.P,RN6,4,R3*%
%TO.N,Net-(RN6-R3)*%
X177800000Y-73660000D03*
%TO.P,RN6,5,R4*%
%TO.N,Net-(RN6-R4)*%
X180340000Y-73660000D03*
%TD*%
D15*
%TO.P,D34,1,K*%
%TO.N,GND*%
X27940000Y-96520000D03*
D16*
%TO.P,D34,2,A*%
%TO.N,Net-(D34-A)*%
X27940000Y-93980000D03*
%TD*%
D25*
%TO.P,SW1,1,1*%
%TO.N,+5V*%
X158900000Y-50800000D03*
X152400000Y-50800000D03*
%TO.P,SW1,2,2*%
%TO.N,Net-(R3-Pad1)*%
X158900000Y-46300000D03*
X152400000Y-46300000D03*
%TD*%
D12*
%TO.P,R9,1*%
%TO.N,+5V*%
X142240000Y-60960000D03*
D13*
%TO.P,R9,2*%
%TO.N,/ProgramMemory/CMROM1*%
X142240000Y-68580000D03*
%TD*%
D18*
%TO.P,U6,1,D0*%
%TO.N,/ProgramMemory/D0*%
X68580000Y-27940000D03*
D19*
%TO.P,U6,2,D1*%
%TO.N,/ProgramMemory/D1*%
X71120000Y-27940000D03*
%TO.P,U6,3,D2*%
%TO.N,/ProgramMemory/D2*%
X73660000Y-27940000D03*
%TO.P,U6,4,D3*%
%TO.N,/ProgramMemory/D3*%
X76200000Y-27940000D03*
%TO.P,U6,5,Vss*%
%TO.N,+5V*%
X78740000Y-27940000D03*
%TO.P,U6,6,CLK1*%
%TO.N,/ClockGen/CLK1*%
X81280000Y-27940000D03*
%TO.P,U6,7,CLK2*%
%TO.N,/ClockGen/CLK2*%
X83820000Y-27940000D03*
%TO.P,U6,8,SYNC*%
%TO.N,/ProgramMemory/SYNC*%
X86360000Y-27940000D03*
%TO.P,U6,9,RESET*%
%TO.N,/ProgramMemory/RESET*%
X86360000Y-20320000D03*
%TO.P,U6,10,TEST*%
%TO.N,Net-(U5-TEST)*%
X83820000Y-20320000D03*
%TO.P,U6,11,CMROM*%
%TO.N,/ProgramMemory/CMROM0*%
X81280000Y-20320000D03*
%TO.P,U6,12,Vdd*%
%TO.N,-10V*%
X78740000Y-20320000D03*
%TO.P,U6,13,CMRAM3*%
%TO.N,unconnected-(U6-CMRAM3-Pad13)*%
X76200000Y-20320000D03*
%TO.P,U6,14,CMRAM2*%
%TO.N,unconnected-(U6-CMRAM2-Pad14)*%
X73660000Y-20320000D03*
%TO.P,U6,15,CMRAM1*%
%TO.N,unconnected-(U6-CMRAM1-Pad15)*%
X71120000Y-20320000D03*
%TO.P,U6,16,CMRAM0*%
%TO.N,Net-(U10-CM)*%
X68580000Y-20320000D03*
%TD*%
D12*
%TO.P,R35,1*%
%TO.N,IO1*%
X114300000Y-116840000D03*
D13*
%TO.P,R35,2*%
%TO.N,Net-(D29-K)*%
X121920000Y-116840000D03*
%TD*%
D12*
%TO.P,R32,1*%
%TO.N,GND*%
X45720000Y-111760000D03*
D13*
%TO.P,R32,2*%
%TO.N,ROM_P1*%
X45720000Y-104140000D03*
%TD*%
D12*
%TO.P,C24,1*%
%TO.N,GND*%
X40640000Y-71120000D03*
%TO.P,C24,2*%
%TO.N,-10V*%
X40640000Y-66120000D03*
%TD*%
D14*
%TO.P,U17,1,NC*%
%TO.N,unconnected-(U17-NC-Pad1)*%
X144780000Y-111760000D03*
D13*
%TO.P,U17,2,A16*%
%TO.N,GND*%
X147320000Y-111760000D03*
%TO.P,U17,3,A14*%
%TO.N,A14*%
X149860000Y-111760000D03*
%TO.P,U17,4,A12*%
%TO.N,A12*%
X152400000Y-111760000D03*
%TO.P,U17,5,A7*%
%TO.N,A7*%
X154940000Y-111760000D03*
%TO.P,U17,6,A6*%
%TO.N,A6*%
X157480000Y-111760000D03*
%TO.P,U17,7,A5*%
%TO.N,A5*%
X160020000Y-111760000D03*
%TO.P,U17,8,A4*%
%TO.N,A4*%
X162560000Y-111760000D03*
%TO.P,U17,9,A3*%
%TO.N,A3*%
X165100000Y-111760000D03*
%TO.P,U17,10,A2*%
%TO.N,A2*%
X167640000Y-111760000D03*
%TO.P,U17,11,A1*%
%TO.N,A1*%
X170180000Y-111760000D03*
%TO.P,U17,12,A0*%
%TO.N,A0*%
X172720000Y-111760000D03*
%TO.P,U17,13,I/O0*%
%TO.N,OPA0*%
X175260000Y-111760000D03*
%TO.P,U17,14,I/O1*%
%TO.N,OPA1*%
X177800000Y-111760000D03*
%TO.P,U17,15,I/O2*%
%TO.N,OPA2*%
X180340000Y-111760000D03*
%TO.P,U17,16,Vss(GND)*%
%TO.N,GND*%
X182880000Y-111760000D03*
%TO.P,U17,17,I/O3*%
%TO.N,OPA3*%
X182880000Y-96520000D03*
%TO.P,U17,18,I/O4*%
%TO.N,Net-(RN5-R4)*%
X180340000Y-96520000D03*
%TO.P,U17,19,I/O5*%
%TO.N,Net-(RN5-R3)*%
X177800000Y-96520000D03*
%TO.P,U17,20,I/O6*%
%TO.N,Net-(RN5-R2)*%
X175260000Y-96520000D03*
%TO.P,U17,21,I/O7*%
%TO.N,Net-(RN5-R1)*%
X172720000Y-96520000D03*
%TO.P,U17,22,~{CS1}*%
%TO.N,GND*%
X170180000Y-96520000D03*
%TO.P,U17,23,A10*%
%TO.N,A10*%
X167640000Y-96520000D03*
%TO.P,U17,24,~{OE}*%
%TO.N,~{OE}*%
X165100000Y-96520000D03*
%TO.P,U17,25,A11*%
%TO.N,A11*%
X162560000Y-96520000D03*
%TO.P,U17,26,A9*%
%TO.N,A9*%
X160020000Y-96520000D03*
%TO.P,U17,27,A8*%
%TO.N,A8*%
X157480000Y-96520000D03*
%TO.P,U17,28,A13*%
%TO.N,A13*%
X154940000Y-96520000D03*
%TO.P,U17,29,~{WE}*%
%TO.N,~{WE_OPA}*%
X152400000Y-96520000D03*
%TO.P,U17,30,CS2*%
%TO.N,CS~{ROM}RAM*%
X149860000Y-96520000D03*
%TO.P,U17,31,A15*%
%TO.N,A15*%
X147320000Y-96520000D03*
%TO.P,U17,32,Vcc*%
%TO.N,+5V*%
X144780000Y-96520000D03*
%TD*%
D12*
%TO.P,R23,1*%
%TO.N,-10V*%
X40640000Y-38100000D03*
D13*
%TO.P,R23,2*%
%TO.N,Net-(U14-OUT_B)*%
X33020000Y-38100000D03*
%TD*%
D12*
%TO.P,C23,1*%
%TO.N,+5V*%
X140970000Y-101600000D03*
%TO.P,C23,2*%
%TO.N,GND*%
X140970000Y-106600000D03*
%TD*%
%TO.P,C22,1*%
%TO.N,+5V*%
X140970000Y-83900000D03*
%TO.P,C22,2*%
%TO.N,GND*%
X140970000Y-88900000D03*
%TD*%
D15*
%TO.P,D15,1,K*%
%TO.N,Net-(D15-K)*%
X111760000Y-20320000D03*
D16*
%TO.P,D15,2,A*%
%TO.N,Net-(D15-A)*%
X111760000Y-17780000D03*
%TD*%
D12*
%TO.P,R16,1*%
%TO.N,Net-(D20-K)*%
X129540000Y-10160000D03*
D13*
%TO.P,R16,2*%
%TO.N,GND*%
X137160000Y-10160000D03*
%TD*%
D12*
%TO.P,R42,1*%
%TO.N,GND*%
X38100000Y-101600000D03*
D13*
%TO.P,R42,2*%
%TO.N,Net-(D38-A)*%
X38100000Y-93980000D03*
%TD*%
D12*
%TO.P,C6,1*%
%TO.N,Net-(C6-Pad1)*%
X177800000Y-38100000D03*
%TO.P,C6,2*%
%TO.N,GND*%
X182800000Y-38100000D03*
%TD*%
D15*
%TO.P,D5,1,K*%
%TO.N,BANK3*%
X127000000Y-43180000D03*
D16*
%TO.P,D5,2,A*%
%TO.N,Net-(D5-A)*%
X127000000Y-40640000D03*
%TD*%
D15*
%TO.P,D8,1,K*%
%TO.N,BANK6*%
X106680000Y-43180000D03*
D16*
%TO.P,D8,2,A*%
%TO.N,Net-(D8-A)*%
X106680000Y-40640000D03*
%TD*%
D15*
%TO.P,D14,1,K*%
%TO.N,Net-(D14-K)*%
X116840000Y-20320000D03*
D16*
%TO.P,D14,2,A*%
%TO.N,Net-(D14-A)*%
X116840000Y-17780000D03*
%TD*%
D12*
%TO.P,C20,1*%
%TO.N,+5V*%
X111760000Y-76200000D03*
%TO.P,C20,2*%
%TO.N,GND*%
X111760000Y-71200000D03*
%TD*%
D15*
%TO.P,D4,1,K*%
%TO.N,BANK2*%
X132080000Y-43180000D03*
D16*
%TO.P,D4,2,A*%
%TO.N,Net-(D4-A)*%
X132080000Y-40640000D03*
%TD*%
D12*
%TO.P,C3,1*%
%TO.N,Net-(D18-A)*%
X175260000Y-68580000D03*
%TO.P,C3,2*%
%TO.N,-10V*%
X170260000Y-68580000D03*
%TD*%
%TO.P,R26,1*%
%TO.N,BANK5*%
X152400000Y-60960000D03*
D13*
%TO.P,R26,2*%
%TO.N,A13*%
X152400000Y-68580000D03*
%TD*%
D12*
%TO.P,R19,1*%
%TO.N,Net-(U14-OUT_B)*%
X33020000Y-40640000D03*
D13*
%TO.P,R19,2*%
%TO.N,/ClockGen/CLK2*%
X40640000Y-40640000D03*
%TD*%
D14*
%TO.P,U11,1,~{R}*%
%TO.N,INTA*%
X60955000Y-12700000D03*
D13*
%TO.P,U11,2,D*%
%TO.N,+5V*%
X63495000Y-12700000D03*
%TO.P,U11,3,C*%
%TO.N,Net-(U11A-C)*%
X66035000Y-12700000D03*
%TO.P,U11,4,~{S}*%
%TO.N,+5V*%
X68575000Y-12700000D03*
%TO.P,U11,5,Q*%
%TO.N,unconnected-(U11A-Q-Pad5)*%
X71115000Y-12700000D03*
%TO.P,U11,6,~{Q}*%
%TO.N,INT*%
X73655000Y-12700000D03*
%TO.P,U11,7,GND*%
%TO.N,GND*%
X76195000Y-12700000D03*
%TO.P,U11,8,~{Q}*%
%TO.N,unconnected-(U11B-~{Q}-Pad8)*%
X76195000Y-5080000D03*
%TO.P,U11,9,Q*%
%TO.N,unconnected-(U11B-Q-Pad9)*%
X73655000Y-5080000D03*
%TO.P,U11,10,~{S}*%
%TO.N,+5V*%
X71115000Y-5080000D03*
%TO.P,U11,11,C*%
X68575000Y-5080000D03*
%TO.P,U11,12,D*%
X66035000Y-5080000D03*
%TO.P,U11,13,~{R}*%
X63495000Y-5080000D03*
%TO.P,U11,14,VCC*%
X60955000Y-5080000D03*
%TD*%
D14*
%TO.P,RN5,1,common*%
%TO.N,GND*%
X170180000Y-76200000D03*
D13*
%TO.P,RN5,2,R1*%
%TO.N,Net-(RN5-R1)*%
X172720000Y-76200000D03*
%TO.P,RN5,3,R2*%
%TO.N,Net-(RN5-R2)*%
X175260000Y-76200000D03*
%TO.P,RN5,4,R3*%
%TO.N,Net-(RN5-R3)*%
X177800000Y-76200000D03*
%TO.P,RN5,5,R4*%
%TO.N,Net-(RN5-R4)*%
X180340000Y-76200000D03*
%TD*%
D12*
%TO.P,R34,1*%
%TO.N,ROM_P27*%
X45720000Y-93980000D03*
D13*
%TO.P,R34,2*%
%TO.N,+5V*%
X45720000Y-101600000D03*
%TD*%
D12*
%TO.P,C9,1*%
%TO.N,Net-(C9-Pad1)*%
X35480000Y-30480000D03*
%TO.P,C9,2*%
%TO.N,Net-(U14-IN_A)*%
X30480000Y-30480000D03*
%TD*%
%TO.P,R20,1*%
%TO.N,Net-(C13-Pad1)*%
X12700000Y-17780000D03*
D13*
%TO.P,R20,2*%
%TO.N,Net-(C12-Pad1)*%
X12700000Y-25400000D03*
%TD*%
D14*
%TO.P,U21,1,G1*%
%TO.N,Net-(U21-G1)*%
X114300000Y-106680000D03*
D13*
%TO.P,U21,2,A0*%
%TO.N,Net-(D29-K)*%
X116840000Y-106680000D03*
%TO.P,U21,3,A1*%
%TO.N,Net-(D30-K)*%
X119380000Y-106680000D03*
%TO.P,U21,4,A2*%
%TO.N,Net-(D31-K)*%
X121920000Y-106680000D03*
%TO.P,U21,5,A3*%
%TO.N,Net-(D32-K)*%
X124460000Y-106680000D03*
%TO.P,U21,6,A4*%
%TO.N,Net-(D29-K)*%
X127000000Y-106680000D03*
%TO.P,U21,7,A5*%
%TO.N,Net-(D30-K)*%
X129540000Y-106680000D03*
%TO.P,U21,8,A6*%
%TO.N,Net-(D31-K)*%
X132080000Y-106680000D03*
%TO.P,U21,9,A7*%
%TO.N,Net-(D32-K)*%
X134620000Y-106680000D03*
%TO.P,U21,10,GND*%
%TO.N,GND*%
X137160000Y-106680000D03*
%TO.P,U21,11,Y7*%
%TO.N,OPR3*%
X137160000Y-99060000D03*
%TO.P,U21,12,Y6*%
%TO.N,OPR2*%
X134620000Y-99060000D03*
%TO.P,U21,13,Y5*%
%TO.N,OPR1*%
X132080000Y-99060000D03*
%TO.P,U21,14,Y4*%
%TO.N,OPR0*%
X129540000Y-99060000D03*
%TO.P,U21,15,Y3*%
%TO.N,OPA3*%
X127000000Y-99060000D03*
%TO.P,U21,16,Y2*%
%TO.N,OPA2*%
X124460000Y-99060000D03*
%TO.P,U21,17,Y1*%
%TO.N,OPA1*%
X121920000Y-99060000D03*
%TO.P,U21,18,Y0*%
%TO.N,OPA0*%
X119380000Y-99060000D03*
%TO.P,U21,19,G2*%
%TO.N,Net-(U21-G2)*%
X116840000Y-99060000D03*
%TO.P,U21,20,VCC*%
%TO.N,+5V*%
X114300000Y-99060000D03*
%TD*%
D14*
%TO.P,U19,1*%
%TO.N,Net-(U22-FL)*%
X116840000Y-93980000D03*
D13*
%TO.P,U19,2*%
%TO.N,Net-(U19-Pad2)*%
X119380000Y-93980000D03*
%TO.P,U19,3*%
%TO.N,~{WE_OPA}*%
X121920000Y-93980000D03*
%TO.P,U19,4*%
%TO.N,Net-(U19-Pad4)*%
X124460000Y-93980000D03*
%TO.P,U19,5*%
%TO.N,Net-(U19-Pad2)*%
X127000000Y-93980000D03*
%TO.P,U19,6*%
%TO.N,~{WE_OPR}*%
X129540000Y-93980000D03*
%TO.P,U19,7,GND*%
%TO.N,GND*%
X132080000Y-93980000D03*
%TO.P,U19,8*%
%TO.N,Net-(U19-Pad8)*%
X132080000Y-86360000D03*
%TO.P,U19,9*%
%TO.N,C0*%
X129540000Y-86360000D03*
%TO.P,U19,10*%
%TO.N,C1*%
X127000000Y-86360000D03*
%TO.P,U19,11*%
%TO.N,Net-(U19-Pad11)*%
X124460000Y-86360000D03*
%TO.P,U19,12*%
%TO.N,C2*%
X121920000Y-86360000D03*
%TO.P,U19,13*%
%TO.N,C3*%
X119380000Y-86360000D03*
%TO.P,U19,14,VCC*%
%TO.N,+5V*%
X116840000Y-86360000D03*
%TD*%
D12*
%TO.P,R30,1*%
%TO.N,BANK1*%
X162560000Y-60960000D03*
D13*
%TO.P,R30,2*%
%TO.N,A9*%
X162560000Y-68580000D03*
%TD*%
D14*
%TO.P,U4,1*%
%TO.N,Net-(U4-Pad1)*%
X152400000Y-33020000D03*
D13*
%TO.P,U4,2*%
X154940000Y-33020000D03*
%TO.P,U4,3*%
%TO.N,/ProgramMemory/RESET*%
X157480000Y-33020000D03*
%TO.P,U4,4*%
%TO.N,Net-(U4-Pad1)*%
X160020000Y-33020000D03*
%TO.P,U4,5*%
%TO.N,Net-(C2-Pad1)*%
X162560000Y-33020000D03*
%TO.P,U4,6*%
%TO.N,Net-(R8-Pad2)*%
X165100000Y-33020000D03*
%TO.P,U4,7,Vss*%
%TO.N,-10V*%
X167640000Y-33020000D03*
%TO.P,U4,8*%
%TO.N,/ProgramMemory/CMROM0*%
X167640000Y-25400000D03*
%TO.P,U4,9*%
%TO.N,Net-(R39-Pad1)*%
X165100000Y-25400000D03*
%TO.P,U4,10*%
%TO.N,Net-(U4-Pad10)*%
X162560000Y-25400000D03*
%TO.P,U4,11*%
%TO.N,Net-(R39-Pad1)*%
X160020000Y-25400000D03*
%TO.P,U4,12*%
%TO.N,Net-(U4-Pad10)*%
X157480000Y-25400000D03*
%TO.P,U4,13*%
%TO.N,/ProgramMemory/CMROM1*%
X154940000Y-25400000D03*
%TO.P,U4,14,Vdd*%
%TO.N,+5V*%
X152400000Y-25400000D03*
%TD*%
D12*
%TO.P,R10,1*%
%TO.N,+5V*%
X111760000Y-7620000D03*
D13*
%TO.P,R10,2*%
%TO.N,Net-(C6-Pad1)*%
X104140000Y-7620000D03*
%TD*%
D15*
%TO.P,D17,1,K*%
%TO.N,Net-(D17-K)*%
X101600000Y-20320000D03*
D16*
%TO.P,D17,2,A*%
%TO.N,Net-(D17-A)*%
X101600000Y-17780000D03*
%TD*%
D15*
%TO.P,D11,1,K*%
%TO.N,Net-(D11-K)*%
X137160000Y-20320000D03*
D16*
%TO.P,D11,2,A*%
%TO.N,Net-(D11-A)*%
X137160000Y-17780000D03*
%TD*%
D15*
%TO.P,D2,1,K*%
%TO.N,BANK0*%
X142240000Y-43180000D03*
D16*
%TO.P,D2,2,A*%
%TO.N,Net-(D2-A)*%
X142240000Y-40640000D03*
%TD*%
D12*
%TO.P,R6,1*%
%TO.N,Net-(R6-Pad1)*%
X172720000Y-40640000D03*
D13*
%TO.P,R6,2*%
%TO.N,Net-(C2-Pad1)*%
X165100000Y-40640000D03*
%TD*%
D14*
%TO.P,U20,1*%
%TO.N,Net-(U19-Pad2)*%
X116840000Y-81280000D03*
D13*
%TO.P,U20,2*%
%TO.N,Net-(U21-G2)*%
X119380000Y-81280000D03*
%TO.P,U20,3*%
%TO.N,Net-(U21-G1)*%
X121920000Y-81280000D03*
%TO.P,U20,4*%
%TO.N,Net-(U19-Pad4)*%
X124460000Y-81280000D03*
%TO.P,U20,5*%
%TO.N,Net-(U22-FL)*%
X127000000Y-81280000D03*
%TO.P,U20,6*%
X129540000Y-81280000D03*
%TO.P,U20,7,GND*%
%TO.N,GND*%
X132080000Y-81280000D03*
%TO.P,U20,8*%
%TO.N,Net-(U19-Pad8)*%
X132080000Y-73660000D03*
%TO.P,U20,9*%
%TO.N,Net-(U19-Pad11)*%
X129540000Y-73660000D03*
%TO.P,U20,10*%
%TO.N,CS~{ROM}RAM*%
X127000000Y-73660000D03*
%TO.P,U20,11*%
%TO.N,Net-(U21-G1)*%
X124460000Y-73660000D03*
%TO.P,U20,12*%
X121920000Y-73660000D03*
%TO.P,U20,13*%
%TO.N,~{OE}*%
X119380000Y-73660000D03*
%TO.P,U20,14,VCC*%
%TO.N,+5V*%
X116840000Y-73660000D03*
%TD*%
D14*
%TO.P,D31,1,K*%
%TO.N,Net-(D31-K)*%
X124460000Y-111760000D03*
D13*
%TO.P,D31,2,A*%
%TO.N,GND*%
X127000000Y-111760000D03*
%TD*%
D17*
%TO.P,J6,1,Pin_1*%
%TO.N,Net-(D36-A)*%
X12700000Y-93980000D03*
%TD*%
D12*
%TO.P,C14,1*%
%TO.N,+5V*%
X110490000Y-100330000D03*
%TO.P,C14,2*%
%TO.N,GND*%
X110490000Y-105330000D03*
%TD*%
D14*
%TO.P,D30,1,K*%
%TO.N,Net-(D30-K)*%
X124460000Y-114300000D03*
D13*
%TO.P,D30,2,A*%
%TO.N,GND*%
X127000000Y-114300000D03*
%TD*%
D12*
%TO.P,R25,1*%
%TO.N,BANK6*%
X149860000Y-60960000D03*
D13*
%TO.P,R25,2*%
%TO.N,A14*%
X149860000Y-68580000D03*
%TD*%
D25*
%TO.P,SW2,1,1*%
%TO.N,-10V*%
X171600000Y-50800000D03*
X165100000Y-50800000D03*
%TO.P,SW2,2,2*%
%TO.N,Net-(R6-Pad1)*%
X171600000Y-46300000D03*
X165100000Y-46300000D03*
%TD*%
D12*
%TO.P,C11,1*%
%TO.N,GND*%
X17780000Y-43180000D03*
%TO.P,C11,2*%
%TO.N,-10V*%
X22780000Y-43180000D03*
%TD*%
D14*
%TO.P,U8,1,D0*%
%TO.N,/ProgramMemory/D0*%
X101600000Y-55880000D03*
D13*
%TO.P,U8,2,D1*%
%TO.N,/ProgramMemory/D1*%
X104140000Y-55880000D03*
%TO.P,U8,3,D2*%
%TO.N,/ProgramMemory/D2*%
X106680000Y-55880000D03*
%TO.P,U8,4,D3*%
%TO.N,/ProgramMemory/D3*%
X109220000Y-55880000D03*
%TO.P,U8,5,Vss*%
%TO.N,+5V*%
X111760000Y-55880000D03*
%TO.P,U8,6,CLK1*%
%TO.N,/ClockGen/CLK1*%
X114300000Y-55880000D03*
%TO.P,U8,7,CLK2*%
%TO.N,/ClockGen/CLK2*%
X116840000Y-55880000D03*
%TO.P,U8,8,SYNC*%
%TO.N,/ProgramMemory/SYNC*%
X119380000Y-55880000D03*
%TO.P,U8,9,RESET*%
%TO.N,/ProgramMemory/RESET*%
X119380000Y-48260000D03*
%TO.P,U8,10,P0*%
%TO.N,-10V*%
X116840000Y-48260000D03*
%TO.P,U8,11,CM*%
%TO.N,Net-(U10-CM)*%
X114300000Y-48260000D03*
%TO.P,U8,12,Vdd*%
%TO.N,-10V*%
X111760000Y-48260000D03*
%TO.P,U8,13,O3*%
%TO.N,BANK7*%
X109220000Y-48260000D03*
%TO.P,U8,14,O2*%
%TO.N,BANK6*%
X106680000Y-48260000D03*
%TO.P,U8,15,O1*%
%TO.N,BANK5*%
X104140000Y-48260000D03*
%TO.P,U8,16,O0*%
%TO.N,BANK4*%
X101600000Y-48260000D03*
%TD*%
D12*
%TO.P,C19,1*%
%TO.N,+5V*%
X123190000Y-54530000D03*
%TO.P,C19,2*%
%TO.N,-10V*%
X123190000Y-49530000D03*
%TD*%
D14*
%TO.P,D21,1,K*%
%TO.N,A15*%
X147320000Y-71120000D03*
D13*
%TO.P,D21,2,A*%
%TO.N,GND*%
X147320000Y-73660000D03*
%TD*%
D12*
%TO.P,C15,1*%
%TO.N,+5V*%
X45720000Y-45720000D03*
%TO.P,C15,2*%
%TO.N,-10V*%
X45720000Y-40720000D03*
%TD*%
%TO.P,R2,1*%
%TO.N,+5V*%
X177800000Y-35560000D03*
D13*
%TO.P,R2,2*%
%TO.N,Net-(J1-Pin_4)*%
X185420000Y-35560000D03*
%TD*%
D23*
%TO.P,J1,1,Pin_1*%
%TO.N,GND*%
X180340000Y-15240000D03*
D24*
%TO.P,J1,2,Pin_2*%
%TO.N,unconnected-(J1-Pin_2-Pad2)*%
X180340000Y-17780000D03*
%TO.P,J1,3,Pin_3*%
%TO.N,unconnected-(J1-Pin_3-Pad3)*%
X180340000Y-20320000D03*
%TO.P,J1,4,Pin_4*%
%TO.N,Net-(J1-Pin_4)*%
X180340000Y-22860000D03*
%TO.P,J1,5,Pin_5*%
%TO.N,Net-(J1-Pin_5)*%
X180340000Y-25400000D03*
%TO.P,J1,6,Pin_6*%
%TO.N,unconnected-(J1-Pin_6-Pad6)*%
X180340000Y-27940000D03*
%TD*%
D15*
%TO.P,D6,1,K*%
%TO.N,BANK4*%
X116840000Y-43180000D03*
D16*
%TO.P,D6,2,A*%
%TO.N,Net-(D6-A)*%
X116840000Y-40640000D03*
%TD*%
D15*
%TO.P,D19,1,K*%
%TO.N,Net-(D19-K)*%
X142240000Y-10160000D03*
D16*
%TO.P,D19,2,A*%
%TO.N,Net-(D19-A)*%
X142240000Y-7620000D03*
%TD*%
D14*
%TO.P,RN3,1,common*%
%TO.N,+5V*%
X127000000Y-15240000D03*
D13*
%TO.P,RN3,2,R1*%
%TO.N,Net-(D13-A)*%
X129540000Y-15240000D03*
%TO.P,RN3,3,R2*%
%TO.N,Net-(D12-A)*%
X132080000Y-15240000D03*
%TO.P,RN3,4,R3*%
%TO.N,Net-(D11-A)*%
X134620000Y-15240000D03*
%TO.P,RN3,5,R4*%
%TO.N,Net-(D10-A)*%
X137160000Y-15240000D03*
%TD*%
D25*
%TO.P,SW3,1,1*%
%TO.N,GND*%
X184300000Y-50800000D03*
X177800000Y-50800000D03*
%TO.P,SW3,2,2*%
%TO.N,Net-(R11-Pad1)*%
X184300000Y-46300000D03*
X177800000Y-46300000D03*
%TD*%
D12*
%TO.P,R39,1*%
%TO.N,Net-(R39-Pad1)*%
X137160000Y-60960000D03*
D13*
%TO.P,R39,2*%
%TO.N,ROM_A12*%
X137160000Y-68580000D03*
%TD*%
D15*
%TO.P,D7,1,K*%
%TO.N,BANK5*%
X111760000Y-43180000D03*
D16*
%TO.P,D7,2,A*%
%TO.N,Net-(D7-A)*%
X111760000Y-40640000D03*
%TD*%
D12*
%TO.P,C7,1*%
%TO.N,+5V*%
X34290000Y-6350000D03*
%TO.P,C7,2*%
%TO.N,GND*%
X34290000Y-11350000D03*
%TD*%
%TO.P,R22,1*%
%TO.N,-10V*%
X40640000Y-45720000D03*
D13*
%TO.P,R22,2*%
%TO.N,Net-(U14-OUT_A)*%
X33020000Y-45720000D03*
%TD*%
D14*
%TO.P,D29,1,K*%
%TO.N,Net-(D29-K)*%
X124460000Y-116840000D03*
D13*
%TO.P,D29,2,A*%
%TO.N,GND*%
X127000000Y-116840000D03*
%TD*%
D15*
%TO.P,D16,1,K*%
%TO.N,Net-(D16-K)*%
X106680000Y-20320000D03*
D16*
%TO.P,D16,2,A*%
%TO.N,Net-(D16-A)*%
X106680000Y-17780000D03*
%TD*%
D14*
%TO.P,C25,1*%
%TO.N,+5V*%
X8930000Y-46990000D03*
D12*
%TO.P,C25,2*%
%TO.N,GND*%
X11430000Y-46990000D03*
%TD*%
D26*
%TO.N,+5V*%
X59690000Y-23400000D03*
X60960000Y-23400000D03*
X147761572Y-24130000D03*
X110490000Y-84034503D03*
X147761572Y-25400000D03*
X58420000Y-23400000D03*
X110490000Y-83185000D03*
X147761572Y-50800000D03*
X147761572Y-35560000D03*
%TO.N,-10V*%
X95790000Y-38735000D03*
X95790000Y-42545000D03*
X95790000Y-40640000D03*
%TO.N,Net-(C1-Pad1)*%
X150935201Y-22030201D03*
X81280000Y-6985000D03*
X81280000Y-17145000D03*
%TO.N,Net-(C6-Pad1)*%
X86360000Y-16299500D03*
X170815000Y-15240000D03*
X86360000Y-7709500D03*
%TO.N,GND*%
X135890000Y-5080000D03*
X151130000Y-5080000D03*
%TO.N,Net-(D10-K)*%
X125730000Y-16510000D03*
%TO.N,Net-(D11-K)*%
X129540000Y-19050000D03*
%TO.N,BANK4*%
X100330000Y-63880500D03*
X100330000Y-39370000D03*
%TO.N,BANK5*%
X102870000Y-62865000D03*
X104140000Y-41910000D03*
%TO.N,BANK6*%
X105410000Y-62706000D03*
%TO.N,BANK7*%
X107950000Y-62865000D03*
X109220000Y-43180000D03*
%TO.N,BANK0*%
X125730000Y-39370000D03*
%TO.N,BANK1*%
X129540000Y-41910000D03*
X129540000Y-51340500D03*
%TO.N,BANK2*%
X132080000Y-51340500D03*
%TO.N,BANK3*%
X134620000Y-43180000D03*
X134620000Y-51340500D03*
%TO.N,Net-(D19-A)*%
X94615000Y-8890000D03*
%TO.N,Net-(D1-K)*%
X149860000Y-58928000D03*
X149860000Y-20955000D03*
X141224000Y-59436000D03*
%TO.N,/ClockGen/CLK1*%
X114300000Y-30420500D03*
X114300000Y-52630501D03*
X80110000Y-52705000D03*
%TO.N,/ClockGen/CLK2*%
X116840000Y-29571000D03*
X82650000Y-51435000D03*
X116840000Y-51435000D03*
%TO.N,Net-(D13-K)*%
X134620000Y-20320000D03*
%TO.N,/ProgramMemory/RESET*%
X145905000Y-30480000D03*
%TO.N,/ProgramMemory/D0*%
X68580000Y-33020000D03*
%TO.N,/ProgramMemory/D1*%
X60960000Y-57929500D03*
X71120000Y-34925000D03*
X104140000Y-57785000D03*
X104140000Y-34925000D03*
%TO.N,/ProgramMemory/D2*%
X106680000Y-35649500D03*
X74705000Y-35649500D03*
X63500000Y-58509500D03*
X106680000Y-58509500D03*
%TO.N,/ProgramMemory/D3*%
X109220000Y-59234000D03*
X109220000Y-36374000D03*
X77245000Y-36374000D03*
X66040000Y-59234000D03*
%TO.N,/ProgramMemory/SYNC*%
X85090000Y-49530000D03*
X119380000Y-50165000D03*
X119380000Y-28575000D03*
X78740000Y-49530000D03*
%TO.N,ROM_A12*%
X138430000Y-116959500D03*
%TO.N,~{OE}*%
X81280000Y-91440000D03*
X163830000Y-86360000D03*
X115570000Y-90424000D03*
%TO.N,A12*%
X152400000Y-89535000D03*
X155575000Y-89535000D03*
%TO.N,A10*%
X158750000Y-77470000D03*
%TO.N,A8*%
X162560000Y-76200000D03*
X157480000Y-76289500D03*
%TO.N,Net-(D17-K)*%
X109220000Y-20320000D03*
%TO.N,~{WE_OPR}*%
X129540000Y-88265000D03*
%TO.N,C0*%
X74930000Y-77201000D03*
X128270000Y-77470000D03*
%TO.N,C1*%
X71120000Y-97155000D03*
X72615000Y-77925500D03*
X125730000Y-78105000D03*
%TO.N,C2*%
X69850000Y-78650500D03*
X69850000Y-95705500D03*
X119380000Y-78740000D03*
%TO.N,C3*%
X67310000Y-96430500D03*
X117475000Y-79375000D03*
X67310000Y-79375000D03*
%TO.N,STP*%
X152400000Y-43815000D03*
X77470000Y-46355000D03*
%TO.N,STPA*%
X68580000Y-60960000D03*
X92710000Y-60960000D03*
X168910000Y-3175000D03*
%TO.N,INTA*%
X91440000Y-62230000D03*
X76200000Y-62230000D03*
%TO.N,/ProgramMemory/CMROM0*%
X62865000Y-18415000D03*
X51488183Y-64640636D03*
X56388000Y-45212000D03*
X81280000Y-18270500D03*
X163068000Y-42672000D03*
%TO.N,IO1*%
X54610000Y-108585000D03*
%TO.N,IO2*%
X57150000Y-107950000D03*
%TO.N,Net-(D14-K)*%
X100330000Y-16510000D03*
%TO.N,Net-(D15-K)*%
X104140000Y-19050000D03*
%TO.N,Net-(U5-TEST)*%
X83820000Y-24765000D03*
X158750000Y-29210000D03*
%TO.N,IO3*%
X59690000Y-107315000D03*
%TO.N,IO4*%
X62230000Y-106680000D03*
%TO.N,/ProgramMemory/CMROM1*%
X52705000Y-63500000D03*
X156210000Y-41910000D03*
X142240000Y-65980500D03*
X59436000Y-44704000D03*
%TO.N,INT*%
X73660000Y-17145000D03*
X73660000Y-62230000D03*
X53975000Y-62230000D03*
X64770000Y-17145000D03*
%TO.N,Net-(U1-Pad1)*%
X83820000Y-17780000D03*
%TO.N,OPR0*%
X96520000Y-94615000D03*
X176530000Y-102870000D03*
%TO.N,OPR1*%
X179070000Y-101600000D03*
X93980000Y-93890500D03*
X132080000Y-97155500D03*
%TO.N,OPR2*%
X134620000Y-96431000D03*
X181610000Y-100330000D03*
X91440000Y-93166000D03*
%TO.N,OPR3*%
X88900000Y-92441500D03*
X182880000Y-99060000D03*
X137160000Y-95706500D03*
%TO.N,OPA0*%
X69850000Y-104775000D03*
X119380000Y-102870000D03*
X175260000Y-107950000D03*
X91440000Y-104775000D03*
%TO.N,OPA1*%
X177800000Y-106680000D03*
X121920000Y-102145500D03*
X96012000Y-89662000D03*
X93980000Y-104140000D03*
%TO.N,OPA2*%
X96520000Y-103505000D03*
X180340000Y-105410000D03*
X124460000Y-101421000D03*
X97790000Y-88989500D03*
%TO.N,OPA3*%
X182880000Y-104140000D03*
X99060000Y-88265000D03*
X99060000Y-102870000D03*
%TO.N,A1*%
X170180000Y-113809500D03*
%TO.N,A2*%
X167640000Y-114300000D03*
%TO.N,A3*%
X165100000Y-114709500D03*
%TO.N,A4*%
X162560000Y-115159500D03*
%TO.N,A5*%
X160020000Y-115609500D03*
%TO.N,A6*%
X157480000Y-116059500D03*
%TO.N,A7*%
X154940000Y-116509500D03*
%TO.N,CS~{ROM}RAM*%
X130810000Y-91440000D03*
X148735000Y-87630000D03*
X86360000Y-91440000D03*
%TO.N,Net-(R21-Pad2)*%
X36830000Y-19050000D03*
%TO.N,Net-(R39-Pad1)*%
X151384000Y-57404000D03*
X137160000Y-58420000D03*
%TO.N,Net-(U22-CM)*%
X106680000Y-81680500D03*
X107315000Y-69215000D03*
%TO.N,Net-(U10-CM)*%
X139700000Y-23495000D03*
X114300000Y-23495000D03*
%TO.N,Net-(U12-Pad6)*%
X27940000Y-8165500D03*
%TO.N,Net-(U15-QB)*%
X45720000Y-8679500D03*
%TO.N,Net-(U22-FL)*%
X127000000Y-76655500D03*
X99060000Y-74930000D03*
X114554000Y-74930000D03*
%TO.N,Net-(U21-G2)*%
X101600000Y-80099500D03*
%TO.N,Net-(U21-G1)*%
X112395000Y-85725000D03*
%TD*%
D27*
%TO.N,+5V*%
X78740000Y-55880000D02*
X80889999Y-53730001D01*
D28*
X78740000Y-55424710D02*
X78740000Y-55880000D01*
D27*
X123340000Y-31520000D02*
X123190000Y-31670000D01*
D29*
X152400000Y-12700000D02*
X157480000Y-12700000D01*
D27*
X97940000Y-31520000D02*
X97790000Y-31670000D01*
X80889999Y-53730001D02*
X96990001Y-53730001D01*
D29*
X169060000Y-60960000D02*
X158900000Y-50800000D01*
D27*
X97790000Y-54530000D02*
X98589999Y-53730001D01*
D28*
X76655290Y-53340000D02*
X78740000Y-55424710D01*
D29*
X152400000Y-50800000D02*
X147761572Y-50800000D01*
X162560000Y-12700000D02*
X165100000Y-12700000D01*
D28*
X22780000Y-30480000D02*
X25400000Y-30480000D01*
X45720000Y-49530000D02*
X49530000Y-53340000D01*
X101600000Y-83820000D02*
X116840000Y-83820000D01*
X140890000Y-83820000D02*
X140970000Y-83900000D01*
X114300000Y-99060000D02*
X111760000Y-99060000D01*
D27*
X81030000Y-31670000D02*
X97790000Y-31670000D01*
D29*
X170180000Y-60960000D02*
X169060000Y-60960000D01*
D28*
X29071370Y-27940000D02*
X33611370Y-23400000D01*
X116840000Y-60960000D02*
X114380000Y-60960000D01*
D29*
X116840000Y-60960000D02*
X121920000Y-60960000D01*
D28*
X116840000Y-86360000D02*
X116840000Y-83820000D01*
X114380000Y-60960000D02*
X113030000Y-62310000D01*
D27*
X111760000Y-33020000D02*
X113260000Y-31520000D01*
D28*
X59690000Y-23400000D02*
X60960000Y-23400000D01*
D27*
X98589999Y-53730001D02*
X109610001Y-53730001D01*
D29*
X172720000Y-35560000D02*
X171595000Y-36685000D01*
D28*
X110490000Y-100330000D02*
X101600000Y-100330000D01*
D27*
X110260000Y-31520000D02*
X97940000Y-31520000D01*
D29*
X177800000Y-35560000D02*
X172720000Y-35560000D01*
D27*
X111760000Y-33020000D02*
X110260000Y-31520000D01*
X137160000Y-33020000D02*
X135660000Y-31520000D01*
D29*
X153525000Y-36685000D02*
X152400000Y-35560000D01*
D28*
X100670000Y-101260000D02*
X67784710Y-101260000D01*
X49530000Y-53340000D02*
X76655290Y-53340000D01*
D27*
X122390001Y-53730001D02*
X123190000Y-54530000D01*
X96990001Y-53730001D02*
X97790000Y-54530000D01*
D28*
X62135000Y-23400000D02*
X64475000Y-25740000D01*
X66040000Y-99060000D02*
X66040000Y-99515290D01*
X27940000Y-27940000D02*
X29071370Y-27940000D01*
D29*
X171595000Y-36685000D02*
X153525000Y-36685000D01*
D28*
X58420000Y-23400000D02*
X59690000Y-23400000D01*
X60960000Y-23400000D02*
X62135000Y-23400000D01*
D27*
X110998000Y-55118000D02*
X112385999Y-53730001D01*
X123340000Y-54380000D02*
X123190000Y-54530000D01*
X152400000Y-25400000D02*
X147761572Y-25400000D01*
D28*
X25400000Y-30480000D02*
X27940000Y-27940000D01*
D27*
X135660000Y-31520000D02*
X123340000Y-31520000D01*
D28*
X101600000Y-100330000D02*
X100965000Y-100965000D01*
X100965000Y-100965000D02*
X100670000Y-101260000D01*
X149860000Y-12700000D02*
X148590000Y-13970000D01*
D27*
X137160000Y-55880000D02*
X135660000Y-54380000D01*
X109610001Y-53730001D02*
X110998000Y-55118000D01*
X147761572Y-25400000D02*
X147761572Y-24130000D01*
D28*
X152400000Y-12700000D02*
X149860000Y-12700000D01*
X111760000Y-99060000D02*
X110490000Y-100330000D01*
D27*
X113260000Y-31520000D02*
X123040000Y-31520000D01*
D28*
X66040000Y-99060000D02*
X53340000Y-99060000D01*
D27*
X112385999Y-53730001D02*
X122390001Y-53730001D01*
D28*
X78740000Y-27484710D02*
X78740000Y-27940000D01*
D27*
X135660000Y-54380000D02*
X123340000Y-54380000D01*
D28*
X66040000Y-99515290D02*
X67784710Y-101260000D01*
X116840000Y-83820000D02*
X140890000Y-83820000D01*
D29*
X152400000Y-35560000D02*
X147761572Y-35560000D01*
D27*
X123040000Y-31520000D02*
X123190000Y-31670000D01*
D28*
X45720000Y-45720000D02*
X45720000Y-49530000D01*
D27*
X78740000Y-27940000D02*
X78740000Y-29380000D01*
D28*
X76995290Y-25740000D02*
X78740000Y-27484710D01*
D27*
X110998000Y-55118000D02*
X111760000Y-55880000D01*
D29*
X152400000Y-50800000D02*
X158900000Y-50800000D01*
D27*
X78740000Y-29380000D02*
X81030000Y-31670000D01*
D28*
X33611370Y-23400000D02*
X58420000Y-23400000D01*
X64475000Y-25740000D02*
X76995290Y-25740000D01*
D27*
%TO.N,-10V*%
X135660000Y-26900000D02*
X123420000Y-26900000D01*
X138660000Y-46760000D02*
X148995000Y-46760000D01*
D28*
X55084710Y-66380000D02*
X103210000Y-66380000D01*
X56175000Y-42840000D02*
X66040000Y-42840000D01*
D27*
X116840000Y-26900000D02*
X122960000Y-26900000D01*
X122960000Y-26900000D02*
X123190000Y-26670000D01*
D28*
X80985000Y-42840000D02*
X83820000Y-42840000D01*
X39508630Y-45720000D02*
X38151572Y-44362942D01*
X80484710Y-22520000D02*
X78740000Y-20775290D01*
D27*
X111760000Y-48260000D02*
X113260000Y-46760000D01*
X120420000Y-46760000D02*
X123190000Y-49530000D01*
X151335000Y-49100000D02*
X163400000Y-49100000D01*
X167640000Y-27940000D02*
X167640000Y-33020000D01*
D28*
X30440000Y-60960000D02*
X30440000Y-50840000D01*
X53340000Y-68580000D02*
X53340000Y-68124710D01*
D27*
X110260000Y-46760000D02*
X111760000Y-48260000D01*
X111760000Y-25400000D02*
X110260000Y-26900000D01*
D28*
X80985000Y-42840000D02*
X81280000Y-42545000D01*
D27*
X138660000Y-26900000D02*
X145820000Y-26900000D01*
X137160000Y-25400000D02*
X135660000Y-26900000D01*
X123190000Y-49530000D02*
X125960000Y-46760000D01*
X113260000Y-26900000D02*
X116840000Y-26900000D01*
D28*
X35480000Y-60960000D02*
X40640000Y-66120000D01*
X50880000Y-66120000D02*
X53340000Y-68580000D01*
X45720000Y-40720000D02*
X54055000Y-40720000D01*
X22780000Y-43180000D02*
X22780000Y-40720000D01*
X38151572Y-44362942D02*
X38151572Y-39457058D01*
X54055000Y-40720000D02*
X56175000Y-42840000D01*
D27*
X97790000Y-49530000D02*
X100560000Y-46760000D01*
D28*
X40640000Y-66120000D02*
X50880000Y-66120000D01*
D27*
X116840000Y-46760000D02*
X120420000Y-46760000D01*
X165100000Y-50800000D02*
X171600000Y-50800000D01*
D28*
X103210000Y-66380000D02*
X104140000Y-67310000D01*
D29*
X116840000Y-25400000D02*
X116840000Y-26900000D01*
X116840000Y-48260000D02*
X116840000Y-46760000D01*
D27*
X113260000Y-46760000D02*
X116840000Y-46760000D01*
D28*
X30440000Y-50840000D02*
X27320000Y-47720000D01*
X38151572Y-39457058D02*
X39508630Y-38100000D01*
D27*
X132945000Y-67080000D02*
X168760000Y-67080000D01*
X132080000Y-68580000D02*
X132080000Y-67945000D01*
X123420000Y-26900000D02*
X123190000Y-26670000D01*
X110260000Y-26900000D02*
X98020000Y-26900000D01*
D28*
X81280000Y-42545000D02*
X81280000Y-40640000D01*
D27*
X163400000Y-49100000D02*
X165100000Y-50800000D01*
D28*
X83820000Y-40640000D02*
X83820000Y-42840000D01*
X39508630Y-38100000D02*
X40640000Y-38100000D01*
D29*
X127000000Y-68580000D02*
X132080000Y-68580000D01*
D28*
X97790000Y-26670000D02*
X90836168Y-26670000D01*
X38640000Y-47720000D02*
X40640000Y-45720000D01*
D27*
X98020000Y-26900000D02*
X97790000Y-26670000D01*
D28*
X40640000Y-38100000D02*
X43100000Y-38100000D01*
X22780000Y-43180000D02*
X27320000Y-47720000D01*
X30440000Y-60960000D02*
X35480000Y-60960000D01*
D27*
X111760000Y-25400000D02*
X113260000Y-26900000D01*
D28*
X22780000Y-40720000D02*
X22860000Y-40640000D01*
D27*
X135660000Y-46760000D02*
X137160000Y-48260000D01*
X132080000Y-67945000D02*
X132945000Y-67080000D01*
D28*
X40640000Y-45720000D02*
X39508630Y-45720000D01*
X86686168Y-22520000D02*
X80484710Y-22520000D01*
X95790000Y-42545000D02*
X95790000Y-40640000D01*
X53340000Y-68124710D02*
X55084710Y-66380000D01*
D27*
X168760000Y-67080000D02*
X170260000Y-68580000D01*
D28*
X43100000Y-38100000D02*
X45720000Y-40720000D01*
X27320000Y-47720000D02*
X38640000Y-47720000D01*
X95790000Y-40640000D02*
X95790000Y-38735000D01*
D27*
X125960000Y-46760000D02*
X135660000Y-46760000D01*
X137160000Y-25400000D02*
X138660000Y-26900000D01*
D28*
X95790000Y-42545000D02*
X95495000Y-42840000D01*
D27*
X148995000Y-46760000D02*
X151335000Y-49100000D01*
X145820000Y-26900000D02*
X146050000Y-26670000D01*
D28*
X90836168Y-26670000D02*
X86686168Y-22520000D01*
X104140000Y-67310000D02*
X113030000Y-67310000D01*
D27*
X146050000Y-26670000D02*
X147320000Y-27940000D01*
D28*
X66040000Y-40640000D02*
X66040000Y-42840000D01*
X83820000Y-42840000D02*
X95495000Y-42840000D01*
D27*
X147320000Y-27940000D02*
X167640000Y-27940000D01*
D28*
X78740000Y-20775290D02*
X78740000Y-20320000D01*
D27*
X137160000Y-48260000D02*
X138660000Y-46760000D01*
D28*
X66040000Y-42840000D02*
X80985000Y-42840000D01*
D27*
X100560000Y-46760000D02*
X110260000Y-46760000D01*
D29*
%TO.N,Net-(C1-Pad1)*%
X150740402Y-22225000D02*
X150935201Y-22030201D01*
X81370000Y-17055000D02*
X88175000Y-17055000D01*
X81280000Y-17145000D02*
X81370000Y-17055000D01*
X88175000Y-17055000D02*
X93345000Y-22225000D01*
X104140000Y-5080000D02*
X100965000Y-5080000D01*
X99060000Y-6985000D02*
X81280000Y-6985000D01*
X100965000Y-5080000D02*
X99060000Y-6985000D01*
X93345000Y-22225000D02*
X150740402Y-22225000D01*
%TO.N,Net-(C2-Pad1)*%
X165100000Y-35560000D02*
X162560000Y-33020000D01*
%TO.N,Net-(C6-Pad1)*%
X104140000Y-7620000D02*
X86449500Y-7620000D01*
X86449500Y-7620000D02*
X86360000Y-7709500D01*
X98110203Y-14115000D02*
X95925703Y-16299500D01*
X146861167Y-14115000D02*
X98110203Y-14115000D01*
X170760000Y-15295000D02*
X170815000Y-15240000D01*
X95925703Y-16299500D02*
X86360000Y-16299500D01*
X148041167Y-15295000D02*
X170760000Y-15295000D01*
X148041167Y-15295000D02*
X146861167Y-14115000D01*
D28*
%TO.N,GND*%
X96975290Y-111760000D02*
X45720000Y-111760000D01*
X17780000Y-43180000D02*
X16320000Y-43180000D01*
X171450000Y-6350000D02*
X171450000Y-7620000D01*
X135890000Y-5080000D02*
X151130000Y-5080000D01*
X17780000Y-30480000D02*
X15240000Y-30480000D01*
X151130000Y-5080000D02*
X170112081Y-5080000D01*
X129540000Y-5080000D02*
X135890000Y-5080000D01*
X182011370Y-91980000D02*
X182880000Y-92848630D01*
X170180000Y-73371572D02*
X171891572Y-71660000D01*
X134908428Y-73660000D02*
X132448428Y-71200000D01*
D30*
X36830000Y-71120000D02*
X40640000Y-71120000D01*
D28*
X171450000Y-6417919D02*
X171450000Y-7620000D01*
D30*
X10240000Y-15240000D02*
X9440001Y-16039999D01*
D28*
X175260000Y-15240000D02*
X180340000Y-15240000D01*
X167640000Y-19188630D02*
X166231370Y-17780000D01*
X185300000Y-109340000D02*
X182880000Y-111760000D01*
D29*
X181675000Y-39225000D02*
X182800000Y-38100000D01*
D28*
X185300000Y-71755000D02*
X185300000Y-109340000D01*
X52321371Y-10550001D02*
X53340000Y-11568630D01*
D29*
X39225000Y-102725000D02*
X38100000Y-101600000D01*
D28*
X180340000Y-15240000D02*
X180340000Y-10160000D01*
X43180000Y-111760000D02*
X38100000Y-106680000D01*
X140970000Y-106600000D02*
X143620000Y-106600000D01*
X99060000Y-113844710D02*
X96975290Y-111760000D01*
D29*
X157400000Y-38100000D02*
X158525000Y-39225000D01*
D28*
X147320000Y-92848630D02*
X148188630Y-91980000D01*
X146780000Y-91980000D02*
X147320000Y-92520000D01*
X10240000Y-15240000D02*
X10240000Y-13700000D01*
D30*
X12700000Y-44100000D02*
X12700000Y-33020000D01*
D28*
X66040000Y-71020000D02*
X66040000Y-68580000D01*
X132448428Y-71200000D02*
X111760000Y-71200000D01*
D30*
X11930000Y-44870000D02*
X12700000Y-44100000D01*
D28*
X167640000Y-20320000D02*
X170180000Y-20320000D01*
X139700000Y-73660000D02*
X134908428Y-73660000D01*
D29*
X158525000Y-39225000D02*
X181675000Y-39225000D01*
D28*
X180340000Y-10160000D02*
X177800000Y-7620000D01*
X147320000Y-92520000D02*
X147320000Y-93980000D01*
X140890000Y-106680000D02*
X140970000Y-106600000D01*
X170180000Y-20320000D02*
X175260000Y-15240000D01*
D30*
X9440001Y-42380001D02*
X10240000Y-43180000D01*
D28*
X185300000Y-51800000D02*
X185300000Y-71755000D01*
X22860000Y-68580000D02*
X22860000Y-59690000D01*
X137160000Y-106391572D02*
X137160000Y-106680000D01*
X147320000Y-73660000D02*
X139700000Y-73660000D01*
X15240000Y-30480000D02*
X12700000Y-33020000D01*
D29*
X48260000Y-101600000D02*
X47135000Y-102725000D01*
D30*
X22860000Y-60960000D02*
X11930000Y-50030000D01*
D28*
X110490000Y-105330000D02*
X111895000Y-105330000D01*
X38100000Y-106680000D02*
X38100000Y-101600000D01*
X96520000Y-13831370D02*
X96520000Y-12700000D01*
X184300000Y-50800000D02*
X185300000Y-51800000D01*
X148188630Y-109760000D02*
X182011370Y-109760000D01*
X182880000Y-92848630D02*
X182880000Y-93980000D01*
X16320000Y-43180000D02*
X15240000Y-42100000D01*
X76195000Y-12700000D02*
X78195000Y-14700000D01*
X147320000Y-93980000D02*
X147320000Y-92848630D01*
X185205000Y-71660000D02*
X185300000Y-71755000D01*
X95651370Y-14700000D02*
X96520000Y-13831370D01*
X31830000Y-11350000D02*
X30480000Y-12700000D01*
X135448428Y-104680000D02*
X137160000Y-106391572D01*
X10240000Y-43180000D02*
X10240000Y-44990000D01*
D30*
X22860000Y-68580000D02*
X34290000Y-68580000D01*
X34290000Y-68580000D02*
X36830000Y-71120000D01*
D28*
X139700000Y-78740000D02*
X139700000Y-73660000D01*
X55340000Y-14700000D02*
X75326370Y-14700000D01*
X170180000Y-73660000D02*
X170180000Y-73371572D01*
D29*
X34170000Y-101600000D02*
X38100000Y-101600000D01*
D28*
X182880000Y-110628630D02*
X182880000Y-111760000D01*
D29*
X184300000Y-50800000D02*
X177800000Y-50800000D01*
D28*
X167640000Y-20320000D02*
X167640000Y-19188630D01*
X148188630Y-91980000D02*
X182011370Y-91980000D01*
X149780000Y-17780000D02*
X148590000Y-18970000D01*
X34290000Y-11350000D02*
X31830000Y-11350000D01*
X34290000Y-11350000D02*
X35089999Y-10550001D01*
X147320000Y-110628630D02*
X148188630Y-109760000D01*
X165049032Y-73660000D02*
X170180000Y-73660000D01*
X111895000Y-105330000D02*
X112545000Y-104680000D01*
X65940000Y-71120000D02*
X66020000Y-71200000D01*
X177800000Y-7620000D02*
X171450000Y-7620000D01*
X140970000Y-91980000D02*
X146780000Y-91980000D01*
D30*
X22860000Y-68580000D02*
X22860000Y-60960000D01*
D28*
X53340000Y-12700000D02*
X55340000Y-14700000D01*
X140970000Y-91980000D02*
X133880000Y-91980000D01*
X137160000Y-106680000D02*
X140890000Y-106680000D01*
D29*
X47135000Y-102725000D02*
X39225000Y-102725000D01*
D28*
X137160000Y-78740000D02*
X139700000Y-78740000D01*
X111760000Y-5080000D02*
X129540000Y-5080000D01*
X16648630Y-30480000D02*
X17780000Y-30480000D01*
X133880000Y-91980000D02*
X132080000Y-93780000D01*
X30480000Y-12411572D02*
X30480000Y-12700000D01*
X170112081Y-5080000D02*
X171450000Y-6417919D01*
D29*
X40640000Y-25400000D02*
X48260000Y-25400000D01*
D28*
X182880000Y-111760000D02*
X184880000Y-109760000D01*
X13240000Y-10700000D02*
X28768428Y-10700000D01*
D30*
X11930000Y-44870000D02*
X10240000Y-43180000D01*
X9440001Y-16039999D02*
X9440001Y-30480000D01*
D28*
X184880000Y-94848630D02*
X182011370Y-91980000D01*
D30*
X22860000Y-60960000D02*
X27240000Y-60960000D01*
D28*
X99060000Y-114300000D02*
X99060000Y-113844710D01*
X184880000Y-109760000D02*
X184880000Y-94848630D01*
X15240000Y-42100000D02*
X15240000Y-31888630D01*
X109220000Y-12700000D02*
X111760000Y-10160000D01*
X28768428Y-10700000D02*
X30480000Y-12411572D01*
X40640000Y-71120000D02*
X65940000Y-71120000D01*
X171891572Y-71660000D02*
X185205000Y-71660000D01*
X140970000Y-88900000D02*
X140970000Y-91980000D01*
X147320000Y-110300000D02*
X147320000Y-111760000D01*
X15240000Y-43180000D02*
X11430000Y-46990000D01*
X149780000Y-17780000D02*
X166231370Y-17780000D01*
D29*
X129540000Y-7620000D02*
X129540000Y-5080000D01*
D30*
X9440001Y-30480000D02*
X9440001Y-33020000D01*
D28*
X35089999Y-10550001D02*
X52321371Y-10550001D01*
D30*
X11930000Y-50030000D02*
X11930000Y-44870000D01*
D28*
X66020000Y-71200000D02*
X111760000Y-71200000D01*
X75326370Y-14700000D02*
X76195000Y-13831370D01*
X112545000Y-104680000D02*
X135448428Y-104680000D01*
X15240000Y-31888630D02*
X16648630Y-30480000D01*
X96520000Y-12700000D02*
X109220000Y-12700000D01*
D29*
X27940000Y-96520000D02*
X29090000Y-96520000D01*
D28*
X132080000Y-81280000D02*
X134620000Y-81280000D01*
X65940000Y-71120000D02*
X66040000Y-71020000D01*
X10240000Y-15240000D02*
X10240000Y-43180000D01*
X27940000Y-60960000D02*
X22860000Y-60960000D01*
D30*
X12700000Y-78740000D02*
X22860000Y-68580000D01*
D28*
X78195000Y-14700000D02*
X95651370Y-14700000D01*
X53340000Y-11568630D02*
X53340000Y-12700000D01*
D30*
X9440001Y-33020000D02*
X9440001Y-42380001D01*
D28*
X165049032Y-73660000D02*
X147320000Y-73660000D01*
D29*
X29090000Y-96520000D02*
X34170000Y-101600000D01*
D28*
X76195000Y-13831370D02*
X76195000Y-12700000D01*
X182011370Y-109760000D02*
X182880000Y-110628630D01*
X10240000Y-13700000D02*
X13240000Y-10700000D01*
X17780000Y-30480000D02*
X9440001Y-30480000D01*
X147320000Y-111760000D02*
X147320000Y-110628630D01*
X17780000Y-43180000D02*
X15240000Y-43180000D01*
X170620000Y-5520000D02*
X171450000Y-6350000D01*
X45720000Y-111760000D02*
X43180000Y-111760000D01*
X143620000Y-106600000D02*
X147320000Y-110300000D01*
X22860000Y-59690000D02*
X22860000Y-60960000D01*
X134620000Y-81280000D02*
X137160000Y-78740000D01*
D29*
%TO.N,Net-(D2-A)*%
X139700000Y-38100000D02*
X137160000Y-38100000D01*
X142240000Y-40640000D02*
X139700000Y-38100000D01*
%TO.N,Net-(D10-K)*%
X125730000Y-16510000D02*
X138430000Y-16510000D01*
X138430000Y-16510000D02*
X142240000Y-20320000D01*
%TO.N,Net-(D6-A)*%
X114300000Y-38100000D02*
X111760000Y-38100000D01*
X116840000Y-40640000D02*
X114300000Y-38100000D01*
%TO.N,Net-(D11-K)*%
X129540000Y-19050000D02*
X135890000Y-19050000D01*
X135890000Y-19050000D02*
X137160000Y-20320000D01*
%TO.N,Net-(D10-A)*%
X139700000Y-15240000D02*
X137160000Y-15240000D01*
X142240000Y-17780000D02*
X139700000Y-15240000D01*
%TO.N,BANK4*%
X113030000Y-39370000D02*
X116840000Y-43180000D01*
X154940000Y-64135000D02*
X154940000Y-60960000D01*
X153990000Y-65085000D02*
X154940000Y-64135000D01*
X100330000Y-63880500D02*
X105475500Y-63880500D01*
X105475500Y-63880500D02*
X106680000Y-65085000D01*
X100330000Y-39370000D02*
X113030000Y-39370000D01*
X106680000Y-65085000D02*
X153990000Y-65085000D01*
%TO.N,BANK5*%
X103435500Y-63430500D02*
X106110500Y-63430500D01*
X106110500Y-63430500D02*
X107315000Y-64635000D01*
X102870000Y-62865000D02*
X103435500Y-63430500D01*
X104140000Y-41910000D02*
X110490000Y-41910000D01*
X152400000Y-63365000D02*
X151130000Y-64635000D01*
X151130000Y-64635000D02*
X107315000Y-64635000D01*
X152400000Y-60960000D02*
X152400000Y-63365000D01*
X110490000Y-41910000D02*
X111760000Y-43180000D01*
%TO.N,BANK6*%
X105410000Y-62706000D02*
X106022396Y-62706000D01*
X149175000Y-64185000D02*
X149860000Y-63500000D01*
X149860000Y-63500000D02*
X149860000Y-60960000D01*
X106022396Y-62706000D02*
X107501396Y-64185000D01*
X107501396Y-64185000D02*
X149175000Y-64185000D01*
%TO.N,Net-(D14-A)*%
X114300000Y-15240000D02*
X116840000Y-17780000D01*
X111760000Y-15240000D02*
X114300000Y-15240000D01*
%TO.N,BANK7*%
X108820000Y-63735000D02*
X147085000Y-63735000D01*
X107950000Y-62865000D02*
X108820000Y-63735000D01*
X147320000Y-63500000D02*
X147320000Y-60960000D01*
X147085000Y-63735000D02*
X147320000Y-63500000D01*
X107995000Y-44405000D02*
X102825000Y-44405000D01*
X102825000Y-44405000D02*
X101600000Y-43180000D01*
X109220000Y-43180000D02*
X107995000Y-44405000D01*
%TO.N,BANK0*%
X158112906Y-53972906D02*
X147957094Y-53972906D01*
X143369188Y-49385000D02*
X128125000Y-49385000D01*
X147957094Y-53972906D02*
X143369188Y-49385000D01*
X125730000Y-39370000D02*
X125875000Y-39225000D01*
X138285000Y-39225000D02*
X142240000Y-43180000D01*
X165100000Y-60960000D02*
X158112906Y-53972906D01*
X128125000Y-49385000D02*
X127000000Y-48260000D01*
X125875000Y-39225000D02*
X138285000Y-39225000D01*
%TO.N,BANK1*%
X129634500Y-51340500D02*
X129540000Y-51340500D01*
X162560000Y-60960000D02*
X156208604Y-54608604D01*
X156208604Y-54608604D02*
X147956396Y-54608604D01*
X135890000Y-41910000D02*
X137160000Y-43180000D01*
X143513292Y-50165500D02*
X130809500Y-50165500D01*
X147956396Y-54608604D02*
X143513292Y-50165500D01*
X129540000Y-41910000D02*
X135890000Y-41910000D01*
X130809500Y-50165500D02*
X129634500Y-51340500D01*
%TO.N,BANK2*%
X154304302Y-55244302D02*
X147955698Y-55244302D01*
X143326896Y-50615500D02*
X132805000Y-50615500D01*
X132805000Y-50615500D02*
X132080000Y-51340500D01*
X160020000Y-60960000D02*
X154304302Y-55244302D01*
X147955698Y-55244302D02*
X143326896Y-50615500D01*
%TO.N,BANK3*%
X152400000Y-55880000D02*
X147955000Y-55880000D01*
X147955000Y-55880000D02*
X143510000Y-51435000D01*
X134714500Y-51435000D02*
X134620000Y-51340500D01*
X157480000Y-60960000D02*
X152400000Y-55880000D01*
X134620000Y-43180000D02*
X133395000Y-44405000D01*
X143510000Y-51435000D02*
X134714500Y-51435000D01*
X133395000Y-44405000D02*
X128225000Y-44405000D01*
X128225000Y-44405000D02*
X127000000Y-43180000D01*
%TO.N,Net-(D19-A)*%
X116160000Y-8845000D02*
X141015000Y-8845000D01*
X116150000Y-8835000D02*
X116160000Y-8845000D01*
X94615000Y-8890000D02*
X94670000Y-8835000D01*
X141015000Y-8845000D02*
X142240000Y-7620000D01*
X94670000Y-8835000D02*
X116150000Y-8835000D01*
%TO.N,Net-(D1-K)*%
X160020000Y-20320000D02*
X162560000Y-20320000D01*
X150440000Y-19105000D02*
X158805000Y-19105000D01*
X141732000Y-58928000D02*
X141224000Y-59436000D01*
X149860000Y-58928000D02*
X141732000Y-58928000D01*
X149860000Y-20955000D02*
X149860000Y-19685000D01*
X158805000Y-19105000D02*
X160020000Y-20320000D01*
X149860000Y-19685000D02*
X150440000Y-19105000D01*
%TO.N,Net-(D30-K)*%
X124460000Y-114300000D02*
X121920000Y-114300000D01*
%TO.N,Net-(D31-K)*%
X124460000Y-111760000D02*
X121920000Y-111760000D01*
X130955000Y-107805000D02*
X123045000Y-107805000D01*
X123045000Y-107805000D02*
X121920000Y-106680000D01*
X132080000Y-106680000D02*
X130955000Y-107805000D01*
%TO.N,Net-(D32-K)*%
X125585000Y-110345000D02*
X124460000Y-109220000D01*
X124460000Y-109220000D02*
X121920000Y-109220000D01*
X130955000Y-110345000D02*
X125585000Y-110345000D01*
X134620000Y-106680000D02*
X130955000Y-110345000D01*
%TO.N,Net-(D20-A)*%
X108730000Y-3955000D02*
X111270000Y-6495000D01*
X115715000Y-6495000D02*
X116840000Y-7620000D01*
X97645000Y-3955000D02*
X108730000Y-3955000D01*
X96520000Y-5080000D02*
X97645000Y-3955000D01*
X111270000Y-6495000D02*
X115715000Y-6495000D01*
%TO.N,Net-(D34-A)*%
X27940000Y-93980000D02*
X25400000Y-91440000D01*
D27*
%TO.N,Net-(D35-K)*%
X27000000Y-107660000D02*
X27000000Y-106097258D01*
D30*
X12700000Y-63500000D02*
X2000000Y-74200000D01*
D27*
X25400000Y-109260000D02*
X27000000Y-107660000D01*
X27000000Y-106097258D02*
X26062742Y-105160000D01*
D30*
X2000000Y-106680000D02*
X22300000Y-106680000D01*
X2000000Y-74200000D02*
X2000000Y-106680000D01*
D27*
X23800000Y-105740000D02*
X23800000Y-107660000D01*
X23800000Y-107660000D02*
X25400000Y-109260000D01*
X26062742Y-105160000D02*
X24380000Y-105160000D01*
X24380000Y-105160000D02*
X23800000Y-105740000D01*
D31*
%TO.N,/ClockGen/CLK1*%
X80110000Y-52705000D02*
X79295000Y-51890000D01*
X81280000Y-29845000D02*
X81280000Y-27940000D01*
X114300000Y-52630501D02*
X125655501Y-52630501D01*
X137100500Y-30420500D02*
X114300000Y-30420500D01*
X114300000Y-30420500D02*
X81855500Y-30420500D01*
X54430000Y-51890000D02*
X45720000Y-43180000D01*
X80184499Y-52630501D02*
X80110000Y-52705000D01*
X79295000Y-51890000D02*
X54430000Y-51890000D01*
X81855500Y-30420500D02*
X81280000Y-29845000D01*
X45720000Y-43180000D02*
X40640000Y-43180000D01*
X125655501Y-52630501D02*
X126365000Y-53340000D01*
X126365000Y-53340000D02*
X137160000Y-53340000D01*
X139700000Y-33020000D02*
X137100500Y-30420500D01*
X114300000Y-52630501D02*
X80184499Y-52630501D01*
X137160000Y-53340000D02*
X139700000Y-55880000D01*
D27*
%TO.N,Net-(C13-Pad1)*%
X17780000Y-20320000D02*
X15240000Y-20320000D01*
X15240000Y-20320000D02*
X12700000Y-17780000D01*
X15240000Y-12700000D02*
X15240000Y-15240000D01*
X15240000Y-15240000D02*
X12700000Y-17780000D01*
D31*
%TO.N,/ClockGen/CLK2*%
X42480000Y-42480000D02*
X46009949Y-42480000D01*
X82405000Y-51190000D02*
X54719950Y-51190000D01*
X138791000Y-29571000D02*
X116840000Y-29571000D01*
X139000000Y-52640000D02*
X142240000Y-55880000D01*
X116840000Y-29571000D02*
X85451000Y-29571000D01*
X125795000Y-51435000D02*
X127000000Y-52640000D01*
X116840000Y-51435000D02*
X82650000Y-51435000D01*
X142240000Y-33020000D02*
X138791000Y-29571000D01*
X116840000Y-51435000D02*
X125795000Y-51435000D01*
X85451000Y-29571000D02*
X83820000Y-27940000D01*
X127000000Y-52640000D02*
X139000000Y-52640000D01*
X54719950Y-51190000D02*
X46009949Y-42480000D01*
X40640000Y-40640000D02*
X42480000Y-42480000D01*
X82650000Y-51435000D02*
X82405000Y-51190000D01*
D29*
%TO.N,ROM_P27*%
X67255000Y-97735000D02*
X46935000Y-97735000D01*
X46935000Y-97735000D02*
X45720000Y-96520000D01*
X68580000Y-99060000D02*
X67255000Y-97735000D01*
X45720000Y-96520000D02*
X45720000Y-93980000D01*
%TO.N,ROM_P26*%
X48260000Y-96520000D02*
X48260000Y-93980000D01*
X71120000Y-99060000D02*
X69215000Y-97155000D01*
X48895000Y-97155000D02*
X48260000Y-96520000D01*
X69215000Y-97155000D02*
X48895000Y-97155000D01*
%TO.N,Net-(D13-K)*%
X128225000Y-21545000D02*
X127000000Y-20320000D01*
X134620000Y-20320000D02*
X133395000Y-21545000D01*
X133395000Y-21545000D02*
X128225000Y-21545000D01*
%TO.N,ROM_P1*%
X52070000Y-105410000D02*
X46990000Y-105410000D01*
X46990000Y-105410000D02*
X45720000Y-104140000D01*
%TO.N,/ProgramMemory/RESET*%
X119380000Y-25400000D02*
X120505000Y-24275000D01*
X156355000Y-31895000D02*
X147320000Y-31895000D01*
X147320000Y-31895000D02*
X145905000Y-30480000D01*
X90315000Y-24275000D02*
X86360000Y-20320000D01*
X157480000Y-33020000D02*
X156355000Y-31895000D01*
X120505000Y-24275000D02*
X143655000Y-24275000D01*
X143655000Y-24275000D02*
X144780000Y-25400000D01*
X119380000Y-25400000D02*
X118255000Y-24275000D01*
X118255000Y-24275000D02*
X90315000Y-24275000D01*
%TO.N,/ProgramMemory/D0*%
X100275000Y-57205000D02*
X59745000Y-57205000D01*
X127000000Y-33020000D02*
X125875000Y-34145000D01*
X102725000Y-57005000D02*
X101600000Y-55880000D01*
X102725000Y-34145000D02*
X101600000Y-33020000D01*
X125875000Y-34145000D02*
X102725000Y-34145000D01*
X101600000Y-55880000D02*
X100275000Y-57205000D01*
X127000000Y-55880000D02*
X125875000Y-57005000D01*
X101600000Y-33020000D02*
X68580000Y-33020000D01*
X59745000Y-57205000D02*
X58420000Y-55880000D01*
X125875000Y-57005000D02*
X102725000Y-57005000D01*
%TO.N,/ProgramMemory/D1*%
X61104500Y-57785000D02*
X60960000Y-57929500D01*
X129540000Y-33020000D02*
X127635000Y-34925000D01*
X104140000Y-34925000D02*
X71120000Y-34925000D01*
X127635000Y-34925000D02*
X104140000Y-34925000D01*
X129540000Y-55880000D02*
X127635000Y-57785000D01*
X127635000Y-57785000D02*
X104140000Y-57785000D01*
X104140000Y-57785000D02*
X61104500Y-57785000D01*
%TO.N,/ProgramMemory/D2*%
X132080000Y-33020000D02*
X129450500Y-35649500D01*
X106680000Y-35649500D02*
X74705000Y-35649500D01*
X129450500Y-58509500D02*
X106680000Y-58509500D01*
X132080000Y-55880000D02*
X129450500Y-58509500D01*
X129450500Y-35649500D02*
X106680000Y-35649500D01*
X106680000Y-58509500D02*
X63500000Y-58509500D01*
%TO.N,/ProgramMemory/D3*%
X134620000Y-33020000D02*
X131266000Y-36374000D01*
X131266000Y-59234000D02*
X109220000Y-59234000D01*
X131266000Y-36374000D02*
X109220000Y-36374000D01*
X109220000Y-36374000D02*
X77245000Y-36374000D01*
X109220000Y-59234000D02*
X66040000Y-59234000D01*
X134620000Y-55880000D02*
X131266000Y-59234000D01*
%TO.N,/ProgramMemory/SYNC*%
X85090000Y-49530000D02*
X86215000Y-50655000D01*
X118890000Y-50655000D02*
X119380000Y-50165000D01*
X140335000Y-28575000D02*
X119380000Y-28575000D01*
X88900000Y-28575000D02*
X88265000Y-27940000D01*
X78740000Y-49530000D02*
X85090000Y-49530000D01*
X144780000Y-55880000D02*
X140965000Y-52065000D01*
X127630000Y-52065000D02*
X140965000Y-52065000D01*
X126425000Y-50860000D02*
X120075000Y-50860000D01*
X144780000Y-33020000D02*
X140335000Y-28575000D01*
X119380000Y-28575000D02*
X88900000Y-28575000D01*
X126425000Y-50860000D02*
X127630000Y-52065000D01*
X88265000Y-27940000D02*
X86360000Y-27940000D01*
X120075000Y-50860000D02*
X119380000Y-50165000D01*
X86215000Y-50655000D02*
X118890000Y-50655000D01*
%TO.N,ROM_A12*%
X131031168Y-121710000D02*
X135781668Y-116959500D01*
X135781668Y-116959500D02*
X138430000Y-116959500D01*
X68580000Y-114300000D02*
X75990000Y-121710000D01*
X75990000Y-121710000D02*
X131031168Y-121710000D01*
%TO.N,~{OE}*%
X82296000Y-90424000D02*
X115570000Y-90424000D01*
X131826000Y-90424000D02*
X135890000Y-86360000D01*
X81280000Y-91440000D02*
X82296000Y-90424000D01*
X115570000Y-90424000D02*
X131826000Y-90424000D01*
X135890000Y-86360000D02*
X163830000Y-86360000D01*
%TO.N,A12*%
X155575000Y-89535000D02*
X152400000Y-89535000D01*
%TO.N,A10*%
X166370000Y-77470000D02*
X167640000Y-78740000D01*
X158750000Y-77470000D02*
X166370000Y-77470000D01*
%TO.N,A8*%
X162470500Y-76289500D02*
X162560000Y-76200000D01*
X157480000Y-76289500D02*
X162470500Y-76289500D01*
%TO.N,Net-(D17-K)*%
X107995000Y-21545000D02*
X102825000Y-21545000D01*
X102825000Y-21545000D02*
X101600000Y-20320000D01*
X109220000Y-20320000D02*
X107995000Y-21545000D01*
%TO.N,~{WE_OPA}*%
X123045000Y-95105000D02*
X134130000Y-95105000D01*
X143945000Y-95395000D02*
X151275000Y-95395000D01*
X142530000Y-93980000D02*
X143945000Y-95395000D01*
X151275000Y-95395000D02*
X152400000Y-96520000D01*
X121920000Y-93980000D02*
X123045000Y-95105000D01*
X134130000Y-95105000D02*
X135255000Y-93980000D01*
X135255000Y-93980000D02*
X142530000Y-93980000D01*
%TO.N,~{WE_OPR}*%
X152400000Y-85090000D02*
X152400000Y-78740000D01*
X131765991Y-88265000D02*
X134305991Y-85725000D01*
X134305991Y-85725000D02*
X151765000Y-85725000D01*
X129540000Y-88265000D02*
X131765991Y-88265000D01*
X151765000Y-85725000D02*
X152400000Y-85090000D01*
%TO.N,C0*%
X128180000Y-77380000D02*
X75109000Y-77380000D01*
X75109000Y-77380000D02*
X74930000Y-77201000D01*
X128270000Y-77470000D02*
X128180000Y-77380000D01*
%TO.N,C1*%
X71120000Y-97155000D02*
X74295000Y-97155000D01*
X74295000Y-97155000D02*
X76200000Y-99060000D01*
X125550500Y-77925500D02*
X72615000Y-77925500D01*
X125730000Y-78105000D02*
X125550500Y-77925500D01*
%TO.N,C2*%
X119380000Y-78740000D02*
X119290000Y-78650000D01*
X69850500Y-78650000D02*
X69850000Y-78650500D01*
X119290000Y-78650000D02*
X69850500Y-78650000D01*
X80465500Y-95705500D02*
X69850000Y-95705500D01*
X83820000Y-99060000D02*
X80465500Y-95705500D01*
%TO.N,C3*%
X67400000Y-96430000D02*
X67399500Y-96430500D01*
X76110000Y-96430000D02*
X67400000Y-96430000D01*
X67399500Y-96430500D02*
X67310000Y-96430500D01*
X78740000Y-99060000D02*
X76110000Y-96430000D01*
X117475000Y-79375000D02*
X67310000Y-79375000D01*
%TO.N,Net-(D20-K)*%
X129540000Y-10160000D02*
X116840000Y-10160000D01*
%TO.N,STP*%
X165100000Y-8890000D02*
X166370000Y-7620000D01*
X145327792Y-43815000D02*
X143263792Y-45879000D01*
X77946000Y-45879000D02*
X77470000Y-46355000D01*
X153670000Y-8890000D02*
X165100000Y-8890000D01*
X152400000Y-7620000D02*
X153670000Y-8890000D01*
X152400000Y-43815000D02*
X145327792Y-43815000D01*
X143263792Y-45879000D02*
X77946000Y-45879000D01*
%TO.N,STPA*%
X95885000Y-3175000D02*
X93980000Y-5080000D01*
X168910000Y-3175000D02*
X95885000Y-3175000D01*
X166370000Y-10160000D02*
X168910000Y-7620000D01*
X68580000Y-60960000D02*
X92710000Y-60960000D01*
X160020000Y-10160000D02*
X166370000Y-10160000D01*
%TO.N,Net-(D29-K)*%
X124460000Y-116840000D02*
X121920000Y-116840000D01*
D30*
%TO.N,Net-(D36-A)*%
X29224063Y-101040000D02*
X33580000Y-105395937D01*
X33580000Y-108044063D02*
X32364063Y-109260000D01*
D27*
X32080000Y-106097258D02*
X32080000Y-107660000D01*
X32080000Y-107660000D02*
X30480000Y-109260000D01*
D30*
X22860000Y-101040000D02*
X29224063Y-101040000D01*
D29*
X22860000Y-96520000D02*
X22860000Y-101040000D01*
D27*
X28880000Y-107660000D02*
X28880000Y-106097258D01*
X31142742Y-105160000D02*
X32080000Y-106097258D01*
D30*
X19760000Y-101040000D02*
X22860000Y-101040000D01*
X12700000Y-93980000D02*
X19760000Y-101040000D01*
D27*
X30480000Y-109260000D02*
X28880000Y-107660000D01*
X29817258Y-105160000D02*
X31142742Y-105160000D01*
X28880000Y-106097258D02*
X29817258Y-105160000D01*
D30*
X33580000Y-105395937D02*
X33580000Y-108044063D01*
D29*
%TO.N,INTA*%
X104140000Y-10160000D02*
X92075000Y-10160000D01*
X92075000Y-10160000D02*
X91440000Y-10795000D01*
X91440000Y-10795000D02*
X91440000Y-12700000D01*
X76200000Y-62230000D02*
X91440000Y-62230000D01*
X89665000Y-10925000D02*
X91440000Y-12700000D01*
X60955000Y-12700000D02*
X62730000Y-10925000D01*
X62730000Y-10925000D02*
X89665000Y-10925000D01*
%TO.N,/ProgramMemory/CMROM0*%
X81135500Y-18415000D02*
X81280000Y-18270500D01*
X56605000Y-45429000D02*
X56388000Y-45212000D01*
X104480000Y-65055000D02*
X51902547Y-65055000D01*
X62865000Y-18415000D02*
X81135500Y-18415000D01*
X143077396Y-45429000D02*
X56605000Y-45429000D01*
X51902547Y-65055000D02*
X51488183Y-64640636D01*
X116840000Y-68580000D02*
X114245000Y-65985000D01*
X105410000Y-65985000D02*
X104480000Y-65055000D01*
X145834396Y-42672000D02*
X143077396Y-45429000D01*
X114245000Y-65985000D02*
X105410000Y-65985000D01*
X145834396Y-42672000D02*
X163068000Y-42672000D01*
%TO.N,IO1*%
X104865000Y-108675000D02*
X113030000Y-116840000D01*
X54700000Y-108675000D02*
X104865000Y-108675000D01*
X113030000Y-116840000D02*
X114300000Y-116840000D01*
X54610000Y-108585000D02*
X54700000Y-108675000D01*
%TO.N,IO2*%
X105410000Y-107950000D02*
X111760000Y-114300000D01*
X57240000Y-108040000D02*
X105320000Y-108040000D01*
X111760000Y-114300000D02*
X114300000Y-114300000D01*
X105320000Y-108040000D02*
X105410000Y-107950000D01*
X57150000Y-107950000D02*
X57240000Y-108040000D01*
%TO.N,Net-(D14-K)*%
X113030000Y-16510000D02*
X116840000Y-20320000D01*
X100330000Y-16510000D02*
X113030000Y-16510000D01*
X132080000Y-60960000D02*
X129540000Y-60960000D01*
%TO.N,Net-(D15-K)*%
X110490000Y-19050000D02*
X111760000Y-20320000D01*
X104140000Y-19050000D02*
X110490000Y-19050000D01*
%TO.N,Net-(U5-TEST)*%
X88956396Y-27995000D02*
X85726396Y-24765000D01*
X98515000Y-27850000D02*
X98370000Y-27995000D01*
X98370000Y-27995000D02*
X88956396Y-27995000D01*
X85726396Y-24765000D02*
X83820000Y-24765000D01*
X158750000Y-29210000D02*
X141606396Y-29210000D01*
X140246396Y-27850000D02*
X98515000Y-27850000D01*
X141606396Y-29210000D02*
X140246396Y-27850000D01*
%TO.N,IO3*%
X59690000Y-107315000D02*
X59780000Y-107405000D01*
X110488604Y-111760000D02*
X114300000Y-111760000D01*
X106133604Y-107405000D02*
X110488604Y-111760000D01*
X59780000Y-107405000D02*
X106133604Y-107405000D01*
%TO.N,IO4*%
X62230000Y-106680000D02*
X106045000Y-106680000D01*
X108585000Y-109220000D02*
X114300000Y-109220000D01*
X106045000Y-106680000D02*
X108585000Y-109220000D01*
%TO.N,Net-(D38-A)*%
X33020000Y-93980000D02*
X38100000Y-93980000D01*
%TO.N,/ProgramMemory/CMROM1*%
X141794500Y-65535000D02*
X142240000Y-65980500D01*
X106045000Y-65535000D02*
X105115000Y-64605000D01*
X143015000Y-44855000D02*
X59587000Y-44855000D01*
X115824000Y-65535000D02*
X106045000Y-65535000D01*
X105115000Y-64605000D02*
X53810000Y-64605000D01*
X116335000Y-65535000D02*
X115824000Y-65535000D01*
X116335000Y-65535000D02*
X119380000Y-68580000D01*
X145960000Y-41910000D02*
X143015000Y-44855000D01*
X156210000Y-41910000D02*
X145960000Y-41910000D01*
X59587000Y-44855000D02*
X59436000Y-44704000D01*
X53810000Y-64605000D02*
X52705000Y-63500000D01*
X115824000Y-65535000D02*
X141794500Y-65535000D01*
%TO.N,INT*%
X73660000Y-62230000D02*
X53975000Y-62230000D01*
X73660000Y-17145000D02*
X64770000Y-17145000D01*
%TO.N,Net-(U1-Pad1)*%
X152400000Y-21590707D02*
X152400000Y-20320000D01*
X87630000Y-17780000D02*
X92605201Y-22755201D01*
X83820000Y-17780000D02*
X87630000Y-17780000D01*
X151235506Y-22755201D02*
X152400000Y-21590707D01*
X92605201Y-22755201D02*
X151235506Y-22755201D01*
%TO.N,Net-(R6-Pad1)*%
X171600000Y-46300000D02*
X165100000Y-46300000D01*
%TO.N,Net-(U15-EP)*%
X35560000Y-27940000D02*
X49530000Y-27940000D01*
X50800000Y-26670000D02*
X50800000Y-25400000D01*
X49530000Y-27940000D02*
X50800000Y-26670000D01*
D31*
%TO.N,Net-(U14-OUT_A)*%
X33020000Y-43180000D02*
X30480000Y-43180000D01*
X30480000Y-43180000D02*
X20320000Y-33020000D01*
X33020000Y-45720000D02*
X33020000Y-43180000D01*
%TO.N,Net-(U14-OUT_B)*%
X25400000Y-33020000D02*
X30480000Y-38100000D01*
X30480000Y-38100000D02*
X33020000Y-38100000D01*
X33020000Y-40640000D02*
X33020000Y-38100000D01*
D29*
%TO.N,Net-(J1-Pin_4)*%
X180340000Y-22860000D02*
X179165000Y-24035000D01*
X154940000Y-20320000D02*
X157480000Y-22860000D01*
X179165000Y-24035000D02*
X179165000Y-29305000D01*
X179165000Y-29305000D02*
X185420000Y-35560000D01*
X157480000Y-22860000D02*
X180340000Y-22860000D01*
%TO.N,Net-(J1-Pin_5)*%
X181515000Y-22373299D02*
X180786701Y-21645000D01*
X180786701Y-21645000D02*
X166425000Y-21645000D01*
X181515000Y-24225000D02*
X181515000Y-22373299D01*
X180340000Y-25400000D02*
X181515000Y-24225000D01*
X166425000Y-21645000D02*
X165100000Y-20320000D01*
%TO.N,Net-(R1-Pad2)*%
X127000000Y-60960000D02*
X128125000Y-59835000D01*
X128125000Y-59835000D02*
X138575000Y-59835000D01*
X138575000Y-59835000D02*
X139700000Y-60960000D01*
%TO.N,Net-(R3-Pad1)*%
X158900000Y-46300000D02*
X152400000Y-46300000D01*
%TO.N,OPR0*%
X176530000Y-102870000D02*
X146050000Y-102870000D01*
X146050000Y-102870000D02*
X141060000Y-97880000D01*
X64135000Y-94615000D02*
X63500000Y-93980000D01*
X129540000Y-99060000D02*
X128215000Y-97735000D01*
X63500000Y-93980000D02*
X63500000Y-83820000D01*
X128215000Y-97735000D02*
X97845000Y-97735000D01*
X141060000Y-97880000D02*
X130720000Y-97880000D01*
X96520000Y-94615000D02*
X64135000Y-94615000D01*
X97845000Y-97735000D02*
X96520000Y-99060000D01*
X130720000Y-97880000D02*
X129540000Y-99060000D01*
%TO.N,OPR1*%
X179070000Y-101600000D02*
X145416396Y-101600000D01*
X66040000Y-93345000D02*
X66040000Y-83820000D01*
X95884500Y-97155500D02*
X93980000Y-99060000D01*
X132080000Y-97155500D02*
X95884500Y-97155500D01*
X93980000Y-93890500D02*
X66585500Y-93890500D01*
X66585500Y-93890500D02*
X66040000Y-93345000D01*
X140971896Y-97155500D02*
X132080000Y-97155500D01*
X145416396Y-101600000D02*
X140971896Y-97155500D01*
%TO.N,OPR2*%
X94069000Y-96431000D02*
X91440000Y-99060000D01*
X91440000Y-93166000D02*
X69036000Y-93166000D01*
X68580000Y-92710000D02*
X68580000Y-83820000D01*
X140883792Y-96431000D02*
X134620000Y-96431000D01*
X134620000Y-96431000D02*
X94069000Y-96431000D01*
X69036000Y-93166000D02*
X68580000Y-92710000D01*
X144782792Y-100330000D02*
X140883792Y-96431000D01*
X181610000Y-100330000D02*
X144782792Y-100330000D01*
%TO.N,OPR3*%
X144149188Y-99060000D02*
X140974188Y-95885000D01*
X92253500Y-95706500D02*
X88900000Y-99060000D01*
X88900000Y-92441500D02*
X71486500Y-92441500D01*
X71120000Y-92075000D02*
X71120000Y-83820000D01*
X71486500Y-92441500D02*
X71120000Y-92075000D01*
X137160000Y-95706500D02*
X92253500Y-95706500D01*
X140974188Y-95885000D02*
X137338500Y-95885000D01*
X182880000Y-99060000D02*
X144149188Y-99060000D01*
X137338500Y-95885000D02*
X137160000Y-95706500D01*
%TO.N,OPA0*%
X136525000Y-102870000D02*
X119380000Y-102870000D01*
X91530000Y-104865000D02*
X91440000Y-104775000D01*
X136525000Y-102870000D02*
X138930000Y-105275000D01*
X144645000Y-105275000D02*
X147320000Y-107950000D01*
X175260000Y-107950000D02*
X147320000Y-107950000D01*
X111759302Y-103505698D02*
X103505000Y-103505698D01*
X91530000Y-104865000D02*
X102145698Y-104865000D01*
X138930000Y-105275000D02*
X144645000Y-105275000D01*
X119380000Y-102870000D02*
X112395000Y-102870000D01*
X112395000Y-102870000D02*
X111759302Y-103505698D01*
X91440000Y-104775000D02*
X69850000Y-104775000D01*
X102145698Y-104865000D02*
X103505000Y-103505698D01*
%TO.N,OPA1*%
X111127792Y-102870000D02*
X102870000Y-102870000D01*
X146685698Y-106679302D02*
X144781396Y-104775000D01*
X76200000Y-88900000D02*
X76200000Y-83820000D01*
X139066396Y-104775000D02*
X136436896Y-102145500D01*
X121920000Y-102145500D02*
X111852292Y-102145500D01*
X144780000Y-104775000D02*
X139066396Y-104775000D01*
X95885000Y-89535000D02*
X76835000Y-89535000D01*
X144781396Y-104775000D02*
X144780000Y-104775000D01*
X177800000Y-106680000D02*
X146686396Y-106680000D01*
X111852292Y-102145500D02*
X111127792Y-102870000D01*
X76835000Y-89535000D02*
X76200000Y-88900000D01*
X102870000Y-102870000D02*
X101510000Y-104230000D01*
X96012000Y-89662000D02*
X95885000Y-89535000D01*
X136436896Y-102145500D02*
X121920000Y-102145500D01*
X146686396Y-106680000D02*
X146685698Y-106679302D01*
X101510000Y-104230000D02*
X94070000Y-104230000D01*
X94070000Y-104230000D02*
X93980000Y-104140000D01*
%TO.N,OPA2*%
X96610000Y-103595000D02*
X96520000Y-103505000D01*
X139067792Y-104140000D02*
X145415000Y-104140000D01*
X111940396Y-101421000D02*
X111098198Y-102263198D01*
X79375000Y-88900000D02*
X97700500Y-88900000D01*
X146685000Y-105410000D02*
X145415000Y-104140000D01*
X136348792Y-101421000D02*
X124460000Y-101421000D01*
X97700500Y-88900000D02*
X97790000Y-88989500D01*
X102263198Y-102263198D02*
X100931396Y-103595000D01*
X180340000Y-105410000D02*
X146685000Y-105410000D01*
X78740000Y-83820000D02*
X78740000Y-88265000D01*
X111098198Y-102263198D02*
X102263198Y-102263198D01*
X139066396Y-104138604D02*
X136348792Y-101421000D01*
X139067792Y-104140000D02*
X139066396Y-104138604D01*
X124460000Y-101421000D02*
X111940396Y-101421000D01*
X78740000Y-88265000D02*
X79375000Y-88900000D01*
X100931396Y-103595000D02*
X96610000Y-103595000D01*
%TO.N,OPA3*%
X81280000Y-87630000D02*
X81915000Y-88265000D01*
X111070000Y-101655000D02*
X102235000Y-101655000D01*
X182880000Y-104140000D02*
X146685000Y-104140000D01*
X139067094Y-103502906D02*
X136529188Y-100965000D01*
X146047906Y-103502906D02*
X139067094Y-103502906D01*
X136529188Y-100965000D02*
X127635000Y-100965000D01*
X112340000Y-100385000D02*
X111070000Y-101655000D01*
X127000000Y-99060000D02*
X125675000Y-100385000D01*
X99060000Y-88265000D02*
X81915000Y-88265000D01*
X127000000Y-100330000D02*
X127000000Y-99060000D01*
X127635000Y-100965000D02*
X127000000Y-100330000D01*
X101020000Y-102870000D02*
X99060000Y-102870000D01*
X125675000Y-100385000D02*
X112340000Y-100385000D01*
X102235000Y-101655000D02*
X101020000Y-102870000D01*
X146685000Y-104140000D02*
X146047906Y-103502906D01*
X81280000Y-83820000D02*
X81280000Y-87630000D01*
%TO.N,Net-(R11-Pad1)*%
X184300000Y-46300000D02*
X177800000Y-46300000D01*
%TO.N,Net-(U11A-C)*%
X87575000Y-11375000D02*
X67360000Y-11375000D01*
X67360000Y-11375000D02*
X66035000Y-12700000D01*
X88900000Y-12700000D02*
X87575000Y-11375000D01*
%TO.N,A0*%
X134565000Y-113085000D02*
X171395000Y-113085000D01*
X171395000Y-113085000D02*
X172720000Y-111760000D01*
X129540000Y-118110000D02*
X134565000Y-113085000D01*
X88900000Y-114300000D02*
X92710000Y-118110000D01*
X92710000Y-118110000D02*
X129540000Y-118110000D01*
%TO.N,A1*%
X134751396Y-113535000D02*
X129726396Y-118560000D01*
X169905500Y-113535000D02*
X134751396Y-113535000D01*
X129726396Y-118560000D02*
X90620000Y-118560000D01*
X170180000Y-113809500D02*
X169905500Y-113535000D01*
X90620000Y-118560000D02*
X86360000Y-114300000D01*
%TO.N,A2*%
X167640000Y-114300000D02*
X167325000Y-113985000D01*
X88530000Y-119010000D02*
X83820000Y-114300000D01*
X167325000Y-113985000D02*
X134937792Y-113985000D01*
X134937792Y-113985000D02*
X129912792Y-119010000D01*
X129912792Y-119010000D02*
X88530000Y-119010000D01*
%TO.N,A3*%
X135124188Y-114435000D02*
X130099188Y-119460000D01*
X165100000Y-114709500D02*
X164825500Y-114435000D01*
X86440000Y-119460000D02*
X81280000Y-114300000D01*
X130099188Y-119460000D02*
X86440000Y-119460000D01*
X164825500Y-114435000D02*
X135124188Y-114435000D01*
%TO.N,A4*%
X162560000Y-115159500D02*
X162285500Y-114885000D01*
X130285584Y-119910000D02*
X84350000Y-119910000D01*
X135310584Y-114885000D02*
X130285584Y-119910000D01*
X162285500Y-114885000D02*
X135310584Y-114885000D01*
X84350000Y-119910000D02*
X78740000Y-114300000D01*
%TO.N,A5*%
X135496980Y-115335000D02*
X130471980Y-120360000D01*
X82260000Y-120360000D02*
X76200000Y-114300000D01*
X130471980Y-120360000D02*
X82260000Y-120360000D01*
X159745500Y-115335000D02*
X135496980Y-115335000D01*
X160020000Y-115609500D02*
X159745500Y-115335000D01*
%TO.N,A6*%
X80170000Y-120810000D02*
X73660000Y-114300000D01*
X130658376Y-120810000D02*
X80170000Y-120810000D01*
X157205500Y-115785000D02*
X135683376Y-115785000D01*
X135683376Y-115785000D02*
X130658376Y-120810000D01*
X157480000Y-116059500D02*
X157205500Y-115785000D01*
%TO.N,A7*%
X154940000Y-116509500D02*
X154665500Y-116235000D01*
X78080000Y-121260000D02*
X71120000Y-114300000D01*
X130844772Y-121260000D02*
X78080000Y-121260000D01*
X154665500Y-116235000D02*
X135869772Y-116235000D01*
X135869772Y-116235000D02*
X130844772Y-121260000D01*
%TO.N,CS~{ROM}RAM*%
X86360000Y-91440000D02*
X130810000Y-91440000D01*
X148680000Y-87575000D02*
X148735000Y-87630000D01*
X130810000Y-91440000D02*
X131446396Y-91440000D01*
X131446396Y-91440000D02*
X135311396Y-87575000D01*
X135311396Y-87575000D02*
X148680000Y-87575000D01*
%TO.N,Net-(R21-Pad2)*%
X36685000Y-18905000D02*
X36830000Y-19050000D01*
X27940000Y-17780000D02*
X29065000Y-18905000D01*
D27*
X25400000Y-20320000D02*
X27940000Y-17780000D01*
X22660000Y-20320000D02*
X25400000Y-20320000D01*
X27940000Y-17780000D02*
X22860000Y-12700000D01*
D29*
X29065000Y-18905000D02*
X36685000Y-18905000D01*
%TO.N,Net-(R39-Pad1)*%
X161145000Y-24275000D02*
X160020000Y-25400000D01*
X163975000Y-24275000D02*
X161145000Y-24275000D01*
X151384000Y-57404000D02*
X138176000Y-57404000D01*
X165100000Y-25400000D02*
X163975000Y-24275000D01*
X138176000Y-57404000D02*
X137160000Y-58420000D01*
%TO.N,Net-(U22-CM)*%
X91440000Y-83820000D02*
X93579500Y-81680500D01*
X107805000Y-69705000D02*
X120795000Y-69705000D01*
X120795000Y-69705000D02*
X121920000Y-68580000D01*
X107315000Y-69215000D02*
X107805000Y-69705000D01*
X93579500Y-81680500D02*
X106680000Y-81680500D01*
%TO.N,Net-(U10-CM)*%
X68580000Y-20320000D02*
X69905000Y-18995000D01*
X114300000Y-23495000D02*
X92075000Y-23495000D01*
X69905000Y-18995000D02*
X87575000Y-18995000D01*
X139700000Y-23495000D02*
X114300000Y-23495000D01*
X87575000Y-18995000D02*
X92075000Y-23495000D01*
%TO.N,Net-(U4-Pad1)*%
X152400000Y-33020000D02*
X154940000Y-33020000D01*
X156065000Y-34145000D02*
X154940000Y-33020000D01*
X160020000Y-33020000D02*
X158895000Y-34145000D01*
X158895000Y-34145000D02*
X156065000Y-34145000D01*
%TO.N,Net-(U4-Pad10)*%
X158605000Y-26525000D02*
X161435000Y-26525000D01*
X157480000Y-25400000D02*
X158605000Y-26525000D01*
X161435000Y-26525000D02*
X162560000Y-25400000D01*
%TO.N,Net-(U15-QC)*%
X46935000Y-14025000D02*
X48260000Y-12700000D01*
X26725000Y-14025000D02*
X46935000Y-14025000D01*
X25400000Y-12700000D02*
X26725000Y-14025000D01*
%TO.N,Net-(U12-Pad6)*%
X40640000Y-6350000D02*
X40640000Y-5080000D01*
X27940000Y-8165500D02*
X38824500Y-8165500D01*
X38824500Y-8165500D02*
X40640000Y-6350000D01*
%TO.N,Net-(U12-Pad9)*%
X45720000Y-5080000D02*
X44395000Y-3755000D01*
X44395000Y-3755000D02*
X29265000Y-3755000D01*
X29265000Y-3755000D02*
X27940000Y-5080000D01*
%TO.N,Net-(U12-Pad11)*%
X45405991Y-3175000D02*
X46990000Y-4759009D01*
X46990000Y-5400991D02*
X47939009Y-6350000D01*
X47939009Y-6350000D02*
X52070000Y-6350000D01*
X22860000Y-5080000D02*
X24765000Y-3175000D01*
X24765000Y-3175000D02*
X45405991Y-3175000D01*
X52070000Y-6350000D02*
X53340000Y-5080000D01*
X46990000Y-4759009D02*
X46990000Y-5400991D01*
%TO.N,Net-(U12-Pad12)*%
X45905000Y-2725000D02*
X22675000Y-2725000D01*
X22675000Y-2725000D02*
X20320000Y-5080000D01*
X48260000Y-5080000D02*
X45905000Y-2725000D01*
%TO.N,Net-(U15-QB)*%
X17780000Y-6350000D02*
X20320000Y-8890000D01*
X17780000Y-5080000D02*
X17780000Y-6350000D01*
X20320000Y-8890000D02*
X45509500Y-8890000D01*
X45509500Y-8890000D02*
X45720000Y-8679500D01*
%TO.N,Net-(U22-FL)*%
X129540000Y-81280000D02*
X127000000Y-81280000D01*
X117295500Y-76655500D02*
X127000000Y-76655500D01*
X99060000Y-74930000D02*
X115570000Y-74930000D01*
X115570000Y-74930000D02*
X117295500Y-76655500D01*
%TO.N,Net-(U19-Pad2)*%
X120505000Y-92855000D02*
X119380000Y-93980000D01*
X125875000Y-92855000D02*
X120505000Y-92855000D01*
X127000000Y-93980000D02*
X125875000Y-92855000D01*
%TO.N,Net-(U21-G2)*%
X118199500Y-80099500D02*
X119380000Y-81280000D01*
X101600000Y-80099500D02*
X118199500Y-80099500D01*
%TO.N,Net-(U21-G1)*%
X100475000Y-82405000D02*
X99060000Y-83820000D01*
X112395000Y-85725000D02*
X100965000Y-85725000D01*
X120795000Y-82405000D02*
X100475000Y-82405000D01*
X100965000Y-85725000D02*
X99060000Y-83820000D01*
X121920000Y-73660000D02*
X124460000Y-73660000D01*
X121920000Y-81280000D02*
X120795000Y-82405000D01*
%TD*%
M02*
