%TF.GenerationSoftware,KiCad,Pcbnew,7.0.7*%
%TF.CreationDate,2024-02-22T14:53:51+09:00*%
%TF.ProjectId,SBC4040,53424334-3034-4302-9e6b-696361645f70,rev?*%
%TF.SameCoordinates,Original*%
%TF.FileFunction,Copper,L2,Bot*%
%TF.FilePolarity,Positive*%
%FSLAX46Y46*%
G04 Gerber Fmt 4.6, Leading zero omitted, Abs format (unit mm)*
G04 Created by KiCad (PCBNEW 7.0.7) date 2024-02-22 14:53:51*
%MOMM*%
%LPD*%
G01*
G04 APERTURE LIST*
%ADD10C,0.300000*%
%TA.AperFunction,NonConductor*%
%ADD11C,0.300000*%
%TD*%
%TA.AperFunction,ComponentPad*%
%ADD12C,1.600000*%
%TD*%
%TA.AperFunction,ComponentPad*%
%ADD13O,1.600000X1.600000*%
%TD*%
%TA.AperFunction,ComponentPad*%
%ADD14R,1.600000X1.600000*%
%TD*%
%TA.AperFunction,ComponentPad*%
%ADD15R,1.800000X1.800000*%
%TD*%
%TA.AperFunction,ComponentPad*%
%ADD16C,1.800000*%
%TD*%
%TA.AperFunction,ComponentPad*%
%ADD17C,10.160000*%
%TD*%
%TA.AperFunction,ComponentPad*%
%ADD18R,1.440000X2.000000*%
%TD*%
%TA.AperFunction,ComponentPad*%
%ADD19O,1.440000X2.000000*%
%TD*%
%TA.AperFunction,ComponentPad*%
%ADD20R,2.200000X2.200000*%
%TD*%
%TA.AperFunction,ComponentPad*%
%ADD21O,2.200000X2.200000*%
%TD*%
%TA.AperFunction,ComponentPad*%
%ADD22C,1.500000*%
%TD*%
%TA.AperFunction,ComponentPad*%
%ADD23R,1.700000X1.700000*%
%TD*%
%TA.AperFunction,ComponentPad*%
%ADD24O,1.700000X1.700000*%
%TD*%
%TA.AperFunction,ComponentPad*%
%ADD25C,2.000000*%
%TD*%
%TA.AperFunction,ViaPad*%
%ADD26C,0.800000*%
%TD*%
%TA.AperFunction,Conductor*%
%ADD27C,4.000000*%
%TD*%
%TA.AperFunction,Conductor*%
%ADD28C,3.000000*%
%TD*%
%TA.AperFunction,Conductor*%
%ADD29C,0.250000*%
%TD*%
%TA.AperFunction,Conductor*%
%ADD30C,2.000000*%
%TD*%
%TA.AperFunction,Conductor*%
%ADD31C,1.000000*%
%TD*%
%TA.AperFunction,Conductor*%
%ADD32C,0.500000*%
%TD*%
G04 APERTURE END LIST*
D10*
D11*
X52666441Y-120979638D02*
X52666441Y-118979638D01*
X52666441Y-118979638D02*
X52190251Y-118979638D01*
X52190251Y-118979638D02*
X51904536Y-119074876D01*
X51904536Y-119074876D02*
X51714060Y-119265352D01*
X51714060Y-119265352D02*
X51618822Y-119455828D01*
X51618822Y-119455828D02*
X51523584Y-119836780D01*
X51523584Y-119836780D02*
X51523584Y-120122495D01*
X51523584Y-120122495D02*
X51618822Y-120503447D01*
X51618822Y-120503447D02*
X51714060Y-120693923D01*
X51714060Y-120693923D02*
X51904536Y-120884400D01*
X51904536Y-120884400D02*
X52190251Y-120979638D01*
X52190251Y-120979638D02*
X52666441Y-120979638D01*
X49904536Y-120884400D02*
X50095012Y-120979638D01*
X50095012Y-120979638D02*
X50475965Y-120979638D01*
X50475965Y-120979638D02*
X50666441Y-120884400D01*
X50666441Y-120884400D02*
X50761679Y-120693923D01*
X50761679Y-120693923D02*
X50761679Y-119932019D01*
X50761679Y-119932019D02*
X50666441Y-119741542D01*
X50666441Y-119741542D02*
X50475965Y-119646304D01*
X50475965Y-119646304D02*
X50095012Y-119646304D01*
X50095012Y-119646304D02*
X49904536Y-119741542D01*
X49904536Y-119741542D02*
X49809298Y-119932019D01*
X49809298Y-119932019D02*
X49809298Y-120122495D01*
X49809298Y-120122495D02*
X50761679Y-120312971D01*
X49047393Y-120884400D02*
X48856917Y-120979638D01*
X48856917Y-120979638D02*
X48475965Y-120979638D01*
X48475965Y-120979638D02*
X48285488Y-120884400D01*
X48285488Y-120884400D02*
X48190250Y-120693923D01*
X48190250Y-120693923D02*
X48190250Y-120598685D01*
X48190250Y-120598685D02*
X48285488Y-120408209D01*
X48285488Y-120408209D02*
X48475965Y-120312971D01*
X48475965Y-120312971D02*
X48761679Y-120312971D01*
X48761679Y-120312971D02*
X48952155Y-120217733D01*
X48952155Y-120217733D02*
X49047393Y-120027257D01*
X49047393Y-120027257D02*
X49047393Y-119932019D01*
X49047393Y-119932019D02*
X48952155Y-119741542D01*
X48952155Y-119741542D02*
X48761679Y-119646304D01*
X48761679Y-119646304D02*
X48475965Y-119646304D01*
X48475965Y-119646304D02*
X48285488Y-119741542D01*
X47333107Y-120979638D02*
X47333107Y-119646304D01*
X47333107Y-118979638D02*
X47428345Y-119074876D01*
X47428345Y-119074876D02*
X47333107Y-119170114D01*
X47333107Y-119170114D02*
X47237869Y-119074876D01*
X47237869Y-119074876D02*
X47333107Y-118979638D01*
X47333107Y-118979638D02*
X47333107Y-119170114D01*
X45523583Y-119646304D02*
X45523583Y-121265352D01*
X45523583Y-121265352D02*
X45618821Y-121455828D01*
X45618821Y-121455828D02*
X45714059Y-121551066D01*
X45714059Y-121551066D02*
X45904536Y-121646304D01*
X45904536Y-121646304D02*
X46190250Y-121646304D01*
X46190250Y-121646304D02*
X46380726Y-121551066D01*
X45523583Y-120884400D02*
X45714059Y-120979638D01*
X45714059Y-120979638D02*
X46095012Y-120979638D01*
X46095012Y-120979638D02*
X46285488Y-120884400D01*
X46285488Y-120884400D02*
X46380726Y-120789161D01*
X46380726Y-120789161D02*
X46475964Y-120598685D01*
X46475964Y-120598685D02*
X46475964Y-120027257D01*
X46475964Y-120027257D02*
X46380726Y-119836780D01*
X46380726Y-119836780D02*
X46285488Y-119741542D01*
X46285488Y-119741542D02*
X46095012Y-119646304D01*
X46095012Y-119646304D02*
X45714059Y-119646304D01*
X45714059Y-119646304D02*
X45523583Y-119741542D01*
X44571202Y-119646304D02*
X44571202Y-120979638D01*
X44571202Y-119836780D02*
X44475964Y-119741542D01*
X44475964Y-119741542D02*
X44285488Y-119646304D01*
X44285488Y-119646304D02*
X43999773Y-119646304D01*
X43999773Y-119646304D02*
X43809297Y-119741542D01*
X43809297Y-119741542D02*
X43714059Y-119932019D01*
X43714059Y-119932019D02*
X43714059Y-120979638D01*
X41999773Y-120884400D02*
X42190249Y-120979638D01*
X42190249Y-120979638D02*
X42571202Y-120979638D01*
X42571202Y-120979638D02*
X42761678Y-120884400D01*
X42761678Y-120884400D02*
X42856916Y-120693923D01*
X42856916Y-120693923D02*
X42856916Y-119932019D01*
X42856916Y-119932019D02*
X42761678Y-119741542D01*
X42761678Y-119741542D02*
X42571202Y-119646304D01*
X42571202Y-119646304D02*
X42190249Y-119646304D01*
X42190249Y-119646304D02*
X41999773Y-119741542D01*
X41999773Y-119741542D02*
X41904535Y-119932019D01*
X41904535Y-119932019D02*
X41904535Y-120122495D01*
X41904535Y-120122495D02*
X42856916Y-120312971D01*
X40190249Y-120979638D02*
X40190249Y-118979638D01*
X40190249Y-120884400D02*
X40380725Y-120979638D01*
X40380725Y-120979638D02*
X40761678Y-120979638D01*
X40761678Y-120979638D02*
X40952154Y-120884400D01*
X40952154Y-120884400D02*
X41047392Y-120789161D01*
X41047392Y-120789161D02*
X41142630Y-120598685D01*
X41142630Y-120598685D02*
X41142630Y-120027257D01*
X41142630Y-120027257D02*
X41047392Y-119836780D01*
X41047392Y-119836780D02*
X40952154Y-119741542D01*
X40952154Y-119741542D02*
X40761678Y-119646304D01*
X40761678Y-119646304D02*
X40380725Y-119646304D01*
X40380725Y-119646304D02*
X40190249Y-119741542D01*
X37714058Y-120979638D02*
X37714058Y-118979638D01*
X37714058Y-119741542D02*
X37523582Y-119646304D01*
X37523582Y-119646304D02*
X37142629Y-119646304D01*
X37142629Y-119646304D02*
X36952153Y-119741542D01*
X36952153Y-119741542D02*
X36856915Y-119836780D01*
X36856915Y-119836780D02*
X36761677Y-120027257D01*
X36761677Y-120027257D02*
X36761677Y-120598685D01*
X36761677Y-120598685D02*
X36856915Y-120789161D01*
X36856915Y-120789161D02*
X36952153Y-120884400D01*
X36952153Y-120884400D02*
X37142629Y-120979638D01*
X37142629Y-120979638D02*
X37523582Y-120979638D01*
X37523582Y-120979638D02*
X37714058Y-120884400D01*
X36095010Y-119646304D02*
X35618820Y-120979638D01*
X35142629Y-119646304D02*
X35618820Y-120979638D01*
X35618820Y-120979638D02*
X35809296Y-121455828D01*
X35809296Y-121455828D02*
X35904534Y-121551066D01*
X35904534Y-121551066D02*
X36095010Y-121646304D01*
X31714057Y-120979638D02*
X32380724Y-120027257D01*
X32856914Y-120979638D02*
X32856914Y-118979638D01*
X32856914Y-118979638D02*
X32095009Y-118979638D01*
X32095009Y-118979638D02*
X31904533Y-119074876D01*
X31904533Y-119074876D02*
X31809295Y-119170114D01*
X31809295Y-119170114D02*
X31714057Y-119360590D01*
X31714057Y-119360590D02*
X31714057Y-119646304D01*
X31714057Y-119646304D02*
X31809295Y-119836780D01*
X31809295Y-119836780D02*
X31904533Y-119932019D01*
X31904533Y-119932019D02*
X32095009Y-120027257D01*
X32095009Y-120027257D02*
X32856914Y-120027257D01*
X31047390Y-119646304D02*
X30571200Y-120979638D01*
X30095009Y-119646304D02*
X30571200Y-120979638D01*
X30571200Y-120979638D02*
X30761676Y-121455828D01*
X30761676Y-121455828D02*
X30856914Y-121551066D01*
X30856914Y-121551066D02*
X31047390Y-121646304D01*
X29047390Y-120979638D02*
X29237866Y-120884400D01*
X29237866Y-120884400D02*
X29333104Y-120789161D01*
X29333104Y-120789161D02*
X29428342Y-120598685D01*
X29428342Y-120598685D02*
X29428342Y-120027257D01*
X29428342Y-120027257D02*
X29333104Y-119836780D01*
X29333104Y-119836780D02*
X29237866Y-119741542D01*
X29237866Y-119741542D02*
X29047390Y-119646304D01*
X29047390Y-119646304D02*
X28761675Y-119646304D01*
X28761675Y-119646304D02*
X28571199Y-119741542D01*
X28571199Y-119741542D02*
X28475961Y-119836780D01*
X28475961Y-119836780D02*
X28380723Y-120027257D01*
X28380723Y-120027257D02*
X28380723Y-120598685D01*
X28380723Y-120598685D02*
X28475961Y-120789161D01*
X28475961Y-120789161D02*
X28571199Y-120884400D01*
X28571199Y-120884400D02*
X28761675Y-120979638D01*
X28761675Y-120979638D02*
X29047390Y-120979638D01*
X25999770Y-120979638D02*
X25999770Y-118979638D01*
X25999770Y-118979638D02*
X25333103Y-120408209D01*
X25333103Y-120408209D02*
X24666437Y-118979638D01*
X24666437Y-118979638D02*
X24666437Y-120979638D01*
X22856913Y-119646304D02*
X22856913Y-120979638D01*
X23714056Y-119646304D02*
X23714056Y-120693923D01*
X23714056Y-120693923D02*
X23618818Y-120884400D01*
X23618818Y-120884400D02*
X23428342Y-120979638D01*
X23428342Y-120979638D02*
X23142627Y-120979638D01*
X23142627Y-120979638D02*
X22952151Y-120884400D01*
X22952151Y-120884400D02*
X22856913Y-120789161D01*
X21904532Y-120979638D02*
X21904532Y-118979638D01*
X21714056Y-120217733D02*
X21142627Y-120979638D01*
X21142627Y-119646304D02*
X21904532Y-120408209D01*
X19428341Y-120979638D02*
X19428341Y-119932019D01*
X19428341Y-119932019D02*
X19523579Y-119741542D01*
X19523579Y-119741542D02*
X19714055Y-119646304D01*
X19714055Y-119646304D02*
X20095008Y-119646304D01*
X20095008Y-119646304D02*
X20285484Y-119741542D01*
X19428341Y-120884400D02*
X19618817Y-120979638D01*
X19618817Y-120979638D02*
X20095008Y-120979638D01*
X20095008Y-120979638D02*
X20285484Y-120884400D01*
X20285484Y-120884400D02*
X20380722Y-120693923D01*
X20380722Y-120693923D02*
X20380722Y-120503447D01*
X20380722Y-120503447D02*
X20285484Y-120312971D01*
X20285484Y-120312971D02*
X20095008Y-120217733D01*
X20095008Y-120217733D02*
X19618817Y-120217733D01*
X19618817Y-120217733D02*
X19428341Y-120122495D01*
X18475960Y-120979638D02*
X18475960Y-119646304D01*
X18475960Y-118979638D02*
X18571198Y-119074876D01*
X18571198Y-119074876D02*
X18475960Y-119170114D01*
X18475960Y-119170114D02*
X18380722Y-119074876D01*
X18380722Y-119074876D02*
X18475960Y-118979638D01*
X18475960Y-118979638D02*
X18475960Y-119170114D01*
X52666441Y-124199638D02*
X52666441Y-122199638D01*
X51809298Y-124199638D02*
X51809298Y-123152019D01*
X51809298Y-123152019D02*
X51904536Y-122961542D01*
X51904536Y-122961542D02*
X52095012Y-122866304D01*
X52095012Y-122866304D02*
X52380727Y-122866304D01*
X52380727Y-122866304D02*
X52571203Y-122961542D01*
X52571203Y-122961542D02*
X52666441Y-123056780D01*
X51142631Y-122866304D02*
X50380727Y-122866304D01*
X50856917Y-122199638D02*
X50856917Y-123913923D01*
X50856917Y-123913923D02*
X50761679Y-124104400D01*
X50761679Y-124104400D02*
X50571203Y-124199638D01*
X50571203Y-124199638D02*
X50380727Y-124199638D01*
X49999774Y-122866304D02*
X49237870Y-122866304D01*
X49714060Y-122199638D02*
X49714060Y-123913923D01*
X49714060Y-123913923D02*
X49618822Y-124104400D01*
X49618822Y-124104400D02*
X49428346Y-124199638D01*
X49428346Y-124199638D02*
X49237870Y-124199638D01*
X48571203Y-122866304D02*
X48571203Y-124866304D01*
X48571203Y-122961542D02*
X48380727Y-122866304D01*
X48380727Y-122866304D02*
X47999774Y-122866304D01*
X47999774Y-122866304D02*
X47809298Y-122961542D01*
X47809298Y-122961542D02*
X47714060Y-123056780D01*
X47714060Y-123056780D02*
X47618822Y-123247257D01*
X47618822Y-123247257D02*
X47618822Y-123818685D01*
X47618822Y-123818685D02*
X47714060Y-124009161D01*
X47714060Y-124009161D02*
X47809298Y-124104400D01*
X47809298Y-124104400D02*
X47999774Y-124199638D01*
X47999774Y-124199638D02*
X48380727Y-124199638D01*
X48380727Y-124199638D02*
X48571203Y-124104400D01*
X46856917Y-124104400D02*
X46666441Y-124199638D01*
X46666441Y-124199638D02*
X46285489Y-124199638D01*
X46285489Y-124199638D02*
X46095012Y-124104400D01*
X46095012Y-124104400D02*
X45999774Y-123913923D01*
X45999774Y-123913923D02*
X45999774Y-123818685D01*
X45999774Y-123818685D02*
X46095012Y-123628209D01*
X46095012Y-123628209D02*
X46285489Y-123532971D01*
X46285489Y-123532971D02*
X46571203Y-123532971D01*
X46571203Y-123532971D02*
X46761679Y-123437733D01*
X46761679Y-123437733D02*
X46856917Y-123247257D01*
X46856917Y-123247257D02*
X46856917Y-123152019D01*
X46856917Y-123152019D02*
X46761679Y-122961542D01*
X46761679Y-122961542D02*
X46571203Y-122866304D01*
X46571203Y-122866304D02*
X46285489Y-122866304D01*
X46285489Y-122866304D02*
X46095012Y-122961542D01*
X45142631Y-124009161D02*
X45047393Y-124104400D01*
X45047393Y-124104400D02*
X45142631Y-124199638D01*
X45142631Y-124199638D02*
X45237869Y-124104400D01*
X45237869Y-124104400D02*
X45142631Y-124009161D01*
X45142631Y-124009161D02*
X45142631Y-124199638D01*
X45142631Y-122961542D02*
X45047393Y-123056780D01*
X45047393Y-123056780D02*
X45142631Y-123152019D01*
X45142631Y-123152019D02*
X45237869Y-123056780D01*
X45237869Y-123056780D02*
X45142631Y-122961542D01*
X45142631Y-122961542D02*
X45142631Y-123152019D01*
X42761679Y-122104400D02*
X44475964Y-124675828D01*
X40666441Y-122104400D02*
X42380726Y-124675828D01*
X39142631Y-122866304D02*
X39142631Y-124485352D01*
X39142631Y-124485352D02*
X39237869Y-124675828D01*
X39237869Y-124675828D02*
X39333107Y-124771066D01*
X39333107Y-124771066D02*
X39523584Y-124866304D01*
X39523584Y-124866304D02*
X39809298Y-124866304D01*
X39809298Y-124866304D02*
X39999774Y-124771066D01*
X39142631Y-124104400D02*
X39333107Y-124199638D01*
X39333107Y-124199638D02*
X39714060Y-124199638D01*
X39714060Y-124199638D02*
X39904536Y-124104400D01*
X39904536Y-124104400D02*
X39999774Y-124009161D01*
X39999774Y-124009161D02*
X40095012Y-123818685D01*
X40095012Y-123818685D02*
X40095012Y-123247257D01*
X40095012Y-123247257D02*
X39999774Y-123056780D01*
X39999774Y-123056780D02*
X39904536Y-122961542D01*
X39904536Y-122961542D02*
X39714060Y-122866304D01*
X39714060Y-122866304D02*
X39333107Y-122866304D01*
X39333107Y-122866304D02*
X39142631Y-122961542D01*
X38190250Y-124199638D02*
X38190250Y-122866304D01*
X38190250Y-122199638D02*
X38285488Y-122294876D01*
X38285488Y-122294876D02*
X38190250Y-122390114D01*
X38190250Y-122390114D02*
X38095012Y-122294876D01*
X38095012Y-122294876D02*
X38190250Y-122199638D01*
X38190250Y-122199638D02*
X38190250Y-122390114D01*
X37523583Y-122866304D02*
X36761679Y-122866304D01*
X37237869Y-122199638D02*
X37237869Y-123913923D01*
X37237869Y-123913923D02*
X37142631Y-124104400D01*
X37142631Y-124104400D02*
X36952155Y-124199638D01*
X36952155Y-124199638D02*
X36761679Y-124199638D01*
X36095012Y-124199638D02*
X36095012Y-122199638D01*
X35237869Y-124199638D02*
X35237869Y-123152019D01*
X35237869Y-123152019D02*
X35333107Y-122961542D01*
X35333107Y-122961542D02*
X35523583Y-122866304D01*
X35523583Y-122866304D02*
X35809298Y-122866304D01*
X35809298Y-122866304D02*
X35999774Y-122961542D01*
X35999774Y-122961542D02*
X36095012Y-123056780D01*
X33428345Y-122866304D02*
X33428345Y-124199638D01*
X34285488Y-122866304D02*
X34285488Y-123913923D01*
X34285488Y-123913923D02*
X34190250Y-124104400D01*
X34190250Y-124104400D02*
X33999774Y-124199638D01*
X33999774Y-124199638D02*
X33714059Y-124199638D01*
X33714059Y-124199638D02*
X33523583Y-124104400D01*
X33523583Y-124104400D02*
X33428345Y-124009161D01*
X32475964Y-124199638D02*
X32475964Y-122199638D01*
X32475964Y-122961542D02*
X32285488Y-122866304D01*
X32285488Y-122866304D02*
X31904535Y-122866304D01*
X31904535Y-122866304D02*
X31714059Y-122961542D01*
X31714059Y-122961542D02*
X31618821Y-123056780D01*
X31618821Y-123056780D02*
X31523583Y-123247257D01*
X31523583Y-123247257D02*
X31523583Y-123818685D01*
X31523583Y-123818685D02*
X31618821Y-124009161D01*
X31618821Y-124009161D02*
X31714059Y-124104400D01*
X31714059Y-124104400D02*
X31904535Y-124199638D01*
X31904535Y-124199638D02*
X32285488Y-124199638D01*
X32285488Y-124199638D02*
X32475964Y-124104400D01*
X30666440Y-124009161D02*
X30571202Y-124104400D01*
X30571202Y-124104400D02*
X30666440Y-124199638D01*
X30666440Y-124199638D02*
X30761678Y-124104400D01*
X30761678Y-124104400D02*
X30666440Y-124009161D01*
X30666440Y-124009161D02*
X30666440Y-124199638D01*
X28856916Y-124104400D02*
X29047392Y-124199638D01*
X29047392Y-124199638D02*
X29428345Y-124199638D01*
X29428345Y-124199638D02*
X29618821Y-124104400D01*
X29618821Y-124104400D02*
X29714059Y-124009161D01*
X29714059Y-124009161D02*
X29809297Y-123818685D01*
X29809297Y-123818685D02*
X29809297Y-123247257D01*
X29809297Y-123247257D02*
X29714059Y-123056780D01*
X29714059Y-123056780D02*
X29618821Y-122961542D01*
X29618821Y-122961542D02*
X29428345Y-122866304D01*
X29428345Y-122866304D02*
X29047392Y-122866304D01*
X29047392Y-122866304D02*
X28856916Y-122961542D01*
X27714059Y-124199638D02*
X27904535Y-124104400D01*
X27904535Y-124104400D02*
X27999773Y-124009161D01*
X27999773Y-124009161D02*
X28095011Y-123818685D01*
X28095011Y-123818685D02*
X28095011Y-123247257D01*
X28095011Y-123247257D02*
X27999773Y-123056780D01*
X27999773Y-123056780D02*
X27904535Y-122961542D01*
X27904535Y-122961542D02*
X27714059Y-122866304D01*
X27714059Y-122866304D02*
X27428344Y-122866304D01*
X27428344Y-122866304D02*
X27237868Y-122961542D01*
X27237868Y-122961542D02*
X27142630Y-123056780D01*
X27142630Y-123056780D02*
X27047392Y-123247257D01*
X27047392Y-123247257D02*
X27047392Y-123818685D01*
X27047392Y-123818685D02*
X27142630Y-124009161D01*
X27142630Y-124009161D02*
X27237868Y-124104400D01*
X27237868Y-124104400D02*
X27428344Y-124199638D01*
X27428344Y-124199638D02*
X27714059Y-124199638D01*
X26190249Y-124199638D02*
X26190249Y-122866304D01*
X26190249Y-123056780D02*
X26095011Y-122961542D01*
X26095011Y-122961542D02*
X25904535Y-122866304D01*
X25904535Y-122866304D02*
X25618820Y-122866304D01*
X25618820Y-122866304D02*
X25428344Y-122961542D01*
X25428344Y-122961542D02*
X25333106Y-123152019D01*
X25333106Y-123152019D02*
X25333106Y-124199638D01*
X25333106Y-123152019D02*
X25237868Y-122961542D01*
X25237868Y-122961542D02*
X25047392Y-122866304D01*
X25047392Y-122866304D02*
X24761678Y-122866304D01*
X24761678Y-122866304D02*
X24571201Y-122961542D01*
X24571201Y-122961542D02*
X24475963Y-123152019D01*
X24475963Y-123152019D02*
X24475963Y-124199638D01*
X22095011Y-122104400D02*
X23809296Y-124675828D01*
X21428344Y-124199638D02*
X21428344Y-122866304D01*
X21428344Y-123247257D02*
X21333106Y-123056780D01*
X21333106Y-123056780D02*
X21237868Y-122961542D01*
X21237868Y-122961542D02*
X21047392Y-122866304D01*
X21047392Y-122866304D02*
X20856915Y-122866304D01*
X20380725Y-122866304D02*
X19904535Y-124199638D01*
X19428344Y-122866304D02*
X19904535Y-124199638D01*
X19904535Y-124199638D02*
X20095011Y-124675828D01*
X20095011Y-124675828D02*
X20190249Y-124771066D01*
X20190249Y-124771066D02*
X20380725Y-124866304D01*
X18380725Y-124199638D02*
X18571201Y-124104400D01*
X18571201Y-124104400D02*
X18666439Y-124009161D01*
X18666439Y-124009161D02*
X18761677Y-123818685D01*
X18761677Y-123818685D02*
X18761677Y-123247257D01*
X18761677Y-123247257D02*
X18666439Y-123056780D01*
X18666439Y-123056780D02*
X18571201Y-122961542D01*
X18571201Y-122961542D02*
X18380725Y-122866304D01*
X18380725Y-122866304D02*
X18095010Y-122866304D01*
X18095010Y-122866304D02*
X17904534Y-122961542D01*
X17904534Y-122961542D02*
X17809296Y-123056780D01*
X17809296Y-123056780D02*
X17714058Y-123247257D01*
X17714058Y-123247257D02*
X17714058Y-123818685D01*
X17714058Y-123818685D02*
X17809296Y-124009161D01*
X17809296Y-124009161D02*
X17904534Y-124104400D01*
X17904534Y-124104400D02*
X18095010Y-124199638D01*
X18095010Y-124199638D02*
X18380725Y-124199638D01*
X16856915Y-124199638D02*
X16856915Y-122866304D01*
X16856915Y-123056780D02*
X16761677Y-122961542D01*
X16761677Y-122961542D02*
X16571201Y-122866304D01*
X16571201Y-122866304D02*
X16285486Y-122866304D01*
X16285486Y-122866304D02*
X16095010Y-122961542D01*
X16095010Y-122961542D02*
X15999772Y-123152019D01*
X15999772Y-123152019D02*
X15999772Y-124199638D01*
X15999772Y-123152019D02*
X15904534Y-122961542D01*
X15904534Y-122961542D02*
X15714058Y-122866304D01*
X15714058Y-122866304D02*
X15428344Y-122866304D01*
X15428344Y-122866304D02*
X15237867Y-122961542D01*
X15237867Y-122961542D02*
X15142629Y-123152019D01*
X15142629Y-123152019D02*
X15142629Y-124199638D01*
X13333105Y-122866304D02*
X13333105Y-124199638D01*
X14190248Y-122866304D02*
X14190248Y-123913923D01*
X14190248Y-123913923D02*
X14095010Y-124104400D01*
X14095010Y-124104400D02*
X13904534Y-124199638D01*
X13904534Y-124199638D02*
X13618819Y-124199638D01*
X13618819Y-124199638D02*
X13428343Y-124104400D01*
X13428343Y-124104400D02*
X13333105Y-124009161D01*
X12380724Y-124199638D02*
X12380724Y-122199638D01*
X12190248Y-123437733D02*
X11618819Y-124199638D01*
X11618819Y-122866304D02*
X12380724Y-123628209D01*
D12*
%TO.P,R21,1*%
%TO.N,Net-(C12-Pad2)*%
X27940000Y-25400000D03*
D13*
%TO.P,R21,2*%
%TO.N,Net-(R21-Pad2)*%
X27940000Y-17780000D03*
%TD*%
D12*
%TO.P,R15,1*%
%TO.N,STPA*%
X160020000Y-10160000D03*
D13*
%TO.P,R15,2*%
%TO.N,GND*%
X152400000Y-10160000D03*
%TD*%
D14*
%TO.P,U15,1,~{CLEAR}*%
%TO.N,Net-(U15-EP)*%
X35560000Y-25400000D03*
D13*
%TO.P,U15,2,CLOCK*%
%TO.N,Net-(U15-CLOCK)*%
X38100000Y-25400000D03*
%TO.P,U15,3,A*%
%TO.N,GND*%
X40640000Y-25400000D03*
%TO.P,U15,4,B*%
X43180000Y-25400000D03*
%TO.P,U15,5,C*%
X45720000Y-25400000D03*
%TO.P,U15,6,D*%
X48260000Y-25400000D03*
%TO.P,U15,7,EP*%
%TO.N,Net-(U15-EP)*%
X50800000Y-25400000D03*
%TO.P,U15,8,GND*%
%TO.N,GND*%
X53340000Y-25400000D03*
%TO.P,U15,9,LOAD*%
%TO.N,Net-(U15-LOAD)*%
X53340000Y-17780000D03*
%TO.P,U15,10,ET*%
%TO.N,Net-(U15-EP)*%
X50800000Y-17780000D03*
%TO.P,U15,11,QD*%
%TO.N,unconnected-(U15-QD-Pad11)*%
X48260000Y-17780000D03*
%TO.P,U15,12,QC*%
%TO.N,Net-(U15-QC)*%
X45720000Y-17780000D03*
%TO.P,U15,13,QB*%
%TO.N,Net-(U15-QB)*%
X43180000Y-17780000D03*
%TO.P,U15,14,QA*%
%TO.N,unconnected-(U15-QA-Pad14)*%
X40640000Y-17780000D03*
%TO.P,U15,15,COUT*%
%TO.N,unconnected-(U15-COUT-Pad15)*%
X38100000Y-17780000D03*
%TO.P,U15,16,VCC*%
%TO.N,+5V*%
X35560000Y-17780000D03*
%TD*%
D14*
%TO.P,C26,1*%
%TO.N,GND*%
X27940000Y-60960000D03*
D12*
%TO.P,C26,2*%
%TO.N,-10V*%
X30440000Y-60960000D03*
%TD*%
D14*
%TO.P,U3,1*%
%TO.N,Net-(C1-Pad1)*%
X81280000Y-12700000D03*
D13*
%TO.P,U3,2*%
%TO.N,Net-(U1-Pad1)*%
X83820000Y-12700000D03*
%TO.P,U3,3*%
%TO.N,Net-(C6-Pad1)*%
X86360000Y-12700000D03*
%TO.P,U3,4*%
%TO.N,Net-(U11A-C)*%
X88900000Y-12700000D03*
%TO.P,U3,5*%
%TO.N,INTA*%
X91440000Y-12700000D03*
%TO.P,U3,6*%
%TO.N,Net-(D19-A)*%
X93980000Y-12700000D03*
%TO.P,U3,7,GND*%
%TO.N,GND*%
X96520000Y-12700000D03*
%TO.P,U3,8*%
%TO.N,Net-(D20-A)*%
X96520000Y-5080000D03*
%TO.P,U3,9*%
%TO.N,STPA*%
X93980000Y-5080000D03*
%TO.P,U3,10*%
%TO.N,unconnected-(U3-Pad10)*%
X91440000Y-5080000D03*
%TO.P,U3,11*%
%TO.N,+5V*%
X88900000Y-5080000D03*
%TO.P,U3,12*%
%TO.N,unconnected-(U3-Pad12)*%
X86360000Y-5080000D03*
%TO.P,U3,13*%
%TO.N,+5V*%
X83820000Y-5080000D03*
%TO.P,U3,14,VCC*%
X81280000Y-5080000D03*
%TD*%
D12*
%TO.P,R1,1*%
%TO.N,Net-(D1-K)*%
X139700000Y-68580000D03*
D13*
%TO.P,R1,2*%
%TO.N,Net-(R1-Pad2)*%
X139700000Y-60960000D03*
%TD*%
D15*
%TO.P,D10,1,K*%
%TO.N,Net-(D10-K)*%
X142240000Y-20320000D03*
D16*
%TO.P,D10,2,A*%
%TO.N,Net-(D10-A)*%
X142240000Y-17780000D03*
%TD*%
D12*
%TO.P,R29,1*%
%TO.N,BANK2*%
X160020000Y-60960000D03*
D13*
%TO.P,R29,2*%
%TO.N,A10*%
X160020000Y-68580000D03*
%TD*%
D14*
%TO.P,U12,1*%
%TO.N,Net-(C13-Pad1)*%
X15240000Y-12700000D03*
D13*
%TO.P,U12,2*%
%TO.N,Net-(C12-Pad1)*%
X17780000Y-12700000D03*
%TO.P,U12,3*%
%TO.N,Net-(C12-Pad2)*%
X20320000Y-12700000D03*
%TO.P,U12,4*%
%TO.N,Net-(R21-Pad2)*%
X22860000Y-12700000D03*
%TO.P,U12,5*%
%TO.N,Net-(U15-QC)*%
X25400000Y-12700000D03*
%TO.P,U12,6*%
%TO.N,Net-(U12-Pad6)*%
X27940000Y-12700000D03*
%TO.P,U12,7,GND*%
%TO.N,GND*%
X30480000Y-12700000D03*
%TO.P,U12,8*%
%TO.N,Net-(C9-Pad1)*%
X30480000Y-5080000D03*
%TO.P,U12,9*%
%TO.N,Net-(U12-Pad9)*%
X27940000Y-5080000D03*
%TO.P,U12,10*%
%TO.N,Net-(C10-Pad1)*%
X25400000Y-5080000D03*
%TO.P,U12,11*%
%TO.N,Net-(U12-Pad11)*%
X22860000Y-5080000D03*
%TO.P,U12,12*%
%TO.N,Net-(U12-Pad12)*%
X20320000Y-5080000D03*
%TO.P,U12,13*%
%TO.N,Net-(U15-QB)*%
X17780000Y-5080000D03*
%TO.P,U12,14,VCC*%
%TO.N,+5V*%
X15240000Y-5080000D03*
%TD*%
D15*
%TO.P,D38,1,K*%
%TO.N,-10V*%
X33020000Y-96520000D03*
D16*
%TO.P,D38,2,A*%
%TO.N,Net-(D38-A)*%
X33020000Y-93980000D03*
%TD*%
D12*
%TO.P,R11,1*%
%TO.N,Net-(R11-Pad1)*%
X185420000Y-40640000D03*
D13*
%TO.P,R11,2*%
%TO.N,Net-(C6-Pad1)*%
X177800000Y-40640000D03*
%TD*%
D12*
%TO.P,C21,1*%
%TO.N,+5V*%
X53340000Y-99060000D03*
%TO.P,C21,2*%
%TO.N,GND*%
X53340000Y-94060000D03*
%TD*%
%TO.P,R33,1*%
%TO.N,GND*%
X48260000Y-101600000D03*
D13*
%TO.P,R33,2*%
%TO.N,ROM_P26*%
X48260000Y-93980000D03*
%TD*%
D14*
%TO.P,D27,1,K*%
%TO.N,A9*%
X162509032Y-71120000D03*
D13*
%TO.P,D27,2,A*%
%TO.N,GND*%
X162509032Y-73660000D03*
%TD*%
D17*
%TO.P,J5,1,Pin_1*%
%TO.N,GND*%
X12700000Y-78740000D03*
%TD*%
D12*
%TO.P,R24,1*%
%TO.N,BANK7*%
X147320000Y-60960000D03*
D13*
%TO.P,R24,2*%
%TO.N,A15*%
X147320000Y-68580000D03*
%TD*%
D18*
%TO.P,U5,1,D0*%
%TO.N,/ProgramMemory/D0*%
X58420000Y-55880000D03*
D19*
%TO.P,U5,2,D1*%
%TO.N,/ProgramMemory/D1*%
X60960000Y-55880000D03*
%TO.P,U5,3,D2*%
%TO.N,/ProgramMemory/D2*%
X63500000Y-55880000D03*
%TO.P,U5,4,D3*%
%TO.N,/ProgramMemory/D3*%
X66040000Y-55880000D03*
%TO.P,U5,5,STPA*%
%TO.N,STPA*%
X68580000Y-55880000D03*
%TO.P,U5,6,STP*%
%TO.N,STP*%
X71120000Y-55880000D03*
%TO.P,U5,7,INT*%
%TO.N,INT*%
X73660000Y-55880000D03*
%TO.P,U5,8,INTA*%
%TO.N,INTA*%
X76200000Y-55880000D03*
%TO.P,U5,9,Vss*%
%TO.N,+5V*%
X78740000Y-55880000D03*
%TO.P,U5,10,CLK1*%
%TO.N,/ClockGen/CLK1*%
X81280000Y-55880000D03*
%TO.P,U5,11,CLK2*%
%TO.N,/ClockGen/CLK2*%
X83820000Y-55880000D03*
%TO.P,U5,12,RESET*%
%TO.N,/ProgramMemory/RESET*%
X86360000Y-55880000D03*
%TO.P,U5,13,TEST*%
%TO.N,Net-(U5-TEST)*%
X86360000Y-40640000D03*
%TO.P,U5,14,Vdd*%
%TO.N,-10V*%
X83820000Y-40640000D03*
%TO.P,U5,15,Vdd2*%
X81280000Y-40640000D03*
%TO.P,U5,16,SYNC*%
%TO.N,/ProgramMemory/SYNC*%
X78740000Y-40640000D03*
%TO.P,U5,17,CMRAM3*%
%TO.N,unconnected-(U5-CMRAM3-Pad17)*%
X76200000Y-40640000D03*
%TO.P,U5,18,CMRAM2*%
%TO.N,unconnected-(U5-CMRAM2-Pad18)*%
X73660000Y-40640000D03*
%TO.P,U5,19,CMRAM1*%
%TO.N,unconnected-(U5-CMRAM1-Pad19)*%
X71120000Y-40640000D03*
%TO.P,U5,20,CMRAM0*%
%TO.N,Net-(U10-CM)*%
X68580000Y-40640000D03*
%TO.P,U5,21,Vdd1*%
%TO.N,-10V*%
X66040000Y-40640000D03*
%TO.P,U5,22,CMROM1*%
%TO.N,/ProgramMemory/CMROM1*%
X63500000Y-40640000D03*
%TO.P,U5,23,CMROM0*%
%TO.N,/ProgramMemory/CMROM0*%
X60960000Y-40640000D03*
%TO.P,U5,24,CY*%
%TO.N,unconnected-(U5-CY-Pad24)*%
X58420000Y-40640000D03*
%TD*%
D12*
%TO.P,R31,1*%
%TO.N,BANK0*%
X165100000Y-60960000D03*
D13*
%TO.P,R31,2*%
%TO.N,A8*%
X165100000Y-68580000D03*
%TD*%
D15*
%TO.P,D3,1,K*%
%TO.N,BANK1*%
X137160000Y-43180000D03*
D16*
%TO.P,D3,2,A*%
%TO.N,Net-(D3-A)*%
X137160000Y-40640000D03*
%TD*%
D12*
%TO.P,C13,1*%
%TO.N,Net-(C13-Pad1)*%
X15240000Y-15240000D03*
%TO.P,C13,2*%
%TO.N,GND*%
X10240000Y-15240000D03*
%TD*%
%TO.P,C10,1*%
%TO.N,Net-(C10-Pad1)*%
X35480000Y-33020000D03*
%TO.P,C10,2*%
%TO.N,Net-(U14-IN_B)*%
X30480000Y-33020000D03*
%TD*%
D17*
%TO.P,J4,1,Pin_1*%
%TO.N,Net-(D35-K)*%
X12700000Y-63500000D03*
%TD*%
D14*
%TO.P,D23,1,K*%
%TO.N,A13*%
X152349032Y-71120000D03*
D13*
%TO.P,D23,2,A*%
%TO.N,GND*%
X152349032Y-73660000D03*
%TD*%
D12*
%TO.P,R27,1*%
%TO.N,BANK4*%
X154940000Y-60960000D03*
D13*
%TO.P,R27,2*%
%TO.N,A12*%
X154940000Y-68580000D03*
%TD*%
D20*
%TO.P,D36,1,K*%
%TO.N,GND*%
X22860000Y-68580000D03*
D21*
%TO.P,D36,2,A*%
%TO.N,Net-(D36-A)*%
X22860000Y-76200000D03*
%TD*%
D14*
%TO.P,D1,1,K*%
%TO.N,Net-(D1-K)*%
X139700000Y-71120000D03*
D13*
%TO.P,D1,2,A*%
%TO.N,GND*%
X139700000Y-78740000D03*
%TD*%
D14*
%TO.P,U2,1*%
%TO.N,/ProgramMemory/CMROM0*%
X116840000Y-68580000D03*
D13*
%TO.P,U2,2*%
%TO.N,/ProgramMemory/CMROM1*%
X119380000Y-68580000D03*
%TO.P,U2,3*%
%TO.N,Net-(U22-CM)*%
X121920000Y-68580000D03*
%TO.P,U2,4*%
%TO.N,unconnected-(U2-Pad4)*%
X124460000Y-68580000D03*
%TO.P,U2,5*%
%TO.N,-10V*%
X127000000Y-68580000D03*
%TO.P,U2,6*%
X129540000Y-68580000D03*
%TO.P,U2,7,VSS*%
X132080000Y-68580000D03*
%TO.P,U2,8*%
%TO.N,Net-(D14-K)*%
X132080000Y-60960000D03*
%TO.P,U2,9*%
X129540000Y-60960000D03*
%TO.P,U2,10*%
%TO.N,Net-(R1-Pad2)*%
X127000000Y-60960000D03*
%TO.P,U2,11*%
%TO.N,unconnected-(U2-Pad11)*%
X124460000Y-60960000D03*
%TO.P,U2,12*%
%TO.N,+5V*%
X121920000Y-60960000D03*
%TO.P,U2,13*%
X119380000Y-60960000D03*
%TO.P,U2,14,VDD*%
X116840000Y-60960000D03*
%TD*%
D14*
%TO.P,U18,1,NC*%
%TO.N,unconnected-(U18-NC-Pad1)*%
X144780000Y-93980000D03*
D13*
%TO.P,U18,2,A16*%
%TO.N,GND*%
X147320000Y-93980000D03*
%TO.P,U18,3,A14*%
%TO.N,A14*%
X149860000Y-93980000D03*
%TO.P,U18,4,A12*%
%TO.N,A12*%
X152400000Y-93980000D03*
%TO.P,U18,5,A7*%
%TO.N,A7*%
X154940000Y-93980000D03*
%TO.P,U18,6,A6*%
%TO.N,A6*%
X157480000Y-93980000D03*
%TO.P,U18,7,A5*%
%TO.N,A5*%
X160020000Y-93980000D03*
%TO.P,U18,8,A4*%
%TO.N,A4*%
X162560000Y-93980000D03*
%TO.P,U18,9,A3*%
%TO.N,A3*%
X165100000Y-93980000D03*
%TO.P,U18,10,A2*%
%TO.N,A2*%
X167640000Y-93980000D03*
%TO.P,U18,11,A1*%
%TO.N,A1*%
X170180000Y-93980000D03*
%TO.P,U18,12,A0*%
%TO.N,A0*%
X172720000Y-93980000D03*
%TO.P,U18,13,I/O0*%
%TO.N,OPR0*%
X175260000Y-93980000D03*
%TO.P,U18,14,I/O1*%
%TO.N,OPR1*%
X177800000Y-93980000D03*
%TO.P,U18,15,I/O2*%
%TO.N,OPR2*%
X180340000Y-93980000D03*
%TO.P,U18,16,Vss(GND)*%
%TO.N,GND*%
X182880000Y-93980000D03*
%TO.P,U18,17,I/O3*%
%TO.N,OPR3*%
X182880000Y-78740000D03*
%TO.P,U18,18,I/O4*%
%TO.N,Net-(RN6-R4)*%
X180340000Y-78740000D03*
%TO.P,U18,19,I/O5*%
%TO.N,Net-(RN6-R3)*%
X177800000Y-78740000D03*
%TO.P,U18,20,I/O6*%
%TO.N,Net-(RN6-R2)*%
X175260000Y-78740000D03*
%TO.P,U18,21,I/O7*%
%TO.N,Net-(RN6-R1)*%
X172720000Y-78740000D03*
%TO.P,U18,22,~{CS1}*%
%TO.N,GND*%
X170180000Y-78740000D03*
%TO.P,U18,23,A10*%
%TO.N,A10*%
X167640000Y-78740000D03*
%TO.P,U18,24,~{OE}*%
%TO.N,~{OE}*%
X165100000Y-78740000D03*
%TO.P,U18,25,A11*%
%TO.N,A11*%
X162560000Y-78740000D03*
%TO.P,U18,26,A9*%
%TO.N,A9*%
X160020000Y-78740000D03*
%TO.P,U18,27,A8*%
%TO.N,A8*%
X157480000Y-78740000D03*
%TO.P,U18,28,A13*%
%TO.N,A13*%
X154940000Y-78740000D03*
%TO.P,U18,29,~{WE}*%
%TO.N,~{WE_OPR}*%
X152400000Y-78740000D03*
%TO.P,U18,30,CS2*%
%TO.N,CS~{ROM}RAM*%
X149860000Y-78740000D03*
%TO.P,U18,31,A15*%
%TO.N,A15*%
X147320000Y-78740000D03*
%TO.P,U18,32,Vcc*%
%TO.N,+5V*%
X144780000Y-78740000D03*
%TD*%
D15*
%TO.P,D20,1,K*%
%TO.N,Net-(D20-K)*%
X116840000Y-10160000D03*
D16*
%TO.P,D20,2,A*%
%TO.N,Net-(D20-A)*%
X116840000Y-7620000D03*
%TD*%
D15*
%TO.P,D13,1,K*%
%TO.N,Net-(D13-K)*%
X127000000Y-20320000D03*
D16*
%TO.P,D13,2,A*%
%TO.N,Net-(D13-A)*%
X127000000Y-17780000D03*
%TD*%
D14*
%TO.P,U1,1*%
%TO.N,Net-(U1-Pad1)*%
X152400000Y-20320000D03*
D13*
%TO.P,U1,2*%
%TO.N,Net-(J1-Pin_4)*%
X154940000Y-20320000D03*
%TO.P,U1,3*%
%TO.N,Net-(U5-TEST)*%
X157480000Y-20320000D03*
%TO.P,U1,4*%
%TO.N,Net-(D1-K)*%
X160020000Y-20320000D03*
%TO.P,U1,5*%
X162560000Y-20320000D03*
%TO.P,U1,6*%
%TO.N,Net-(J1-Pin_5)*%
X165100000Y-20320000D03*
%TO.P,U1,7,GND*%
%TO.N,GND*%
X167640000Y-20320000D03*
%TO.P,U1,8*%
%TO.N,unconnected-(U1-Pad8)*%
X167640000Y-12700000D03*
%TO.P,U1,9*%
%TO.N,+5V*%
X165100000Y-12700000D03*
%TO.P,U1,10*%
X162560000Y-12700000D03*
%TO.P,U1,11*%
%TO.N,unconnected-(U1-Pad11)*%
X160020000Y-12700000D03*
%TO.P,U1,12*%
%TO.N,+5V*%
X157480000Y-12700000D03*
%TO.P,U1,13*%
X154940000Y-12700000D03*
%TO.P,U1,14,VCC*%
X152400000Y-12700000D03*
%TD*%
D14*
%TO.P,U7,1,D0*%
%TO.N,/ProgramMemory/D0*%
X127000000Y-55880000D03*
D13*
%TO.P,U7,2,D1*%
%TO.N,/ProgramMemory/D1*%
X129540000Y-55880000D03*
%TO.P,U7,3,D2*%
%TO.N,/ProgramMemory/D2*%
X132080000Y-55880000D03*
%TO.P,U7,4,D3*%
%TO.N,/ProgramMemory/D3*%
X134620000Y-55880000D03*
%TO.P,U7,5,Vss*%
%TO.N,+5V*%
X137160000Y-55880000D03*
%TO.P,U7,6,CLK1*%
%TO.N,/ClockGen/CLK1*%
X139700000Y-55880000D03*
%TO.P,U7,7,CLK2*%
%TO.N,/ClockGen/CLK2*%
X142240000Y-55880000D03*
%TO.P,U7,8,SYNC*%
%TO.N,/ProgramMemory/SYNC*%
X144780000Y-55880000D03*
%TO.P,U7,9,RESET*%
%TO.N,/ProgramMemory/RESET*%
X144780000Y-48260000D03*
%TO.P,U7,10,P0*%
%TO.N,+5V*%
X142240000Y-48260000D03*
%TO.P,U7,11,CM*%
%TO.N,Net-(U10-CM)*%
X139700000Y-48260000D03*
%TO.P,U7,12,Vdd*%
%TO.N,-10V*%
X137160000Y-48260000D03*
%TO.P,U7,13,O3*%
%TO.N,BANK3*%
X134620000Y-48260000D03*
%TO.P,U7,14,O2*%
%TO.N,BANK2*%
X132080000Y-48260000D03*
%TO.P,U7,15,O1*%
%TO.N,BANK1*%
X129540000Y-48260000D03*
%TO.P,U7,16,O0*%
%TO.N,BANK0*%
X127000000Y-48260000D03*
%TD*%
D15*
%TO.P,D37,1,K*%
%TO.N,Net-(D36-A)*%
X22860000Y-96520000D03*
D16*
%TO.P,D37,2,A*%
%TO.N,Net-(D37-A)*%
X22860000Y-93980000D03*
%TD*%
D12*
%TO.P,R40,1*%
%TO.N,+5V*%
X25400000Y-83820000D03*
D13*
%TO.P,R40,2*%
%TO.N,Net-(D34-A)*%
X25400000Y-91440000D03*
%TD*%
D12*
%TO.P,R37,1*%
%TO.N,IO3*%
X114300000Y-111760000D03*
D13*
%TO.P,R37,2*%
%TO.N,Net-(D31-K)*%
X121920000Y-111760000D03*
%TD*%
D12*
%TO.P,C17,1*%
%TO.N,+5V*%
X97790000Y-54530000D03*
%TO.P,C17,2*%
%TO.N,-10V*%
X97790000Y-49530000D03*
%TD*%
D14*
%TO.P,D26,1,K*%
%TO.N,A10*%
X159894516Y-71120000D03*
D13*
%TO.P,D26,2,A*%
%TO.N,GND*%
X159894516Y-73660000D03*
%TD*%
D12*
%TO.P,R8,1*%
%TO.N,Net-(D18-A)*%
X177800000Y-66040000D03*
D13*
%TO.P,R8,2*%
%TO.N,Net-(R8-Pad2)*%
X170180000Y-66040000D03*
%TD*%
D14*
%TO.P,D25,1,K*%
%TO.N,A11*%
X157480000Y-71120000D03*
D13*
%TO.P,D25,2,A*%
%TO.N,GND*%
X157480000Y-73660000D03*
%TD*%
D12*
%TO.P,R38,1*%
%TO.N,IO4*%
X114300000Y-109220000D03*
D13*
%TO.P,R38,2*%
%TO.N,Net-(D32-K)*%
X121920000Y-109220000D03*
%TD*%
D14*
%TO.P,D24,1,K*%
%TO.N,A12*%
X154889032Y-71120000D03*
D13*
%TO.P,D24,2,A*%
%TO.N,GND*%
X154889032Y-73660000D03*
%TD*%
D22*
%TO.P,Y1,1,1*%
%TO.N,Net-(C13-Pad1)*%
X17780000Y-20320000D03*
%TO.P,Y1,2,2*%
%TO.N,Net-(R21-Pad2)*%
X22660000Y-20320000D03*
%TD*%
D14*
%TO.P,D18,1,K*%
%TO.N,+5V*%
X170180000Y-60960000D03*
D13*
%TO.P,D18,2,A*%
%TO.N,Net-(D18-A)*%
X177800000Y-60960000D03*
%TD*%
D12*
%TO.P,R12,1*%
%TO.N,+5V*%
X160020000Y-7620000D03*
D13*
%TO.P,R12,2*%
%TO.N,STP*%
X152400000Y-7620000D03*
%TD*%
D23*
%TO.P,J3,1,Pin_1*%
%TO.N,+5V*%
X52070000Y-102870000D03*
D24*
%TO.P,J3,2,Pin_2*%
%TO.N,ROM_P1*%
X52070000Y-105410000D03*
%TD*%
D12*
%TO.P,R28,1*%
%TO.N,BANK3*%
X157480000Y-60960000D03*
D13*
%TO.P,R28,2*%
%TO.N,A11*%
X157480000Y-68580000D03*
%TD*%
D12*
%TO.P,R41,1*%
%TO.N,Net-(D35-K)*%
X22860000Y-83820000D03*
D13*
%TO.P,R41,2*%
%TO.N,Net-(D37-A)*%
X22860000Y-91440000D03*
%TD*%
D12*
%TO.P,R3,1*%
%TO.N,Net-(R3-Pad1)*%
X160020000Y-40640000D03*
D13*
%TO.P,R3,2*%
%TO.N,Net-(C1-Pad1)*%
X152400000Y-40640000D03*
%TD*%
D12*
%TO.P,C5,1*%
%TO.N,-10V*%
X113030000Y-67310000D03*
%TO.P,C5,2*%
%TO.N,+5V*%
X113030000Y-62310000D03*
%TD*%
D14*
%TO.P,U14,1,NC*%
%TO.N,unconnected-(U14-NC-Pad1)*%
X17780000Y-40640000D03*
D13*
%TO.P,U14,2,IN_A*%
%TO.N,Net-(U14-IN_A)*%
X20320000Y-40640000D03*
%TO.P,U14,3,V-*%
%TO.N,-10V*%
X22860000Y-40640000D03*
%TO.P,U14,4,IN_B*%
%TO.N,Net-(U14-IN_B)*%
X25400000Y-40640000D03*
%TO.P,U14,5,OUT_B*%
%TO.N,Net-(U14-OUT_B)*%
X25400000Y-33020000D03*
%TO.P,U14,6,V+*%
%TO.N,+5V*%
X22860000Y-33020000D03*
%TO.P,U14,7,OUT_A*%
%TO.N,Net-(U14-OUT_A)*%
X20320000Y-33020000D03*
%TO.P,U14,8,NC*%
%TO.N,unconnected-(U14-NC-Pad8)*%
X17780000Y-33020000D03*
%TD*%
D12*
%TO.P,R17,1*%
%TO.N,Net-(U15-EP)*%
X35560000Y-27940000D03*
D13*
%TO.P,R17,2*%
%TO.N,+5V*%
X27940000Y-27940000D03*
%TD*%
D14*
%TO.P,D22,1,K*%
%TO.N,A14*%
X149860000Y-71120000D03*
D13*
%TO.P,D22,2,A*%
%TO.N,GND*%
X149860000Y-73660000D03*
%TD*%
D12*
%TO.P,R14,1*%
%TO.N,Net-(D19-K)*%
X137160000Y-7620000D03*
D13*
%TO.P,R14,2*%
%TO.N,GND*%
X129540000Y-7620000D03*
%TD*%
D12*
%TO.P,R7,1*%
%TO.N,+5V*%
X170180000Y-63500000D03*
D13*
%TO.P,R7,2*%
%TO.N,Net-(D18-A)*%
X177800000Y-63500000D03*
%TD*%
D12*
%TO.P,C16,1*%
%TO.N,+5V*%
X97790000Y-31670000D03*
%TO.P,C16,2*%
%TO.N,-10V*%
X97790000Y-26670000D03*
%TD*%
D14*
%TO.P,D28,1,K*%
%TO.N,A8*%
X165049032Y-71120000D03*
D13*
%TO.P,D28,2,A*%
%TO.N,GND*%
X165049032Y-73660000D03*
%TD*%
D12*
%TO.P,C2,1*%
%TO.N,Net-(C2-Pad1)*%
X165100000Y-38100000D03*
%TO.P,C2,2*%
%TO.N,-10V*%
X170100000Y-38100000D03*
%TD*%
D14*
%TO.P,D32,1,K*%
%TO.N,Net-(D32-K)*%
X124460000Y-109220000D03*
D13*
%TO.P,D32,2,A*%
%TO.N,GND*%
X127000000Y-109220000D03*
%TD*%
D12*
%TO.P,R5,1*%
%TO.N,Net-(C2-Pad1)*%
X165100000Y-35560000D03*
D13*
%TO.P,R5,2*%
%TO.N,+5V*%
X172720000Y-35560000D03*
%TD*%
D16*
%TO.P,SW4,*%
%TO.N,*%
X27940000Y-114300000D03*
X27940000Y-104140000D03*
D15*
%TO.P,SW4,1,A*%
%TO.N,+5V*%
X25400000Y-111760000D03*
D16*
%TO.P,SW4,2,B*%
%TO.N,Net-(D35-K)*%
X25400000Y-109260000D03*
%TO.P,SW4,3,C*%
%TO.N,unconnected-(SW4A-C-Pad3)*%
X25400000Y-106760000D03*
%TO.P,SW4,4,A*%
%TO.N,-10V*%
X30480000Y-111760000D03*
%TO.P,SW4,5,B*%
%TO.N,Net-(D36-A)*%
X30480000Y-109260000D03*
%TO.P,SW4,6,C*%
%TO.N,unconnected-(SW4B-C-Pad6)*%
X30480000Y-106760000D03*
%TD*%
D12*
%TO.P,C18,1*%
%TO.N,+5V*%
X123190000Y-31670000D03*
%TO.P,C18,2*%
%TO.N,-10V*%
X123190000Y-26670000D03*
%TD*%
D18*
%TO.P,U22,1,D0*%
%TO.N,/ProgramMemory/D0*%
X53340000Y-83820000D03*
D19*
%TO.P,U22,2,D1*%
%TO.N,/ProgramMemory/D1*%
X55880000Y-83820000D03*
%TO.P,U22,3,D2*%
%TO.N,/ProgramMemory/D2*%
X58420000Y-83820000D03*
%TO.P,U22,4,D3*%
%TO.N,/ProgramMemory/D3*%
X60960000Y-83820000D03*
%TO.P,U22,5,OPR0*%
%TO.N,OPR0*%
X63500000Y-83820000D03*
%TO.P,U22,6,OPR1*%
%TO.N,OPR1*%
X66040000Y-83820000D03*
%TO.P,U22,7,OPR2*%
%TO.N,OPR2*%
X68580000Y-83820000D03*
%TO.P,U22,8,OPR3*%
%TO.N,OPR3*%
X71120000Y-83820000D03*
%TO.P,U22,9,OPA0*%
%TO.N,OPA0*%
X73660000Y-83820000D03*
%TO.P,U22,10,OPA1*%
%TO.N,OPA1*%
X76200000Y-83820000D03*
%TO.P,U22,11,OPA2*%
%TO.N,OPA2*%
X78740000Y-83820000D03*
%TO.P,U22,12,OPA3*%
%TO.N,OPA3*%
X81280000Y-83820000D03*
%TO.P,U22,13,CLK1*%
%TO.N,/ClockGen/CLK1*%
X83820000Y-83820000D03*
%TO.P,U22,14,CLK2*%
%TO.N,/ClockGen/CLK2*%
X86360000Y-83820000D03*
%TO.P,U22,15,SYNC*%
%TO.N,/ProgramMemory/SYNC*%
X88900000Y-83820000D03*
%TO.P,U22,16,CM*%
%TO.N,Net-(U22-CM)*%
X91440000Y-83820000D03*
%TO.P,U22,17,RESET*%
%TO.N,/ProgramMemory/RESET*%
X93980000Y-83820000D03*
%TO.P,U22,18,IN*%
%TO.N,unconnected-(U22-IN-Pad18)*%
X96520000Y-83820000D03*
%TO.P,U22,19,OUT*%
%TO.N,Net-(U21-G1)*%
X99060000Y-83820000D03*
%TO.P,U22,20,Vss*%
%TO.N,+5V*%
X101600000Y-83820000D03*
%TO.P,U22,21,PM*%
%TO.N,Net-(U21-G2)*%
X101600000Y-68580000D03*
%TO.P,U22,22,FL*%
%TO.N,Net-(U22-FL)*%
X99060000Y-68580000D03*
%TO.P,U22,23,A0*%
%TO.N,A0*%
X96520000Y-68580000D03*
%TO.P,U22,24,A1*%
%TO.N,A1*%
X93980000Y-68580000D03*
%TO.P,U22,25,A2*%
%TO.N,A2*%
X91440000Y-68580000D03*
%TO.P,U22,26,A3*%
%TO.N,A3*%
X88900000Y-68580000D03*
%TO.P,U22,27,A4*%
%TO.N,A4*%
X86360000Y-68580000D03*
%TO.P,U22,28,A5*%
%TO.N,A5*%
X83820000Y-68580000D03*
%TO.P,U22,29,A6*%
%TO.N,A6*%
X81280000Y-68580000D03*
%TO.P,U22,30,A7*%
%TO.N,A7*%
X78740000Y-68580000D03*
%TO.P,U22,31,C0*%
%TO.N,C0*%
X76200000Y-68580000D03*
%TO.P,U22,32,C1*%
%TO.N,C1*%
X73660000Y-68580000D03*
%TO.P,U22,33,C2*%
%TO.N,C2*%
X71120000Y-68580000D03*
%TO.P,U22,34,C3*%
%TO.N,C3*%
X68580000Y-68580000D03*
%TO.P,U22,35,Vdd1*%
%TO.N,GND*%
X66040000Y-68580000D03*
%TO.P,U22,36,I/O4*%
%TO.N,IO4*%
X63500000Y-68580000D03*
%TO.P,U22,37,I/O3*%
%TO.N,IO3*%
X60960000Y-68580000D03*
%TO.P,U22,38,I/O2*%
%TO.N,IO2*%
X58420000Y-68580000D03*
%TO.P,U22,39,I/O1*%
%TO.N,IO1*%
X55880000Y-68580000D03*
%TO.P,U22,40,Vdd*%
%TO.N,-10V*%
X53340000Y-68580000D03*
%TD*%
D12*
%TO.P,R18,1*%
%TO.N,Net-(U14-OUT_A)*%
X33020000Y-43180000D03*
D13*
%TO.P,R18,2*%
%TO.N,/ClockGen/CLK1*%
X40640000Y-43180000D03*
%TD*%
D14*
%TO.P,U9,1,D0*%
%TO.N,/ProgramMemory/D0*%
X127000000Y-33020000D03*
D13*
%TO.P,U9,2,D1*%
%TO.N,/ProgramMemory/D1*%
X129540000Y-33020000D03*
%TO.P,U9,3,D2*%
%TO.N,/ProgramMemory/D2*%
X132080000Y-33020000D03*
%TO.P,U9,4,D3*%
%TO.N,/ProgramMemory/D3*%
X134620000Y-33020000D03*
%TO.P,U9,5,Vss*%
%TO.N,+5V*%
X137160000Y-33020000D03*
%TO.P,U9,6,CLK1*%
%TO.N,/ClockGen/CLK1*%
X139700000Y-33020000D03*
%TO.P,U9,7,CLK2*%
%TO.N,/ClockGen/CLK2*%
X142240000Y-33020000D03*
%TO.P,U9,8,SYNC*%
%TO.N,/ProgramMemory/SYNC*%
X144780000Y-33020000D03*
%TO.P,U9,9,RESET*%
%TO.N,/ProgramMemory/RESET*%
X144780000Y-25400000D03*
%TO.P,U9,10,P0*%
%TO.N,+5V*%
X142240000Y-25400000D03*
%TO.P,U9,11,CM*%
%TO.N,Net-(U10-CM)*%
X139700000Y-25400000D03*
%TO.P,U9,12,Vdd*%
%TO.N,-10V*%
X137160000Y-25400000D03*
%TO.P,U9,13,O3*%
%TO.N,Net-(D13-K)*%
X134620000Y-25400000D03*
%TO.P,U9,14,O2*%
%TO.N,Net-(D12-K)*%
X132080000Y-25400000D03*
%TO.P,U9,15,O1*%
%TO.N,Net-(D11-K)*%
X129540000Y-25400000D03*
%TO.P,U9,16,O0*%
%TO.N,Net-(D10-K)*%
X127000000Y-25400000D03*
%TD*%
D12*
%TO.P,C1,1*%
%TO.N,Net-(C1-Pad1)*%
X152400000Y-38100000D03*
%TO.P,C1,2*%
%TO.N,GND*%
X157400000Y-38100000D03*
%TD*%
%TO.P,R13,1*%
%TO.N,INTA*%
X104140000Y-10160000D03*
D13*
%TO.P,R13,2*%
%TO.N,GND*%
X111760000Y-10160000D03*
%TD*%
D12*
%TO.P,R4,1*%
%TO.N,Net-(C1-Pad1)*%
X104140000Y-5080000D03*
D13*
%TO.P,R4,2*%
%TO.N,GND*%
X111760000Y-5080000D03*
%TD*%
D14*
%TO.P,U10,1,D0*%
%TO.N,/ProgramMemory/D0*%
X101600000Y-33020000D03*
D13*
%TO.P,U10,2,D1*%
%TO.N,/ProgramMemory/D1*%
X104140000Y-33020000D03*
%TO.P,U10,3,D2*%
%TO.N,/ProgramMemory/D2*%
X106680000Y-33020000D03*
%TO.P,U10,4,D3*%
%TO.N,/ProgramMemory/D3*%
X109220000Y-33020000D03*
%TO.P,U10,5,Vss*%
%TO.N,+5V*%
X111760000Y-33020000D03*
%TO.P,U10,6,CLK1*%
%TO.N,/ClockGen/CLK1*%
X114300000Y-33020000D03*
%TO.P,U10,7,CLK2*%
%TO.N,/ClockGen/CLK2*%
X116840000Y-33020000D03*
%TO.P,U10,8,SYNC*%
%TO.N,/ProgramMemory/SYNC*%
X119380000Y-33020000D03*
%TO.P,U10,9,RESET*%
%TO.N,/ProgramMemory/RESET*%
X119380000Y-25400000D03*
%TO.P,U10,10,P0*%
%TO.N,-10V*%
X116840000Y-25400000D03*
%TO.P,U10,11,CM*%
%TO.N,Net-(U10-CM)*%
X114300000Y-25400000D03*
%TO.P,U10,12,Vdd*%
%TO.N,-10V*%
X111760000Y-25400000D03*
%TO.P,U10,13,O3*%
%TO.N,Net-(D17-K)*%
X109220000Y-25400000D03*
%TO.P,U10,14,O2*%
%TO.N,Net-(D16-K)*%
X106680000Y-25400000D03*
%TO.P,U10,15,O1*%
%TO.N,Net-(D15-K)*%
X104140000Y-25400000D03*
%TO.P,U10,16,O0*%
%TO.N,Net-(D14-K)*%
X101600000Y-25400000D03*
%TD*%
D12*
%TO.P,C12,1*%
%TO.N,Net-(C12-Pad1)*%
X17860000Y-15240000D03*
%TO.P,C12,2*%
%TO.N,Net-(C12-Pad2)*%
X22860000Y-15240000D03*
%TD*%
D18*
%TO.P,U16,1,NC*%
%TO.N,ROM_P1*%
X66040000Y-114300000D03*
D19*
%TO.P,U16,2,A12*%
%TO.N,ROM_A12*%
X68580000Y-114300000D03*
%TO.P,U16,3,A7*%
%TO.N,A7*%
X71120000Y-114300000D03*
%TO.P,U16,4,A6*%
%TO.N,A6*%
X73660000Y-114300000D03*
%TO.P,U16,5,A5*%
%TO.N,A5*%
X76200000Y-114300000D03*
%TO.P,U16,6,A4*%
%TO.N,A4*%
X78740000Y-114300000D03*
%TO.P,U16,7,A3*%
%TO.N,A3*%
X81280000Y-114300000D03*
%TO.P,U16,8,A2*%
%TO.N,A2*%
X83820000Y-114300000D03*
%TO.P,U16,9,A1*%
%TO.N,A1*%
X86360000Y-114300000D03*
%TO.P,U16,10,A0*%
%TO.N,A0*%
X88900000Y-114300000D03*
%TO.P,U16,11,D0*%
%TO.N,OPA0*%
X91440000Y-114300000D03*
%TO.P,U16,12,D1*%
%TO.N,OPA1*%
X93980000Y-114300000D03*
%TO.P,U16,13,D2*%
%TO.N,OPA2*%
X96520000Y-114300000D03*
%TO.P,U16,14,Vss(GND)*%
%TO.N,GND*%
X99060000Y-114300000D03*
%TO.P,U16,15,D3*%
%TO.N,OPA3*%
X99060000Y-99060000D03*
%TO.P,U16,16,D4*%
%TO.N,OPR0*%
X96520000Y-99060000D03*
%TO.P,U16,17,D5*%
%TO.N,OPR1*%
X93980000Y-99060000D03*
%TO.P,U16,18,D6*%
%TO.N,OPR2*%
X91440000Y-99060000D03*
%TO.P,U16,19,D7*%
%TO.N,OPR3*%
X88900000Y-99060000D03*
%TO.P,U16,20,~{CS}*%
%TO.N,CS~{ROM}RAM*%
X86360000Y-99060000D03*
%TO.P,U16,21,A10*%
%TO.N,C2*%
X83820000Y-99060000D03*
%TO.P,U16,22,~{OE}*%
%TO.N,~{OE}*%
X81280000Y-99060000D03*
%TO.P,U16,23,A11*%
%TO.N,C3*%
X78740000Y-99060000D03*
%TO.P,U16,24,A9*%
%TO.N,C1*%
X76200000Y-99060000D03*
%TO.P,U16,25,A8*%
%TO.N,C0*%
X73660000Y-99060000D03*
%TO.P,U16,26,NC*%
%TO.N,ROM_P26*%
X71120000Y-99060000D03*
%TO.P,U16,27,~{WE}*%
%TO.N,ROM_P27*%
X68580000Y-99060000D03*
%TO.P,U16,28,Vdd*%
%TO.N,+5V*%
X66040000Y-99060000D03*
%TD*%
D12*
%TO.P,C4,1*%
%TO.N,+5V*%
X148590000Y-13970000D03*
%TO.P,C4,2*%
%TO.N,GND*%
X148590000Y-18970000D03*
%TD*%
D14*
%TO.P,RN1,1,common*%
%TO.N,+5V*%
X127000000Y-38100000D03*
D13*
%TO.P,RN1,2,R1*%
%TO.N,Net-(D5-A)*%
X129540000Y-38100000D03*
%TO.P,RN1,3,R2*%
%TO.N,Net-(D4-A)*%
X132080000Y-38100000D03*
%TO.P,RN1,4,R3*%
%TO.N,Net-(D3-A)*%
X134620000Y-38100000D03*
%TO.P,RN1,5,R4*%
%TO.N,Net-(D2-A)*%
X137160000Y-38100000D03*
%TD*%
D12*
%TO.P,R36,1*%
%TO.N,IO2*%
X114300000Y-114300000D03*
D13*
%TO.P,R36,2*%
%TO.N,Net-(D30-K)*%
X121920000Y-114300000D03*
%TD*%
D14*
%TO.P,U13,1*%
%TO.N,Net-(R21-Pad2)*%
X38100000Y-12700000D03*
D13*
%TO.P,U13,2*%
X40640000Y-12700000D03*
%TO.P,U13,3*%
%TO.N,Net-(U15-CLOCK)*%
X43180000Y-12700000D03*
%TO.P,U13,4*%
%TO.N,Net-(U15-QB)*%
X45720000Y-12700000D03*
%TO.P,U13,5*%
%TO.N,Net-(U15-QC)*%
X48260000Y-12700000D03*
%TO.P,U13,6*%
%TO.N,Net-(U15-LOAD)*%
X50800000Y-12700000D03*
%TO.P,U13,7,GND*%
%TO.N,GND*%
X53340000Y-12700000D03*
%TO.P,U13,8*%
%TO.N,Net-(U12-Pad11)*%
X53340000Y-5080000D03*
%TO.P,U13,9*%
%TO.N,Net-(U15-QC)*%
X50800000Y-5080000D03*
%TO.P,U13,10*%
%TO.N,Net-(U12-Pad12)*%
X48260000Y-5080000D03*
%TO.P,U13,11*%
%TO.N,Net-(U12-Pad9)*%
X45720000Y-5080000D03*
%TO.P,U13,12*%
%TO.N,Net-(U12-Pad12)*%
X43180000Y-5080000D03*
%TO.P,U13,13*%
%TO.N,Net-(U12-Pad6)*%
X40640000Y-5080000D03*
%TO.P,U13,14,VCC*%
%TO.N,+5V*%
X38100000Y-5080000D03*
%TD*%
D15*
%TO.P,D9,1,K*%
%TO.N,BANK7*%
X101600000Y-43180000D03*
D16*
%TO.P,D9,2,A*%
%TO.N,Net-(D9-A)*%
X101600000Y-40640000D03*
%TD*%
D14*
%TO.P,RN2,1,common*%
%TO.N,+5V*%
X101600000Y-38100000D03*
D13*
%TO.P,RN2,2,R1*%
%TO.N,Net-(D9-A)*%
X104140000Y-38100000D03*
%TO.P,RN2,3,R2*%
%TO.N,Net-(D8-A)*%
X106680000Y-38100000D03*
%TO.P,RN2,4,R3*%
%TO.N,Net-(D7-A)*%
X109220000Y-38100000D03*
%TO.P,RN2,5,R4*%
%TO.N,Net-(D6-A)*%
X111760000Y-38100000D03*
%TD*%
D20*
%TO.P,D35,1,K*%
%TO.N,Net-(D35-K)*%
X22860000Y-53340000D03*
D21*
%TO.P,D35,2,A*%
%TO.N,GND*%
X22860000Y-60960000D03*
%TD*%
D14*
%TO.P,RN4,1,common*%
%TO.N,+5V*%
X101600000Y-15240000D03*
D13*
%TO.P,RN4,2,R1*%
%TO.N,Net-(D17-A)*%
X104140000Y-15240000D03*
%TO.P,RN4,3,R2*%
%TO.N,Net-(D16-A)*%
X106680000Y-15240000D03*
%TO.P,RN4,4,R3*%
%TO.N,Net-(D15-A)*%
X109220000Y-15240000D03*
%TO.P,RN4,5,R4*%
%TO.N,Net-(D14-A)*%
X111760000Y-15240000D03*
%TD*%
D15*
%TO.P,D12,1,K*%
%TO.N,Net-(D12-K)*%
X132080000Y-20320000D03*
D16*
%TO.P,D12,2,A*%
%TO.N,Net-(D12-A)*%
X132080000Y-17780000D03*
%TD*%
D23*
%TO.P,J2,1,Pin_1*%
%TO.N,+5V*%
X163830000Y-7620000D03*
D24*
%TO.P,J2,2,Pin_2*%
%TO.N,STP*%
X166370000Y-7620000D03*
%TO.P,J2,3,Pin_3*%
%TO.N,STPA*%
X168910000Y-7620000D03*
%TO.P,J2,4,Pin_4*%
%TO.N,GND*%
X171450000Y-7620000D03*
%TD*%
D12*
%TO.P,C8,1*%
%TO.N,GND*%
X17780000Y-30480000D03*
%TO.P,C8,2*%
%TO.N,+5V*%
X22780000Y-30480000D03*
%TD*%
D14*
%TO.P,D33,1,K*%
%TO.N,ROM_A12*%
X137160000Y-71120000D03*
D13*
%TO.P,D33,2,A*%
%TO.N,GND*%
X137160000Y-78740000D03*
%TD*%
D14*
%TO.P,RN6,1,common*%
%TO.N,GND*%
X170180000Y-73660000D03*
D13*
%TO.P,RN6,2,R1*%
%TO.N,Net-(RN6-R1)*%
X172720000Y-73660000D03*
%TO.P,RN6,3,R2*%
%TO.N,Net-(RN6-R2)*%
X175260000Y-73660000D03*
%TO.P,RN6,4,R3*%
%TO.N,Net-(RN6-R3)*%
X177800000Y-73660000D03*
%TO.P,RN6,5,R4*%
%TO.N,Net-(RN6-R4)*%
X180340000Y-73660000D03*
%TD*%
D15*
%TO.P,D34,1,K*%
%TO.N,GND*%
X27940000Y-96520000D03*
D16*
%TO.P,D34,2,A*%
%TO.N,Net-(D34-A)*%
X27940000Y-93980000D03*
%TD*%
D25*
%TO.P,SW1,1,1*%
%TO.N,+5V*%
X158900000Y-50800000D03*
X152400000Y-50800000D03*
%TO.P,SW1,2,2*%
%TO.N,Net-(R3-Pad1)*%
X158900000Y-46300000D03*
X152400000Y-46300000D03*
%TD*%
D12*
%TO.P,R9,1*%
%TO.N,+5V*%
X142240000Y-60960000D03*
D13*
%TO.P,R9,2*%
%TO.N,/ProgramMemory/CMROM1*%
X142240000Y-68580000D03*
%TD*%
D18*
%TO.P,U6,1,D0*%
%TO.N,/ProgramMemory/D0*%
X68580000Y-27940000D03*
D19*
%TO.P,U6,2,D1*%
%TO.N,/ProgramMemory/D1*%
X71120000Y-27940000D03*
%TO.P,U6,3,D2*%
%TO.N,/ProgramMemory/D2*%
X73660000Y-27940000D03*
%TO.P,U6,4,D3*%
%TO.N,/ProgramMemory/D3*%
X76200000Y-27940000D03*
%TO.P,U6,5,Vss*%
%TO.N,+5V*%
X78740000Y-27940000D03*
%TO.P,U6,6,CLK1*%
%TO.N,/ClockGen/CLK1*%
X81280000Y-27940000D03*
%TO.P,U6,7,CLK2*%
%TO.N,/ClockGen/CLK2*%
X83820000Y-27940000D03*
%TO.P,U6,8,SYNC*%
%TO.N,/ProgramMemory/SYNC*%
X86360000Y-27940000D03*
%TO.P,U6,9,RESET*%
%TO.N,/ProgramMemory/RESET*%
X86360000Y-20320000D03*
%TO.P,U6,10,TEST*%
%TO.N,Net-(U5-TEST)*%
X83820000Y-20320000D03*
%TO.P,U6,11,CMROM*%
%TO.N,/ProgramMemory/CMROM0*%
X81280000Y-20320000D03*
%TO.P,U6,12,Vdd*%
%TO.N,-10V*%
X78740000Y-20320000D03*
%TO.P,U6,13,CMRAM3*%
%TO.N,unconnected-(U6-CMRAM3-Pad13)*%
X76200000Y-20320000D03*
%TO.P,U6,14,CMRAM2*%
%TO.N,unconnected-(U6-CMRAM2-Pad14)*%
X73660000Y-20320000D03*
%TO.P,U6,15,CMRAM1*%
%TO.N,unconnected-(U6-CMRAM1-Pad15)*%
X71120000Y-20320000D03*
%TO.P,U6,16,CMRAM0*%
%TO.N,Net-(U10-CM)*%
X68580000Y-20320000D03*
%TD*%
D12*
%TO.P,R35,1*%
%TO.N,IO1*%
X114300000Y-116840000D03*
D13*
%TO.P,R35,2*%
%TO.N,Net-(D29-K)*%
X121920000Y-116840000D03*
%TD*%
D12*
%TO.P,R32,1*%
%TO.N,GND*%
X45720000Y-111760000D03*
D13*
%TO.P,R32,2*%
%TO.N,ROM_P1*%
X45720000Y-104140000D03*
%TD*%
D12*
%TO.P,C24,1*%
%TO.N,GND*%
X40640000Y-71120000D03*
%TO.P,C24,2*%
%TO.N,-10V*%
X40640000Y-66120000D03*
%TD*%
D14*
%TO.P,U17,1,NC*%
%TO.N,unconnected-(U17-NC-Pad1)*%
X144780000Y-111760000D03*
D13*
%TO.P,U17,2,A16*%
%TO.N,GND*%
X147320000Y-111760000D03*
%TO.P,U17,3,A14*%
%TO.N,A14*%
X149860000Y-111760000D03*
%TO.P,U17,4,A12*%
%TO.N,A12*%
X152400000Y-111760000D03*
%TO.P,U17,5,A7*%
%TO.N,A7*%
X154940000Y-111760000D03*
%TO.P,U17,6,A6*%
%TO.N,A6*%
X157480000Y-111760000D03*
%TO.P,U17,7,A5*%
%TO.N,A5*%
X160020000Y-111760000D03*
%TO.P,U17,8,A4*%
%TO.N,A4*%
X162560000Y-111760000D03*
%TO.P,U17,9,A3*%
%TO.N,A3*%
X165100000Y-111760000D03*
%TO.P,U17,10,A2*%
%TO.N,A2*%
X167640000Y-111760000D03*
%TO.P,U17,11,A1*%
%TO.N,A1*%
X170180000Y-111760000D03*
%TO.P,U17,12,A0*%
%TO.N,A0*%
X172720000Y-111760000D03*
%TO.P,U17,13,I/O0*%
%TO.N,OPA0*%
X175260000Y-111760000D03*
%TO.P,U17,14,I/O1*%
%TO.N,OPA1*%
X177800000Y-111760000D03*
%TO.P,U17,15,I/O2*%
%TO.N,OPA2*%
X180340000Y-111760000D03*
%TO.P,U17,16,Vss(GND)*%
%TO.N,GND*%
X182880000Y-111760000D03*
%TO.P,U17,17,I/O3*%
%TO.N,OPA3*%
X182880000Y-96520000D03*
%TO.P,U17,18,I/O4*%
%TO.N,Net-(RN5-R4)*%
X180340000Y-96520000D03*
%TO.P,U17,19,I/O5*%
%TO.N,Net-(RN5-R3)*%
X177800000Y-96520000D03*
%TO.P,U17,20,I/O6*%
%TO.N,Net-(RN5-R2)*%
X175260000Y-96520000D03*
%TO.P,U17,21,I/O7*%
%TO.N,Net-(RN5-R1)*%
X172720000Y-96520000D03*
%TO.P,U17,22,~{CS1}*%
%TO.N,GND*%
X170180000Y-96520000D03*
%TO.P,U17,23,A10*%
%TO.N,A10*%
X167640000Y-96520000D03*
%TO.P,U17,24,~{OE}*%
%TO.N,~{OE}*%
X165100000Y-96520000D03*
%TO.P,U17,25,A11*%
%TO.N,A11*%
X162560000Y-96520000D03*
%TO.P,U17,26,A9*%
%TO.N,A9*%
X160020000Y-96520000D03*
%TO.P,U17,27,A8*%
%TO.N,A8*%
X157480000Y-96520000D03*
%TO.P,U17,28,A13*%
%TO.N,A13*%
X154940000Y-96520000D03*
%TO.P,U17,29,~{WE}*%
%TO.N,~{WE_OPA}*%
X152400000Y-96520000D03*
%TO.P,U17,30,CS2*%
%TO.N,CS~{ROM}RAM*%
X149860000Y-96520000D03*
%TO.P,U17,31,A15*%
%TO.N,A15*%
X147320000Y-96520000D03*
%TO.P,U17,32,Vcc*%
%TO.N,+5V*%
X144780000Y-96520000D03*
%TD*%
D12*
%TO.P,R23,1*%
%TO.N,-10V*%
X40640000Y-38100000D03*
D13*
%TO.P,R23,2*%
%TO.N,Net-(U14-OUT_B)*%
X33020000Y-38100000D03*
%TD*%
D12*
%TO.P,C23,1*%
%TO.N,+5V*%
X140970000Y-101600000D03*
%TO.P,C23,2*%
%TO.N,GND*%
X140970000Y-106600000D03*
%TD*%
%TO.P,C22,1*%
%TO.N,+5V*%
X140970000Y-83900000D03*
%TO.P,C22,2*%
%TO.N,GND*%
X140970000Y-88900000D03*
%TD*%
D15*
%TO.P,D15,1,K*%
%TO.N,Net-(D15-K)*%
X111760000Y-20320000D03*
D16*
%TO.P,D15,2,A*%
%TO.N,Net-(D15-A)*%
X111760000Y-17780000D03*
%TD*%
D12*
%TO.P,R16,1*%
%TO.N,Net-(D20-K)*%
X129540000Y-10160000D03*
D13*
%TO.P,R16,2*%
%TO.N,GND*%
X137160000Y-10160000D03*
%TD*%
D12*
%TO.P,R42,1*%
%TO.N,GND*%
X38100000Y-101600000D03*
D13*
%TO.P,R42,2*%
%TO.N,Net-(D38-A)*%
X38100000Y-93980000D03*
%TD*%
D12*
%TO.P,C6,1*%
%TO.N,Net-(C6-Pad1)*%
X177800000Y-38100000D03*
%TO.P,C6,2*%
%TO.N,GND*%
X182800000Y-38100000D03*
%TD*%
D15*
%TO.P,D5,1,K*%
%TO.N,BANK3*%
X127000000Y-43180000D03*
D16*
%TO.P,D5,2,A*%
%TO.N,Net-(D5-A)*%
X127000000Y-40640000D03*
%TD*%
D15*
%TO.P,D8,1,K*%
%TO.N,BANK6*%
X106680000Y-43180000D03*
D16*
%TO.P,D8,2,A*%
%TO.N,Net-(D8-A)*%
X106680000Y-40640000D03*
%TD*%
D15*
%TO.P,D14,1,K*%
%TO.N,Net-(D14-K)*%
X116840000Y-20320000D03*
D16*
%TO.P,D14,2,A*%
%TO.N,Net-(D14-A)*%
X116840000Y-17780000D03*
%TD*%
D12*
%TO.P,C20,1*%
%TO.N,+5V*%
X111760000Y-76200000D03*
%TO.P,C20,2*%
%TO.N,GND*%
X111760000Y-71200000D03*
%TD*%
D15*
%TO.P,D4,1,K*%
%TO.N,BANK2*%
X132080000Y-43180000D03*
D16*
%TO.P,D4,2,A*%
%TO.N,Net-(D4-A)*%
X132080000Y-40640000D03*
%TD*%
D12*
%TO.P,C3,1*%
%TO.N,Net-(D18-A)*%
X175260000Y-68580000D03*
%TO.P,C3,2*%
%TO.N,-10V*%
X170260000Y-68580000D03*
%TD*%
%TO.P,R26,1*%
%TO.N,BANK5*%
X152400000Y-60960000D03*
D13*
%TO.P,R26,2*%
%TO.N,A13*%
X152400000Y-68580000D03*
%TD*%
D12*
%TO.P,R19,1*%
%TO.N,Net-(U14-OUT_B)*%
X33020000Y-40640000D03*
D13*
%TO.P,R19,2*%
%TO.N,/ClockGen/CLK2*%
X40640000Y-40640000D03*
%TD*%
D14*
%TO.P,U11,1,~{R}*%
%TO.N,INTA*%
X60955000Y-12700000D03*
D13*
%TO.P,U11,2,D*%
%TO.N,+5V*%
X63495000Y-12700000D03*
%TO.P,U11,3,C*%
%TO.N,Net-(U11A-C)*%
X66035000Y-12700000D03*
%TO.P,U11,4,~{S}*%
%TO.N,+5V*%
X68575000Y-12700000D03*
%TO.P,U11,5,Q*%
%TO.N,unconnected-(U11A-Q-Pad5)*%
X71115000Y-12700000D03*
%TO.P,U11,6,~{Q}*%
%TO.N,INT*%
X73655000Y-12700000D03*
%TO.P,U11,7,GND*%
%TO.N,GND*%
X76195000Y-12700000D03*
%TO.P,U11,8,~{Q}*%
%TO.N,unconnected-(U11B-~{Q}-Pad8)*%
X76195000Y-5080000D03*
%TO.P,U11,9,Q*%
%TO.N,unconnected-(U11B-Q-Pad9)*%
X73655000Y-5080000D03*
%TO.P,U11,10,~{S}*%
%TO.N,+5V*%
X71115000Y-5080000D03*
%TO.P,U11,11,C*%
X68575000Y-5080000D03*
%TO.P,U11,12,D*%
X66035000Y-5080000D03*
%TO.P,U11,13,~{R}*%
X63495000Y-5080000D03*
%TO.P,U11,14,VCC*%
X60955000Y-5080000D03*
%TD*%
D14*
%TO.P,RN5,1,common*%
%TO.N,GND*%
X170180000Y-76200000D03*
D13*
%TO.P,RN5,2,R1*%
%TO.N,Net-(RN5-R1)*%
X172720000Y-76200000D03*
%TO.P,RN5,3,R2*%
%TO.N,Net-(RN5-R2)*%
X175260000Y-76200000D03*
%TO.P,RN5,4,R3*%
%TO.N,Net-(RN5-R3)*%
X177800000Y-76200000D03*
%TO.P,RN5,5,R4*%
%TO.N,Net-(RN5-R4)*%
X180340000Y-76200000D03*
%TD*%
D12*
%TO.P,R34,1*%
%TO.N,ROM_P27*%
X45720000Y-93980000D03*
D13*
%TO.P,R34,2*%
%TO.N,+5V*%
X45720000Y-101600000D03*
%TD*%
D12*
%TO.P,C9,1*%
%TO.N,Net-(C9-Pad1)*%
X35480000Y-30480000D03*
%TO.P,C9,2*%
%TO.N,Net-(U14-IN_A)*%
X30480000Y-30480000D03*
%TD*%
%TO.P,R20,1*%
%TO.N,Net-(C13-Pad1)*%
X12700000Y-17780000D03*
D13*
%TO.P,R20,2*%
%TO.N,Net-(C12-Pad1)*%
X12700000Y-25400000D03*
%TD*%
D14*
%TO.P,U21,1,G1*%
%TO.N,Net-(U21-G1)*%
X114300000Y-106680000D03*
D13*
%TO.P,U21,2,A0*%
%TO.N,Net-(D29-K)*%
X116840000Y-106680000D03*
%TO.P,U21,3,A1*%
%TO.N,Net-(D30-K)*%
X119380000Y-106680000D03*
%TO.P,U21,4,A2*%
%TO.N,Net-(D31-K)*%
X121920000Y-106680000D03*
%TO.P,U21,5,A3*%
%TO.N,Net-(D32-K)*%
X124460000Y-106680000D03*
%TO.P,U21,6,A4*%
%TO.N,Net-(D29-K)*%
X127000000Y-106680000D03*
%TO.P,U21,7,A5*%
%TO.N,Net-(D30-K)*%
X129540000Y-106680000D03*
%TO.P,U21,8,A6*%
%TO.N,Net-(D31-K)*%
X132080000Y-106680000D03*
%TO.P,U21,9,A7*%
%TO.N,Net-(D32-K)*%
X134620000Y-106680000D03*
%TO.P,U21,10,GND*%
%TO.N,GND*%
X137160000Y-106680000D03*
%TO.P,U21,11,Y7*%
%TO.N,OPR3*%
X137160000Y-99060000D03*
%TO.P,U21,12,Y6*%
%TO.N,OPR2*%
X134620000Y-99060000D03*
%TO.P,U21,13,Y5*%
%TO.N,OPR1*%
X132080000Y-99060000D03*
%TO.P,U21,14,Y4*%
%TO.N,OPR0*%
X129540000Y-99060000D03*
%TO.P,U21,15,Y3*%
%TO.N,OPA3*%
X127000000Y-99060000D03*
%TO.P,U21,16,Y2*%
%TO.N,OPA2*%
X124460000Y-99060000D03*
%TO.P,U21,17,Y1*%
%TO.N,OPA1*%
X121920000Y-99060000D03*
%TO.P,U21,18,Y0*%
%TO.N,OPA0*%
X119380000Y-99060000D03*
%TO.P,U21,19,G2*%
%TO.N,Net-(U21-G2)*%
X116840000Y-99060000D03*
%TO.P,U21,20,VCC*%
%TO.N,+5V*%
X114300000Y-99060000D03*
%TD*%
D14*
%TO.P,U19,1*%
%TO.N,Net-(U22-FL)*%
X116840000Y-93980000D03*
D13*
%TO.P,U19,2*%
%TO.N,Net-(U19-Pad2)*%
X119380000Y-93980000D03*
%TO.P,U19,3*%
%TO.N,~{WE_OPA}*%
X121920000Y-93980000D03*
%TO.P,U19,4*%
%TO.N,Net-(U19-Pad4)*%
X124460000Y-93980000D03*
%TO.P,U19,5*%
%TO.N,Net-(U19-Pad2)*%
X127000000Y-93980000D03*
%TO.P,U19,6*%
%TO.N,~{WE_OPR}*%
X129540000Y-93980000D03*
%TO.P,U19,7,GND*%
%TO.N,GND*%
X132080000Y-93980000D03*
%TO.P,U19,8*%
%TO.N,Net-(U19-Pad8)*%
X132080000Y-86360000D03*
%TO.P,U19,9*%
%TO.N,C0*%
X129540000Y-86360000D03*
%TO.P,U19,10*%
%TO.N,C1*%
X127000000Y-86360000D03*
%TO.P,U19,11*%
%TO.N,Net-(U19-Pad11)*%
X124460000Y-86360000D03*
%TO.P,U19,12*%
%TO.N,C2*%
X121920000Y-86360000D03*
%TO.P,U19,13*%
%TO.N,C3*%
X119380000Y-86360000D03*
%TO.P,U19,14,VCC*%
%TO.N,+5V*%
X116840000Y-86360000D03*
%TD*%
D12*
%TO.P,R30,1*%
%TO.N,BANK1*%
X162560000Y-60960000D03*
D13*
%TO.P,R30,2*%
%TO.N,A9*%
X162560000Y-68580000D03*
%TD*%
D14*
%TO.P,U4,1*%
%TO.N,Net-(U4-Pad1)*%
X152400000Y-33020000D03*
D13*
%TO.P,U4,2*%
X154940000Y-33020000D03*
%TO.P,U4,3*%
%TO.N,/ProgramMemory/RESET*%
X157480000Y-33020000D03*
%TO.P,U4,4*%
%TO.N,Net-(U4-Pad1)*%
X160020000Y-33020000D03*
%TO.P,U4,5*%
%TO.N,Net-(C2-Pad1)*%
X162560000Y-33020000D03*
%TO.P,U4,6*%
%TO.N,Net-(R8-Pad2)*%
X165100000Y-33020000D03*
%TO.P,U4,7,Vss*%
%TO.N,-10V*%
X167640000Y-33020000D03*
%TO.P,U4,8*%
%TO.N,/ProgramMemory/CMROM0*%
X167640000Y-25400000D03*
%TO.P,U4,9*%
%TO.N,Net-(R39-Pad1)*%
X165100000Y-25400000D03*
%TO.P,U4,10*%
%TO.N,Net-(U4-Pad10)*%
X162560000Y-25400000D03*
%TO.P,U4,11*%
%TO.N,Net-(R39-Pad1)*%
X160020000Y-25400000D03*
%TO.P,U4,12*%
%TO.N,Net-(U4-Pad10)*%
X157480000Y-25400000D03*
%TO.P,U4,13*%
%TO.N,/ProgramMemory/CMROM1*%
X154940000Y-25400000D03*
%TO.P,U4,14,Vdd*%
%TO.N,+5V*%
X152400000Y-25400000D03*
%TD*%
D12*
%TO.P,R10,1*%
%TO.N,+5V*%
X111760000Y-7620000D03*
D13*
%TO.P,R10,2*%
%TO.N,Net-(C6-Pad1)*%
X104140000Y-7620000D03*
%TD*%
D15*
%TO.P,D17,1,K*%
%TO.N,Net-(D17-K)*%
X101600000Y-20320000D03*
D16*
%TO.P,D17,2,A*%
%TO.N,Net-(D17-A)*%
X101600000Y-17780000D03*
%TD*%
D15*
%TO.P,D11,1,K*%
%TO.N,Net-(D11-K)*%
X137160000Y-20320000D03*
D16*
%TO.P,D11,2,A*%
%TO.N,Net-(D11-A)*%
X137160000Y-17780000D03*
%TD*%
D15*
%TO.P,D2,1,K*%
%TO.N,BANK0*%
X142240000Y-43180000D03*
D16*
%TO.P,D2,2,A*%
%TO.N,Net-(D2-A)*%
X142240000Y-40640000D03*
%TD*%
D12*
%TO.P,R6,1*%
%TO.N,Net-(R6-Pad1)*%
X172720000Y-40640000D03*
D13*
%TO.P,R6,2*%
%TO.N,Net-(C2-Pad1)*%
X165100000Y-40640000D03*
%TD*%
D14*
%TO.P,U20,1*%
%TO.N,Net-(U19-Pad2)*%
X116840000Y-81280000D03*
D13*
%TO.P,U20,2*%
%TO.N,Net-(U21-G2)*%
X119380000Y-81280000D03*
%TO.P,U20,3*%
%TO.N,Net-(U21-G1)*%
X121920000Y-81280000D03*
%TO.P,U20,4*%
%TO.N,Net-(U19-Pad4)*%
X124460000Y-81280000D03*
%TO.P,U20,5*%
%TO.N,Net-(U22-FL)*%
X127000000Y-81280000D03*
%TO.P,U20,6*%
X129540000Y-81280000D03*
%TO.P,U20,7,GND*%
%TO.N,GND*%
X132080000Y-81280000D03*
%TO.P,U20,8*%
%TO.N,Net-(U19-Pad8)*%
X132080000Y-73660000D03*
%TO.P,U20,9*%
%TO.N,Net-(U19-Pad11)*%
X129540000Y-73660000D03*
%TO.P,U20,10*%
%TO.N,CS~{ROM}RAM*%
X127000000Y-73660000D03*
%TO.P,U20,11*%
%TO.N,Net-(U21-G1)*%
X124460000Y-73660000D03*
%TO.P,U20,12*%
X121920000Y-73660000D03*
%TO.P,U20,13*%
%TO.N,~{OE}*%
X119380000Y-73660000D03*
%TO.P,U20,14,VCC*%
%TO.N,+5V*%
X116840000Y-73660000D03*
%TD*%
D14*
%TO.P,D31,1,K*%
%TO.N,Net-(D31-K)*%
X124460000Y-111760000D03*
D13*
%TO.P,D31,2,A*%
%TO.N,GND*%
X127000000Y-111760000D03*
%TD*%
D17*
%TO.P,J6,1,Pin_1*%
%TO.N,Net-(D36-A)*%
X12700000Y-93980000D03*
%TD*%
D12*
%TO.P,C14,1*%
%TO.N,+5V*%
X110490000Y-100330000D03*
%TO.P,C14,2*%
%TO.N,GND*%
X110490000Y-105330000D03*
%TD*%
D14*
%TO.P,D30,1,K*%
%TO.N,Net-(D30-K)*%
X124460000Y-114300000D03*
D13*
%TO.P,D30,2,A*%
%TO.N,GND*%
X127000000Y-114300000D03*
%TD*%
D12*
%TO.P,R25,1*%
%TO.N,BANK6*%
X149860000Y-60960000D03*
D13*
%TO.P,R25,2*%
%TO.N,A14*%
X149860000Y-68580000D03*
%TD*%
D25*
%TO.P,SW2,1,1*%
%TO.N,-10V*%
X171600000Y-50800000D03*
X165100000Y-50800000D03*
%TO.P,SW2,2,2*%
%TO.N,Net-(R6-Pad1)*%
X171600000Y-46300000D03*
X165100000Y-46300000D03*
%TD*%
D12*
%TO.P,C11,1*%
%TO.N,GND*%
X17780000Y-43180000D03*
%TO.P,C11,2*%
%TO.N,-10V*%
X22780000Y-43180000D03*
%TD*%
D14*
%TO.P,U8,1,D0*%
%TO.N,/ProgramMemory/D0*%
X101600000Y-55880000D03*
D13*
%TO.P,U8,2,D1*%
%TO.N,/ProgramMemory/D1*%
X104140000Y-55880000D03*
%TO.P,U8,3,D2*%
%TO.N,/ProgramMemory/D2*%
X106680000Y-55880000D03*
%TO.P,U8,4,D3*%
%TO.N,/ProgramMemory/D3*%
X109220000Y-55880000D03*
%TO.P,U8,5,Vss*%
%TO.N,+5V*%
X111760000Y-55880000D03*
%TO.P,U8,6,CLK1*%
%TO.N,/ClockGen/CLK1*%
X114300000Y-55880000D03*
%TO.P,U8,7,CLK2*%
%TO.N,/ClockGen/CLK2*%
X116840000Y-55880000D03*
%TO.P,U8,8,SYNC*%
%TO.N,/ProgramMemory/SYNC*%
X119380000Y-55880000D03*
%TO.P,U8,9,RESET*%
%TO.N,/ProgramMemory/RESET*%
X119380000Y-48260000D03*
%TO.P,U8,10,P0*%
%TO.N,-10V*%
X116840000Y-48260000D03*
%TO.P,U8,11,CM*%
%TO.N,Net-(U10-CM)*%
X114300000Y-48260000D03*
%TO.P,U8,12,Vdd*%
%TO.N,-10V*%
X111760000Y-48260000D03*
%TO.P,U8,13,O3*%
%TO.N,BANK7*%
X109220000Y-48260000D03*
%TO.P,U8,14,O2*%
%TO.N,BANK6*%
X106680000Y-48260000D03*
%TO.P,U8,15,O1*%
%TO.N,BANK5*%
X104140000Y-48260000D03*
%TO.P,U8,16,O0*%
%TO.N,BANK4*%
X101600000Y-48260000D03*
%TD*%
D12*
%TO.P,C19,1*%
%TO.N,+5V*%
X123190000Y-54530000D03*
%TO.P,C19,2*%
%TO.N,-10V*%
X123190000Y-49530000D03*
%TD*%
D14*
%TO.P,D21,1,K*%
%TO.N,A15*%
X147320000Y-71120000D03*
D13*
%TO.P,D21,2,A*%
%TO.N,GND*%
X147320000Y-73660000D03*
%TD*%
D12*
%TO.P,C15,1*%
%TO.N,+5V*%
X45720000Y-45720000D03*
%TO.P,C15,2*%
%TO.N,-10V*%
X45720000Y-40720000D03*
%TD*%
%TO.P,R2,1*%
%TO.N,+5V*%
X177800000Y-35560000D03*
D13*
%TO.P,R2,2*%
%TO.N,Net-(J1-Pin_4)*%
X185420000Y-35560000D03*
%TD*%
D23*
%TO.P,J1,1,Pin_1*%
%TO.N,GND*%
X180340000Y-15240000D03*
D24*
%TO.P,J1,2,Pin_2*%
%TO.N,unconnected-(J1-Pin_2-Pad2)*%
X180340000Y-17780000D03*
%TO.P,J1,3,Pin_3*%
%TO.N,unconnected-(J1-Pin_3-Pad3)*%
X180340000Y-20320000D03*
%TO.P,J1,4,Pin_4*%
%TO.N,Net-(J1-Pin_4)*%
X180340000Y-22860000D03*
%TO.P,J1,5,Pin_5*%
%TO.N,Net-(J1-Pin_5)*%
X180340000Y-25400000D03*
%TO.P,J1,6,Pin_6*%
%TO.N,unconnected-(J1-Pin_6-Pad6)*%
X180340000Y-27940000D03*
%TD*%
D15*
%TO.P,D6,1,K*%
%TO.N,BANK4*%
X116840000Y-43180000D03*
D16*
%TO.P,D6,2,A*%
%TO.N,Net-(D6-A)*%
X116840000Y-40640000D03*
%TD*%
D15*
%TO.P,D19,1,K*%
%TO.N,Net-(D19-K)*%
X142240000Y-10160000D03*
D16*
%TO.P,D19,2,A*%
%TO.N,Net-(D19-A)*%
X142240000Y-7620000D03*
%TD*%
D14*
%TO.P,RN3,1,common*%
%TO.N,+5V*%
X127000000Y-15240000D03*
D13*
%TO.P,RN3,2,R1*%
%TO.N,Net-(D13-A)*%
X129540000Y-15240000D03*
%TO.P,RN3,3,R2*%
%TO.N,Net-(D12-A)*%
X132080000Y-15240000D03*
%TO.P,RN3,4,R3*%
%TO.N,Net-(D11-A)*%
X134620000Y-15240000D03*
%TO.P,RN3,5,R4*%
%TO.N,Net-(D10-A)*%
X137160000Y-15240000D03*
%TD*%
D25*
%TO.P,SW3,1,1*%
%TO.N,GND*%
X184300000Y-50800000D03*
X177800000Y-50800000D03*
%TO.P,SW3,2,2*%
%TO.N,Net-(R11-Pad1)*%
X184300000Y-46300000D03*
X177800000Y-46300000D03*
%TD*%
D12*
%TO.P,R39,1*%
%TO.N,Net-(R39-Pad1)*%
X137160000Y-60960000D03*
D13*
%TO.P,R39,2*%
%TO.N,ROM_A12*%
X137160000Y-68580000D03*
%TD*%
D15*
%TO.P,D7,1,K*%
%TO.N,BANK5*%
X111760000Y-43180000D03*
D16*
%TO.P,D7,2,A*%
%TO.N,Net-(D7-A)*%
X111760000Y-40640000D03*
%TD*%
D12*
%TO.P,C7,1*%
%TO.N,+5V*%
X34290000Y-6350000D03*
%TO.P,C7,2*%
%TO.N,GND*%
X34290000Y-11350000D03*
%TD*%
%TO.P,R22,1*%
%TO.N,-10V*%
X40640000Y-45720000D03*
D13*
%TO.P,R22,2*%
%TO.N,Net-(U14-OUT_A)*%
X33020000Y-45720000D03*
%TD*%
D14*
%TO.P,D29,1,K*%
%TO.N,Net-(D29-K)*%
X124460000Y-116840000D03*
D13*
%TO.P,D29,2,A*%
%TO.N,GND*%
X127000000Y-116840000D03*
%TD*%
D15*
%TO.P,D16,1,K*%
%TO.N,Net-(D16-K)*%
X106680000Y-20320000D03*
D16*
%TO.P,D16,2,A*%
%TO.N,Net-(D16-A)*%
X106680000Y-17780000D03*
%TD*%
D14*
%TO.P,C25,1*%
%TO.N,+5V*%
X8930000Y-46990000D03*
D12*
%TO.P,C25,2*%
%TO.N,GND*%
X11430000Y-46990000D03*
%TD*%
D26*
%TO.N,+5V*%
X59690000Y-23400000D03*
X60960000Y-23400000D03*
X147761572Y-24130000D03*
X110490000Y-84034503D03*
X147761572Y-25400000D03*
X58420000Y-23400000D03*
X110490000Y-83185000D03*
X147761572Y-50800000D03*
X147761572Y-35560000D03*
%TO.N,-10V*%
X95790000Y-38735000D03*
X95790000Y-42545000D03*
X95790000Y-40640000D03*
%TO.N,Net-(C1-Pad1)*%
X150935201Y-22030201D03*
X81280000Y-6985000D03*
X81280000Y-17145000D03*
%TO.N,Net-(C6-Pad1)*%
X86360000Y-16299500D03*
X170815000Y-15240000D03*
X86360000Y-7709500D03*
%TO.N,GND*%
X135890000Y-5080000D03*
X151130000Y-5080000D03*
%TO.N,Net-(D10-K)*%
X125730000Y-16510000D03*
%TO.N,Net-(D11-K)*%
X129540000Y-19050000D03*
%TO.N,BANK4*%
X100330000Y-63880500D03*
X100330000Y-39370000D03*
%TO.N,BANK5*%
X102870000Y-62865000D03*
X104140000Y-41910000D03*
%TO.N,BANK6*%
X105410000Y-62706000D03*
%TO.N,BANK7*%
X107950000Y-62865000D03*
X109220000Y-43180000D03*
%TO.N,BANK0*%
X125730000Y-39370000D03*
%TO.N,BANK1*%
X129540000Y-41910000D03*
X129540000Y-51340500D03*
%TO.N,BANK2*%
X132080000Y-51340500D03*
%TO.N,BANK3*%
X134620000Y-43180000D03*
X134620000Y-51340500D03*
%TO.N,Net-(D19-A)*%
X94615000Y-8890000D03*
%TO.N,Net-(D1-K)*%
X149860000Y-58928000D03*
X149860000Y-20955000D03*
X141224000Y-59436000D03*
%TO.N,/ClockGen/CLK1*%
X114300000Y-30420500D03*
X114300000Y-52630501D03*
X80110000Y-52705000D03*
%TO.N,/ClockGen/CLK2*%
X116840000Y-29571000D03*
X82650000Y-51435000D03*
X116840000Y-51435000D03*
%TO.N,Net-(D13-K)*%
X134620000Y-20320000D03*
%TO.N,/ProgramMemory/RESET*%
X145905000Y-30480000D03*
%TO.N,/ProgramMemory/D0*%
X68580000Y-33020000D03*
%TO.N,/ProgramMemory/D1*%
X60960000Y-57929500D03*
X71120000Y-34925000D03*
X104140000Y-57785000D03*
X104140000Y-34925000D03*
%TO.N,/ProgramMemory/D2*%
X106680000Y-35649500D03*
X74705000Y-35649500D03*
X63500000Y-58509500D03*
X106680000Y-58509500D03*
%TO.N,/ProgramMemory/D3*%
X109220000Y-59234000D03*
X109220000Y-36374000D03*
X77245000Y-36374000D03*
X66040000Y-59234000D03*
%TO.N,/ProgramMemory/SYNC*%
X85090000Y-49530000D03*
X119380000Y-50165000D03*
X119380000Y-28575000D03*
X78740000Y-49530000D03*
%TO.N,ROM_A12*%
X138430000Y-116959500D03*
%TO.N,~{OE}*%
X81280000Y-91440000D03*
X163830000Y-86360000D03*
X115570000Y-90424000D03*
%TO.N,A12*%
X152400000Y-89535000D03*
X155575000Y-89535000D03*
%TO.N,A10*%
X158750000Y-77470000D03*
%TO.N,A8*%
X162560000Y-76200000D03*
X157480000Y-76289500D03*
%TO.N,Net-(D17-K)*%
X109220000Y-20320000D03*
%TO.N,~{WE_OPR}*%
X129540000Y-88265000D03*
%TO.N,C0*%
X74930000Y-77201000D03*
X128270000Y-77470000D03*
%TO.N,C1*%
X71120000Y-97155000D03*
X72615000Y-77925500D03*
X125730000Y-78105000D03*
%TO.N,C2*%
X69850000Y-78650500D03*
X69850000Y-95705500D03*
X119380000Y-78740000D03*
%TO.N,C3*%
X67310000Y-96430500D03*
X117475000Y-79375000D03*
X67310000Y-79375000D03*
%TO.N,STP*%
X152400000Y-43815000D03*
X77470000Y-46355000D03*
%TO.N,STPA*%
X68580000Y-60960000D03*
X92710000Y-60960000D03*
X168910000Y-3175000D03*
%TO.N,INTA*%
X91440000Y-62230000D03*
X76200000Y-62230000D03*
%TO.N,/ProgramMemory/CMROM0*%
X62865000Y-18415000D03*
X51488183Y-64640636D03*
X56388000Y-45212000D03*
X81280000Y-18270500D03*
X163068000Y-42672000D03*
%TO.N,IO1*%
X54610000Y-108585000D03*
%TO.N,IO2*%
X57150000Y-107950000D03*
%TO.N,Net-(D14-K)*%
X100330000Y-16510000D03*
%TO.N,Net-(D15-K)*%
X104140000Y-19050000D03*
%TO.N,Net-(U5-TEST)*%
X83820000Y-24765000D03*
X158750000Y-29210000D03*
%TO.N,IO3*%
X59690000Y-107315000D03*
%TO.N,IO4*%
X62230000Y-106680000D03*
%TO.N,/ProgramMemory/CMROM1*%
X52705000Y-63500000D03*
X156210000Y-41910000D03*
X142240000Y-65980500D03*
X59436000Y-44704000D03*
%TO.N,INT*%
X73660000Y-17145000D03*
X73660000Y-62230000D03*
X53975000Y-62230000D03*
X64770000Y-17145000D03*
%TO.N,Net-(U1-Pad1)*%
X83820000Y-17780000D03*
%TO.N,OPR0*%
X96520000Y-94615000D03*
X176530000Y-102870000D03*
%TO.N,OPR1*%
X179070000Y-101600000D03*
X93980000Y-93890500D03*
X132080000Y-97155500D03*
%TO.N,OPR2*%
X134620000Y-96431000D03*
X181610000Y-100330000D03*
X91440000Y-93166000D03*
%TO.N,OPR3*%
X88900000Y-92441500D03*
X182880000Y-99060000D03*
X137160000Y-95706500D03*
%TO.N,OPA0*%
X69850000Y-104775000D03*
X119380000Y-102870000D03*
X175260000Y-107950000D03*
X91440000Y-104775000D03*
%TO.N,OPA1*%
X177800000Y-106680000D03*
X121920000Y-102145500D03*
X96012000Y-89662000D03*
X93980000Y-104140000D03*
%TO.N,OPA2*%
X96520000Y-103505000D03*
X180340000Y-105410000D03*
X124460000Y-101421000D03*
X97790000Y-88989500D03*
%TO.N,OPA3*%
X182880000Y-104140000D03*
X99060000Y-88265000D03*
X99060000Y-102870000D03*
%TO.N,A1*%
X170180000Y-113809500D03*
%TO.N,A2*%
X167640000Y-114300000D03*
%TO.N,A3*%
X165100000Y-114709500D03*
%TO.N,A4*%
X162560000Y-115159500D03*
%TO.N,A5*%
X160020000Y-115609500D03*
%TO.N,A6*%
X157480000Y-116059500D03*
%TO.N,A7*%
X154940000Y-116509500D03*
%TO.N,CS~{ROM}RAM*%
X130810000Y-91440000D03*
X148735000Y-87630000D03*
X86360000Y-91440000D03*
%TO.N,Net-(R21-Pad2)*%
X36830000Y-19050000D03*
%TO.N,Net-(R39-Pad1)*%
X151384000Y-57404000D03*
X137160000Y-58420000D03*
%TO.N,Net-(U22-CM)*%
X106680000Y-81680500D03*
X107315000Y-69215000D03*
%TO.N,Net-(U10-CM)*%
X139700000Y-23495000D03*
X114300000Y-23495000D03*
%TO.N,Net-(U12-Pad6)*%
X27940000Y-8165500D03*
%TO.N,Net-(U15-QB)*%
X45720000Y-8679500D03*
%TO.N,Net-(U22-FL)*%
X127000000Y-76655500D03*
X99060000Y-74930000D03*
X114554000Y-74930000D03*
%TO.N,Net-(U21-G2)*%
X101600000Y-80099500D03*
%TO.N,Net-(U21-G1)*%
X112395000Y-85725000D03*
%TD*%
D27*
%TO.N,+5V*%
X22860000Y-111760000D02*
X20184525Y-111760000D01*
D28*
X110490000Y-2580000D02*
X88265000Y-2580000D01*
D27*
X7240000Y-28575000D02*
X7240000Y-11810000D01*
D29*
X45720000Y-101600000D02*
X45720000Y-99370000D01*
X88900000Y-3215000D02*
X88265000Y-2580000D01*
D27*
X8430000Y-46990000D02*
X7240000Y-45800000D01*
D30*
X58420000Y-7615000D02*
X58420000Y-23400000D01*
D29*
X60955000Y-5080000D02*
X71115000Y-5080000D01*
X143510000Y-24130000D02*
X147761572Y-24130000D01*
D31*
X147531572Y-54380000D02*
X147761572Y-54610000D01*
D30*
X143320000Y-96520000D02*
X142780000Y-95980000D01*
D27*
X4540000Y-46990000D02*
X8430000Y-46990000D01*
D28*
X81280000Y-2580000D02*
X88265000Y-2580000D01*
D27*
X41450000Y-49990000D02*
X7540000Y-49990000D01*
D30*
X144780000Y-88265000D02*
X144780000Y-83820000D01*
D27*
X7540000Y-49990000D02*
X4540000Y-46990000D01*
D30*
X147761572Y-54610000D02*
X147761572Y-50800000D01*
X60955000Y-5080000D02*
X58420000Y-7615000D01*
X45410000Y-99060000D02*
X45720000Y-99060000D01*
X27070151Y-116400000D02*
X32905484Y-116400000D01*
X140970000Y-101600000D02*
X140970000Y-100330000D01*
X144780000Y-58708428D02*
X147761572Y-55726856D01*
D27*
X2000000Y-49530000D02*
X4540000Y-46990000D01*
D29*
X142240000Y-50800000D02*
X137160000Y-55880000D01*
X45720000Y-99370000D02*
X45410000Y-99060000D01*
D28*
X16470000Y-2580000D02*
X34290000Y-2580000D01*
D30*
X144780000Y-60960000D02*
X144780000Y-58708428D01*
X142780000Y-95980000D02*
X142780000Y-90265000D01*
D28*
X127635000Y-2580000D02*
X110490000Y-2580000D01*
D29*
X142240000Y-48260000D02*
X142240000Y-50800000D01*
D31*
X110490000Y-83820000D02*
X110490000Y-77470000D01*
D29*
X68575000Y-12700000D02*
X68575000Y-5080000D01*
D30*
X146590000Y-19798428D02*
X146590000Y-15970000D01*
D29*
X88900000Y-5080000D02*
X88900000Y-3215000D01*
X45720000Y-101600000D02*
X45720000Y-99060000D01*
D28*
X151638000Y-2580000D02*
X127635000Y-2580000D01*
D30*
X144700000Y-83900000D02*
X144780000Y-83820000D01*
X113030000Y-62310000D02*
X111760000Y-61040000D01*
X140970000Y-83900000D02*
X144700000Y-83900000D01*
D32*
X99480000Y-29980000D02*
X97790000Y-31670000D01*
D28*
X13970000Y-5080000D02*
X16470000Y-2580000D01*
D31*
X110490000Y-100330000D02*
X110490000Y-83820000D01*
D30*
X7335000Y-28480000D02*
X7240000Y-28575000D01*
D27*
X20184525Y-111760000D02*
X2000000Y-93575475D01*
D32*
X99480000Y-16060000D02*
X99480000Y-29980000D01*
D29*
X111760000Y-7620000D02*
X110435000Y-6295000D01*
D31*
X35560000Y-12240000D02*
X35560000Y-17780000D01*
D28*
X34290000Y-2580000D02*
X38100000Y-2580000D01*
D29*
X170180000Y-63500000D02*
X170180000Y-60960000D01*
D30*
X22780000Y-30480000D02*
X20780000Y-28480000D01*
D27*
X7240000Y-48100000D02*
X2000000Y-53340000D01*
D32*
X100300000Y-15240000D02*
X99480000Y-16060000D01*
D30*
X147761572Y-55726856D02*
X147761572Y-54610000D01*
D31*
X38100000Y-5080000D02*
X38100000Y-9700000D01*
D29*
X110435000Y-6295000D02*
X110435000Y-2635000D01*
X98075635Y-38100000D02*
X97790000Y-38385635D01*
D32*
X123190000Y-36195000D02*
X123190000Y-31670000D01*
D27*
X2000000Y-93575475D02*
X2000000Y-53340000D01*
D30*
X144780000Y-96520000D02*
X143320000Y-96520000D01*
D32*
X127000000Y-3215000D02*
X127635000Y-2580000D01*
X127000000Y-38100000D02*
X125095000Y-38100000D01*
D27*
X7240000Y-45800000D02*
X7240000Y-48100000D01*
D31*
X138660000Y-54380000D02*
X147531572Y-54380000D01*
D29*
X162560000Y-12700000D02*
X162560000Y-7620000D01*
D31*
X137160000Y-55880000D02*
X138660000Y-54380000D01*
D29*
X83820000Y-5080000D02*
X81280000Y-5080000D01*
D28*
X148590000Y-2580000D02*
X151638000Y-2580000D01*
D30*
X147761572Y-20970000D02*
X146590000Y-19798428D01*
D29*
X142240000Y-60960000D02*
X144780000Y-60960000D01*
D30*
X162560000Y-7620000D02*
X163830000Y-7620000D01*
X59690000Y-23400000D02*
X60960000Y-23400000D01*
X38100000Y-5080000D02*
X38100000Y-2580000D01*
X147761572Y-24130000D02*
X147761572Y-20970000D01*
X43180000Y-101290000D02*
X45410000Y-99060000D01*
D31*
X52070000Y-100275000D02*
X53285000Y-99060000D01*
D32*
X127000000Y-15240000D02*
X127000000Y-3215000D01*
D30*
X22860000Y-33020000D02*
X22860000Y-30560000D01*
D28*
X38100000Y-2580000D02*
X60960000Y-2580000D01*
X151638000Y-2580000D02*
X154980000Y-2580000D01*
D30*
X20780000Y-28480000D02*
X7335000Y-28480000D01*
D32*
X101600000Y-15240000D02*
X100300000Y-15240000D01*
D29*
X25400000Y-83820000D02*
X26625000Y-85045000D01*
D31*
X110490000Y-77470000D02*
X111760000Y-76200000D01*
D30*
X25400000Y-111760000D02*
X25400000Y-114729849D01*
D31*
X97790000Y-38385635D02*
X97790000Y-31670000D01*
X99490000Y-52830000D02*
X99490000Y-40085635D01*
D30*
X142780000Y-90265000D02*
X144780000Y-88265000D01*
D29*
X26625000Y-85045000D02*
X26625000Y-110535000D01*
X142240000Y-25400000D02*
X143510000Y-24130000D01*
D32*
X101600000Y-38100000D02*
X98075635Y-38100000D01*
D31*
X38100000Y-9700000D02*
X35560000Y-12240000D01*
D30*
X140970000Y-100330000D02*
X144780000Y-96520000D01*
X25400000Y-114729849D02*
X27070151Y-116400000D01*
D31*
X99490000Y-40085635D02*
X97790000Y-38385635D01*
D30*
X111760000Y-61040000D02*
X111760000Y-55880000D01*
D29*
X63495000Y-12700000D02*
X63495000Y-5080000D01*
D30*
X32905484Y-116400000D02*
X43180000Y-106125484D01*
X45720000Y-99060000D02*
X53285000Y-99060000D01*
D28*
X154980000Y-2580000D02*
X160020000Y-7620000D01*
D30*
X25400000Y-111760000D02*
X22860000Y-111760000D01*
D31*
X111760000Y-75068630D02*
X111760000Y-76200000D01*
X52070000Y-102870000D02*
X52070000Y-100275000D01*
D30*
X160020000Y-7620000D02*
X162560000Y-7620000D01*
D31*
X113168630Y-73660000D02*
X111760000Y-75068630D01*
D30*
X60955000Y-2585000D02*
X60960000Y-2580000D01*
D27*
X45720000Y-45720000D02*
X41450000Y-49990000D01*
D29*
X110435000Y-2635000D02*
X110490000Y-2580000D01*
D30*
X148590000Y-13970000D02*
X148590000Y-2580000D01*
X60955000Y-5080000D02*
X60955000Y-2585000D01*
D29*
X26625000Y-110535000D02*
X25400000Y-111760000D01*
D30*
X147761572Y-35560000D02*
X147761572Y-25400000D01*
D31*
X110490000Y-83820000D02*
X110490000Y-84034503D01*
D27*
X7240000Y-11810000D02*
X13970000Y-5080000D01*
D30*
X58420000Y-23400000D02*
X59690000Y-23400000D01*
X144780000Y-78740000D02*
X144780000Y-60960000D01*
D27*
X7240000Y-45800000D02*
X7240000Y-28575000D01*
X2000000Y-53340000D02*
X2000000Y-49530000D01*
D30*
X34290000Y-6350000D02*
X34290000Y-2580000D01*
X147761572Y-50800000D02*
X147761572Y-35560000D01*
X81280000Y-5080000D02*
X81280000Y-2580000D01*
X147761572Y-25400000D02*
X147761572Y-24130000D01*
X144780000Y-83820000D02*
X144780000Y-78740000D01*
D31*
X97790000Y-54530000D02*
X99490000Y-52830000D01*
D32*
X125095000Y-38100000D02*
X123190000Y-36195000D01*
D28*
X60960000Y-2580000D02*
X81280000Y-2580000D01*
D31*
X116840000Y-73660000D02*
X113168630Y-73660000D01*
D30*
X43180000Y-106125484D02*
X43180000Y-101290000D01*
X22860000Y-30560000D02*
X22780000Y-30480000D01*
X146590000Y-15970000D02*
X148590000Y-13970000D01*
D31*
%TO.N,-10V*%
X172600000Y-66240000D02*
X172600000Y-51800000D01*
D30*
X33449849Y-96520000D02*
X35560000Y-94409849D01*
X30440000Y-60960000D02*
X32980000Y-63500000D01*
D31*
X170100000Y-38100000D02*
X170100000Y-35480000D01*
D30*
X33020000Y-96520000D02*
X35560000Y-96520000D01*
D31*
X170100000Y-35480000D02*
X167640000Y-33020000D01*
D30*
X33449849Y-91440000D02*
X35560000Y-93550151D01*
D31*
X171600000Y-50800000D02*
X169900000Y-49100000D01*
D30*
X32590151Y-91440000D02*
X33020000Y-91440000D01*
X40640000Y-66120000D02*
X35640000Y-66120000D01*
X131211370Y-70580000D02*
X132080000Y-69711370D01*
X97790000Y-49530000D02*
X95790000Y-47530000D01*
D31*
X169900000Y-49100000D02*
X169900000Y-38300000D01*
X169900000Y-38300000D02*
X170100000Y-38100000D01*
D30*
X35560000Y-93550151D02*
X35560000Y-96520000D01*
D27*
X33580000Y-101600000D02*
X33580000Y-110544063D01*
D30*
X35560000Y-94409849D02*
X35560000Y-66040000D01*
X35640000Y-66120000D02*
X35560000Y-66040000D01*
X30480000Y-94409849D02*
X30480000Y-93550151D01*
D27*
X33580000Y-110544063D02*
X31764063Y-112360000D01*
D30*
X33020000Y-96520000D02*
X33020000Y-98044000D01*
X99060000Y-66040000D02*
X111760000Y-66040000D01*
D31*
X32080000Y-110160000D02*
X30480000Y-111760000D01*
D30*
X30480000Y-97536000D02*
X30480000Y-98500000D01*
D27*
X33580000Y-99620000D02*
X33580000Y-101600000D01*
D30*
X30480000Y-93550151D02*
X30480000Y-97536000D01*
X113030000Y-67310000D02*
X113030000Y-68770000D01*
D27*
X31764063Y-112360000D02*
X30480000Y-112360000D01*
D30*
X31496000Y-96520000D02*
X30480000Y-97536000D01*
D27*
X35560000Y-63500000D02*
X33020000Y-63500000D01*
D31*
X172600000Y-51800000D02*
X171600000Y-50800000D01*
D30*
X33020000Y-96520000D02*
X32590151Y-96520000D01*
D27*
X33020000Y-66040000D02*
X33020000Y-71120000D01*
D30*
X114840000Y-70580000D02*
X131211370Y-70580000D01*
X95790000Y-51530000D02*
X95790000Y-62770000D01*
X32980000Y-63500000D02*
X33020000Y-63500000D01*
X95790000Y-62770000D02*
X99060000Y-66040000D01*
X30480000Y-98500000D02*
X33580000Y-101600000D01*
X35560000Y-97640000D02*
X33580000Y-99620000D01*
X32590151Y-96520000D02*
X30480000Y-94409849D01*
X35560000Y-66040000D02*
X35560000Y-63500000D01*
X33020000Y-96520000D02*
X33449849Y-96520000D01*
X113030000Y-68770000D02*
X114840000Y-70580000D01*
X35560000Y-93550151D02*
X35560000Y-94409849D01*
X30440000Y-94369849D02*
X30440000Y-60960000D01*
X111760000Y-66040000D02*
X113030000Y-67310000D01*
X95790000Y-28670000D02*
X97790000Y-26670000D01*
X95790000Y-47530000D02*
X95790000Y-42545000D01*
X40640000Y-66120000D02*
X38180000Y-66120000D01*
X33020000Y-98044000D02*
X33020000Y-99060000D01*
X35560000Y-96520000D02*
X35560000Y-97640000D01*
X30949849Y-111760000D02*
X31984925Y-110724924D01*
X33020000Y-91440000D02*
X33449849Y-91440000D01*
X30480000Y-93550151D02*
X32590151Y-91440000D01*
X95790000Y-42545000D02*
X95790000Y-28670000D01*
X132080000Y-69711370D02*
X132080000Y-68580000D01*
X32590151Y-96520000D02*
X30440000Y-94369849D01*
D31*
X170260000Y-68580000D02*
X172600000Y-66240000D01*
D27*
X33020000Y-71120000D02*
X33020000Y-90880000D01*
D30*
X38180000Y-66120000D02*
X35560000Y-63500000D01*
X97790000Y-49530000D02*
X95790000Y-51530000D01*
X30440000Y-60960000D02*
X35560000Y-60960000D01*
X30480000Y-111760000D02*
X30949849Y-111760000D01*
X33020000Y-96520000D02*
X31496000Y-96520000D01*
D27*
X33580000Y-99620000D02*
X33020000Y-99060000D01*
D30*
X35560000Y-60960000D02*
X40640000Y-66040000D01*
D29*
%TO.N,Net-(C1-Pad1)*%
X151765000Y-37465000D02*
X152400000Y-38100000D01*
X152400000Y-40640000D02*
X152400000Y-38100000D01*
X81280000Y-12700000D02*
X81280000Y-17145000D01*
X81280000Y-6985000D02*
X81280000Y-12700000D01*
X150935201Y-22030201D02*
X150935201Y-36635201D01*
X150935201Y-36635201D02*
X151765000Y-37465000D01*
D32*
%TO.N,Net-(C2-Pad1)*%
X165100000Y-35560000D02*
X165100000Y-40640000D01*
D29*
%TO.N,Net-(C6-Pad1)*%
X170815000Y-15240000D02*
X170815000Y-27938604D01*
X177800000Y-38100000D02*
X173170000Y-33470000D01*
X86360000Y-16299500D02*
X86360000Y-12700000D01*
X170815000Y-27938604D02*
X173170000Y-30293604D01*
X177800000Y-40640000D02*
X177800000Y-38100000D01*
X173170000Y-30293604D02*
X173170000Y-33470000D01*
X86360000Y-7709500D02*
X86360000Y-12700000D01*
D30*
%TO.N,GND*%
X187420000Y-47680000D02*
X184300000Y-50800000D01*
D31*
X170180000Y-73660000D02*
X170180000Y-76200000D01*
D29*
X137160000Y-10160000D02*
X135890000Y-8890000D01*
X48260000Y-25400000D02*
X49385000Y-26525000D01*
D30*
X109220000Y-114300000D02*
X99060000Y-114300000D01*
D29*
X170180000Y-96520000D02*
X170180000Y-95570991D01*
X151130000Y-8890000D02*
X151130000Y-5080000D01*
D30*
X40640000Y-91440000D02*
X50800000Y-91440000D01*
X53340000Y-12700000D02*
X55340000Y-14700000D01*
X132080000Y-93980000D02*
X137050000Y-89010000D01*
X187420000Y-38100000D02*
X187420000Y-47680000D01*
X38100000Y-101600000D02*
X40640000Y-99060000D01*
X110490000Y-105330000D02*
X110490000Y-113030000D01*
D29*
X135890000Y-8890000D02*
X135890000Y-5080000D01*
D30*
X187420000Y-21960862D02*
X187420000Y-38100000D01*
X40640000Y-91440000D02*
X40640000Y-71120000D01*
X113760000Y-6791572D02*
X112248428Y-5280000D01*
X182800000Y-38100000D02*
X187420000Y-38100000D01*
D29*
X152400000Y-10160000D02*
X151130000Y-8890000D01*
D30*
X53285000Y-93925000D02*
X53285000Y-94060000D01*
X180699138Y-15240000D02*
X187420000Y-21960862D01*
X113760000Y-8448428D02*
X113760000Y-6791572D01*
D29*
X170180000Y-78740000D02*
X170180000Y-76200000D01*
D30*
X180340000Y-15240000D02*
X180699138Y-15240000D01*
D29*
X49385000Y-26525000D02*
X52215000Y-26525000D01*
X169055000Y-79865000D02*
X170180000Y-78740000D01*
D30*
X55340000Y-23400000D02*
X53340000Y-25400000D01*
D29*
X169055000Y-94445991D02*
X169055000Y-79865000D01*
D30*
X40640000Y-99060000D02*
X40640000Y-91440000D01*
D29*
X170180000Y-95570991D02*
X169055000Y-94445991D01*
D30*
X112048428Y-10160000D02*
X113760000Y-8448428D01*
X110490000Y-113030000D02*
X109220000Y-114300000D01*
X55340000Y-14700000D02*
X55340000Y-23400000D01*
X111760000Y-10160000D02*
X112048428Y-10160000D01*
D31*
X127000000Y-116840000D02*
X127000000Y-109220000D01*
D30*
X137050000Y-89010000D02*
X137050000Y-78740000D01*
X108490000Y-103330000D02*
X108490000Y-74470000D01*
X50800000Y-91440000D02*
X53285000Y-93925000D01*
D29*
X52215000Y-26525000D02*
X53340000Y-25400000D01*
D30*
X112248428Y-5280000D02*
X111760000Y-5280000D01*
D31*
X127000000Y-109220000D02*
X134620000Y-109220000D01*
D30*
X110490000Y-105330000D02*
X108490000Y-103330000D01*
X108490000Y-74470000D02*
X111760000Y-71200000D01*
D31*
X134620000Y-109220000D02*
X137160000Y-106680000D01*
D29*
%TO.N,Net-(U14-IN_A)*%
X20320000Y-40640000D02*
X30480000Y-30480000D01*
%TO.N,Net-(D10-K)*%
X127000000Y-25400000D02*
X125730000Y-24130000D01*
X125730000Y-24130000D02*
X125730000Y-16510000D01*
%TO.N,Net-(D5-A)*%
X127000000Y-40640000D02*
X129540000Y-38100000D01*
%TO.N,Net-(D7-A)*%
X111760000Y-40640000D02*
X109220000Y-38100000D01*
%TO.N,Net-(D11-K)*%
X129540000Y-25400000D02*
X129540000Y-19050000D01*
%TO.N,Net-(D8-A)*%
X106680000Y-40640000D02*
X106680000Y-38100000D01*
%TO.N,Net-(D9-A)*%
X101600000Y-40640000D02*
X104140000Y-38100000D01*
%TO.N,Net-(D11-A)*%
X137160000Y-17780000D02*
X134620000Y-15240000D01*
%TO.N,BANK4*%
X100330000Y-46990000D02*
X100330000Y-39370000D01*
X100330000Y-49530000D02*
X100330000Y-63880500D01*
X101600000Y-48260000D02*
X100330000Y-49530000D01*
X101600000Y-48260000D02*
X100330000Y-46990000D01*
%TO.N,Net-(D12-A)*%
X132080000Y-17780000D02*
X132080000Y-15240000D01*
%TO.N,BANK5*%
X102870000Y-49530000D02*
X102870000Y-62865000D01*
X104140000Y-48260000D02*
X104140000Y-41910000D01*
X104140000Y-48260000D02*
X102870000Y-49530000D01*
%TO.N,Net-(D13-A)*%
X127000000Y-17780000D02*
X129540000Y-15240000D01*
%TO.N,BANK6*%
X105410000Y-49530000D02*
X105410000Y-62706000D01*
X106680000Y-48260000D02*
X106680000Y-43180000D01*
X106680000Y-48260000D02*
X105410000Y-49530000D01*
%TO.N,BANK7*%
X109220000Y-48260000D02*
X109220000Y-43180000D01*
X107950000Y-49530000D02*
X107950000Y-62865000D01*
X109220000Y-48260000D02*
X107950000Y-49530000D01*
%TO.N,Net-(D15-A)*%
X111760000Y-17780000D02*
X109220000Y-15240000D01*
%TO.N,BANK0*%
X127000000Y-48260000D02*
X125730000Y-46990000D01*
X125730000Y-46990000D02*
X125730000Y-39370000D01*
%TO.N,Net-(D16-A)*%
X106680000Y-17780000D02*
X106680000Y-15240000D01*
%TO.N,BANK1*%
X129540000Y-51340500D02*
X129540000Y-48260000D01*
X129540000Y-48260000D02*
X129540000Y-41910000D01*
%TO.N,Net-(C9-Pad1)*%
X32200000Y-27200000D02*
X32200000Y-6800000D01*
X35480000Y-30480000D02*
X32200000Y-27200000D01*
X32200000Y-6800000D02*
X30480000Y-5080000D01*
%TO.N,BANK2*%
X132080000Y-51340500D02*
X132080000Y-48260000D01*
X132080000Y-48260000D02*
X132080000Y-43180000D01*
%TO.N,BANK3*%
X134620000Y-51340500D02*
X134620000Y-48260000D01*
X134620000Y-48260000D02*
X134620000Y-43180000D01*
%TO.N,Net-(D19-A)*%
X93980000Y-9525000D02*
X94615000Y-8890000D01*
X93980000Y-12700000D02*
X93980000Y-9525000D01*
%TO.N,Net-(U14-IN_B)*%
X25400000Y-40640000D02*
X25400000Y-38100000D01*
X25400000Y-38100000D02*
X30480000Y-33020000D01*
%TO.N,Net-(D1-K)*%
X160020000Y-20320000D02*
X162560000Y-20320000D01*
X139700000Y-68580000D02*
X141115000Y-67165000D01*
X141115000Y-59545000D02*
X141224000Y-59436000D01*
X141115000Y-67165000D02*
X141115000Y-59545000D01*
X149860000Y-20955000D02*
X149860000Y-58928000D01*
X139700000Y-71120000D02*
X139700000Y-68580000D01*
%TO.N,Net-(D30-K)*%
X119380000Y-111760000D02*
X121920000Y-114300000D01*
X128415000Y-105555000D02*
X120505000Y-105555000D01*
X120505000Y-105555000D02*
X119380000Y-106680000D01*
X129540000Y-106680000D02*
X128415000Y-105555000D01*
X119380000Y-106680000D02*
X119380000Y-111760000D01*
%TO.N,Net-(D31-K)*%
X120795000Y-107805000D02*
X120795000Y-110635000D01*
X120795000Y-110635000D02*
X121920000Y-111760000D01*
X121920000Y-106680000D02*
X120795000Y-107805000D01*
%TO.N,Net-(D32-K)*%
X124460000Y-106680000D02*
X124460000Y-109220000D01*
D31*
%TO.N,Net-(C12-Pad1)*%
X12700000Y-20400000D02*
X12700000Y-25400000D01*
X17780000Y-12700000D02*
X17780000Y-15160000D01*
X17780000Y-15160000D02*
X17860000Y-15240000D01*
X17860000Y-15240000D02*
X12700000Y-20400000D01*
D29*
%TO.N,Net-(D17-A)*%
X101600000Y-17780000D02*
X104140000Y-15240000D01*
%TO.N,Net-(D3-A)*%
X137160000Y-40640000D02*
X134620000Y-38100000D01*
%TO.N,Net-(D12-K)*%
X132080000Y-25400000D02*
X132080000Y-20320000D01*
%TO.N,Net-(D35-K)*%
X24130000Y-85090000D02*
X24130000Y-107990000D01*
X22860000Y-83820000D02*
X24130000Y-85090000D01*
D30*
X12700000Y-63500000D02*
X22860000Y-53340000D01*
D29*
X24130000Y-107990000D02*
X25400000Y-109260000D01*
D31*
%TO.N,Net-(C12-Pad2)*%
X27940000Y-20320000D02*
X27940000Y-25400000D01*
X22860000Y-15240000D02*
X27940000Y-20320000D01*
X22860000Y-15240000D02*
X20320000Y-12700000D01*
D32*
%TO.N,/ClockGen/CLK1*%
X81280000Y-58420000D02*
X82550000Y-59690000D01*
X114300000Y-52630501D02*
X114300000Y-55880000D01*
X81280000Y-55880000D02*
X81280000Y-58420000D01*
X81280000Y-55880000D02*
X80110000Y-54710000D01*
X114300000Y-30420500D02*
X114300000Y-33020000D01*
X82550000Y-59690000D02*
X82550000Y-80010000D01*
X83820000Y-83820000D02*
X83820000Y-81280000D01*
X83820000Y-81280000D02*
X82550000Y-80010000D01*
X80110000Y-52705000D02*
X80110000Y-29110000D01*
X80110000Y-29110000D02*
X81280000Y-27940000D01*
X80110000Y-54710000D02*
X80110000Y-52705000D01*
%TO.N,/ClockGen/CLK2*%
X116840000Y-29571000D02*
X116840000Y-33020000D01*
X86360000Y-81280000D02*
X85090000Y-80010000D01*
X85090000Y-59690000D02*
X85090000Y-80010000D01*
X83820000Y-55880000D02*
X82650000Y-54710000D01*
X82650000Y-29110000D02*
X83820000Y-27940000D01*
X83820000Y-58420000D02*
X85090000Y-59690000D01*
X83820000Y-55880000D02*
X83820000Y-58420000D01*
X86360000Y-83820000D02*
X86360000Y-81280000D01*
X82650000Y-54710000D02*
X82650000Y-51435000D01*
X116840000Y-51435000D02*
X116840000Y-55880000D01*
X82650000Y-51435000D02*
X82650000Y-29110000D01*
D29*
%TO.N,Net-(D13-K)*%
X134620000Y-25400000D02*
X134620000Y-20320000D01*
D31*
%TO.N,ROM_P1*%
X52070000Y-110490000D02*
X55880000Y-114300000D01*
X55880000Y-114300000D02*
X66040000Y-114300000D01*
X52070000Y-105410000D02*
X52070000Y-110490000D01*
D29*
%TO.N,Net-(D4-A)*%
X132080000Y-40640000D02*
X132080000Y-38100000D01*
%TO.N,/ProgramMemory/RESET*%
X145905000Y-26525000D02*
X145905000Y-30480000D01*
X144780000Y-25400000D02*
X145905000Y-26525000D01*
X86360000Y-55880000D02*
X89535000Y-59055000D01*
X92710000Y-67310000D02*
X92710000Y-80010000D01*
X120505000Y-47135000D02*
X119380000Y-48260000D01*
X145905000Y-47135000D02*
X145905000Y-30480000D01*
X89535000Y-59055000D02*
X89535000Y-64135000D01*
X89535000Y-64135000D02*
X92710000Y-67310000D01*
X86360000Y-55880000D02*
X87855000Y-54385000D01*
X87855000Y-21815000D02*
X86360000Y-20320000D01*
X92710000Y-80010000D02*
X93980000Y-81280000D01*
X87855000Y-54385000D02*
X87855000Y-21815000D01*
X120505000Y-26525000D02*
X120505000Y-47135000D01*
X119380000Y-25400000D02*
X120505000Y-26525000D01*
X144780000Y-48260000D02*
X145905000Y-47135000D01*
X93980000Y-81280000D02*
X93980000Y-83820000D01*
%TO.N,/ProgramMemory/D0*%
X53340000Y-83820000D02*
X53340000Y-70787853D01*
X68580000Y-27940000D02*
X68580000Y-33020000D01*
X54835000Y-59465000D02*
X58420000Y-55880000D01*
X54835000Y-69292853D02*
X54835000Y-59465000D01*
X68580000Y-38882147D02*
X69625000Y-39927147D01*
X53340000Y-70787853D02*
X54835000Y-69292853D01*
X69625000Y-39927147D02*
X69625000Y-44675000D01*
X69625000Y-44675000D02*
X58420000Y-55880000D01*
X68580000Y-33020000D02*
X68580000Y-38882147D01*
%TO.N,/ProgramMemory/D1*%
X72165000Y-39927147D02*
X72165000Y-44675000D01*
X71120000Y-34925000D02*
X71120000Y-38882147D01*
X56330000Y-83370000D02*
X56330000Y-70670000D01*
X57375000Y-59465000D02*
X60960000Y-55880000D01*
X60960000Y-57929500D02*
X60960000Y-55880000D01*
X55880000Y-83820000D02*
X56330000Y-83370000D01*
X104140000Y-34925000D02*
X104140000Y-33020000D01*
X104140000Y-57785000D02*
X104140000Y-55880000D01*
X72165000Y-44675000D02*
X60960000Y-55880000D01*
X71120000Y-27940000D02*
X71120000Y-34925000D01*
X71120000Y-38882147D02*
X72165000Y-39927147D01*
X56330000Y-70670000D02*
X57375000Y-69625000D01*
X57375000Y-69625000D02*
X57375000Y-59465000D01*
%TO.N,/ProgramMemory/D2*%
X73660000Y-27940000D02*
X74705000Y-28985000D01*
X74705000Y-44675000D02*
X63500000Y-55880000D01*
X106680000Y-58509500D02*
X106680000Y-55880000D01*
X59915000Y-71715000D02*
X59915000Y-59999805D01*
X58420000Y-83820000D02*
X58420000Y-73210000D01*
X58420000Y-73210000D02*
X59915000Y-71715000D01*
X74705000Y-28985000D02*
X74705000Y-44675000D01*
X59915000Y-59999805D02*
X63500000Y-56414805D01*
X106680000Y-35649500D02*
X106680000Y-33020000D01*
X63500000Y-56414805D02*
X63500000Y-55880000D01*
X63500000Y-58509500D02*
X63500000Y-55880000D01*
%TO.N,/ProgramMemory/D3*%
X109220000Y-36374000D02*
X109220000Y-33020000D01*
X77245000Y-28985000D02*
X77245000Y-44675000D01*
X62230000Y-60804805D02*
X66040000Y-56994805D01*
X66040000Y-56994805D02*
X66040000Y-55880000D01*
X77245000Y-44675000D02*
X66040000Y-55880000D01*
X66040000Y-59234000D02*
X66040000Y-55880000D01*
X62230000Y-71756396D02*
X62230000Y-60804805D01*
X76200000Y-27940000D02*
X77245000Y-28985000D01*
X60960000Y-73026396D02*
X62230000Y-71756396D01*
X60960000Y-83820000D02*
X60960000Y-73026396D01*
X109220000Y-59234000D02*
X109220000Y-55880000D01*
%TO.N,/ProgramMemory/SYNC*%
X85090000Y-28930000D02*
X85090000Y-49530000D01*
X119380000Y-28575000D02*
X119380000Y-33020000D01*
X119380000Y-50165000D02*
X119380000Y-55880000D01*
X78740000Y-49530000D02*
X78740000Y-40640000D01*
X88900000Y-81280000D02*
X87630000Y-80010000D01*
X86080000Y-27940000D02*
X85090000Y-28930000D01*
X88900000Y-83820000D02*
X88900000Y-81280000D01*
X85090000Y-58420000D02*
X87630000Y-60960000D01*
X86360000Y-27940000D02*
X86080000Y-27940000D01*
X87630000Y-60960000D02*
X87630000Y-80010000D01*
X85090000Y-49530000D02*
X85090000Y-58420000D01*
%TO.N,ROM_A12*%
X138430000Y-116959500D02*
X138375000Y-116904500D01*
X138375000Y-116904500D02*
X138375000Y-72335000D01*
X138375000Y-72335000D02*
X137160000Y-71120000D01*
X137160000Y-71120000D02*
X137160000Y-68580000D01*
%TO.N,A15*%
X146195000Y-95395000D02*
X146195000Y-79865000D01*
X148445000Y-77615000D02*
X147320000Y-78740000D01*
X147320000Y-96520000D02*
X146195000Y-95395000D01*
X147320000Y-71120000D02*
X148445000Y-72245000D01*
X146195000Y-79865000D02*
X147320000Y-78740000D01*
X148445000Y-72245000D02*
X148445000Y-77615000D01*
X147320000Y-68580000D02*
X147320000Y-71120000D01*
%TO.N,A14*%
X149860000Y-111760000D02*
X151130000Y-110490000D01*
X150985000Y-92855000D02*
X149860000Y-93980000D01*
X149860000Y-71120000D02*
X150985000Y-72245000D01*
X151130000Y-110490000D02*
X151130000Y-95250000D01*
X150985000Y-72245000D02*
X150985000Y-92855000D01*
X149860000Y-68580000D02*
X149860000Y-71120000D01*
X151130000Y-95250000D02*
X149860000Y-93980000D01*
%TO.N,A13*%
X152400000Y-68580000D02*
X152400000Y-71069032D01*
X154940000Y-78740000D02*
X153815000Y-79865000D01*
X153764032Y-77564032D02*
X154940000Y-78740000D01*
X153764032Y-72535000D02*
X153764032Y-77564032D01*
X152400000Y-71069032D02*
X152349032Y-71120000D01*
X153815000Y-94758604D02*
X154940000Y-95883604D01*
X153815000Y-79865000D02*
X153815000Y-94758604D01*
X152349032Y-71120000D02*
X153764032Y-72535000D01*
X154940000Y-95883604D02*
X154940000Y-96520000D01*
%TO.N,~{OE}*%
X165100000Y-78740000D02*
X163830000Y-80010000D01*
X163830000Y-80010000D02*
X163830000Y-86360000D01*
X163830000Y-86360000D02*
X163830000Y-94613604D01*
X81280000Y-99060000D02*
X81280000Y-91440000D01*
X119380000Y-73660000D02*
X115570000Y-77470000D01*
X115570000Y-77470000D02*
X115570000Y-90424000D01*
X163830000Y-94613604D02*
X165100000Y-95883604D01*
X165100000Y-95883604D02*
X165100000Y-96520000D01*
%TO.N,A12*%
X152400000Y-89535000D02*
X152400000Y-93980000D01*
X156210000Y-79373604D02*
X155575000Y-80008604D01*
X156210000Y-73026396D02*
X154889032Y-71705428D01*
X155575000Y-80008604D02*
X155575000Y-89535000D01*
X153525000Y-110635000D02*
X153525000Y-95105000D01*
X153525000Y-95105000D02*
X152400000Y-93980000D01*
X154940000Y-68580000D02*
X154940000Y-71069032D01*
X154940000Y-71069032D02*
X154889032Y-71120000D01*
X154889032Y-71705428D02*
X154889032Y-71120000D01*
X152400000Y-111760000D02*
X153525000Y-110635000D01*
X156210000Y-73026396D02*
X156210000Y-79373604D01*
%TO.N,A11*%
X161435000Y-94445991D02*
X161435000Y-79865000D01*
X162560000Y-96520000D02*
X162560000Y-95570991D01*
X166225000Y-75075000D02*
X166225000Y-68114009D01*
X162560000Y-95570991D02*
X161435000Y-94445991D01*
X166225000Y-68114009D02*
X165420991Y-67310000D01*
X162560000Y-78740000D02*
X166225000Y-75075000D01*
X165420991Y-67310000D02*
X158750000Y-67310000D01*
X157480000Y-68580000D02*
X157480000Y-71120000D01*
X161435000Y-79865000D02*
X162560000Y-78740000D01*
X158750000Y-67310000D02*
X157480000Y-68580000D01*
%TO.N,A10*%
X160020000Y-70994516D02*
X159894516Y-71120000D01*
X158750000Y-72264516D02*
X158750000Y-77470000D01*
X167640000Y-78740000D02*
X166515000Y-79865000D01*
X159894516Y-71120000D02*
X158750000Y-72264516D01*
X166515000Y-94758604D02*
X167640000Y-95883604D01*
X166515000Y-79865000D02*
X166515000Y-94758604D01*
X167640000Y-95883604D02*
X167640000Y-96520000D01*
X160020000Y-68580000D02*
X160020000Y-70994516D01*
%TO.N,A9*%
X158895000Y-94445991D02*
X160020000Y-95570991D01*
X160020000Y-78740000D02*
X158895000Y-79865000D01*
X162509032Y-71120000D02*
X161384032Y-72245000D01*
X161384032Y-72245000D02*
X161384032Y-77375968D01*
X161384032Y-77375968D02*
X160020000Y-78740000D01*
X160020000Y-95570991D02*
X160020000Y-96520000D01*
X162560000Y-68580000D02*
X162560000Y-71069032D01*
X158895000Y-79865000D02*
X158895000Y-94445991D01*
X162560000Y-71069032D02*
X162509032Y-71120000D01*
%TO.N,A8*%
X156355000Y-79865000D02*
X156355000Y-94445991D01*
X157480000Y-76289500D02*
X157480000Y-78740000D01*
X165049032Y-71120000D02*
X163634032Y-72535000D01*
X163634032Y-75125968D02*
X162560000Y-76200000D01*
X163634032Y-72535000D02*
X163634032Y-75125968D01*
X165100000Y-71069032D02*
X165049032Y-71120000D01*
X165100000Y-68580000D02*
X165100000Y-71069032D01*
X157480000Y-95570991D02*
X157480000Y-96520000D01*
X157480000Y-78740000D02*
X156355000Y-79865000D01*
X156355000Y-94445991D02*
X157480000Y-95570991D01*
%TO.N,Net-(D17-K)*%
X109220000Y-25400000D02*
X109220000Y-20320000D01*
%TO.N,~{WE_OPR}*%
X129540000Y-93980000D02*
X129540000Y-88265000D01*
%TO.N,Net-(D19-K)*%
X139700000Y-10160000D02*
X142240000Y-10160000D01*
X137160000Y-7620000D02*
X139700000Y-10160000D01*
%TO.N,C0*%
X128270000Y-85090000D02*
X128270000Y-77470000D01*
X74930000Y-88900000D02*
X74930000Y-73660000D01*
X76200000Y-72390000D02*
X76200000Y-68580000D01*
X74930000Y-73660000D02*
X76200000Y-72390000D01*
X73660000Y-99060000D02*
X73660000Y-90170000D01*
X129540000Y-86360000D02*
X128270000Y-85090000D01*
X73660000Y-90170000D02*
X74930000Y-88900000D01*
%TO.N,C1*%
X72615000Y-88040000D02*
X71120000Y-89535000D01*
X125730000Y-85090000D02*
X125730000Y-78105000D01*
X73660000Y-68580000D02*
X73660000Y-72390000D01*
X73660000Y-72390000D02*
X72615000Y-73435000D01*
X71120000Y-89535000D02*
X71120000Y-97155000D01*
X72615000Y-73435000D02*
X72615000Y-88040000D01*
X127000000Y-86360000D02*
X125730000Y-85090000D01*
%TO.N,C2*%
X121920000Y-86360000D02*
X120505000Y-84945000D01*
X120505000Y-79865000D02*
X119380000Y-78740000D01*
X69850000Y-69850000D02*
X71120000Y-68580000D01*
X69850000Y-95705500D02*
X69850000Y-69850000D01*
X120505000Y-84945000D02*
X120505000Y-79865000D01*
%TO.N,C3*%
X118255000Y-80155000D02*
X117475000Y-79375000D01*
X67310000Y-96430500D02*
X67310000Y-69850000D01*
X118255000Y-85235000D02*
X118255000Y-80155000D01*
X119380000Y-86360000D02*
X118255000Y-85235000D01*
X67310000Y-69850000D02*
X68580000Y-68580000D01*
%TO.N,STP*%
X153525000Y-42690000D02*
X152400000Y-43815000D01*
X77470000Y-46355000D02*
X71120000Y-52705000D01*
X153525000Y-8745000D02*
X153525000Y-42690000D01*
X71120000Y-52705000D02*
X71120000Y-55880000D01*
X152400000Y-7620000D02*
X153525000Y-8745000D01*
%TO.N,STPA*%
X92710000Y-6350000D02*
X93980000Y-5080000D01*
X92710000Y-60960000D02*
X92710000Y-6350000D01*
X68580000Y-55880000D02*
X68580000Y-60960000D01*
X168910000Y-7620000D02*
X168910000Y-3175000D01*
%TO.N,Net-(D29-K)*%
X127000000Y-106680000D02*
X125585000Y-108095000D01*
X125585000Y-115715000D02*
X124460000Y-116840000D01*
X116840000Y-111760000D02*
X121920000Y-116840000D01*
X116840000Y-106680000D02*
X116840000Y-111760000D01*
X125585000Y-108095000D02*
X125585000Y-115715000D01*
D30*
%TO.N,Net-(D36-A)*%
X12700000Y-93980000D02*
X12700000Y-91151572D01*
X12700000Y-91151572D02*
X22860000Y-80991572D01*
X22860000Y-80991572D02*
X22860000Y-76200000D01*
D29*
%TO.N,INTA*%
X76200000Y-55880000D02*
X76200000Y-62230000D01*
X91440000Y-62230000D02*
X91440000Y-12700000D01*
%TO.N,Net-(C10-Pad1)*%
X31750000Y-29290000D02*
X31750000Y-7620000D01*
X27305000Y-6985000D02*
X25400000Y-5080000D01*
X31750000Y-7620000D02*
X31115000Y-6985000D01*
X35480000Y-33020000D02*
X31750000Y-29290000D01*
X31115000Y-6985000D02*
X27305000Y-6985000D01*
%TO.N,Net-(D37-A)*%
X22860000Y-91440000D02*
X22860000Y-93980000D01*
%TO.N,/ProgramMemory/CMROM0*%
X56388000Y-45212000D02*
X60960000Y-40640000D01*
X51488183Y-64640636D02*
X51488183Y-50111817D01*
X163685000Y-29355000D02*
X163685000Y-42055000D01*
X167640000Y-25400000D02*
X163685000Y-29355000D01*
X62865000Y-38735000D02*
X62865000Y-18415000D01*
X51488183Y-50111817D02*
X56388000Y-45212000D01*
X60960000Y-40640000D02*
X62865000Y-38735000D01*
X163685000Y-42055000D02*
X163068000Y-42672000D01*
X81280000Y-18270500D02*
X81280000Y-20320000D01*
%TO.N,IO1*%
X54610000Y-73660000D02*
X54610000Y-108585000D01*
X55880000Y-72390000D02*
X54610000Y-73660000D01*
X55880000Y-68580000D02*
X55880000Y-72390000D01*
%TO.N,IO2*%
X58420000Y-72390000D02*
X57150000Y-73660000D01*
X57150000Y-73660000D02*
X57150000Y-107950000D01*
X58420000Y-68580000D02*
X58420000Y-72390000D01*
%TO.N,Net-(D14-K)*%
X101600000Y-25400000D02*
X100330000Y-24130000D01*
X121285000Y-22225000D02*
X119380000Y-20320000D01*
X127635000Y-59055000D02*
X122555000Y-59055000D01*
X100330000Y-24130000D02*
X100330000Y-16510000D01*
X122555000Y-59055000D02*
X121285000Y-57785000D01*
X119380000Y-20320000D02*
X116840000Y-20320000D01*
X121285000Y-57785000D02*
X121285000Y-22225000D01*
X129540000Y-60960000D02*
X127635000Y-59055000D01*
%TO.N,Net-(D15-K)*%
X104140000Y-25400000D02*
X104140000Y-19050000D01*
%TO.N,Net-(D16-K)*%
X106680000Y-25400000D02*
X106680000Y-20320000D01*
%TO.N,Net-(D18-A)*%
X177800000Y-66040000D02*
X177800000Y-60960000D01*
X175260000Y-68580000D02*
X177800000Y-66040000D01*
%TO.N,Net-(U5-TEST)*%
X87405000Y-39595000D02*
X87405000Y-23905000D01*
X157480000Y-20320000D02*
X158750000Y-21590000D01*
X83820000Y-24765000D02*
X83820000Y-20320000D01*
X86360000Y-40640000D02*
X87405000Y-39595000D01*
X87405000Y-23905000D02*
X83820000Y-20320000D01*
X158750000Y-21590000D02*
X158750000Y-29210000D01*
%TO.N,IO3*%
X60960000Y-72390000D02*
X59690000Y-73660000D01*
X60960000Y-68580000D02*
X60960000Y-72390000D01*
X59690000Y-73660000D02*
X59690000Y-107315000D01*
%TO.N,IO4*%
X63500000Y-68580000D02*
X63500000Y-72390000D01*
X63500000Y-72390000D02*
X62230000Y-73660000D01*
X62230000Y-73660000D02*
X62230000Y-106680000D01*
%TO.N,Net-(RN5-R1)*%
X172720000Y-76200000D02*
X171450000Y-77470000D01*
X172720000Y-95883604D02*
X172720000Y-96520000D01*
X171450000Y-77470000D02*
X171450000Y-94613604D01*
X171450000Y-94613604D02*
X172720000Y-95883604D01*
%TO.N,Net-(RN5-R2)*%
X175260000Y-95570991D02*
X175260000Y-96520000D01*
X173845000Y-77615000D02*
X173845000Y-94155991D01*
X175260000Y-76200000D02*
X173845000Y-77615000D01*
X173845000Y-94155991D02*
X175260000Y-95570991D01*
%TO.N,Net-(RN5-R3)*%
X176675000Y-95395000D02*
X177800000Y-96520000D01*
X176675000Y-77325000D02*
X176675000Y-95395000D01*
X177800000Y-76200000D02*
X176675000Y-77325000D01*
%TO.N,Net-(RN5-R4)*%
X179070000Y-78129009D02*
X179070000Y-95250000D01*
X180340000Y-76859009D02*
X179070000Y-78129009D01*
X180340000Y-76200000D02*
X180340000Y-76859009D01*
X179070000Y-95250000D02*
X180340000Y-96520000D01*
%TO.N,Net-(RN6-R1)*%
X173990000Y-74930000D02*
X172720000Y-73660000D01*
X172720000Y-77790991D02*
X173990000Y-76520991D01*
X173990000Y-76520991D02*
X173990000Y-74930000D01*
X172720000Y-78740000D02*
X172720000Y-77790991D01*
%TO.N,Net-(RN6-R2)*%
X175260000Y-78740000D02*
X175260000Y-78080991D01*
X176530000Y-74930000D02*
X175260000Y-73660000D01*
X176530000Y-76810991D02*
X176530000Y-74930000D01*
X175260000Y-78080991D02*
X176530000Y-76810991D01*
%TO.N,Net-(RN6-R3)*%
X178925000Y-77615000D02*
X178925000Y-74785000D01*
X178925000Y-74785000D02*
X177800000Y-73660000D01*
X177800000Y-78740000D02*
X178925000Y-77615000D01*
%TO.N,Net-(RN6-R4)*%
X181465000Y-74785000D02*
X180340000Y-73660000D01*
X181465000Y-77615000D02*
X181465000Y-74785000D01*
X180340000Y-78740000D02*
X181465000Y-77615000D01*
%TO.N,/ProgramMemory/CMROM1*%
X52705000Y-51435000D02*
X59436000Y-44704000D01*
X156065000Y-26525000D02*
X156065000Y-41765000D01*
X52705000Y-63500000D02*
X52705000Y-51435000D01*
X154940000Y-25400000D02*
X156065000Y-26525000D01*
X59436000Y-44704000D02*
X63500000Y-40640000D01*
X142240000Y-68580000D02*
X142240000Y-65980500D01*
X156065000Y-41765000D02*
X156210000Y-41910000D01*
%TO.N,INT*%
X73655000Y-12700000D02*
X73655000Y-17140000D01*
X73655000Y-17140000D02*
X73660000Y-17145000D01*
X53975000Y-52070000D02*
X64770000Y-41275000D01*
X73660000Y-55880000D02*
X73660000Y-62230000D01*
X53975000Y-62230000D02*
X53975000Y-52070000D01*
X64770000Y-17145000D02*
X64770000Y-41275000D01*
%TO.N,Net-(U1-Pad1)*%
X83820000Y-12700000D02*
X83820000Y-17780000D01*
%TO.N,Net-(R6-Pad1)*%
X172720000Y-40640000D02*
X172720000Y-45180000D01*
X172720000Y-45180000D02*
X171600000Y-46300000D01*
%TO.N,Net-(U15-EP)*%
X35560000Y-27940000D02*
X35560000Y-25400000D01*
X50800000Y-25400000D02*
X50800000Y-17780000D01*
%TO.N,Net-(R3-Pad1)*%
X160020000Y-40640000D02*
X160020000Y-45180000D01*
X160020000Y-45180000D02*
X158900000Y-46300000D01*
%TO.N,Net-(R8-Pad2)*%
X167640000Y-35560000D02*
X165100000Y-33020000D01*
X167640000Y-63500000D02*
X167640000Y-35560000D01*
X170180000Y-66040000D02*
X167640000Y-63500000D01*
%TO.N,OPR0*%
X175260000Y-94929009D02*
X176530000Y-96199009D01*
X175260000Y-93980000D02*
X175260000Y-94929009D01*
X96520000Y-99060000D02*
X96520000Y-94615000D01*
X176530000Y-96199009D02*
X176530000Y-102870000D01*
%TO.N,OPR1*%
X177800000Y-94929009D02*
X177800000Y-93980000D01*
X93980000Y-99060000D02*
X93980000Y-93890500D01*
X179070000Y-96199009D02*
X179070000Y-101600000D01*
X177800000Y-94929009D02*
X179070000Y-96199009D01*
X132080000Y-97155500D02*
X132080000Y-99060000D01*
%TO.N,OPR2*%
X134620000Y-96431000D02*
X134620000Y-99060000D01*
X181610000Y-95250000D02*
X181610000Y-100330000D01*
X180340000Y-93980000D02*
X181610000Y-95250000D01*
X91440000Y-99060000D02*
X91440000Y-93166000D01*
%TO.N,OPR3*%
X137160000Y-95706500D02*
X137160000Y-99060000D01*
X184005000Y-97935000D02*
X182880000Y-99060000D01*
X88900000Y-99060000D02*
X88900000Y-92441500D01*
X184005000Y-79865000D02*
X184005000Y-97935000D01*
X182880000Y-78740000D02*
X184005000Y-79865000D01*
%TO.N,OPA0*%
X73660000Y-88900000D02*
X72390000Y-90170000D01*
X91440000Y-104775000D02*
X91440000Y-114300000D01*
X119380000Y-102870000D02*
X119380000Y-99060000D01*
X72390000Y-90170000D02*
X72390000Y-100330000D01*
X73660000Y-83820000D02*
X73660000Y-88900000D01*
X175260000Y-111760000D02*
X175260000Y-107950000D01*
X69850000Y-104775000D02*
X69850000Y-102870000D01*
X72390000Y-100330000D02*
X69850000Y-102870000D01*
%TO.N,OPA1*%
X93980000Y-104140000D02*
X93980000Y-114300000D01*
X121920000Y-102145500D02*
X121920000Y-99060000D01*
X177800000Y-111760000D02*
X177800000Y-106680000D01*
X95250000Y-90424000D02*
X96012000Y-89662000D01*
X95250000Y-102870000D02*
X95250000Y-90424000D01*
X95250000Y-102870000D02*
X93980000Y-104140000D01*
%TO.N,OPA2*%
X124460000Y-101421000D02*
X124460000Y-99060000D01*
X180340000Y-111760000D02*
X180340000Y-105410000D01*
X96520000Y-103505000D02*
X96520000Y-114300000D01*
X97790000Y-88989500D02*
X97790000Y-102235000D01*
X97790000Y-102235000D02*
X96520000Y-103505000D01*
%TO.N,OPA3*%
X182155000Y-97245000D02*
X182880000Y-96520000D01*
X99060000Y-102870000D02*
X99060000Y-99060000D01*
X182155000Y-99360305D02*
X182155000Y-97245000D01*
X182880000Y-104140000D02*
X182880000Y-100085305D01*
X182880000Y-100085305D02*
X182155000Y-99360305D01*
X99060000Y-99060000D02*
X99060000Y-88265000D01*
%TO.N,Net-(R11-Pad1)*%
X184300000Y-46300000D02*
X185420000Y-45180000D01*
X185420000Y-45180000D02*
X185420000Y-40640000D01*
%TO.N,A0*%
X173845000Y-95105000D02*
X172720000Y-93980000D01*
X88900000Y-104140000D02*
X92710000Y-100330000D01*
X172720000Y-111760000D02*
X173845000Y-110635000D01*
X96520000Y-80010000D02*
X96520000Y-68580000D01*
X92710000Y-100330000D02*
X92710000Y-91440000D01*
X97565000Y-86585000D02*
X97565000Y-81055000D01*
X88900000Y-114300000D02*
X88900000Y-104140000D01*
X173845000Y-110635000D02*
X173845000Y-95105000D01*
X92710000Y-91440000D02*
X97565000Y-86585000D01*
X97565000Y-81055000D02*
X96520000Y-80010000D01*
%TO.N,A1*%
X95250000Y-81280000D02*
X93980000Y-80010000D01*
X86360000Y-104140000D02*
X90170000Y-100330000D01*
X171305000Y-95105000D02*
X170180000Y-93980000D01*
X170180000Y-111760000D02*
X170180000Y-113809500D01*
X95250000Y-86360000D02*
X95250000Y-81280000D01*
X171305000Y-110635000D02*
X171305000Y-95105000D01*
X90170000Y-91440000D02*
X95250000Y-86360000D01*
X170180000Y-111760000D02*
X171305000Y-110635000D01*
X90170000Y-100330000D02*
X90170000Y-91440000D01*
X86360000Y-114300000D02*
X86360000Y-104140000D01*
X93980000Y-80010000D02*
X93980000Y-68580000D01*
%TO.N,A2*%
X168765000Y-110635000D02*
X168765000Y-95105000D01*
X168765000Y-95105000D02*
X167640000Y-93980000D01*
X91440000Y-80010000D02*
X91440000Y-68580000D01*
X167640000Y-111760000D02*
X167640000Y-114300000D01*
X167640000Y-111760000D02*
X168765000Y-110635000D01*
X83820000Y-104140000D02*
X87630000Y-100330000D01*
X92485000Y-86585000D02*
X92485000Y-81055000D01*
X92485000Y-81055000D02*
X91440000Y-80010000D01*
X83820000Y-114300000D02*
X83820000Y-104140000D01*
X87630000Y-91440000D02*
X92485000Y-86585000D01*
X87630000Y-100330000D02*
X87630000Y-91440000D01*
%TO.N,A3*%
X166225000Y-95105000D02*
X165100000Y-93980000D01*
X81280000Y-114300000D02*
X81280000Y-104140000D01*
X88900000Y-80010000D02*
X88900000Y-68580000D01*
X81280000Y-104140000D02*
X85090000Y-100330000D01*
X166225000Y-110635000D02*
X166225000Y-95105000D01*
X165100000Y-111760000D02*
X166225000Y-110635000D01*
X85090000Y-100330000D02*
X85090000Y-91440000D01*
X165100000Y-111760000D02*
X165100000Y-114709500D01*
X85090000Y-91440000D02*
X90170000Y-86360000D01*
X90170000Y-81280000D02*
X88900000Y-80010000D01*
X90170000Y-86360000D02*
X90170000Y-81280000D01*
%TO.N,A4*%
X163685000Y-110635000D02*
X163685000Y-95105000D01*
X86360000Y-79376396D02*
X86360000Y-68580000D01*
X163685000Y-95105000D02*
X162560000Y-93980000D01*
X78740000Y-114300000D02*
X78740000Y-104140000D01*
X78740000Y-104140000D02*
X82550000Y-100330000D01*
X82550000Y-91440000D02*
X87630000Y-86360000D01*
X162560000Y-111760000D02*
X163685000Y-110635000D01*
X162560000Y-111760000D02*
X162560000Y-115159500D01*
X87630000Y-80646396D02*
X86360000Y-79376396D01*
X82550000Y-100330000D02*
X82550000Y-91440000D01*
X87630000Y-86360000D02*
X87630000Y-80646396D01*
%TO.N,A5*%
X160020000Y-111760000D02*
X160020000Y-115609500D01*
X80010000Y-91440000D02*
X85090000Y-86360000D01*
X76200000Y-114300000D02*
X76200000Y-104140000D01*
X161145000Y-110635000D02*
X160020000Y-111760000D01*
X76200000Y-104140000D02*
X80010000Y-100330000D01*
X85090000Y-81280000D02*
X83820000Y-80010000D01*
X83820000Y-80010000D02*
X83820000Y-68580000D01*
X161145000Y-95105000D02*
X161145000Y-110635000D01*
X80010000Y-100330000D02*
X80010000Y-91440000D01*
X85090000Y-86360000D02*
X85090000Y-81280000D01*
X160020000Y-93980000D02*
X161145000Y-95105000D01*
%TO.N,A6*%
X81280000Y-72390000D02*
X81280000Y-68580000D01*
X157480000Y-111760000D02*
X158605000Y-110635000D01*
X158605000Y-110635000D02*
X158605000Y-95105000D01*
X80010000Y-88900000D02*
X80010000Y-73660000D01*
X73660000Y-104140000D02*
X77470000Y-100330000D01*
X73660000Y-114300000D02*
X73660000Y-104140000D01*
X77470000Y-100330000D02*
X77470000Y-91440000D01*
X157480000Y-111760000D02*
X157480000Y-116059500D01*
X77470000Y-91440000D02*
X80010000Y-88900000D01*
X158605000Y-95105000D02*
X157480000Y-93980000D01*
X80010000Y-73660000D02*
X81280000Y-72390000D01*
%TO.N,A7*%
X74930000Y-91440000D02*
X77470000Y-88900000D01*
X71120000Y-114300000D02*
X71120000Y-104140000D01*
X71120000Y-104140000D02*
X74930000Y-100330000D01*
X77470000Y-73660000D02*
X78740000Y-72390000D01*
X74930000Y-100330000D02*
X74930000Y-91440000D01*
X156065000Y-95105000D02*
X154940000Y-93980000D01*
X154940000Y-111760000D02*
X156065000Y-110635000D01*
X78740000Y-72390000D02*
X78740000Y-68580000D01*
X77470000Y-88900000D02*
X77470000Y-73660000D01*
X154940000Y-111760000D02*
X154940000Y-116509500D01*
X156065000Y-110635000D02*
X156065000Y-95105000D01*
%TO.N,CS~{ROM}RAM*%
X149860000Y-96520000D02*
X148735000Y-95395000D01*
X130755000Y-91385000D02*
X130755000Y-77415000D01*
X148735000Y-95395000D02*
X148735000Y-79865000D01*
X148735000Y-79865000D02*
X149860000Y-78740000D01*
X130755000Y-77415000D02*
X127000000Y-73660000D01*
X86360000Y-99060000D02*
X86360000Y-91440000D01*
X130810000Y-91440000D02*
X130755000Y-91385000D01*
%TO.N,Net-(R21-Pad2)*%
X38100000Y-12700000D02*
X40640000Y-12700000D01*
X36830000Y-19050000D02*
X36830000Y-13970000D01*
X36830000Y-13970000D02*
X38100000Y-12700000D01*
%TO.N,Net-(R39-Pad1)*%
X137160000Y-58420000D02*
X137160000Y-60960000D01*
X154169833Y-57404000D02*
X151384000Y-57404000D01*
X161145000Y-50428833D02*
X154169833Y-57404000D01*
X161145000Y-26525000D02*
X161145000Y-50428833D01*
X160020000Y-25400000D02*
X161145000Y-26525000D01*
%TO.N,Net-(U22-CM)*%
X106680000Y-81680500D02*
X106680000Y-69850000D01*
X106680000Y-69850000D02*
X107315000Y-69215000D01*
%TO.N,Net-(U10-CM)*%
X140825000Y-47135000D02*
X139700000Y-48260000D01*
X67535000Y-39595000D02*
X68580000Y-40640000D01*
X68580000Y-20320000D02*
X67535000Y-21365000D01*
X140825000Y-26525000D02*
X140825000Y-47135000D01*
X115425000Y-47135000D02*
X114300000Y-48260000D01*
X114300000Y-25400000D02*
X115425000Y-26525000D01*
X67535000Y-21365000D02*
X67535000Y-39595000D01*
X139700000Y-25400000D02*
X140825000Y-26525000D01*
X114300000Y-23495000D02*
X114300000Y-25400000D01*
X115425000Y-26525000D02*
X115425000Y-47135000D01*
X139700000Y-25400000D02*
X139700000Y-23495000D01*
%TO.N,Net-(U15-QC)*%
X48260000Y-12700000D02*
X48260000Y-15240000D01*
X48260000Y-15240000D02*
X45720000Y-17780000D01*
X50800000Y-10160000D02*
X48260000Y-12700000D01*
X50800000Y-5080000D02*
X50800000Y-10160000D01*
%TO.N,Net-(U12-Pad6)*%
X27940000Y-12700000D02*
X27940000Y-8165500D01*
%TO.N,Net-(U12-Pad12)*%
X44305000Y-6205000D02*
X47135000Y-6205000D01*
X43180000Y-5080000D02*
X44305000Y-6205000D01*
X47135000Y-6205000D02*
X48260000Y-5080000D01*
%TO.N,Net-(U15-QB)*%
X45720000Y-8679500D02*
X45720000Y-12700000D01*
X45720000Y-15240000D02*
X43180000Y-17780000D01*
X45720000Y-12700000D02*
X45720000Y-15240000D01*
%TO.N,Net-(U15-CLOCK)*%
X43180000Y-12700000D02*
X42055000Y-13825000D01*
X42055000Y-13825000D02*
X42055000Y-21445000D01*
X42055000Y-21445000D02*
X38100000Y-25400000D01*
%TO.N,Net-(U15-LOAD)*%
X50800000Y-15240000D02*
X53340000Y-17780000D01*
X50800000Y-12700000D02*
X50800000Y-15240000D01*
%TO.N,Net-(U22-FL)*%
X114554000Y-91694000D02*
X114554000Y-74930000D01*
X99060000Y-68580000D02*
X99060000Y-74930000D01*
X116840000Y-93980000D02*
X114554000Y-91694000D01*
X127000000Y-76655500D02*
X127000000Y-81280000D01*
%TO.N,Net-(U19-Pad2)*%
X116840000Y-81280000D02*
X116840000Y-84769009D01*
X118110000Y-92710000D02*
X119380000Y-93980000D01*
X118110000Y-86039009D02*
X118110000Y-92710000D01*
X116840000Y-84769009D02*
X118110000Y-86039009D01*
%TO.N,Net-(U19-Pad4)*%
X125730000Y-85726396D02*
X125730000Y-92710000D01*
X124460000Y-84456396D02*
X125730000Y-85726396D01*
X124460000Y-81280000D02*
X124460000Y-84456396D01*
X125730000Y-92710000D02*
X124460000Y-93980000D01*
%TO.N,Net-(U19-Pad8)*%
X133205000Y-74785000D02*
X132080000Y-73660000D01*
X133205000Y-85235000D02*
X133205000Y-74785000D01*
X132080000Y-86360000D02*
X133205000Y-85235000D01*
%TO.N,Net-(U19-Pad11)*%
X123335000Y-79357000D02*
X123335000Y-85235000D01*
X125585000Y-73297000D02*
X125585000Y-77107000D01*
X125585000Y-77107000D02*
X123335000Y-79357000D01*
X129540000Y-73660000D02*
X128415000Y-72535000D01*
X126347000Y-72535000D02*
X125585000Y-73297000D01*
X123335000Y-85235000D02*
X124460000Y-86360000D01*
X128415000Y-72535000D02*
X126347000Y-72535000D01*
%TO.N,Net-(U21-G2)*%
X120505000Y-85581396D02*
X119380000Y-84456396D01*
X119380000Y-84456396D02*
X119380000Y-81280000D01*
X116840000Y-99060000D02*
X120505000Y-95395000D01*
X120505000Y-95395000D02*
X120505000Y-85581396D01*
X101600000Y-68580000D02*
X101600000Y-80099500D01*
%TO.N,Net-(U21-G1)*%
X112395000Y-104775000D02*
X112395000Y-85725000D01*
X121920000Y-81280000D02*
X121920000Y-73660000D01*
X114300000Y-106680000D02*
X112395000Y-104775000D01*
%TD*%
M02*
